<?xml version="1.0" encoding="UTF-8" standalone="no"?>
<!-- Created with Inkscape (http://www.inkscape.org/) -->

<svg
   xmlns:dc="http://purl.org/dc/elements/1.1/"
   xmlns:cc="http://creativecommons.org/ns#"
   xmlns:rdf="http://www.w3.org/1999/02/22-rdf-syntax-ns#"
   xmlns:svg="http://www.w3.org/2000/svg"
   xmlns="http://www.w3.org/2000/svg"
   xmlns:sodipodi="http://sodipodi.sourceforge.net/DTD/sodipodi-0.dtd"
   xmlns:inkscape="http://www.inkscape.org/namespaces/inkscape"
   id="svg2"
   version="1.1"
   inkscape:version="0.48.0 r9654"
   width="31"
   height="31"
   xml:space="preserve"
   sodipodi:docname="homepage.svg"><metadata
     id="metadata8"><rdf:RDF><cc:Work
         rdf:about=""><dc:format>image/svg+xml</dc:format><dc:type
           rdf:resource="http://purl.org/dc/dcmitype/StillImage" /><dc:title /></cc:Work></rdf:RDF></metadata><defs
     id="defs6"><linearGradient
       id="linearGradient10896"><stop
         style="stop-color:#000000;stop-opacity:1;"
         offset="0"
         id="stop10898" /><stop
         style="stop-color:#000000;stop-opacity:0;"
         offset="1"
         id="stop10900" /></linearGradient><clipPath
       clipPathUnits="userSpaceOnUse"
       id="clipPath664"><path
         d="m 0,2880 2880,0 L 2880,0 0,0 0,2880 z"
         id="path666"
         inkscape:connector-curvature="0" /></clipPath><clipPath
       clipPathUnits="userSpaceOnUse"
       id="clipPath820"><path
         d="m 0,2880 2880,0 L 2880,0 0,0 0,2880 z"
         id="path822"
         inkscape:connector-curvature="0" /></clipPath></defs><sodipodi:namedview
     pagecolor="#878389"
     bordercolor="#666666"
     borderopacity="1"
     objecttolerance="10"
     gridtolerance="10"
     guidetolerance="10"
     inkscape:pageopacity="0"
     inkscape:pageshadow="2"
     inkscape:window-width="990"
     inkscape:window-height="1016"
     id="namedview4"
     showgrid="false"
     inkscape:zoom="1"
     inkscape:cx="-127.9759"
     inkscape:cy="256.30716"
     inkscape:window-x="2339"
     inkscape:window-y="0"
     inkscape:window-maximized="0"
     inkscape:current-layer="g10"
     fit-margin-top="0"
     fit-margin-left="0"
     fit-margin-right="0"
     fit-margin-bottom="0" />

    <g
     id="g10"
     transform="matrix(1.25,0,0,-1.25,-13,52)"><g
       id="g2222"
       transform="matrix(0.33184276,0,0,0.33184276,31.304626,25.37218)"
       style="fill:none;stroke:#ffffff;stroke-opacity:1"
       onclick="parent.home_page()">

       <path
         d="m 0,0 c -4.349,1.933 -10.802,6.912 -20.356,8.623 2.443,2.615 4.293,6.705 6.195,11.551 1.102,2.807 0.913,5.201 0.913,8.609 0,2.518 0.475,6.558 -0.15,8.779 -2.108,7.503 -7.433,9.574 -13.672,9.574 -6.244,0 -11.576,-2.08 -13.679,-9.597 -0.62,-2.214 -0.145,-6.245 -0.145,-8.756 0,-3.416 -0.185,-5.817 0.92,-8.63 1.917,-4.87 3.74,-8.954 6.174,-11.558 -9.478,-1.742 -15.883,-6.685 -20.204,-8.612 -8.941,-3.987 -8.985,-8.352 -8.985,-8.352 l 0,-7.415 72.007,0.009 0,7.406 c 0,0 -0.042,4.38 -9.018,8.369"
         style="fill:#373535;fill-opacity:1;fill-rule:nonzero;stroke:none"
         id="path2228"
         inkscape:connector-curvature="0" />
       </g>
      </g>
  </svg>