<?xml version="1.0" encoding="UTF-8" standalone="no"?>
<!-- Created with Inkscape (http://www.inkscape.org/) -->

<svg
   xmlns:dc="http://purl.org/dc/elements/1.1/"
   xmlns:cc="http://creativecommons.org/ns#"
   xmlns:rdf="http://www.w3.org/1999/02/22-rdf-syntax-ns#"
   xmlns:svg="http://www.w3.org/2000/svg"
   xmlns="http://www.w3.org/2000/svg"
   xmlns:sodipodi="http://sodipodi.sourceforge.net/DTD/sodipodi-0.dtd"
   xmlns:inkscape="http://www.inkscape.org/namespaces/inkscape"
   id="svg2"
   version="1.1"
   inkscape:version="0.48.0 r9654"
   width="31"
   height="31"
   xml:space="preserve"
   sodipodi:docname="wiki.svg"><metadata
     id="metadata8"><rdf:RDF><cc:Work
         rdf:about=""><dc:format>image/svg+xml</dc:format><dc:type
           rdf:resource="http://purl.org/dc/dcmitype/StillImage" /><dc:title /></cc:Work></rdf:RDF></metadata><defs
     id="defs6"><linearGradient
       id="linearGradient10896"><stop
         style="stop-color:#000000;stop-opacity:1;"
         offset="0"
         id="stop10898" /><stop
         style="stop-color:#000000;stop-opacity:0;"
         offset="1"
         id="stop10900" /></linearGradient><clipPath
       clipPathUnits="userSpaceOnUse"
       id="clipPath664"><path
         d="m 0,2880 2880,0 L 2880,0 0,0 0,2880 z"
         id="path666"
         inkscape:connector-curvature="0" /></clipPath><clipPath
       clipPathUnits="userSpaceOnUse"
       id="clipPath820"><path
         d="m 0,2880 2880,0 L 2880,0 0,0 0,2880 z"
         id="path822"
         inkscape:connector-curvature="0" /></clipPath></defs><sodipodi:namedview
     pagecolor="#878389"
     bordercolor="#666666"
     borderopacity="1"
     objecttolerance="10"
     gridtolerance="10"
     guidetolerance="10"
     inkscape:pageopacity="0"
     inkscape:pageshadow="2"
     inkscape:window-width="990"
     inkscape:window-height="1016"
     id="namedview4"
     showgrid="false"
     inkscape:zoom="1"
     inkscape:cx="49.024098"
     inkscape:cy="256.30716"
     inkscape:window-x="2339"
     inkscape:window-y="0"
     inkscape:window-maximized="0"
     inkscape:current-layer="g10"
     width="120px"
     fit-margin-top="0"
     fit-margin-left="0"
     fit-margin-right="0"
     fit-margin-bottom="0" /><g
     id="g10"
     inkscape:groupmode="layer"
     inkscape:label="Pictos 1"
     transform="matrix(1.25,0,0,-1.25,-14.475902,49.515097)"><g
       id="g3576"
       transform="matrix(0.32853611,0,0,0.33187252,-80.741118,0.9417536)"
       style="fill:none;stroke:#ffffff;stroke-opacity:1"><g
         transform="translate(342.81525,72.058131)"
         id="g2896"
         style="fill:none;stroke:#ffffff;stroke-opacity:1"><path
           inkscape:connector-curvature="0"
           id="path2898"
           style="fill:none;stroke:#ffffff;stroke-opacity:1"
           d="M 0,0 -0.003,0 0,0.003 0,0 z m -14.561,0 0,0.002 L -14.559,0 -14.561,0 z M 0,31.252 0,0.006 l -7.281,7.822 -7.28,-7.821 0,31.301 c -7.813,-3.166 -10.742,-10.739 -10.742,-10.739 0,0 -4.136,12.109 -17.984,12.109 -13.848,0 -18.016,-12.109 -18.016,-12.109 l 0,-43.058 c 0,0 5.233,12.162 18.016,12.162 12.783,0 17.984,-12.178 17.984,-12.178 0,0 4.673,12.178 17.989,12.178 13.315,0 18.011,-12.162 18.011,-12.162 l 0,42.792 c 0,0 -2.926,7.696 -10.697,10.949" /></g><g
         transform="translate(342.81525,72.058131)"
         id="g2900"
         style="fill:none;stroke:#ffffff;stroke-opacity:1"><path
           inkscape:connector-curvature="0"
           id="path2902"
           style="fill:none;stroke:#ffffff;stroke-opacity:1"
           d="M 0,0 0,0.003 -0.003,0 0,0 z" /></g><g
         transform="translate(314.92142,72.058131)"
         id="g2904"
         style="fill:none;stroke:#ffffff;stroke-opacity:1"><path
           inkscape:connector-curvature="0"
           id="path2906"
           style="fill:none;stroke:#ffffff;stroke-opacity:1"
           d="M 0,0 0.002,0 0,0.002 0,0 z" /></g></g></g></svg>