<?xml version="1.0" encoding="UTF-8" standalone="no"?>
<!-- Created with Inkscape (http://www.inkscape.org/) -->

<svg
   xmlns:dc="http://purl.org/dc/elements/1.1/"
   xmlns:cc="http://creativecommons.org/ns#"
   xmlns:rdf="http://www.w3.org/1999/02/22-rdf-syntax-ns#"
   xmlns:svg="http://www.w3.org/2000/svg"
   xmlns="http://www.w3.org/2000/svg"
   xmlns:sodipodi="http://sodipodi.sourceforge.net/DTD/sodipodi-0.dtd"
   xmlns:inkscape="http://www.inkscape.org/namespaces/inkscape"
   id="svg2"
   version="1.1"
   inkscape:version="0.48.0 r9654"
   width="1200"
   height="800"
   xml:space="preserve"
   sodipodi:docname="nav-btns.svg"><metadata
     id="metadata8"><rdf:RDF><cc:Work
         rdf:about=""><dc:format>image/svg+xml</dc:format><dc:type
           rdf:resource="http://purl.org/dc/dcmitype/StillImage" /><dc:title></dc:title></cc:Work></rdf:RDF></metadata><defs
     id="defs6"><clipPath
       clipPathUnits="userSpaceOnUse"
       id="clipPath664"><path
         d="m 0,2880 2880,0 L 2880,0 0,0 0,2880 z"
         id="path666"
         inkscape:connector-curvature="0" /></clipPath><clipPath
       clipPathUnits="userSpaceOnUse"
       id="clipPath820"><path
         d="m 0,2880 2880,0 L 2880,0 0,0 0,2880 z"
         id="path822"
         inkscape:connector-curvature="0" /></clipPath></defs><sodipodi:namedview
     pagecolor="#ffffff"
     bordercolor="#666666"
     borderopacity="1"
     objecttolerance="10"
     gridtolerance="10"
     guidetolerance="10"
     inkscape:pageopacity="0"
     inkscape:pageshadow="2"
     inkscape:window-width="1762"
     inkscape:window-height="1016"
     id="namedview4"
     showgrid="false"
     inkscape:zoom="1"
     inkscape:cx="546.15444"
     inkscape:cy="432.72727"
     inkscape:window-x="1695"
     inkscape:window-y="28"
     inkscape:window-maximized="0"
     inkscape:current-layer="g10" /><g
     id="g10"
     inkscape:groupmode="layer"
     inkscape:label="Pictos 1"
     transform="matrix(1.25,0,0,-1.25,0,800)"><g
       id="g3542"
       transform="translate(461.33333,-1832)"><g
         transform="translate(334.68963,2243.3645)"
         id="g852"><path
           inkscape:connector-curvature="0"
           id="path854"
           style="fill:#373535;fill-opacity:1;fill-rule:nonzero;stroke:none"
           d="m 0,0 -45,0 0,26.993 5.938,0 c 3.086,3.417 7.146,6.301 12.122,8.523 0.375,0.168 0.748,0.321 1.122,0.477 L -54,35.993 -54,-9 9,-9 9,13.57 0,7.511 0,0 z" /></g><g
         transform="translate(352.70433,2270.2376)"
         id="g856"><path
           inkscape:connector-curvature="0"
           id="path858"
           style="fill:#373535;fill-opacity:1;fill-rule:nonzero;stroke:none"
           d="m 0,0 -26.962,18.147 0,-10.915 c 0,0 -31.092,-2.387 -31.092,-25.382 0,0 3.932,9.438 18.975,11.226 2.461,0.293 6.2,0.58 12.126,0.58 l 0,-11.803 L 0,0 z" /></g></g><g
       id="g3572"
       transform="translate(624.00003,-1538.6667)"><g
         transform="translate(114.13384,2078.552)"
         id="g1230"><path
           inkscape:connector-curvature="0"
           id="path1232"
           style="fill:#373535;fill-opacity:1;fill-rule:nonzero;stroke:none"
           d="m 0,0 c 0,9.918 8.069,17.987 17.987,17.987 9.919,0 17.988,-8.069 17.988,-17.987 0,-9.918 -8.069,-17.987 -17.988,-17.987 C 8.069,-17.987 0,-9.918 0,0 m 63.017,-33.932 -21.223,21.22 c 2.028,3.789 3.181,8.115 3.181,12.712 0,14.905 -12.083,26.987 -26.988,26.987 C 3.083,26.987 -9,14.905 -9,0 c 0,-14.903 12.083,-26.987 26.987,-26.987 4.535,0 8.806,1.124 12.557,3.101 l 21.259,-21.261 11.214,11.215 z" /></g></g><g
       id="g1510"
       transform="translate(920.08403,572.72033)"><path
         d="m 0,0 c -9.179,0 -18.106,-11.012 -18.106,-11.012 0,0 -8.928,11.012 -18.107,11.012 -9.18,0 -17.941,-4.59 -17.941,-18.107 0,-9.596 9.012,-18.025 9.012,-18.025 l 27.036,-26.951 27.035,26.951 c 0,0 9.012,8.429 9.012,18.025 C 17.941,-4.59 9.18,0 0,0"
         style="fill:#373535;fill-opacity:1;fill-rule:nonzero;stroke:none"
         id="path1512"
         inkscape:connector-curvature="0" /></g><g
       id="g3536"
       transform="translate(-266.66667,-266.66667)"><g
         transform="translate(355.76824,456.01264)"
         id="g1530"><path
           inkscape:connector-curvature="0"
           id="path1532"
           style="fill:#373535;fill-opacity:1;fill-rule:nonzero;stroke:none"
           d="m 0,0 c 0.025,0.428 0.064,0.853 0.064,1.286 0,11.831 -9.589,21.422 -21.421,21.422 -8.532,0 -15.876,-4.999 -19.322,-12.217 -1.671,1.296 -3.763,2.075 -6.042,2.075 -5.457,0 -9.882,-4.424 -9.882,-9.881 0,-1.026 0.157,-2.015 0.447,-2.945 -4.254,-2.53 -7.115,-7.159 -7.115,-12.469 0,-7.938 6.375,-14.376 14.285,-14.499 l 0,-0.008 0.169,0 c 0.019,0 0.038,-0.003 0.057,-0.003 0.02,0 0.038,0.003 0.058,0.003 l 7.026,0 -4.588,5.479 c -1.964,2.348 -2.429,5.261 -1.246,7.793 1.183,2.531 3.716,4.043 6.777,4.043 l 3.173,0 0,8.036 c 0,4.737 3.854,8.589 8.591,8.589 l 2.996,0 c 4.738,0 8.591,-3.852 8.591,-8.589 l 0,-8.036 3.174,0 c 3.061,0 5.594,-1.512 6.776,-4.043 1.184,-2.532 0.718,-5.445 -1.248,-7.795 l -4.586,-5.477 7.047,0 c 0.258,-0.014 0.513,-0.039 0.775,-0.039 7.832,0 14.18,6.348 14.18,14.18 C 8.736,-7.191 5.129,-2.135 0,0" /></g><g
         transform="translate(341.56024,440.09174)"
         id="g1534"><path
           inkscape:connector-curvature="0"
           id="path1536"
           style="fill:#373535;fill-opacity:1;fill-rule:nonzero;stroke:none"
           d="m 0,0 -6.585,0 -2.589,0 0,14.036 c 0,1.424 -1.166,2.589 -2.591,2.589 l -2.996,0 c -1.425,0 -2.591,-1.165 -2.591,-2.589 l 0,-14.036 -2.588,0 -6.585,0 c -1.425,0 -1.842,-0.894 -0.928,-1.986 l 12.527,-14.963 c 0.458,-0.546 1.061,-0.82 1.663,-0.82 0.603,0 1.205,0.274 1.663,0.82 L 0.928,-1.986 C 1.842,-0.894 1.425,0 0,0" /></g></g><g
       id="g3530"
       transform="translate(-13.333327,-269.33337)"><g
         transform="translate(211.95864,455.39454)"
         id="g1538"><path
           inkscape:connector-curvature="0"
           id="path1540"
           style="fill:#373535;fill-opacity:1;fill-rule:nonzero;stroke:none"
           d="m 0,0 c 0.025,0.428 0.064,0.853 0.064,1.286 0,11.831 -9.589,21.422 -21.421,21.422 -8.532,0 -15.876,-4.999 -19.322,-12.217 -1.671,1.296 -3.763,2.075 -6.042,2.075 -5.457,0 -9.882,-4.424 -9.882,-9.881 0,-1.026 0.157,-2.015 0.447,-2.945 -4.254,-2.53 -7.115,-7.159 -7.115,-12.469 0,-7.938 6.375,-14.376 14.285,-14.499 l 0,-0.008 0.169,0 c 0.019,0 0.038,-0.003 0.057,-0.003 0.02,0 0.038,0.003 0.058,0.003 l 11.142,0 0,5.804 -3.173,0 c -3.061,0 -5.594,1.512 -6.777,4.043 -1.183,2.533 -0.718,5.446 1.248,7.795 L -33.734,5.37 c 1.58,1.886 3.862,2.967 6.263,2.967 2.402,0 4.684,-1.081 6.264,-2.968 L -8.678,-9.596 c 1.964,-2.347 2.43,-5.26 1.246,-7.793 -1.182,-2.531 -3.715,-4.043 -6.776,-4.043 l -3.174,0 0,-5.804 11.163,0 c 0.258,-0.014 0.513,-0.039 0.775,-0.039 7.832,0 14.18,6.348 14.18,14.18 C 8.736,-7.191 5.129,-2.135 0,0" /></g><g
         transform="translate(198.67834,441.94914)"
         id="g1542"><path
           inkscape:connector-curvature="0"
           id="path1544"
           style="fill:#373535;fill-opacity:1;fill-rule:nonzero;stroke:none"
           d="m 0,0 -12.527,14.963 c -0.457,0.547 -1.061,0.819 -1.663,0.819 -0.603,0 -1.206,-0.272 -1.664,-0.819 L -28.381,0 c -0.914,-1.093 -0.497,-1.986 0.928,-1.986 l 6.585,0 2.589,0 0,-14.036 c 0,-1.424 1.166,-2.589 2.591,-2.589 l 2.996,0 c 1.424,0 2.59,1.165 2.59,2.589 l 0,14.036 2.589,0 6.585,0 C 0.497,-1.986 0.914,-1.093 0,0" /></g></g><g
       id="g3601"
       transform="translate(-357.33333,-520)"><g
         transform="translate(531.66018,788.09831)"
         id="g1696"><path
           inkscape:connector-curvature="0"
           id="path1698"
           style="fill:#373535;fill-opacity:1;fill-rule:nonzero;stroke:none"
           d="m 0,0 c -1.736,0 -3.365,0.674 -4.59,1.897 l -27.997,27.998 0.721,-8.106 c 0.086,-0.983 0.729,-2.357 1.427,-3.056 l 29.17,-29.171 c 0.698,-0.697 1.839,-0.697 2.538,0 l 21.228,21.23 c 0.697,0.698 0.697,1.84 0,2.537 L 19.259,16.567 4.586,1.895 C 3.361,0.672 1.732,0 0,0" /></g><g
         transform="translate(505.08398,842.32291)"
         id="g1700"><path
           inkscape:connector-curvature="0"
           id="path1702"
           style="fill:#373535;fill-opacity:1;fill-rule:nonzero;stroke:none"
           d="m 0,0 c 0.759,0.759 1.754,1.139 2.749,1.139 0.997,0 1.994,-0.381 2.755,-1.141 1.519,-1.52 1.517,-3.984 0,-5.501 -0.761,-0.762 -1.756,-1.142 -2.75,-1.142 -0.996,0 -1.992,0.381 -2.752,1.142 C -1.52,-3.983 -1.521,-1.521 0,0 M 19.902,3.932 C 19.205,4.63 17.831,5.274 16.847,5.363 L 1.069,6.801 C 0.993,6.808 0.913,6.812 0.832,6.812 c -0.957,0 -2.176,-0.474 -2.818,-1.119 l -3.601,-3.6 C -6.283,1.396 -6.784,0.02 -6.695,-0.961 l 1.405,-15.818 c 0.086,-0.983 0.729,-2.357 1.427,-3.056 l 29.171,-29.17 c 0.348,-0.349 0.807,-0.523 1.268,-0.523 0.459,0 0.919,0.174 1.269,0.523 l 21.228,21.229 c 0.698,0.698 0.698,1.84 0,2.538 L 19.902,3.932 z" /></g></g><g
       id="g3597"
       transform="translate(-1482.6667,-514.66667)"><g
         transform="translate(1557.9033,786.10801)"
         id="g1942"><path
           inkscape:connector-curvature="0"
           id="path1944"
           style="fill:#373535;fill-opacity:1;fill-rule:nonzero;stroke:none"
           d="m 0,0 -40.908,0 0,10.04 L 3,10.04 3,3 C 3,1.346 1.654,0 0,0 m -50.974,3 0,7.04 8.233,0 0,-10.04 -5.233,0 c -1.654,0 -3,1.346 -3,3 m 8.233,32.057 -8.233,0 0,9.997 8.233,0 0,-9.997 z m 1.833,-1.833 43.908,0 0,-9.73 -43.908,0 0,9.73 z m 0,-11.564 43.908,0 0,-9.787 -43.908,0 0,9.787 z m -10.066,11.564 8.233,0 0,-9.73 -8.233,0 0,9.73 z m 8.233,-21.351 -8.233,0 0,9.787 8.233,0 0,-9.787 z M 3,35.057 l -43.908,0 0,9.997 43.908,0 0,-9.997 z m -3,27.972 -47.974,0 c -6.628,0 -12,-5.372 -12,-12 l 0,-48.029 c 0,-6.627 5.372,-12 12,-12 L 0,-9 c 6.627,0 12,5.373 12,12 l 0,48.029 c 0,6.628 -5.373,12 -12,12" /></g></g><g
       id="g3548"
       transform="translate(98.66663,-640)"><g
         transform="translate(683.77538,927.54751)"
         id="g1946"><path
           inkscape:connector-curvature="0"
           id="path1948"
           style="fill:#373535;fill-opacity:1;fill-rule:nonzero;stroke:none"
           d="m 0,0 -27.91,0 -7.544,44.979 42.999,0 L 0,0 z m -33.382,-6.466 38.854,0 9.714,57.912 -58.282,0 9.714,-57.912 z" /></g><g
         transform="translate(679.65628,988.83071)"
         id="g1950"><path
           inkscape:connector-curvature="0"
           id="path1952"
           style="fill:#373535;fill-opacity:1;fill-rule:nonzero;stroke:none"
           d="m 0,0 0,4.057 -19.549,0 0,-4.057 -19.428,0 0,-4.673 58.404,0 0,4.673 L 0,0 z" /></g><g
         transform="translate(667.87598,932.70081)"
         id="g1954"><path
           inkscape:connector-curvature="0"
           id="path1956"
           style="fill:#373535;fill-opacity:1;fill-rule:nonzero;stroke:none"
           d="M 0,0 -6.052,34.62 -11.933,34.612 -6.052,0 0,0 z" /></g><g
         transform="translate(683.70408,967.31311)"
         id="g1958"><path
           inkscape:connector-curvature="0"
           id="path1960"
           style="fill:#373535;fill-opacity:1;fill-rule:nonzero;stroke:none"
           d="m 0,0 -5.881,0.008 -6.051,-34.62 6.051,0 L 0,0 z" /></g></g><g
       id="g3642"
       transform="translate(101.33333,-1645.3334)"><g
         transform="translate(554.25359,1722.1324)"
         id="g2190"><path
           inkscape:connector-curvature="0"
           id="path2192"
           style="fill:#373535;fill-opacity:1;fill-rule:nonzero;stroke:none"
           d="m 0,0 c 1.08,2.744 2.068,6.029 2.823,9.88 l 10.237,0 C 9.858,5.365 5.31,1.875 0,0 m -12.949,-1.237 c -1.343,2.8 -2.676,6.455 -3.65,11.117 l 15.342,0 C -2.229,5.226 -3.556,1.569 -4.896,-1.229 c -1.325,-0.2 -2.68,-0.305 -4.06,-0.305 -1.357,0 -2.69,0.103 -3.993,0.297 m -18.023,11.117 10.299,0 c 0.758,-3.869 1.755,-7.154 2.841,-9.906 -5.344,1.867 -9.923,5.369 -13.14,9.906 m 13.176,41.048 c -1.1,-2.786 -2.113,-6.117 -2.88,-10.046 l -10.386,0 c 3.229,4.609 7.858,8.164 13.266,10.046 m 12.862,1.194 c 1.357,-2.83 2.707,-6.519 3.689,-11.24 l -15.358,0 c 0.982,4.722 2.332,8.418 3.689,11.248 1.292,0.191 2.613,0.293 3.958,0.293 1.367,0 2.71,-0.104 4.022,-0.301 m 18.083,-11.24 -10.324,0 C 2.061,44.8 1.052,48.122 -0.046,50.904 5.333,49.016 9.936,45.471 13.149,40.882 m -8.95,-17.503 13.737,0 C 17.679,20.003 16.803,16.797 15.413,13.88 l -11.929,0 c 0.393,2.881 0.643,6.046 0.715,9.499 m -22.25,0 18.249,0 C 0.121,19.892 -0.139,16.721 -0.547,13.88 l -16.754,0 c -0.408,2.843 -0.673,6.008 -0.75,9.499 m -17.797,0 13.797,0 c 0.072,-3.45 0.32,-6.619 0.711,-9.499 l -11.985,0 c -1.39,2.917 -2.266,6.123 -2.523,9.499 m 18.528,13.378 16.789,0 C -0.133,33.943 0.125,30.818 0.2,27.38 l -18.252,0 c 0.076,3.437 0.333,6.564 0.732,9.377 M -35.857,27.38 c 0.237,3.328 1.078,6.489 2.418,9.377 l 12.083,0 c -0.382,-2.85 -0.624,-5.977 -0.696,-9.377 l -13.805,0 z m 40.057,0 c -0.07,3.399 -0.311,6.528 -0.693,9.377 l 12.02,0 c 1.34,-2.888 2.181,-6.049 2.418,-9.377 L 4.2,27.38 z M -8.956,61.423 c -19.87,0 -35.979,-16.109 -35.979,-35.979 0,-19.87 16.109,-35.978 35.979,-35.978 19.87,0 35.978,16.108 35.978,35.978 0,19.87 -16.108,35.979 -35.978,35.979" /></g></g><g
       id="g3564"
       transform="translate(72.000036,-1453.3333)"><g
         transform="translate(684.99899,1539.9909)"
         id="g2202"><path
           inkscape:connector-curvature="0"
           id="path2204"
           style="fill:#373535;fill-opacity:1;fill-rule:nonzero;stroke:none"
           d="m 0,0 -12.123,-12.123 -2.154,2.153 12.124,12.123 -3.39,3.391 -15.562,-15.562 -0.006,0 0,-0.005 -0.002,0 0.002,-10e-4 -6.289,-19.352 19.353,6.286 0,-0.001 0.002,0.001 0.004,0.002 0,0.003 L 7.521,-7.522 0,0 z" /></g><g
         transform="translate(697.52049,1556.8181)"
         id="g2206"><path
           inkscape:connector-curvature="0"
           id="path2208"
           style="fill:#373535;fill-opacity:1;fill-rule:nonzero;stroke:none"
           d="M 0,0 5.611,5.611 7.764,3.46 2.152,-2.152 9.674,-9.675 18.643,-0.706 5.576,12.358 -3.391,3.391 0,0 z" /></g><g
         transform="translate(713.18459,1541.6872)"
         id="g2214"><path
           inkscape:connector-curvature="0"
           id="path2216"
           style="fill:#373535;fill-opacity:1;fill-rule:nonzero;stroke:none"
           d="m 0,0 c -1.549,0 -3.21,-0.507 -4.845,-1.347 l -20.797,20.798 c 0.833,1.633 1.332,3.277 1.331,4.783 0,8.273 -7.862,16.28 -16.126,16.281 -0.051,0 -0.102,-10e-4 -0.153,-10e-4 -0.032,0 -0.973,-0.953 -1.484,-1.465 6.668,-6.67 6.117,-5.586 6.117,-9.677 0,-3.319 -5.315,-8.559 -8.56,-8.559 -0.712,0 -1.264,-0.02 -1.725,-0.02 -2.256,0 -2.29,0.478 -7.949,6.139 -0.53,-0.53 -1.468,-1.455 -1.469,-1.487 0.101,-8.322 7.961,-16.279 16.281,-16.279 1.507,0 3.118,0.48 4.709,1.279 l 20.867,-20.867 c -0.793,-1.588 -1.265,-3.183 -1.265,-4.646 0,-8.274 7.863,-16.283 16.129,-16.283 0.05,0 0.099,0 0.15,10e-4 0.032,0 0.973,0.954 1.484,1.467 -6.668,6.668 -6.117,5.584 -6.117,9.676 0,3.318 5.316,8.56 8.559,8.56 0.711,0 1.263,0.019 1.723,0.019 2.257,0 2.292,-0.479 7.953,-6.138 0.529,0.528 1.466,1.453 1.468,1.485 C 16.18,-7.959 8.32,0 0,0" /></g></g><g
       id="g2222"
       transform="translate(420.7535,535.55033)"><path
         d="m 0,0 13.831,0 -13.736,12.978 0,20.997 -11.095,0 0,-10.516 L -22.16,34.003 -58.184,0 l 13.386,0 0,-29.05 15.982,0 0,20.534 13.344,0 0,-20.534 L 0,-29.05 0,0 z"
         style="fill:#373535;fill-opacity:1;fill-rule:nonzero;stroke:none"
         id="path2224"
         inkscape:connector-curvature="0" /></g><g
       id="g3513"
       transform="translate(66.666603,-461.33334)"><g
         transform="translate(356.42768,634.16928)"
         id="g2306"><path
           inkscape:connector-curvature="0"
           id="path2308"
           style="fill:#373535;fill-opacity:1;fill-rule:nonzero;stroke:none"
           d="M 0,0 C -2.306,0 -4.175,1.869 -4.175,4.175 -4.175,6.48 -2.306,8.349 0,8.349 2.306,8.349 4.175,6.48 4.175,4.175 4.175,1.869 2.306,0 0,0 M 12.71,6.599 8.692,7.338 C 8.303,7.41 8.165,7.737 8.386,8.066 l 2.304,3.416 c 0.222,0.329 0.174,0.827 -0.106,1.107 l -2.211,2.21 c -0.28,0.28 -0.778,0.328 -1.106,0.107 L 3.851,12.601 C 3.521,12.379 3.194,12.518 3.122,12.907 l -0.739,4.019 c -0.072,0.389 -0.455,0.708 -0.851,0.708 l -3.127,0 c -0.396,0 -0.779,-0.319 -0.851,-0.708 L -3.187,12.907 C -3.258,12.518 -3.585,12.38 -3.914,12.602 l -3.416,2.304 c -0.328,0.221 -0.826,0.173 -1.107,-0.107 l -2.21,-2.21 c -0.281,-0.281 -0.329,-0.779 -0.107,-1.107 L -8.45,8.066 C -8.228,7.737 -8.366,7.41 -8.755,7.338 l -4.018,-0.739 c -0.39,-0.073 -0.708,-0.455 -0.708,-0.852 l 0,-3.126 c 0,-0.396 0.318,-0.779 0.708,-0.851 l 4.018,-0.74 c 0.391,-0.072 0.527,-0.399 0.307,-0.727 l -2.306,-3.417 c -0.222,-0.329 -0.174,-0.826 0.107,-1.107 l 2.21,-2.211 c 0.281,-0.28 0.779,-0.329 1.107,-0.107 l 3.416,2.305 c 0.329,0.221 0.656,0.084 0.727,-0.305 l 0.741,-4.019 c 0.072,-0.389 0.455,-0.708 0.851,-0.708 l 3.127,0 c 0.396,0 0.779,0.319 0.851,0.708 l 0.739,4.019 c 0.072,0.389 0.399,0.526 0.729,0.305 l 3.416,-2.305 c 0.328,-0.222 0.826,-0.173 1.106,0.107 l 2.211,2.209 c 0.28,0.283 0.328,0.78 0.106,1.109 L 8.386,0.303 C 8.164,0.631 8.302,0.958 8.69,1.03 l 4.02,0.74 c 0.389,0.072 0.708,0.455 0.708,0.851 l 0,3.126 c 0,0.397 -0.319,0.779 -0.708,0.852" /></g><g
         transform="translate(324.92768,597.05498)"
         id="g2310"><path
           inkscape:connector-curvature="0"
           id="path2312"
           style="fill:#373535;fill-opacity:1;fill-rule:nonzero;stroke:none"
           d="m 0,0 c -5.384,0 -9.748,4.365 -9.748,9.749 0,5.383 4.364,9.747 9.748,9.747 5.384,0 9.748,-4.364 9.748,-9.747 C 9.748,4.365 5.384,0 0,0 m 25.56,14.612 -8.059,1.486 c -0.781,0.143 -1.058,0.799 -0.613,1.458 l 4.623,6.853 c 0.443,0.659 0.347,1.657 -0.215,2.22 l -4.434,4.434 c -0.562,0.562 -1.56,0.657 -2.219,0.212 L 7.79,26.652 C 7.13,26.208 6.474,26.485 6.329,27.267 L 4.847,35.326 C 4.702,36.107 3.935,36.747 3.14,36.747 l -6.272,0 c -0.795,0 -1.562,-0.64 -1.707,-1.421 l -1.483,-8.059 c -0.144,-0.781 -0.8,-1.058 -1.46,-0.614 l -6.852,4.622 c -0.659,0.445 -1.658,0.35 -2.22,-0.212 l -4.434,-4.435 c -0.563,-0.563 -0.658,-1.562 -0.214,-2.22 l 4.622,-6.852 c 0.444,-0.659 0.168,-1.315 -0.613,-1.458 l -8.059,-1.486 c -0.781,-0.143 -1.42,-0.911 -1.42,-1.706 l 0,-6.27 c 0,-0.795 0.639,-1.563 1.42,-1.706 l 8.061,-1.485 c 0.781,-0.144 1.056,-0.801 0.613,-1.459 l -4.624,-6.854 c -0.444,-0.659 -0.349,-1.657 0.214,-2.22 l 4.434,-4.433 c 0.562,-0.563 1.561,-0.659 2.22,-0.214 l 6.852,4.621 c 0.66,0.445 1.316,0.168 1.46,-0.613 l 1.483,-8.057 c 0.145,-0.781 0.912,-1.421 1.707,-1.421 l 6.272,0 c 0.795,0 1.562,0.64 1.707,1.421 l 1.482,8.058 c 0.145,0.782 0.801,1.058 1.461,0.613 l 6.853,-4.622 c 0.659,-0.445 1.657,-0.349 2.219,0.214 l 4.434,4.432 c 0.562,0.564 0.658,1.562 0.214,2.221 l -4.624,6.854 c -0.445,0.658 -0.168,1.315 0.613,1.459 L 25.56,4.93 c 0.781,0.143 1.419,0.911 1.419,1.706 l 0,6.27 c 0,0.795 -0.638,1.563 -1.419,1.706" /></g></g><g
       id="g3558"
       transform="translate(205.33333,-1346.6667)"><g
         transform="translate(587.25904,1527.4351)"
         id="g2338"><path
           inkscape:connector-curvature="0"
           id="path2340"
           style="fill:#373535;fill-opacity:1;fill-rule:nonzero;stroke:none"
           d="m 0,0 c 0,-1.424 -1.159,-2.582 -2.581,-2.582 l -41.289,0 c -1.423,0 -2.581,1.158 -2.581,2.582 l 0,41.336 c 0,1.424 1.158,2.581 2.581,2.581 l 35.778,0 7.542,7.543 c -0.657,0.132 -1.336,0.202 -2.031,0.202 l -41.289,0 c -5.703,0 -10.327,-4.623 -10.327,-10.326 l 0,-41.336 c 0,-5.705 4.624,-10.328 10.327,-10.328 l 41.289,0 c 5.704,0 10.328,4.623 10.328,10.328 l 0,22.924 L 0,15.179 0,0 z" /></g><g
         transform="translate(574.06964,1540.3658)"
         id="g2342"><path
           inkscape:connector-curvature="0"
           id="path2344"
           style="fill:#373535;fill-opacity:1;fill-rule:nonzero;stroke:none"
           d="M 0,0 -11.054,-3.589 -7.463,7.464 0,0 z m -9.688,8.834 0,-0.003 -10e-4,-0.004 10e-4,0 -5.32,-16.369 16.37,5.318 0.007,0.003 -10e-4,10e-4 29.661,29.66 -11.052,11.053 -29.66,-29.659 -0.005,0 z" /></g></g><g
       id="g3607"
       transform="translate(432.00003,-1162.6667)"><path
         inkscape:connector-curvature="0"
         id="path2374"
         style="fill:#373535;fill-opacity:1;fill-rule:nonzero;stroke:none"
         d="m 249.97178,1671.7168 -51.582,0 0,42.985 51.582,0 0,-42.985 z m -45.929,60.604 c 0,1.878 0.86,2.639 2.983,2.639 2.122,0 2.983,-0.761 2.983,-2.639 l 0,-10.336 c 0,-1.877 -0.861,-2.638 -2.983,-2.638 -2.123,0 -2.983,0.761 -2.983,2.638 l 0,10.336 z m 17.194,0 c 0,1.878 0.861,2.639 2.984,2.639 2.122,0 2.982,-0.761 2.982,-2.639 l 0,-10.336 c 0,-1.877 -0.86,-2.638 -2.982,-2.638 -2.123,0 -2.984,0.761 -2.984,2.638 l 0,10.336 z m 17.195,0 c 0,1.878 0.86,2.639 2.982,2.639 2.123,0 2.984,-0.761 2.984,-2.639 l 0,-10.336 c 0,-1.877 -0.861,-2.638 -2.984,-2.638 -2.122,0 -2.982,0.761 -2.982,2.638 l 0,10.336 z m 9.404,-3.864 0,3.864 c 0,3.805 -2.4,6.077 -6.422,6.077 -4.02,0 -6.422,-2.272 -6.422,-6.077 l 0,-3.864 -4.35,0 0,3.864 c 0,3.805 -2.401,6.077 -6.421,6.077 -4.022,0 -6.422,-2.272 -6.422,-6.077 l 0,-3.864 -4.351,0 0,3.864 c 0,3.805 -2.4,6.077 -6.422,6.077 -4.02,0 -6.421,-2.272 -6.421,-6.077 l 0,-3.864 -7.374,0 0,-61.899 61.899,0 0,61.899 -7.294,0 z" /><g
         transform="translate(224.32598,1688.2604)"
         id="g2376"><path
           inkscape:connector-curvature="0"
           id="path2378"
           style="fill:#373535;fill-opacity:1;fill-rule:nonzero;stroke:none"
           d="m 0,0 c 0,3.279 -2.211,5.094 -6.078,6.2 l 0,0.079 c 3.474,1.184 5.367,3.08 5.367,6.04 0,3.001 -2.961,5.37 -8.053,5.37 -2.408,0 -4.935,-0.315 -7.067,-1.303 l 0.591,-4.342 c 1.62,0.79 3.357,1.302 5.135,1.302 2.762,0 3.512,-0.948 3.512,-2.367 0,-2.055 -1.974,-2.963 -5.33,-3.199 l 0,-4.343 c 4.857,-0.277 6.436,-1.303 6.436,-3.791 0,-1.816 -1.738,-3.198 -4.421,-3.198 -2.213,0 -3.949,0.316 -6.041,1.107 l -0.593,-4.344 c 1.697,-0.672 3.947,-1.106 6.081,-1.106 C -4.579,-7.895 0,-5.17 0,0" /></g><g
         transform="translate(233.36208,1699.1188)"
         id="g2380"><path
           inkscape:connector-curvature="0"
           id="path2382"
           style="fill:#373535;fill-opacity:1;fill-rule:nonzero;stroke:none"
           d="m 0,0 0,-18.358 5.291,0 0,24.793 -2.645,0 L -4.936,2.686 -4.344,-1.657 0,0 z" /></g></g><g
       id="g3584"
       transform="translate(-194.66667,-322.66667)"><path
         inkscape:connector-curvature="0"
         id="path2612"
         style="fill:#373535;fill-opacity:1;fill-rule:nonzero;stroke:none"
         d="m 1131.9297,504.13771 -59.917,0 0,41.989 59.917,0 0,-41.989 z m -65.917,-6 71.917,0 0,53.989 -71.917,0 0,-53.989 z" /><g
         transform="translate(1079.2446,509.12461)"
         id="g2614"><path
           inkscape:connector-curvature="0"
           id="path2616"
           style="fill:#373535;fill-opacity:1;fill-rule:nonzero;stroke:none"
           d="M 0,0 47.259,0 40.862,20.769 36.064,19.171 31.907,27.01 18.473,7.616 11.276,12.253 0,0 z" /></g><g
         transform="translate(1085.2012,528.02211)"
         id="g2618"><path
           inkscape:connector-curvature="0"
           id="path2620"
           style="fill:#373535;fill-opacity:1;fill-rule:nonzero;stroke:none"
           d="m 0,0 c 3.135,0 5.677,2.541 5.677,5.676 0,3.137 -2.542,5.678 -5.677,5.678 -3.136,0 -5.678,-2.541 -5.678,-5.678 C -5.678,2.541 -3.136,0 0,0" /></g></g><g
       id="g3614"
       transform="translate(480.00003,-146.6667)"><g
         transform="translate(179.26301,554.15268)"
         id="g2672"><path
           inkscape:connector-curvature="0"
           id="path2674"
           style="fill:#373535;fill-opacity:1;fill-rule:nonzero;stroke:none"
           d="M 0,0 C -16.542,0 -30,13.458 -30,30 -30,46.542 -16.542,60 0,60 16.542,60 30,46.542 30,30 30,13.458 16.542,0 0,0 M 0,66 C -19.882,66 -36,49.883 -36,30 -36,10.117 -19.882,-6 0,-6 19.882,-6 36,10.117 36,30 36,49.883 19.882,66 0,66" /></g><g
         transform="translate(168.91051,577.25808)"
         id="g2676"><path
           inkscape:connector-curvature="0"
           id="path2678"
           style="fill:#373535;fill-opacity:1;fill-rule:nonzero;stroke:none"
           d="m 0,0 -5.711,-9.387 9.38,5.712 -0.72,2.957 L 0,0 z" /></g><g
         transform="translate(171.85971,591.10088)"
         id="g2680"><path
           inkscape:connector-curvature="0"
           id="path2682"
           style="fill:#373535;fill-opacity:1;fill-rule:nonzero;stroke:none"
           d="M 0,0 0.719,2.953 -8.66,8.663 -2.95,-0.719 0,0 z" /></g><g
         transform="translate(186.42801,576.54038)"
         id="g2684"><path
           inkscape:connector-curvature="0"
           id="path2686"
           style="fill:#373535;fill-opacity:1;fill-rule:nonzero;stroke:none"
           d="M 0,0 -0.719,-2.955 8.661,-8.664 2.949,0.718 0,0 z" /></g><g
         transform="translate(189.37731,590.38118)"
         id="g2688"><path
           inkscape:connector-curvature="0"
           id="path2690"
           style="fill:#373535;fill-opacity:1;fill-rule:nonzero;stroke:none"
           d="M 0,0 5.716,9.383 -3.675,3.671 -2.958,0.72 0,0 z" /></g><g
         transform="translate(179.14291,581.14968)"
         id="g2692"><path
           inkscape:connector-curvature="0"
           id="path2694"
           style="fill:#373535;fill-opacity:1;fill-rule:nonzero;stroke:none"
           d="m 0,0 c -1.466,0 -2.655,1.189 -2.655,2.654 0,1.467 1.189,2.659 2.655,2.659 1.467,0 2.656,-1.192 2.656,-2.659 C 2.656,1.189 1.467,0 0,0 M 5.317,7.992 0.006,29.881 -5.325,7.992 -27.203,2.67 -5.325,-2.651 0.006,-24.539 5.328,-2.651 27.205,2.67 5.317,7.992 z" /></g></g><g
       id="g3519"
       transform="translate(69.333303,-464)"><path
         inkscape:connector-curvature="0"
         id="path2700"
         style="fill:#373535;fill-opacity:1;fill-rule:nonzero;stroke:none"
         d="m 309.41168,735.32471 52.616,0 0,11.563 -52.616,0 0,-11.563 z" /><path
         inkscape:connector-curvature="0"
         id="path2702"
         style="fill:#373535;fill-opacity:1;fill-rule:nonzero;stroke:none"
         d="m 309.41168,710.73571 52.616,0 0,11.563 -52.616,0 0,-11.563 z" /><path
         inkscape:connector-curvature="0"
         id="path2704"
         style="fill:#373535;fill-opacity:1;fill-rule:nonzero;stroke:none"
         d="m 309.41168,686.01671 52.616,0 0,11.563 -52.616,0 0,-11.563 z" /><g
         transform="translate(295.77538,746.88731)"
         id="g2706"><path
           inkscape:connector-curvature="0"
           id="path2708"
           style="fill:#373535;fill-opacity:1;fill-rule:nonzero;stroke:none"
           d="m 0,0 c -3.188,0 -5.771,-2.584 -5.771,-5.771 0,-3.187 2.583,-5.772 5.771,-5.772 3.188,0 5.771,2.585 5.771,5.772 C 5.771,-2.584 3.188,0 0,0" /></g><g
         transform="translate(295.77538,722.32971)"
         id="g2710"><path
           inkscape:connector-curvature="0"
           id="path2712"
           style="fill:#373535;fill-opacity:1;fill-rule:nonzero;stroke:none"
           d="m 0,0 c -3.188,0 -5.771,-2.584 -5.771,-5.771 0,-3.187 2.583,-5.771 5.771,-5.771 3.188,0 5.771,2.584 5.771,5.771 C 5.771,-2.584 3.188,0 0,0" /></g><g
         transform="translate(295.77538,697.66371)"
         id="g2714"><path
           inkscape:connector-curvature="0"
           id="path2716"
           style="fill:#373535;fill-opacity:1;fill-rule:nonzero;stroke:none"
           d="m 0,0 c -3.188,0 -5.771,-2.584 -5.771,-5.771 0,-3.187 2.583,-5.771 5.771,-5.771 3.188,0 5.771,2.584 5.771,5.771 C 5.771,-2.584 3.188,0 0,0" /></g></g><g
       id="g3636"
       transform="translate(72.000036,-949.33333)"><g
         transform="translate(605.62862,1170.47)"
         id="g2884"><path
           inkscape:connector-curvature="0"
           id="path2886"
           style="fill:#373535;fill-opacity:1;fill-rule:nonzero;stroke:none"
           d="m 0,0 c -0.021,0.035 -0.043,0.069 -0.063,0.105 -0.689,1.267 -1.542,2.414 -2.535,3.407 l -13.554,13.552 c -0.055,0.057 -0.108,0.104 -0.155,0.146 -1.726,1.675 -3.826,2.903 -6.109,3.581 2.631,-2.754 4.373,-6.194 5.049,-9.979 0.201,-1.135 0.304,-2.295 0.304,-3.45 0,-0.46 -0.019,-0.945 -0.06,-1.48 l 8.447,-8.449 c 0.735,-0.735 1.28,-1.661 1.572,-2.677 0.17,-0.584 0.254,-1.192 0.254,-1.807 0,-0.681 -0.103,-1.353 -0.308,-1.999 -0.311,-0.971 -0.821,-1.817 -1.518,-2.513 l -5.508,-5.508 c -1.179,-1.18 -2.777,-1.83 -4.498,-1.83 -1.72,0 -3.318,0.65 -4.498,1.83 l -5.25,5.25 -3.398,3.398 -4.904,4.904 c -0.489,0.489 -0.893,1.065 -1.202,1.715 -0.408,0.856 -0.623,1.819 -0.623,2.782 0,0.65 0.096,1.293 0.284,1.91 0.017,0.054 0.037,0.109 0.058,0.164 l 0.033,0.09 c 0.08,0.226 0.155,0.41 0.233,0.578 0.045,0.097 0.094,0.193 0.144,0.289 0.092,0.174 0.196,0.345 0.317,0.529 l 0.05,0.076 c 0.038,0.055 0.073,0.112 0.112,0.164 0.201,0.274 0.394,0.502 0.594,0.7 l 2.099,2.099 c -0.023,0.25 -0.08,0.473 -0.172,0.662 -0.088,0.186 -0.195,0.344 -0.322,0.471 l -4.904,4.904 -0.362,0.362 -2.418,-2.42 c -0.234,-0.235 -0.468,-0.487 -0.716,-0.774 -0.037,-0.041 -0.073,-0.086 -0.108,-0.129 l -0.078,-0.095 c -0.166,-0.198 -0.324,-0.397 -0.476,-0.6 -0.053,-0.068 -0.102,-0.139 -0.153,-0.207 L -44.371,9.71 c -0.15,-0.211 -0.295,-0.424 -0.434,-0.641 L -44.842,9.013 C -44.875,8.962 -44.908,8.909 -44.941,8.858 -45.104,8.593 -45.26,8.323 -45.4,8.06 l -0.022,-0.039 -0.019,-0.038 c -0.493,-0.935 -0.887,-1.931 -1.172,-2.964 -0.102,-0.368 -0.182,-0.707 -0.248,-1.036 -0.202,-1.002 -0.303,-2.013 -0.303,-3.019 0,-0.885 0.08,-1.774 0.232,-2.637 0.539,-3.027 1.965,-5.767 4.119,-7.924 l 2.825,-2.824 4.125,-4.123 6.605,-6.605 c 5.832,-5.832 15.32,-5.832 21.153,0 l 5.507,5.507 c 1.885,1.886 3.231,4.269 3.891,6.894 0.312,1.248 0.473,2.487 0.473,3.683 0,2.363 -0.569,4.723 -1.641,6.826 C 0.113,-0.215 0.1,-0.189 0.09,-0.163 0.08,-0.144 0.072,-0.123 0.061,-0.104 0.043,-0.066 0.021,-0.034 0,0" /></g><g
         transform="translate(580.01532,1188.5686)"
         id="g2888"><path
           inkscape:connector-curvature="0"
           id="path2890"
           style="fill:#373535;fill-opacity:1;fill-rule:nonzero;stroke:none"
           d="m 0,0 -2.824,2.824 -4.123,4.123 -6.606,6.608 c -5.832,5.83 -15.32,5.83 -21.152,-0.002 l -5.508,-5.508 c -1.887,-1.885 -3.23,-4.27 -3.891,-6.893 -0.312,-1.248 -0.472,-2.486 -0.472,-3.683 0,-2.364 0.568,-4.723 1.64,-6.826 0.014,-0.024 0.026,-0.051 0.036,-0.077 0.009,-0.019 0.017,-0.041 0.029,-0.06 0.017,-0.033 0.037,-0.067 0.058,-0.102 0.022,-0.035 0.043,-0.07 0.063,-0.107 0.691,-1.268 1.545,-2.412 2.537,-3.404 L -26.66,-26.66 c 0.056,-0.059 0.107,-0.106 0.156,-0.147 1.727,-1.673 3.824,-2.902 6.108,-3.58 -2.629,2.754 -4.372,6.194 -5.045,9.979 -0.204,1.131 -0.307,2.293 -0.307,3.449 0,0.457 0.019,0.941 0.06,1.48 l -8.447,8.45 c -0.734,0.734 -1.279,1.66 -1.572,2.677 -0.17,0.584 -0.256,1.19 -0.256,1.805 0,0.682 0.106,1.356 0.311,2 0.31,0.973 0.82,1.818 1.517,2.514 l 5.508,5.508 c 2.439,2.439 6.559,2.439 8.996,0 l 5.25,-5.25 3.399,-3.399 4.904,-4.904 c 0.488,-0.488 0.892,-1.065 1.201,-1.715 0.406,-0.855 0.623,-1.816 0.623,-2.781 0,-0.651 -0.096,-1.293 -0.283,-1.91 -0.018,-0.057 -0.037,-0.112 -0.059,-0.168 l -0.033,-0.086 c -0.08,-0.227 -0.154,-0.41 -0.232,-0.578 -0.045,-0.098 -0.096,-0.194 -0.147,-0.289 -0.092,-0.176 -0.197,-0.354 -0.314,-0.53 l -0.047,-0.07 c -0.037,-0.059 -0.074,-0.115 -0.115,-0.17 -0.202,-0.273 -0.395,-0.502 -0.592,-0.699 l -2.102,-2.1 c 0.024,-0.25 0.08,-0.472 0.172,-0.664 0.088,-0.185 0.195,-0.344 0.322,-0.469 l 4.905,-4.904 0.361,-0.361 2.418,2.42 c 0.23,0.23 0.465,0.484 0.719,0.773 0.037,0.043 0.074,0.088 0.109,0.133 l 0.074,0.09 c 0.166,0.199 0.325,0.398 0.477,0.602 0.062,0.081 0.121,0.163 0.18,0.247 0.154,0.211 0.296,0.424 0.437,0.641 l 0.045,0.071 0.088,0.141 c 0.164,0.264 0.318,0.532 0.461,0.799 l 0.019,0.036 0.022,0.04 c 0.492,0.933 0.887,1.93 1.174,2.964 0.097,0.356 0.177,0.697 0.246,1.037 0.201,1 0.303,2.012 0.303,3.017 0,0.887 -0.081,1.775 -0.233,2.638 C 3.58,-4.896 2.156,-2.156 0,0" /></g></g><g
       id="g3576"
       transform="translate(74.666703,362.66663)"><g
         transform="translate(342.81525,72.058131)"
         id="g2896"><path
           inkscape:connector-curvature="0"
           id="path2898"
           style="fill:#373535;fill-opacity:1;fill-rule:nonzero;stroke:none"
           d="M 0,0 -0.003,0 0,0.003 0,0 z m -14.561,0 0,0.002 L -14.559,0 -14.561,0 z M 0,31.252 0,0.006 l -7.281,7.822 -7.28,-7.821 0,31.301 c -7.813,-3.166 -10.742,-10.739 -10.742,-10.739 0,0 -4.136,12.109 -17.984,12.109 -13.848,0 -18.016,-12.109 -18.016,-12.109 l 0,-43.058 c 0,0 5.233,12.162 18.016,12.162 12.783,0 17.984,-12.178 17.984,-12.178 0,0 4.673,12.178 17.989,12.178 13.315,0 18.011,-12.162 18.011,-12.162 l 0,42.792 c 0,0 -2.926,7.696 -10.697,10.949" /></g><g
         transform="translate(342.81525,72.058131)"
         id="g2900"><path
           inkscape:connector-curvature="0"
           id="path2902"
           style="fill:#ffffff;fill-opacity:1;fill-rule:nonzero;stroke:none"
           d="M 0,0 0,0.003 -0.003,0 0,0 z" /></g><g
         transform="translate(314.92142,72.058131)"
         id="g2904"><path
           inkscape:connector-curvature="0"
           id="path2906"
           style="fill:#ffffff;fill-opacity:1;fill-rule:nonzero;stroke:none"
           d="M 0,0 0.002,0 0,0.002 0,0 z" /></g></g><g
       id="g3591"
       transform="translate(-480,-146.66667)"><g
         transform="translate(1415.0547,248.16454)"
         id="g3036"><path
           inkscape:connector-curvature="0"
           id="path3038"
           style="fill:#373535;fill-opacity:1;fill-rule:nonzero;stroke:none"
           d="m 0,0 0,13.188 c 0,3.74 -6,3.774 -6,0 L -6,0 c 0,-8.881 -7.225,-16.106 -16.104,-16.106 -0.099,0 -0.21,-10e-4 -0.32,-0.004 l -0.068,0.003 -0.105,-0.004 c -0.102,0.004 -0.208,0.005 -0.324,0.005 -8.881,0 -16.106,7.225 -16.106,16.106 l 0,13.188 c 0,3.705 -6,3.774 -6,0 10e-4,-1.795 0,-13.188 0,-13.188 0,-11.15 8.256,-20.368 18.99,-21.883 l 0,-9.517 -13.468,-3.811 34.027,0 -13.557,3.861 0,9.461 C -8.279,-20.395 0,-11.164 0,0" /></g><g
         transform="translate(1392.3428,237.64894)"
         id="g3040"><path
           inkscape:connector-curvature="0"
           id="path3042"
           style="fill:#373535;fill-opacity:1;fill-rule:nonzero;stroke:none"
           d="M 0,0 C 0.073,0 0.127,-0.004 0.2,-0.002 0.261,-0.004 0.336,0 0.398,0 6.342,0 11.159,4.82 11.159,10.763 l 0,25.967 c 0,5.943 -4.818,10.763 -10.763,10.763 -0.073,0 -0.126,0.005 -0.2,10e-4 -0.06,0.002 -0.135,-0.003 -0.198,-0.003 -5.943,0 -10.761,-4.818 -10.761,-10.762 l 0,-25.966 C -10.763,4.818 -5.944,0 0,0" /></g></g><g
       id="g3628"
       transform="translate(130.66663,-200)"><path
         inkscape:connector-curvature="0"
         id="path3148"
         style="fill:#373535;fill-opacity:1;fill-rule:nonzero;stroke:none"
         d="m 555.93068,502.13671 -60.001,0 0,46.002 60.001,0 0,-46.002 z m -66.001,-5.999 72,0 0,58 -72,0 0,-58 z" /><g
         transform="translate(539.55368,512.29651)"
         id="g3150"><path
           inkscape:connector-curvature="0"
           id="path3152"
           style="fill:#373535;fill-opacity:1;fill-rule:nonzero;stroke:none"
           d="m 0,0 c 0,0 -0.022,2.255 -4.634,4.306 -2.235,0.988 -5.547,3.547 -10.458,4.425 1.257,1.345 2.209,3.446 3.184,5.935 0.566,1.442 0.466,2.672 0.466,4.425 0,1.293 0.249,3.366 -0.075,4.506 -1.081,3.855 -3.82,4.916 -7.023,4.916 -3.208,0 -5.946,-1.069 -7.027,-4.924 -0.315,-1.143 -0.073,-3.211 -0.073,-4.498 0,-1.756 -0.094,-2.992 0.473,-4.436 0.983,-2.502 1.922,-4.599 3.17,-5.94 C -26.865,7.825 -30.154,5.284 -32.374,4.297 -36.967,2.246 -36.992,0 -36.992,0 l 0,-3.807 L 0,-3.8 0,0 z" /></g><path
         inkscape:connector-curvature="0"
         id="path3154"
         style="fill:#373535;fill-opacity:1;fill-rule:nonzero;stroke:none"
         d="m 548.34668,539.68571 -14.974,0 0,-2.961 14.974,0 0,2.961 z" /><path
         inkscape:connector-curvature="0"
         id="path3156"
         style="fill:#373535;fill-opacity:1;fill-rule:nonzero;stroke:none"
         d="m 542.21468,532.67471 -8.842,0 0,-2.961 8.842,0 0,2.961 z" /><path
         inkscape:connector-curvature="0"
         id="path3158"
         style="fill:#373535;fill-opacity:1;fill-rule:nonzero;stroke:none"
         d="m 545.86968,525.72671 -12.497,0 0,-2.961 12.497,0 0,2.961 z" /></g><g
       id="g3384"
       transform="translate(925.21893,289.17993)"><path
         d="m 0,0 -12.632,5.921 -10e-4,0.076 0,-5.556 c 0,-1.328 -1.087,-2.416 -2.416,-2.416 l -27.448,0 c -1.328,0 -2.416,1.088 -2.416,2.416 l 0,23.326 c 0,1.328 1.088,2.415 2.416,2.415 l 27.448,0 c 1.329,0 2.416,-1.087 2.416,-2.415 l 0,-5.627 L 0,24.114 0,0 z m -22.506,48.503 c -19.882,0 -36,-16.117 -36,-36 0,-19.883 16.118,-36 36,-36 19.882,0 36,16.117 36,36 0,19.883 -16.118,36 -36,36"
         style="fill:#373535;fill-opacity:1;fill-rule:nonzero;stroke:none"
         id="path3386"
         inkscape:connector-curvature="0" /></g><g
       id="g3388"
       transform="translate(916.52983,413.16673)"><path
         d="m 0,0 c 0,-0.734 -0.601,-1.335 -1.334,-1.335 l -42.222,0 c -0.734,0 -1.335,0.601 -1.335,1.335 l 0,25.336 c 0,0.734 0.601,1.334 1.335,1.334 l 9.313,0 c 0.008,0.015 0.01,0.027 0.015,0.041 l 1.277,2.549 c 0.33,0.656 1.199,1.194 1.932,1.194 l 17.127,0 c 0.735,0 1.604,-0.538 1.932,-1.194 l 1.277,-2.549 c 0.006,-0.014 0.009,-0.026 0.016,-0.041 l 9.333,0 C -0.601,26.67 0,26.07 0,25.336 L 0,0 z m -22.358,50.853 c -19.882,0 -36,-16.118 -36,-36 0,-19.883 16.118,-36 36,-36 19.881,0 36,16.117 36,36 0,19.882 -16.119,36 -36,36"
         style="fill:#373535;fill-opacity:1;fill-rule:nonzero;stroke:none"
         id="path3390"
         inkscape:connector-curvature="0" /></g><g
       id="g3392"
       transform="translate(894.04643,435.71453)"><path
         d="m 0,0 c -5.352,0 -9.689,-4.338 -9.689,-9.688 0,-5.352 4.337,-9.69 9.689,-9.69 5.351,0 9.689,4.338 9.689,9.69 C 9.689,-4.338 5.351,0 0,0"
         style="fill:#373535;fill-opacity:1;fill-rule:nonzero;stroke:none"
         id="path3394"
         inkscape:connector-curvature="0" /></g><g
       id="g3510"
       transform="translate(428.6009,340.89743)"><path
         d="m 0,0 -11.761,0 c -0.364,2.262 -1.005,4.416 -1.885,6.415 l 9.252,7.997 c 0.607,0.522 0.959,1.291 0.959,2.091 l 0,9.215 c 0,1.527 -1.239,2.764 -2.763,2.764 -1.528,0 -2.765,-1.237 -2.765,-2.764 l -0.002,-7.949 -7.511,-6.492 c -1.366,1.827 -2.967,3.428 -4.751,4.745 0.232,0.866 0.368,1.766 0.368,2.697 0,6.27 -5.575,11.354 -12.455,11.354 -6.878,0 -12.454,-5.084 -12.454,-11.354 0,-0.959 0.146,-1.886 0.391,-2.776 -1.771,-1.325 -3.362,-2.929 -4.716,-4.761 l -7.621,6.585 0,7.949 c 0,1.53 -1.239,2.765 -2.765,2.765 -1.527,0 -2.763,-1.235 -2.763,-2.765 l -0.002,-9.215 c 0,-0.799 0.351,-1.563 0.959,-2.091 L -52.9,6.3 C -53.755,4.334 -54.377,2.219 -54.733,0 L -66.51,0 c -1.528,0 -2.763,-1.235 -2.763,-2.764 0,-1.525 1.235,-2.763 2.763,-2.763 l 11.45,0 c 0.112,-2.619 0.595,-5.128 1.388,-7.467 l -8.615,-7.445 c -0.606,-0.524 -0.956,-1.291 -0.956,-2.092 l 0,-9.214 c 0,-1.526 1.237,-2.767 2.764,-2.767 1.528,0 2.765,1.241 2.765,2.767 l 0,7.951 6.484,5.603 c 3.939,-6.379 10.523,-10.562 17.983,-10.562 7.419,0 13.971,4.139 17.918,10.459 l 6.364,-5.5 0,-7.951 c 0,-1.526 1.238,-2.767 2.767,-2.767 1.525,0 2.764,1.241 2.764,2.767 l -0.002,9.214 c 0,0.801 -0.351,1.568 -0.956,2.092 l -8.473,7.323 c 0.817,2.374 1.317,4.924 1.43,7.589 l 11.435,0 c 1.528,0 2.764,1.238 2.764,2.763 C 2.764,-1.235 1.528,0 0,0"
         style="fill:#373535;fill-opacity:1;fill-rule:nonzero;stroke:none"
         id="path3512"
         inkscape:connector-curvature="0" /></g></g></svg>