<?xml version="1.0" standalone="no"?>
<!DOCTYPE svg PUBLIC "-//W3C//DTD SVG 1.1//EN" "http://www.w3.org/Graphics/SVG/1.1/DTD/svg11.dtd" >
<svg xmlns="http://www.w3.org/2000/svg">
<metadata>
This is a custom SVG webfont generated by Font Squirrel.
Copyright   : Copyright c 2007 by La Tipomatika All rights reserved
Designer    : La Tipomatika Digital Type Foundry
Foundry     : La Tipomatika
Foundry URL : httptipomatikaconr
</metadata>
<defs>
<font id="webfontoCO3Y6Yx" horiz-adv-x="1220" >
<font-face units-per-em="2048" ascent="1638" descent="-410" />
<missing-glyph horiz-adv-x="526" />
<glyph unicode=" "  horiz-adv-x="526" />
<glyph unicode="&#x09;" horiz-adv-x="526" />
<glyph unicode="&#xa0;" horiz-adv-x="526" />
<glyph unicode="!" horiz-adv-x="360" d="M100 55q8 33 34 53.5t59 20.5q35 0 47 -20.5t6 -51.5v-2q-8 -29 -36 -51t-56 -22q-33 0 -47.5 22t-6.5 51zM147 190l324 1205h123l-324 -1205h-123z" />
<glyph unicode="&#x22;" horiz-adv-x="444" d="M358 1090l64 305h143l-22 -154l-148 -199zM504 1090l63 305h144l-23 -154l-147 -199z" />
<glyph unicode="#" horiz-adv-x="1462" d="M131 0l268 428h-258l150 139h194l52 80l53 80q6 12 14 25l12 20l11 19h-391l147 139h332l67 105l70 106l52 83l52 79h146l-236 -373h402l86 131l84 131l36 55l35 56h146l-236 -373h244l-150 -139h-178l-24 -37l-25 -39l-49 -73l-47 -75h379l-154 -139h-313l-64 -101 l-65 -104l-72 -113l-65 -110h-150l268 428h-407l-120 -191l-122 -194q-4 -8 -13 -21.5t-13 -21.5h-148zM635 567h407q14 23 29.5 51.5t32.5 51.5l40 60l40 61h-406z" />
<glyph unicode="$" horiz-adv-x="954" d="M96 195l133 88q23 -59 74 -107.5t123 -56.5l137 510q-72 18 -126 54t-86 87t-40 112.5t11 131.5q18 72 61 135t102.5 112.5t132 83t150.5 48.5l25 92h135l-23 -84q102 -6 177 -54.5t122 -125.5l-129 -86q-35 53 -85 91t-120 44l-141 -525q70 -18 123 -55t87 -86 t44 -110.5t-8 -131.5q-18 -72 -62.5 -133t-104.5 -110t-133 -83t-149 -46l-30 -117h-136l29 111q-104 12 -181 68.5t-112 142.5zM467 1022q-23 -82 13 -151.5t122 -98.5l129 483q-96 -29 -168.5 -91t-95.5 -142zM563 129q96 18 171 79.5t97 147.5q23 88 -15 158t-124 96z " />
<glyph unicode="%" horiz-adv-x="1583" d="M301 2l1178 1393h159l-1181 -1393h-156zM345 872.5q-7 63.5 11 135.5q20 74 62.5 137t97.5 110.5t119.5 74t132.5 26.5q63 0 113.5 -26.5t80 -74t37 -111t-13.5 -136.5q-18 -72 -60 -135.5t-96.5 -110.5t-119 -75t-127.5 -28q-68 0 -118 28t-81 75t-38 110.5zM486 927 q3 -38 19.5 -68t45.5 -47t65 -17q35 0 71 17t67.5 47t56.5 68t35 81q25 92 -10 152.5t-105 60.5q-37 0 -75 -16.5t-69.5 -45.5t-56 -67.5t-36.5 -83.5q-11 -43 -8 -81zM918.5 219.5q-7.5 63.5 11.5 134.5q18 74 60 137.5t96.5 110.5t118 73.5t126.5 26.5q66 0 116 -26.5 t81 -73.5t38 -110.5t-12 -137.5q-18 -72 -60 -135t-98.5 -110.5t-121 -75t-129.5 -27.5q-63 0 -111.5 27.5t-78 75t-37 111zM1065 354q-23 -88 11 -150.5t106 -62.5q37 0 74.5 16.5t69.5 46t56.5 68.5t36.5 82q25 92 -12 152.5t-111 60.5q-35 0 -70.5 -16t-67.5 -45 t-56.5 -68t-36.5 -84z" />
<glyph unicode="&#x26;" horiz-adv-x="1222" d="M163 242.5q-13 70.5 9 150.5q31 117 137.5 220.5t290.5 174.5q10 4 13 5.5t8 3.5q-2 0 -7 10l2 -2q-2 2 -2 6q-37 55 -56 98t-26.5 77t-4.5 62.5t10 57.5q14 57 52 110.5t92 94.5t121.5 66.5t141.5 25.5q70 0 121 -22.5t82 -61.5t39 -91t-6 -110q-25 -90 -97.5 -173 t-218.5 -161l-20 -12q-10 -6 -19 -10l47 -90q23 -43 48 -84l41 -74q20 -37 38 -76q8 6 21 19l-4 -6l6 6q2 4 4 5t4 5t5 7l5 5q10 10 11 15l51 56q27 30 55 85l117 -23q-53 -92 -112 -161l-101 -119q16 -41 24.5 -57.5t18.5 -32.5v2q4 -4 4 -13q4 -16 8 -23t8 -13 q4 -10 11.5 -20.5t13.5 -22.5l-51 -193l-54 78q-29 43 -40 65q-4 8 -9 11q-8 14 -20 33l-27 42q-2 2 -2 7l-4 -4q-4 -1 -5 -4t-5 -5q-98 -98 -212 -141t-224 -41q-92 0 -163 31.5t-114 86t-56 125zM301 292q10 -48 41 -85t79 -59.5t107 -22.5q86 -2 182.5 45t176.5 121l2 4 l-55 99l-56 102l-53 101l-55 101q-168 -78 -257 -156.5t-110 -152.5q-12 -49 -2 -97zM663 723q-1 -10 3 -16l10 -7.5t8 2.5q4 0 16.5 10.5t28.5 22.5l-61 8q-4 -10 -5 -20zM668.5 1032q9.5 -35 31.5 -71l58 -97q2 2 2 1t4 1h-2q4 4 5 3t7 3q59 29 106.5 63t82 67.5t56 63.5 t28.5 52q18 72 -22 117t-118 45q-35 0 -72.5 -14.5t-71.5 -38t-59.5 -55t-33.5 -66.5q-11 -39 -1.5 -74zM889 295q2 -4 6 -8l4 18z" />
<glyph unicode="'" horiz-adv-x="247" d="M307 1098l107 141l20 145l150 11l-25 -160l-221 -180z" />
<glyph unicode="(" horiz-adv-x="532" d="M163 80.5q-5 109.5 10 239t52 268.5q37 133 89.5 259t115 234.5t133 196.5t142.5 147l18 -147q-51 -47 -100.5 -119t-94.5 -161t-85 -193.5t-70 -216.5q-33 -123 -48.5 -235.5t-15.5 -207t16.5 -165t47.5 -111.5l-113 -129q-43 55 -67.5 143t-29.5 197.5z" />
<glyph unicode=")" horiz-adv-x="503" d="M47 -131q55 41 109.5 111.5t105.5 165t95 207t77 235.5q31 113 47.5 217t19.5 194.5t-8.5 162t-37.5 118.5l94 147q41 -59 64.5 -147t28.5 -197.5t-9.5 -235.5t-50.5 -259q-37 -139 -90.5 -268.5t-118 -240t-136 -197.5t-143.5 -142z" />
<glyph unicode="*" horiz-adv-x="964" d="M391 1047l37 135h195l-103 139l123 98l102 -139l54 197h135l-53 -197l176 139l73 -96l-178 -139h197l-37 -137h-201l21 -28l20 -28l66 -86l-121 -94l-104 141l-54 -200h-135l53 196l-93 -71l-83 -66l-73 94l178 142h-195z" />
<glyph unicode="+" horiz-adv-x="925" d="M233 530l37 136h293l78 292h135l-78 -292h295l-37 -136h-294l-80 -294h-136l80 294h-293z" />
<glyph unicode="," horiz-adv-x="354" d="M18 -94l117 131l37 143h150l-43 -164l-240 -166z" />
<glyph unicode="-" horiz-adv-x="862" d="M205 530l37 136h723l-37 -136h-723z" />
<glyph unicode="." horiz-adv-x="296" d="M59 0l45 180h181l-45 -180h-181z" />
<glyph unicode="/" horiz-adv-x="774" d="M59 0l881 1395h145l-878 -1395h-148z" />
<glyph unicode="0" horiz-adv-x="1200" d="M221 418q-6 129 33 276t115.5 276.5t173 225.5t206 151.5t216.5 55.5q106 0 186 -55.5t124 -151.5t49 -225t-34 -277q-39 -147 -113.5 -276t-171 -226.5t-206 -153.5t-215.5 -56t-186.5 56t-125.5 153.5t-51 226.5zM362.5 469q2.5 -104 34 -182t89 -123t135.5 -45 q80 0 161.5 45t153.5 123t130 182t89 225q33 119 31 222.5t-33 181.5t-88 123t-137 45q-78 0 -160 -45t-154.5 -123t-131 -181.5t-91.5 -222.5q-31 -121 -28.5 -225z" />
<glyph unicode="1" horiz-adv-x="626" d="M309 950l47 174l402 271h114l-370 -1395h-135l319 1206q-37 -23 -76 -50l-75 -52l-117 -79z" />
<glyph unicode="2" horiz-adv-x="972" d="M66 0l30 119l742 639q49 41 82.5 91t50.5 109q16 63 7 120t-41 99t-82 65.5t-116 23.5t-134 -29t-134 -80l-72 98q90 66 188.5 107t188.5 41q92 0 165 -35t117 -95.5t58 -141t-10 -173.5q-23 -86 -78 -162.5t-123 -136.5l-218 -189l-220 -189l-83 -72l-87 -74h645 l-35 -135h-841z" />
<glyph unicode="3" horiz-adv-x="882" d="M49 199l127 94q14 -31 40 -59.5t58.5 -50t68.5 -35t73 -13.5q59 0 117.5 18.5t107.5 51.5t84 76t49 92q12 45 1 90t-38.5 82t-70.5 63.5t-95 34.5h-133l35 135h64q25 0 45 1t24 1q57 4 111.5 20.5t98.5 46.5t77 69.5t45 89.5q14 53 4 100t-41 83t-78 56.5t-106 20.5 q-74 0 -132.5 -27t-121.5 -84l-74 98q88 74 175 111t190 37q88 0 157.5 -31t114.5 -85t59.5 -126t-8.5 -153q-29 -102 -99.5 -174t-168.5 -119q70 -57 100.5 -151.5t3.5 -188.5q-23 -78 -75 -145.5t-124.5 -119t-159.5 -81t-175 -29.5q-51 0 -101.5 16.5t-94.5 44t-79 63.5 t-55 77z" />
<glyph unicode="4" horiz-adv-x="968" d="M193 489l30 113l680 805l94 -70l-600 -712h379q10 35 17.5 69.5t17.5 69.5l43 160h133l-78 -299h138l-35 -136h-138l-131 -489h-133l131 489h-548z" />
<glyph unicode="5" horiz-adv-x="1032" d="M174 221l125 98q29 -84 88 -134t141 -50q68 0 134.5 30t123 80t100.5 118.5t64 146.5t20.5 145.5t-21 117.5t-65.5 79t-112 29q-94 0 -190.5 -54.5t-161.5 -144.5h-125l237 713h738l-37 -138h-602q-10 -29 -22.5 -58.5t-22.5 -57.5l-20 -55l-18 -50l-21 -52l-23 -60 q72 45 150.5 67.5t152.5 22.5q96 0 162.5 -40t102.5 -107.5t40 -160t-25 -196.5t-88 -197.5t-140 -163t-175 -109.5t-188 -40q-113 0 -197 60.5t-125 160.5z" />
<glyph unicode="6" horiz-adv-x="1036" d="M198.5 236.5q-14.5 76.5 6.5 164.5q10 63 28 135l35 136l13 41q23 88 50 169t62 152q37 74 93.5 139.5t126 116.5t148.5 82t157 33q113 0 198.5 -52.5t136.5 -152.5l-153 -80q-29 66 -87.5 107t-129.5 41q-55 0 -110.5 -20.5t-105 -55.5t-90 -85t-67.5 -108 q-59 -133 -102 -288q72 59 155.5 94t177.5 39q86 0 158 -31t118 -86t63.5 -131t-5.5 -168l-6 -18q-25 -90 -79 -168t-129 -135.5t-164 -90t-179 -32.5q-86 0 -152.5 31.5t-109.5 88t-57.5 133zM335 293q11 -51 41 -91t77 -62.5t106 -22.5q61 0 120.5 23.5t110 62.5t88 91 t54.5 112l4 18q14 61 4 112.5t-40 90.5t-78 60.5t-109 21.5t-121 -25t-111 -67t-88 -97t-53 -117q-16 -59 -5 -110z" />
<glyph unicode="7" horiz-adv-x="907" d="M55 0l922 1257h-578l37 138h799l-1024 -1395h-156z" />
<glyph unicode="8" horiz-adv-x="940" d="M143.5 237.5q-12.5 75.5 10.5 161.5q14 53 42.5 104.5t67.5 97.5t84 84t92 67q-57 47 -77.5 120.5t6.5 167.5q20 74 67 140.5t110.5 116t138.5 78t151 28.5q80 0 140 -28.5t98 -78t50.5 -116t-8.5 -140.5q-25 -92 -84 -166.5t-143 -121.5q72 -55 98.5 -147.5t-2.5 -205.5 q-23 -86 -76 -161.5t-124.5 -133t-156.5 -90t-173 -32.5q-86 0 -151.5 32.5t-106.5 90t-53.5 133zM283.5 293q9.5 -51 37 -90t71.5 -61.5t100 -22.5q59 0 116.5 22.5t106.5 61.5t84 90t51 106q14 57 6 107.5t-35.5 89.5t-74 61.5t-105.5 22.5q-55 0 -111.5 -22.5 t-104.5 -61.5t-84 -89t-50 -108q-17 -55 -7.5 -106zM499 952q7 -41 31.5 -71.5t62.5 -48t85 -17.5q49 0 97 17.5t88 48t71 71.5t43 88t4 88t-31.5 72t-62.5 48.5t-88 17.5q-47 0 -95.5 -17.5t-88.5 -48.5t-69.5 -72t-41.5 -88t-5 -88z" />
<glyph unicode="9" horiz-adv-x="1001" d="M141 178l148 98q31 -72 87 -111.5t126 -39.5q59 0 115.5 20.5t106.5 55.5t91 83t68 103v-2q29 68 52 141l46 150q-74 -55 -165 -91t-183 -36q-86 0 -153.5 31.5t-110.5 87t-58.5 131t6.5 162.5l5 14q25 88 79 166t127.5 136t160.5 93t177 35q88 0 154.5 -34t110 -92 t58.5 -135t-1 -163q-12 -63 -32 -136l-36 -138l-14 -52q-23 -80 -47.5 -154.5t-57.5 -146.5q-37 -82 -97 -149.5t-134 -116.5t-156 -75.5t-163 -26.5q-100 0 -181.5 53t-128.5 139zM449.5 855q11.5 -50 40 -89t74.5 -60.5t106 -21.5q61 0 122.5 22.5t112.5 62.5t90 94.5 t56 115.5q14 57 3.5 109.5t-41 92.5t-77.5 62.5t-105 22.5q-63 0 -124.5 -24.5t-112.5 -66.5t-89 -96.5t-54 -113.5q-13 -60 -1.5 -110z" />
<glyph unicode=":" horiz-adv-x="372" d="M96 0l45 180h181l-46 -180h-180zM319 844l48 180h180l-47 -180h-181z" />
<glyph unicode=";" horiz-adv-x="346" d="M0 -94l115 131l37 143h149l-41 -164l-244 -163zM319 844l48 180h176l-47 -180h-177z" />
<glyph unicode="&#x3c;" horiz-adv-x="675" d="M160 508l647 516l76 -96l-531 -420l71 -95l75 -100l82 -109l79 -106l-124 -100z" />
<glyph unicode="=" horiz-adv-x="901" d="M223 389l39 139h703l-39 -139h-703zM324 764l38 141h703l-39 -141h-702z" />
<glyph unicode="&#x3e;" horiz-adv-x="688" d="M70 98l526 410l-73 97q-38 50 -72 102l-38 52l-43 60l-42 59l-35 50l123 96l372 -516l-649 -510z" />
<glyph unicode="?" horiz-adv-x="839" d="M338 641l33 117h213q51 2 99 21.5t90 53t71.5 77.5t44.5 98q14 53 8 100t-30.5 83t-63.5 56.5t-90 20.5q-68 0 -138.5 -44t-132.5 -116l-73 98q80 90 179 143.5t202 53.5q80 0 140 -32t97 -85t47 -124.5t-12 -153.5q-20 -78 -67.5 -147.5t-112 -123t-141 -84 t-154.5 -30.5h-68q0 -55 3 -110.5t5 -115.5q4 -98 6.5 -203.5t6.5 -193.5h-148zM340 -160q10 37 39 58.5t59 21.5q37 0 53.5 -21.5t6.5 -58.5q-10 -35 -38 -59.5t-65 -24.5q-31 0 -48 24.5t-7 59.5z" />
<glyph unicode="@" horiz-adv-x="1636" d="M210.5 225q-20.5 127 18.5 273q39 147 129.5 275t211 223.5t263 150.5t287.5 55t254 -51t174.5 -138t84 -203t-16.5 -247q-25 -92 -65 -169t-78 -134q-45 -68 -97 -123q-43 -47 -96 -73.5t-106 -26.5q-39 0 -67 14.5t-47.5 37t-31.5 50t-20 56.5q-20 -6 -50 -13.5 t-63 -14.5l-65.5 -13.5t-57.5 -8.5q-39 -4 -84 8.5t-80 44t-50 89t9 145.5q8 29 17.5 54.5t23.5 54.5v-2q45 96 104.5 160.5t123 102.5t128 54t123.5 16q35 0 83.5 -2t95.5 -6l110 -8l-106 -217l-65 -134q-24 -50 -33 -71.5t-11 -27.5l-2 -7q-35 -94 -14.5 -157.5 t67.5 -63.5q16 0 36 11.5t40 27.5q2 2 23.5 28.5t50.5 71.5t58.5 106.5t49.5 135.5q27 100 13.5 191.5t-62.5 161t-134 110.5t-204 41q-117 0 -230.5 -44t-210.5 -121t-170 -180.5t-103 -219.5q-31 -117 -14.5 -218.5t72.5 -178t146.5 -120.5t206.5 -44q33 0 79 6t112 26 l-41 -149q-94 -23 -187 -23q-145 0 -257.5 55.5t-183.5 150.5t-91.5 222zM721 371.5q2 -27.5 12 -45t27.5 -25.5t36.5 -8q43 -2 92 5t80 17l93 202l97 202h-57q-23 0 -36 1t-20 1h-14q-76 2 -145.5 -40t-124.5 -161q-14 -27 -21.5 -45t-11.5 -35q-10 -41 -8 -68.5z" />
<glyph unicode="A" d="M37 0l897 1415h108l144 -1415h-144l-63 563h-438l-181 -281l-180 -282h-143zM627 702h338q-4 59 -11 113l-12 107v-2q-10 66 -13 114.5t-11 122.5l-58 -90q-29 -43 -55 -88l-88 -135z" />
<glyph unicode="B" horiz-adv-x="1048" d="M90 0l377 1415h461q80 -2 142.5 -31.5t101 -79t52.5 -113.5q5 -25 5 -52q0 -41 -12 -84q-25 -96 -90.5 -174t-153.5 -129q72 -55 100 -146q15 -47 15 -97q0 -46 -13 -95q-23 -84 -74 -158t-121.5 -129t-155.5 -88t-173 -35h2l-37 -4h-426zM262 139h324q59 2 115.5 25.5 t103.5 60.5t82 85t49 104q9 31 9 61q0 19 -4 37q-9 47 -36.5 84t-72 59.5t-101.5 26.5h-323zM444 821h324q53 2 103.5 19.5t92.5 48.5t72.5 74t42.5 92q7 25 7 48q0 17 -4 34q-9 39 -33.5 69.5t-65.5 50t-92 23.5h-324z" />
<glyph unicode="C" horiz-adv-x="1208" d="M207 425q-6 41 -6 84q0 95 28 198q39 143 124 273t199 228.5t247 156.5t268 58q129 0 233.5 -58t169.5 -159l-120 -94q-57 82 -138.5 127t-181.5 45q-102 0 -206.5 -45t-194.5 -123t-159 -183.5t-101 -225.5q-24 -91 -24 -175q0 -25 2 -50q9 -105 55.5 -185t127 -127 t189.5 -47q100 0 202.5 45t204.5 125l70 -94q-123 -100 -255 -158.5t-261 -58.5q-127 0 -228.5 57t-164 155.5t-80.5 230.5z" />
<glyph unicode="D" horiz-adv-x="1177" d="M57 0l377 1415h531q104 -2 180 -57t118 -150.5t47 -223.5q1 -15 0 -30q0 -115 -34 -243q-39 -145 -111.5 -273.5t-165 -223.5t-198 -152.5t-209.5 -61.5h-535zM231 139h97q49 0 96 2q51 0 102.5 1t100.5 1q76 2 152.5 47.5t146 122t125 179t86.5 219.5t30.5 219t-29 179 t-83 121t-129.5 46h-391z" />
<glyph unicode="E" horiz-adv-x="993" d="M72 0l377 1415h837l-37 -135h-700l-123 -459h600l-37 -139h-600l-145 -543h700l-35 -139h-837z" />
<glyph unicode="F" horiz-adv-x="997" d="M80 0l377 1415h837l-37 -133h-700l-123 -461h598l-37 -139h-598l-88 -328l-46 -178l-46 -176h-137z" />
<glyph unicode="G" horiz-adv-x="1236" d="M197 422q-5 37 -5 76q0 97 29 202q39 150 126 281t202 229.5t248 155.5t266 57q129 0 232.5 -57t172.5 -160l-120 -96q-57 82 -140.5 127t-183.5 45q-104 0 -209.5 -45t-197 -124t-160 -184.5t-101.5 -228.5q-24 -88 -23 -168q0 -30 3 -59q12 -106 61 -185t130 -125 t186 -46q90 0 179 32.5t167 92.5l94 348h-375l35 135h514l-141 -528l-8 -19q-117 -92 -245 -144t-257 -52q-133 0 -236.5 56t-165 154.5t-77.5 229.5z" />
<glyph unicode="H" horiz-adv-x="1142" d="M82 0l377 1415h139l-160 -594h695l159 594h135l-376 -1415h-136l181 682h-695l-88 -328l-46 -178l-46 -176h-139z" />
<glyph unicode="I" horiz-adv-x="282" d="M74 0l377 1415h139l-377 -1415h-139z" />
<glyph unicode="J" horiz-adv-x="624" d="M57 92l117 96q18 -29 40 -48t48 -19q29 0 59.5 17.5t58.5 48t51.5 73.5t37.5 94l285 1061h137l-285 -1057q-20 -78 -60 -145.5t-92.5 -119.5t-111.5 -81.5t-117 -29.5q-53 0 -96 31.5t-72 78.5z" />
<glyph unicode="K" horiz-adv-x="1193" d="M72 0l377 1415h139l-187 -692l391 346l390 346h182l-694 -618l157 -271l164 -276l73 -127l73 -123h-176l-414 690q-16 -16 -36 -34l-38 -33l-62 -56l-67 -57l-65 -246l-34 -134q-17 -71 -34 -130h-139z" />
<glyph unicode="L" horiz-adv-x="927" d="M72 0l377 1415h135l-342 -1276h665l-35 -139h-800z" />
<glyph unicode="M" horiz-adv-x="1275" d="M53 0l377 1415h125l240 -731l622 731h129l-379 -1415h-139l299 1124l-276 -321l-271 -322h-86l-207 641l-69 -264l-70 -266l-158 -592h-137z" />
<glyph unicode="N" horiz-adv-x="1099" d="M78 0l377 1415h125l360 -1116l299 1116h139l-377 -1415h-127l-362 1122l-70 -263l-69 -265l-158 -594h-137z" />
<glyph unicode="O" horiz-adv-x="1413" d="M207 420q-5 38 -5 78q0 99 29 209q39 150 125 279.5t200 227t247 153.5t268 56q137 0 240.5 -56t163 -152.5t72.5 -227.5q3 -33 4 -68q0 -101 -29 -212q-43 -160 -130 -294t-208 -233q-115 -96 -242 -147t-258 -51t-233.5 55t-165 152.5t-78.5 230.5zM350 477 q10 -106 57.5 -185t128 -124t187.5 -45q109 0 214 45t194.5 124t157 185.5t100.5 229.5q25 90 24 171q0 33 -4 65q-14 110 -72 187q-47 74 -125.5 113t-179.5 39q-106 0 -210.5 -45t-193.5 -123t-155.5 -182.5t-99.5 -224.5q-25 -94 -25 -178q0 -27 2 -52z" />
<glyph unicode="P" horiz-adv-x="983" d="M90 0l377 1415h418q86 0 152.5 -28.5t108.5 -77.5t56 -115q6 -27 6 -55q0 -41 -12 -84q-20 -78 -70.5 -146.5t-120 -120t-151.5 -80t-168 -28.5h-283l-86 -326l-46 -178l-46 -176h-135zM442 819h283q55 0 109.5 17.5t99.5 49.5t79 75t46 94q6 24 6 46q0 21 -5 40 q-11 41 -40 71.5t-74 49t-102 18.5h-279z" />
<glyph unicode="Q" horiz-adv-x="1361" d="M238 498q-4 33 -4 68q0 89 26 188q39 143 120 265t187.5 212t228.5 141t242 51q123 0 218.5 -51t152.5 -142t73 -213q5 -36 4 -74q0 -90 -26 -189q-39 -145 -124 -270.5t-195 -215.5q-80 -68 -169 -110.5t-184 -63.5v-16q0 -30 7 -51q8 -27 26 -27q16 0 33.5 18.5 l38.5 42.5l78 -88q-51 -47 -96.5 -76.5t-90.5 -29.5q-33 0 -58.5 17.5t-42.5 47t-25 69.5q-6 31 -5 64v19q-115 8 -204 62.5t-143 143.5t-68 208zM368 553q7 -94 44 -166t101.5 -118t150.5 -56q-15 27 -61 27h-7l33 125h7q75 0 122 -40q49 -42 55 -102q84 20 165 68.5 t149.5 118t119.5 157.5t78 187q22 85 23 163q0 29 -3 56q-11 102 -65 178q-45 68 -113.5 106.5t-162.5 38.5q-96 0 -192.5 -42t-180.5 -115.5t-147.5 -173t-94.5 -211.5q-23 -85 -23 -163z" />
<glyph unicode="R" horiz-adv-x="970" d="M70 0l376 1415h418q86 0 153.5 -27.5t110.5 -76.5t58 -116q6 -27 6 -56q0 -41 -12 -86q-20 -78 -71.5 -144.5t-120 -118t-151.5 -80t-169 -28.5h-136l80 -128l82 -130l130 -215l128 -209h-178l-397 639l-85 -320l-85 -319h-137zM426 821h279q55 0 109 17.5t100.5 49.5 t80 74t45.5 91q6 24 7 46q0 21 -6 41q-11 42 -40.5 73.5t-74.5 50t-103 18.5h-274z" />
<glyph unicode="S" horiz-adv-x="993" d="M115 199l135 90q31 -78 95.5 -123t160.5 -45q57 0 114.5 18.5t105.5 50t84 75.5t50 95q6 25 7 49q0 22 -6 43q-11 44 -39.5 80.5t-71.5 62.5t-97 36q-84 12 -149.5 48t-107.5 89t-56 122q-6 28 -6 57q0 42 12 85q23 84 76 154.5t127 123t163 82t181 29.5q123 0 208 -46 t138 -132l-135 -90q-35 63 -97.5 99t-148.5 36q-59 0 -118.5 -19.5t-110.5 -53t-88 -78.5t-52 -97q-9 -31 -8 -60q0 -19 3 -38q9 -47 38 -85t75 -61.5t108 -29.5q84 -10 148.5 -47t104 -90.5t52.5 -120.5q5 -25 4 -52q0 -44 -13 -89q-23 -80 -75 -151t-124.5 -123 t-159.5 -81.5t-177 -29.5q-131 0 -220 59.5t-130 157.5z" />
<glyph unicode="T" horiz-adv-x="1177" d="M408 1280l36 135h1026l-36 -135h-443l-168 -625l-87 -328l-85 -327h-137l340 1280h-446z" />
<glyph unicode="U" horiz-adv-x="1224" d="M164 367l282 1048h146l-281 -1046q-1 -8 0 -15q0 -39 18 -76q22 -44 65.5 -79t105 -55.5t137.5 -20.5q72 0 142.5 20.5t131 55t105.5 79t67 91.5l281 1046h139l-282 -1048q-25 -80 -86.5 -150t-146.5 -122t-186.5 -82.5t-203.5 -30.5q-109 0 -196 30.5t-145 82.5t-84 122 q-16 42 -16 89q1 30 7 61z" />
<glyph unicode="V" horiz-adv-x="1308" d="M438 1415h144l123 -1179l158 246l159 249l221 345l217 339h146l-899 -1415h-127z" />
<glyph unicode="W" horiz-adv-x="1873" d="M449 1415h145l123 -1184l73 116l72 116l168 266q-8 80 -15 165t-18 167l-16 179q-8 93 -14 175h143l57 -559l17 -155l16 -150q8 -88 15 -158l18 -162l143 229l148 230l231 365l232 360h147l-897 -1415h-129l-57 520l-83 -130l-83 -130l-83 -131l-81 -129h-127z" />
<glyph unicode="X" horiz-adv-x="1107" d="M39 0l612 723l-217 692h158l184 -563l115 134l117 134l129 148l127 147h157l-602 -706q29 -84 54 -169l53 -173l59 -185l59 -182h-157l-195 586l-134 -162l-140 -164l-112 -130l-109 -130h-158z" />
<glyph unicode="Y" horiz-adv-x="1394" d="M406 1415h182l297 -645l86 87l86 87l238 237l239 234h180l-794 -782l-82 -307q-23 -80 -43.5 -165l-40.5 -161h-142l166 633l-51 108l-53 115l-66 139l-70 147l-70 143z" />
<glyph unicode="Z" horiz-adv-x="1122" d="M27 0l1136 1276h-714l38 139h963l-1135 -1276h701l-35 -139h-954z" />
<glyph unicode="[" horiz-adv-x="430" d="M215 119l125 469q8 27 -5 43t-36 16h-68l37 135h68q23 0 45 18.5t29 41.5l120 450q20 47 78 75t121 28l-37 -140q-14 0 -24.5 -3t-12.5 1l-116 -440q-20 -33 -45 -54.5t-62 -27.5l-8 -31q29 -8 45 -28.5t18 -48.5l-131 -488h35l-33 -135q-27 0 -55.5 8t-50 23.5t-32.5 38 t-5 49.5z" />
<glyph unicode="\" horiz-adv-x="759" d="M430 1395h145l140 -1395h-148z" />
<glyph unicode="]" horiz-adv-x="374" d="M35 0l33 135q31 0 36 2l132 484q33 70 98 79l5 15l7 18q-29 10 -45 30.5t-14 49.5l119 442h-37l37 140q72 0 109.5 -30t33.5 -73v-12l-117 -438q-6 -23 3 -41.5t34 -18.5h68l-37 -135h-68q-25 0 -43 -16.5t-27 -42.5l-124 -469q-6 -27 -28 -48.5t-51.5 -37t-62 -24.5 t-61.5 -9z" />
<glyph unicode="^" horiz-adv-x="1128" d="M274 897l654 510l372 -512l-124 -98l-302 415l-125 -98l-128 -100l-140 -110l-137 -107z" />
<glyph unicode="_" horiz-adv-x="1050" d="M68 0l32 135h871l-33 -135h-870z" />
<glyph unicode="`" horiz-adv-x="417" d="M332 1294h223l107 -223h-103z" />
<glyph unicode="a" horiz-adv-x="835" d="M112 177q-4 22 -5 45q0 38 12 79q18 68 60 126t100.5 102t126 70t137.5 26h207l10 32q13 46 12 87q0 45 -15 82q-30 71 -108 75q-41 0 -68.5 -5t-58.5 -15q-6 -2 -10 -2t-8 -2t-11.5 -3.5t-17.5 -5.5q-8 -4 -24 -4v123q4 2 15 6t15 6q53 16 96.5 26.5t110.5 10.5 q63 -2 110.5 -30.5t75 -77.5t35.5 -113q3 -21 3 -43q0 -44 -11 -92l-4 -23l-88 -321l-33 -120l-30 -105l-21 -78q-8 -31 -8 -33h-133l12 49q-55 -33 -110.5 -50t-114.5 -17q-70 0 -124 25.5t-89 68.5t-46 101zM251 229q7 -33 28.5 -57.5t54.5 -38.5t74 -14q43 0 83.5 14 t75.5 39t60.5 58.5t36.5 72.5l51 184h-211q-41 0 -81 -15t-75 -40.5t-59.5 -59.5t-34.5 -71q-6 -23 -6 -44q0 -15 3 -28z" />
<glyph unicode="b" horiz-adv-x="1071" d="M104 0l373 1395h137l-110 -410q121 51 274 51q102 0 180 -42t125 -114.5t61 -167.5q4 -30 4 -62q0 -67 -20 -140q-29 -109 -92 -204t-149 -166.5t-187.5 -114.5t-203.5 -45q-78 4 -139.5 17t-108.5 40l-8 -37h-136zM285 178q23 -12 87 -34.5t160 -26.5q72 2 145 33.5 t136.5 85t110.5 124t69 150.5q14 54 14 104q0 23 -2 44q-9 71 -44 124.5t-91.5 85t-128.5 31.5q-41 0 -89 -10t-91 -23q-51 -14 -100 -30z" />
<glyph unicode="c" horiz-adv-x="978" d="M151 304q-4 30 -5 62q0 68 20 142q29 109 93.5 205t150.5 167.5t186 113.5t201 42q106 0 189 -50t136 -130l-125 -98q-39 63 -99 102t-138 39q-74 0 -146.5 -30.5t-135 -84t-109.5 -124t-68 -152.5q-16 -57 -16 -109q0 -21 3 -42q9 -71 43 -124t90 -83.5t130 -30.5 q72 0 150.5 35.5t152.5 101.5l76 -96q-100 -82 -206 -130t-210 -48q-100 0 -178 42t-125 113.5t-60 166.5z" />
<glyph unicode="d" horiz-adv-x="1030" d="M144 307q-4 31 -4 62q0 68 20 143q29 109 93 203t150 164.5t187.5 112.5t204.5 42q82 0 141 -11t106 -42l111 414h137l-372 -1395h-138l8 37q-59 -25 -129.5 -39t-146.5 -18q-102 2 -180 45t-126.5 114.5t-61.5 167.5zM282 361q9 -71 44.5 -125t93 -86.5t133.5 -34.5 q47 0 96 10t90 22q47 14 88 35l177 654q-31 16 -98.5 38.5t-147.5 22.5q-76 -2 -149.5 -34t-137 -84t-111 -120.5t-67.5 -146.5q-14 -55 -14 -106q0 -23 3 -45z" />
<glyph unicode="e" horiz-adv-x="933" d="M158 281q-4 32 -5 65q0 62 15 129l8 35q29 109 87.5 205t134 167.5t161.5 113.5t172 42t151.5 -35.5t102.5 -101t44 -157.5l2 -37q0 -76 -23 -164l-21 -76h-680q-5 -38 -5 -73q0 -32 4 -61q9 -62 36 -110.5t70 -76t100 -27.5q37 0 81 9t88 22.5t84 32t71 36.5l20 -129 q-72 -43 -163 -69.5t-169 -36.5q-10 -2 -27 -2h-26q-86 0 -152.5 37.5t-107.5 104.5t-53 157zM344 602h543q2 22 2 44q0 39 -7 74q-11 54 -37 94t-64 62.5t-87 22.5t-100 -21.5t-97 -60.5t-86 -93t-67 -122z" />
<glyph unicode="f" horiz-adv-x="671" d="M201 0l86 322l37 140l37 143l37 137q17 67 34 122h-145l37 137h143l12 48q23 72 66 136t97 112.5t116.5 77t122.5 28.5q29 0 55.5 -1t73.5 -7l-78 -140q-37 10 -56.5 11.5t-31.5 1.5q-37 -2 -74 -21.5t-68.5 -51.5t-57.5 -76t-38 -93l-6 -25h254l-37 -137h-254l-229 -864 h-133z" />
<glyph unicode="g" horiz-adv-x="1128" d="M38 -181q-8 30 -9 62q0 34 10 70q23 86 96.5 160.5t171.5 117.5q-2 18 1 38t9 42q8 27 21.5 52.5t30.5 44.5q-71 71 -71 172q0 45 13 96q20 74 69.5 140.5t119 115.5t152.5 77.5t169 28.5q49 0 83 -6t63 -16h391l-166 -135h-70q20 -41 27 -95q2 -15 2 -29q0 -40 -12 -81 q-20 -76 -70.5 -141.5t-120 -113.5t-151.5 -76t-168 -28q-33 0 -55.5 4.5l-43.5 8.5q-16 4 -30.5 6t-24.5 2q-14 0 -27.5 -5t-17.5 -18q-6 -25 6.5 -31t28.5 -6h9q5 0 15 3q10 2 23.5 3t30.5 1q86 0 155.5 -26t114.5 -71t61 -105q8 -28 8 -59q0 -34 -10 -71 q-18 -70 -67 -132.5t-118 -108.5t-152.5 -72.5t-169.5 -26.5q-84 0 -153 26.5t-113 73t-61 108.5zM172 -49q-4 -18 -4 -35q0 -22 7 -44q13 -38 44 -66.5t78 -45t102 -16.5q59 0 116.5 16.5t104 45t79 66.5t42.5 79q5 18 5 35q0 21 -7 42q-12 38 -42.5 65.5t-79 45 t-107.5 17.5q-55 0 -111.5 -17.5t-102.5 -45t-80 -65.5t-44 -77zM444 586q10 -41 40 -72t76 -49.5t104 -18.5q59 0 115.5 18.5t102.5 49.5t79.5 72t46.5 88q7 27 6 51q0 21 -4 40q-10 42 -40 72.5t-77 48t-107 17.5q-57 0 -112.5 -17.5t-101.5 -48t-79.5 -72.5t-46.5 -91 q-7 -26 -6 -50q-1 -19 4 -38z" />
<glyph unicode="h" horiz-adv-x="931" d="M76 0l373 1399h135l-125 -461q63 51 127.5 75.5t142.5 24.5q74 0 129 -29.5t89 -82t43 -120.5q3 -23 3 -47q0 -48 -12 -102l-170 -651h-135l176 651q6 30 6 59q0 20 -3 38q-7 45 -30.5 77.5t-59.5 52t-83 19.5q-41 0 -83 -19.5t-81 -50t-72.5 -70.5t-54.5 -81l-41 -154 l-47 -182l-92 -346h-135z" />
<glyph unicode="i" horiz-adv-x="348" d="M102 0l271 1024h133l-270 -1024h-134zM428 1286q10 35 40 57.5t64 22.5q33 0 54 -23q14 -15 13 -35q0 -10 -3 -22q-10 -31 -42 -55.5t-65 -24.5q-35 0 -53 25q-12 16 -12 34q0 10 4 21z" />
<glyph unicode="j" horiz-adv-x="724" d="M-23 -377l52 135q27 -4 49 -6q18 -2 34.5 -3t20.5 -1q37 2 75 21.5t69.5 52.5t57 75t38.5 89l278 1040h135l-284 -1059q-25 -72 -67 -135t-95 -110.5t-116.5 -76t-127.5 -30.5q-16 0 -34.5 1t-36.5 3q-6 2 -14.5 3t-33.5 1zM702 1278q10 35 39 56.5t64 21.5q29 0 48 -22 q13 -14 13 -34q0 -10 -4 -22q-10 -35 -40.5 -57.5t-59.5 -22.5q-35 0 -52 23q-11 14 -11 33q-1 11 3 24z" />
<glyph unicode="k" horiz-adv-x="901" d="M104 0l373 1395h135l-178 -664l89 61l89 60l246 172h209l-426 -289l52 -177l57 -177l59 -195l59 -186h-157l-195 641q-31 -23 -62 -43l-67 -43l-72 -268l-37 -147l-36 -140h-138z" />
<glyph unicode="l" horiz-adv-x="331" d="M106 0l410 1538h135l-409 -1538h-136z" />
<glyph unicode="m" horiz-adv-x="1513" d="M74 0l239 903l31 121h137l-22 -90q63 53 127.5 76.5t136.5 23.5q98 0 161.5 -49t92.5 -129q78 94 173 138t173 44q72 0 127 -29.5t89 -80.5t44 -121q4 -25 4 -51q0 -47 -12 -99l-172 -653h-137l176 653q8 31 8 61q0 17 -3 34q-7 45 -28.5 77.5t-57.5 52t-83 19.5 q-43 0 -86 -18.5t-82 -49t-70.5 -69.5t-52.5 -80l-182 -680h-135l174 649q8 36 8 68q0 61 -31 106q-47 70 -145 70q-41 0 -82 -18.5t-80 -49t-71.5 -69.5t-53.5 -80l-18 -73l-23 -88l-24 -93l-23 -84l-90 -342h-137z" />
<glyph unicode="n" horiz-adv-x="886" d="M61 0l271 1024h137l-23 -86q127 102 271 102q72 0 127 -29.5t89 -81.5t44 -122q4 -25 4 -51q0 -47 -12 -99l-170 -657h-135l174 657q9 36 8 70q0 14 -1 27q-5 45 -25.5 77.5t-54.5 52t-79 19.5q-41 0 -86 -18.5t-87 -48t-78 -69.5t-56 -83l-19 -73l-22 -88l-25 -93 l-22 -84l-92 -346h-138z" />
<glyph unicode="o" horiz-adv-x="1050" d="M147 302q-4 29 -3 58q0 69 20 146q29 111 93.5 207t148 167.5t183 113.5t199.5 42q98 0 174 -42t122 -113.5t58 -167.5q3 -27 3 -56q0 -72 -21 -151q-29 -109 -92 -204t-147 -167t-182.5 -113.5t-196.5 -41.5q-100 0 -177 41.5t-123.5 113.5t-58.5 167zM287 355 q8 -71 40.5 -124t88 -83.5t127.5 -30.5q70 0 140.5 30.5t130.5 84t105.5 124t67.5 150.5q15 61 15 116q0 19 -2 37q-7 72 -39.5 125.5t-86 84t-122.5 30.5q-72 0 -143.5 -30.5t-133 -84t-107.5 -125t-67 -153.5q-17 -59 -16 -112q0 -20 2 -39z" />
<glyph unicode="p" horiz-adv-x="1036" d="M-29 -379l373 1403h131l-10 -45q59 23 132 40t142 17q100 -2 179 -45t126.5 -113.5t60.5 -164.5q4 -30 4 -61q0 -67 -19 -140q-29 -111 -93.5 -207t-150.5 -167.5t-186.5 -113.5t-202.5 -42q-74 0 -136.5 14t-107.5 41l-111 -416h-131zM250 180q27 -14 95.5 -36.5 t148.5 -26.5q76 2 148.5 33.5t135 85t108.5 125t68 151.5q15 57 15 109q0 21 -2 41q-8 70 -42 122t-91.5 82.5t-131.5 30.5q-41 0 -90 -11.5t-90 -23.5q-49 -14 -98 -33z" />
<glyph unicode="q" horiz-adv-x="1054" d="M152 308q-5 32 -5 65q0 66 19 137q29 109 94.5 204t151.5 166.5t186 113.5t201 42q162 0 252 -51l10 39h135l-375 -1403h-135l113 420q-123 -57 -283 -57q-100 2 -178 45t-125 113.5t-61 165.5zM287 359q10 -71 45 -123t92 -82.5t129 -32.5q39 0 88 9t92 22q51 12 103 30 l176 654q-23 12 -89.5 38.5t-160.5 26.5q-74 0 -146.5 -30.5t-136 -84t-112 -125t-68.5 -151.5q-15 -55 -15 -106q0 -23 3 -45z" />
<glyph unicode="r" horiz-adv-x="585" d="M70 0l270 1024h137l-22 -90q59 49 126.5 75.5t139.5 26.5q12 0 49 -5t59 -13l-57 -144q-63 23 -82 23q-41 0 -86 -20.5t-87 -53t-76.5 -70.5t-55.5 -75l-39 -154l-49 -182l-90 -342h-137z" />
<glyph unicode="s" horiz-adv-x="854" d="M113 143l125 78q33 -43 88 -72.5t120 -29.5q45 0 87 11t76 30.5t57.5 46t31.5 59.5q3 13 4 25q0 44 -40 86q-51 53 -127 76q-66 10 -117 40.5t-85 72.5t-47 92q-6 24 -7 49q0 27 8 55q16 61 58 111.5t99.5 86t126 55t140.5 19.5q98 0 178 -42t125 -109l-131 -80 q-35 45 -93.5 69.5t-123.5 24.5q-86 0 -156 -38t-86 -99q-4 -15 -4 -30q0 -42 35 -81q47 -51 139 -67q66 -12 117 -42t83.5 -72t44.5 -94q5 -23 5 -47q0 -30 -8 -61q-16 -61 -57.5 -113.5t-98.5 -90t-126 -58t-138 -20.5q-92 0 -176 40.5t-127 118.5z" />
<glyph unicode="t" horiz-adv-x="696" d="M229 0l86 326l37 140l38 144l37 140q17 68 34 122h-148l37 138h144l102 385h137l-102 -385h262l-37 -138h-262l-232 -872h-133z" />
<glyph unicode="u" horiz-adv-x="921" d="M168 216q-3 22 -3 44q0 51 13 107l170 657h133l-172 -657q-8 -33 -8 -64q0 -15 2 -31q6 -45 25.5 -78.5t54.5 -53t82 -19.5q43 0 87 18.5t84 49t73.5 70.5t54.5 81l182 684h135l-272 -1024h-133l18 84q-59 -47 -127.5 -74.5t-140.5 -27.5q-74 0 -128 29.5t-88 81.5 t-42 123z" />
<glyph unicode="v" horiz-adv-x="1024" d="M293 1024h141l117 -809l197 292l196 292l77 113l75 112h147l-688 -1024h-121z" />
<glyph unicode="w" horiz-adv-x="1443" d="M289 1024h143l113 -805l43 60q23 31 41 59l63 93l62 93l-18 134q-9 71 -19 137l-17 117l-14 112h154l110 -807l272 405l269 402h147l-688 -1024l-127 6l-43 328l-93 -136l-95 -137l-22 -30l-21 -31l-119 6z" />
<glyph unicode="x" horiz-adv-x="909" d="M25 0l460 530l-180 494h168l135 -373q53 63 109 122l112 122l59 66q30 35 58 63h168l-452 -508l33 -98l34 -101l57 -161l56 -156h-164l-146 393l-173 -197l-171 -196h-163z" />
<glyph unicode="y" horiz-adv-x="980" d="M-59 -373l55 133q49 -16 84 -16q80 0 172 83t203 273q-16 113 -35 225.5t-35 227.5l-34 243l-34 240h142l104 -770l102 155l101 154l154 232l153 229h148l-641 -950l2 2l-38 -57l-38 -58l-72 -112q-37 -59 -85 -105.5t-101 -79t-108.5 -49t-104.5 -16.5q-45 0 -94 16z " />
<glyph unicode="z" horiz-adv-x="925" d="M74 0l30 123l781 764h-570l35 137h762l-33 -123l-780 -764h575l-32 -137h-768z" />
<glyph unicode="{" horiz-adv-x="456" d="M215 119l125 469q8 27 -5 43t-36 16h-68l37 135h68q23 0 45 18.5t29 41.5l120 450q20 47 78 75t121 28l-37 -140q-14 0 -24.5 -3t-12.5 1l-116 -440q-20 -33 -45 -54.5t-62 -27.5l-8 -31q29 -8 45 -28.5t18 -48.5l-131 -488h35l-33 -135q-27 0 -55.5 8t-50 23.5t-32.5 38 t-5 49.5z" />
<glyph unicode="|" horiz-adv-x="268" d="M86 2l385 1442h104l-385 -1442h-104z" />
<glyph unicode="}" horiz-adv-x="385" d="M35 0l33 135q31 0 36 2l132 484q33 70 98 79l5 15l7 18q-29 10 -45 30.5t-14 49.5l119 442h-37l37 140q72 0 109.5 -30t33.5 -73v-12l-117 -438q-6 -23 3 -41.5t34 -18.5h68l-37 -135h-68q-25 0 -43 -16.5t-27 -42.5l-124 -469q-6 -27 -28 -48.5t-51.5 -37t-62 -24.5 t-61.5 -9z" />
<glyph unicode="~" horiz-adv-x="710" d="M268 596l78 170q23 -41 48.5 -62.5t49.5 -21.5q10 0 23 4l25 8h-3q33 16 69 25.5t67 9.5q74 0 139 -53l-82 -182q-23 47 -46.5 72.5t-45.5 25.5q-10 0 -26.5 -5t-26.5 -9h2q-29 -16 -65 -26.5t-66 -10.5q-37 0 -73 13t-67 42z" />
<glyph unicode="&#xa1;" horiz-adv-x="327" d="M100 0l318 1196h123l-318 -1196h-123zM442 1327v2q8 29 34 51.5t59 22.5q29 0 45 -22.5t8 -51.5q-8 -33 -36 -53.5t-56 -20.5q-35 0 -47.5 20.5t-6.5 51.5z" />
<glyph unicode="&#xa2;" horiz-adv-x="978" d="M148.5 323q-9.5 87 17.5 185t83 186t131 158t164 116t181 60l37 135h145l-37 -135q82 -12 143.5 -58t108.5 -114l-125 -98q-29 47 -69.5 84t-93.5 49l-205 -766q53 12 111.5 47t117.5 84l72 -96q-84 -68 -168 -113t-170 -59l-37 -133h-145l36 135q-84 14 -147 60 t-102 116t-48.5 157zM287 374.5q4 -63.5 28.5 -114.5t66.5 -87t101 -48l205 766q-66 -12 -126 -48t-112.5 -86t-91.5 -114.5t-57 -134.5t-14 -133.5z" />
<glyph unicode="&#xa3;" horiz-adv-x="1138" d="M190 584l37 135h234l180 676h135l-180 -676h354l-37 -135h-354l-121 -449h654l-33 -135h-789l154 584h-234z" />
<glyph unicode="&#xa4;" horiz-adv-x="1705" />
<glyph unicode="&#xa5;" horiz-adv-x="1394" d="M385 223l37 139h283l20 84h-283l37 140h283l10 37l-116 243l-121 254l-67 141l-65 134h183l288 -635l321 318l321 317h180l-785 -772l-10 -37h285l-37 -140h-285l-20 -84h284l-36 -139h-285q-4 -16 -7 -24.5t-7.5 -26.5l-14.5 -57l-30 -115h-140l60 223h-283z" />
<glyph unicode="&#xa6;" horiz-adv-x="268" d="M86 2l193 719h104l-193 -719h-104zM297 795l174 649h104l-174 -649h-104z" />
<glyph unicode="&#xa7;" horiz-adv-x="780" d="M119 68l143 186q51 -29 91 -42t73 -13q55 0 96 20h-10q-53 0 -116.5 19.5t-131.5 64.5l137 186q47 -27 90.5 -41t77.5 -14q-27 37 -67 64q-53 31 -91 74.5t-59.5 95t-25.5 106.5t10 111q31 117 133 202l8 29q18 74 61.5 131.5t99.5 97t123.5 60t135.5 20.5 q53 0 116.5 -19.5t137.5 -59.5l-143 -199q-109 61 -174 61q-23 0 -45.5 -5t-43.5 -13h7q53 0 118.5 -20.5t137.5 -57.5l-138 -201q-45 25 -80.5 39.5t-68.5 18.5q23 -25 57 -47q104 -59 147.5 -165t12.5 -218q-16 -59 -51 -111.5t-82 -95.5l-6 -25q-20 -78 -65.5 -138 t-105 -101t-127 -62.5t-130.5 -21.5q-55 0 -118.5 20.5t-133.5 63.5zM164 84q113 -70 215 -70q59 0 120.5 19.5t116 57.5t95.5 92.5t59 123.5q2 8 3 16.5t3 18.5q43 39 81 91t52 106q29 104 -13 200.5t-138 153.5q-35 23 -59.5 51.5t-36.5 59.5q10 2 36 2q78 0 166 -52 l101 142q-55 29 -111.5 45t-110.5 16q-41 0 -79 -6q25 43 73.5 66.5t104.5 23.5q72 0 164 -51l100 141q-59 33 -112.5 47.5t-104.5 14.5q-61 0 -122.5 -18.5t-113 -54.5t-89.5 -87t-56 -117q-4 -10 -6 -19.5t-4 -21.5q-100 -74 -133 -190q-27 -100 14 -200.5t141 -158.5l2 2 q78 -45 103 -118q-14 -4 -30.5 -6.5t-31.5 -2.5q-35 0 -77 13.5t-85 36.5l-96 -136q53 -35 107.5 -50t107.5 -15q23 0 42.5 1t41.5 7q-29 -47 -79 -69.5t-107 -22.5q-74 0 -156 47zM207 96l57 76q35 -20 71 -28.5t75 -8.5q41 0 79.5 11.5t72.5 33t58.5 53t36.5 74.5 q-35 -16 -66.5 -20t-62.5 -4q-49 0 -95 11t-85 36l58 80q74 -39 149 -39q57 0 107 20q-10 49 -40 93t-81 73q-94 51 -133 143.5t-15 184.5q33 113 135 178q0 29 9 53q14 57 49 103.5t81 78t101 48t113 16.5q94 0 182 -47l-59 -84q-37 23 -77 32t-77 9q-78 0 -143.5 -40 t-88.5 -118v-2q0 -2 -2 -4q57 18 119 18q98 0 187 -47l-58 -84q-74 41 -157 41q-45 0 -89 -14q10 -43 40 -86t81 -72q92 -53 130 -140t12 -185q-14 -53 -50 -101.5t-81 -83.5l-5 -24l-4 -23q-16 -61 -53 -110.5t-86 -82t-104.5 -50t-108.5 -17.5q-96 0 -182 49zM479 877 q-16 -66 14.5 -134.5t104.5 -111.5q59 -31 95 -80t46 -102q8 6 21 22q14 16 22.5 34.5t14.5 37.5q18 70 -12.5 139.5t-104.5 112.5q-57 29 -93 76t-48 100q-20 -16 -37 -42.5t-23 -51.5zM508 877q4 8 8 17t8 17q37 -94 138 -147v2q66 -39 94 -100.5t12 -122.5 q-6 -20 -14 -33q-39 94 -136 152v-3q-70 39 -98 99t-12 119zM535 819q8 -35 32.5 -69.5t71.5 -61.5h-2q33 -16 58.5 -38.5t43.5 -47.5q-4 37 -29.5 73t-68.5 60v-2q-35 16 -60.5 38.5t-45.5 47.5z" />
<glyph unicode="&#xa8;" horiz-adv-x="538" d="M397 1286q10 35 40 57.5t65 22.5q33 0 53 -22.5t10 -57.5q-10 -31 -41.5 -55.5t-64.5 -24.5q-35 0 -53.5 24.5t-8.5 55.5zM657 1286q10 35 39 57.5t64 22.5t54.5 -22.5t8.5 -57.5q-10 -31 -40.5 -55.5t-65.5 -24.5t-52.5 24.5t-7.5 55.5z" />
<glyph unicode="&#xa9;" horiz-adv-x="1705" />
<glyph unicode="&#xaa;" horiz-adv-x="366" d="M227 756q16 57 69.5 96t119.5 39h37q2 16 -4.5 28.5t-16.5 12.5q-23 0 -47.5 -5t-71.5 -18l13 107q39 10 69.5 15t65.5 5q53 0 80.5 -45t11.5 -117q-4 -8 -14 -46l-23 -82l-22 -80q-10 -37 -13 -45l-82 2q-35 -10 -61 -11q-63 0 -95 42.5t-16 101.5zM309 758 q-6 -23 5.5 -42.5t33.5 -19.5q23 0 44.5 19.5t27.5 42.5l12 51h-55q-23 0 -43.5 -17.5t-24.5 -33.5z" />
<glyph unicode="&#xab;" horiz-adv-x="1089" d="M186 569l678 469l62 -104l-557 -383l59 -105l61 -106l69 -119l67 -115l-121 -90zM516 569l676 469l63 -104l-559 -383l49 -80l107 -184l100 -181l-121 -90z" />
<glyph unicode="&#xac;" horiz-adv-x="1355" d="M250 670l37 135h1177l-131 -488h-135l94 353h-1042z" />
<glyph unicode="&#xad;" horiz-adv-x="862" d="M205 530l37 136h723l-37 -136h-723z" />
<glyph unicode="&#xae;" horiz-adv-x="1705" />
<glyph unicode="&#xb0;" horiz-adv-x="512" d="M344 1184q27 94 106.5 156.5t176.5 62.5q90 0 134 -62.5t17 -156.5q-12 -45 -37.5 -84t-61.5 -67.5t-79 -45t-88 -16.5q-96 0 -143.5 61.5t-24.5 151.5zM455 1184q-10 -41 15.5 -75t68.5 -34q39 0 79.5 34t51.5 75q12 43 -10.5 78.5t-61.5 35.5q-43 0 -87 -35.5 t-56 -78.5z" />
<glyph unicode="&#xb1;" horiz-adv-x="925" d="M170 299l35 135h723l-35 -135h-723zM330 891l37 137h292l78 293h135l-77 -293h295l-37 -137h-295l-78 -293h-135l78 293h-293z" />
<glyph unicode="&#xb2;" horiz-adv-x="573" d="M207 614l24 97l404 346q23 16 40 42.5t23 49.5q14 55 -20.5 96t-87.5 41q-51 0 -150 -72l-61 89q66 45 126 72.5t116 27.5q55 0 96 -20.5t66.5 -54.5t33.5 -81t-6 -98q-12 -47 -47 -97.5t-68 -80.5l-282 -244h284l-30 -113h-461z" />
<glyph unicode="&#xb3;" horiz-adv-x="542" d="M193 713l81 65h37q18 -25 46 -43t61 -18q49 0 99 33.5t65 83.5q12 47 -17.5 80.5t-77.5 39.5h-127l31 113h131q25 2 49.5 12.5t46 25.5t37 34.5t21.5 38.5q10 39 -22.5 70.5t-82.5 31.5q-70 0 -163 -76l-60 86q125 104 254 105q104 0 158.5 -62.5t32.5 -154.5 q-16 -57 -47 -99.5t-84 -72.5q27 -33 36 -78t-4 -94q-12 -49 -42.5 -90.5t-71.5 -72t-90.5 -48t-100.5 -17.5q-68 0 -115.5 29t-80.5 78z" />
<glyph unicode="&#xb4;" horiz-adv-x="428" d="M322 1071l227 223h217l-338 -223h-106z" />
<glyph unicode="&#xb5;" horiz-adv-x="1015" d="M49 -379l375 1403h137l-194 -727q-4 -14 8 -44t37.5 -58.5t62.5 -51t80 -22.5q47 0 92 19.5t84 53t67.5 78.5t43.5 95l44 157l46 164l20 76l26 93l24 92l20 75h135l-180 -657q-23 -80 -69 -151t-107.5 -123t-134 -81.5t-146.5 -29.5q-66 0 -121 27.5t-90 74.5l-125 -463 h-135z" />
<glyph unicode="&#xb6;" horiz-adv-x="782" d="M310 922.5q-9 60.5 9 126.5q18 72 62.5 135t104 110t129 74t141.5 27h106l-373 -1395h-135l187 702q-61 6 -110.5 37t-80.5 77t-40 106.5zM455 1057q-23 -84 4.5 -144.5t93.5 -68.5l115 426q-72 -10 -131 -70.5t-82 -142.5zM559 0l373 1393h133l-373 -1393h-133z" />
<glyph unicode="&#xb7;" horiz-adv-x="460" d="M268 635q6 23 21.5 45t38 40.5t49 30t53.5 11.5t48.5 -11.5t34.5 -30t19.5 -41t-0.5 -44.5q-6 -25 -23 -46.5t-41 -37.5t-50.5 -26.5t-52.5 -10.5q-53 0 -82 37t-15 84z" />
<glyph unicode="&#xb9;" horiz-adv-x="538" d="M348 1165l336 230h119l-170 -637h-137l118 446q-43 -31 -89 -59.5t-87 -57.5q4 2 -5 -5t-13 -11z" />
<glyph unicode="&#xba;" horiz-adv-x="475" d="M246 815q12 47 38.5 88t62.5 71t77 46t84 16q82 0 123 -62.5t14 -158.5q-12 -45 -37.5 -83t-59.5 -66.5t-74 -45t-81 -16.5q-86 0 -128 60.5t-19 150.5zM350 815q-10 -41 11.5 -74.5t58.5 -33.5q35 0 71.5 33.5t47.5 74.5q12 45 -6.5 81t-53.5 36q-37 0 -77 -36t-52 -81z " />
<glyph unicode="&#xbb;" horiz-adv-x="1073" d="M135 106l498 445l-113 123l-114 125h2q-29 33 -65 67.5t-64 65.5l118 106l426 -469l-610 -553zM465 106l496 445l-112 123l-116 125h2q-29 33 -63 67l-64 66l117 106l428 -469l-612 -553z" />
<glyph unicode="&#xbc;" horiz-adv-x="782" d="M279 412l131 487q-10 -8 -23.5 -16.5t-24.5 -16.5q-8 -4 -13 -7t-21 -17l-49 65l188 129h76l-168 -624h-96zM356 248l21 74l344 409l74 -41l-295 -348h125l41 147h96l-41 -147h96l-24 -94h-97l-30 -111q-8 -31 -16.5 -69.5t-16.5 -67.5h-96l63 248h-244z" />
<glyph unicode="&#xbd;" horiz-adv-x="727" d="M248 0l18 78l377 323q20 16 36.5 42t22.5 49q16 59 -15.5 99t-90.5 40q-57 0 -133 -58l-51 68q53 41 108 63.5t103 22.5q49 0 88 -18.5t62.5 -50t29.5 -74.5t-6 -92q-12 -45 -42 -85t-67 -75l-278 -238h280l-22 -94h-420zM254 412l131 489q-10 -8 -23.5 -16t-23.5 -17 q-8 -4 -13.5 -7t-21.5 -17l-49 65l188 129h76l-168 -626h-96z" />
<glyph unicode="&#xbe;" horiz-adv-x="937" d="M143 399l86 62q14 -31 43 -48.5t64 -17.5q57 0 106.5 35t63.5 84q8 33 -6.5 57.5t-44 40t-71.5 19.5t-91 -4l29 100h118q53 4 97.5 32.5t56.5 74.5q12 47 -19.5 78.5t-87.5 31.5q-72 0 -149 -65l-49 67q53 43 110.5 67.5t112.5 24.5q47 0 86 -16t63.5 -44t34 -64.5 t-3.5 -79.5q-14 -49 -48 -89t-81 -65q31 -29 42 -72t-3 -94q-12 -45 -41 -84t-68.5 -68.5t-86 -46t-95.5 -16.5q-55 0 -98 26.5t-70 73.5zM504 250l20 76l350 409l72 -41l-291 -348h121l39 148h96l-39 -148h97l-27 -96h-96l-66 -246h-96l66 246h-246z" />
<glyph unicode="&#xbf;" horiz-adv-x="884" d="M165 222.5q-11 72.5 11 152.5q20 80 69.5 150.5t115 125t142.5 86t152 31.5h72q-2 74 -5 153.5t-5 161.5l-4 161l-4 151h145l16 -645l-32 -121h-220q-49 -2 -99 -21.5t-92 -53.5t-72.5 -80t-45.5 -99q-14 -51 -6 -97.5t32.5 -82t64.5 -56t92 -20.5q66 0 137 43t137 112 l72 -98q-82 -88 -181.5 -142t-201.5 -54q-80 0 -141.5 31.5t-99.5 85t-49 126zM702 1550q10 37 39 60.5t66 23.5q31 0 48 -23.5t7 -60.5q-10 -35 -38.5 -58.5t-59.5 -23.5q-37 0 -54.5 23.5t-7.5 58.5z" />
<glyph unicode="&#xc0;" d="M37 0l897 1415h108l144 -1415h-144l-63 563h-438l-181 -281l-180 -282h-143zM627 702h338q-4 59 -11 113l-12 107v-2q-10 66 -13 114.5t-11 122.5l-58 -90q-29 -43 -55 -88l-88 -135zM762 1685h223l107 -223h-103z" />
<glyph unicode="&#xc1;" d="M37 0l897 1415h108l144 -1415h-144l-63 563h-438l-181 -281l-180 -282h-143zM627 702h338q-4 59 -11 113l-12 107v-2q-10 66 -13 114.5t-11 122.5l-58 -90q-29 -43 -55 -88l-88 -135zM930 1462l227 223h217l-338 -223h-106z" />
<glyph unicode="&#xc2;" d="M37 0l897 1415h108l144 -1415h-144l-63 563h-438l-181 -281l-180 -282h-143zM627 702h338q-4 59 -11 113l-12 107v-2q-10 66 -13 114.5t-11 122.5l-58 -90q-29 -43 -55 -88l-88 -135z" />
<glyph unicode="&#xc3;" d="M55 29l897 1415h109l143 -1415h-143l-64 563h-438l-180 -282l-180 -281h-144zM645 731h338q-4 59 -10 113l-12 106v-2q-10 66 -13.5 115t-11.5 123l-57 -90q-29 -43 -56 -88l-88 -136zM758 1544l78 172q25 -41 50 -63.5t48 -22.5q12 0 27.5 5t25.5 10h-2q29 16 64.5 24 t66.5 8q37 0 74 -12t72 -41l-86 -186q-41 100 -95 100q-10 0 -25.5 -4t-25.5 -8h2q-66 -39 -135 -39q-35 0 -71.5 14t-67.5 43z" />
<glyph unicode="&#xc4;" d="M37 0l897 1415h108l144 -1415h-144l-63 563h-438l-181 -281l-180 -282h-143zM627 702h338q-4 59 -11 113l-12 107v-2q-10 66 -13 114.5t-11 122.5l-58 -90q-29 -43 -55 -88l-88 -135zM790 1517q10 35 40 57.5t65 22.5q33 0 53 -22.5t10 -57.5q-10 -31 -41.5 -55.5 t-64.5 -24.5q-35 0 -53.5 24.5t-8.5 55.5zM1050 1517q10 35 39 57.5t64 22.5t54.5 -22.5t8.5 -57.5q-10 -31 -40.5 -55.5t-65.5 -24.5t-52.5 24.5t-7.5 55.5z" />
<glyph unicode="&#xc5;" d="M37 0l897 1415h108l144 -1415h-144l-63 563h-438l-181 -281l-180 -282h-143zM627 702h338q-4 59 -11 113l-12 107v-2q-10 66 -13 114.5t-11 122.5l-58 -90q-29 -43 -55 -88l-88 -135z" />
<glyph unicode="&#xc6;" horiz-adv-x="2213" d="M41 0l899 1415h1317l-37 -135h-702l-123 -459h600l-37 -139h-600l-146 -543h703l-35 -139h-840l148 563h-641l-86 -136l-88 -138l2 2l-96 -148l-91 -143h-147zM633 702h592l172 578h-402l-92 -146l-92 -147l-88 -141z" />
<glyph unicode="&#xc7;" horiz-adv-x="1298" d="M248 453.5q-8 115.5 26 246.5q41 154 127 286t201 229.5t248 152.5t268 55q129 0 232.5 -57t169.5 -162l-123 -92q-57 84 -137 130t-179 46q-106 0 -212.5 -47t-196.5 -127t-159 -187.5t-101 -226.5q-31 -117 -20 -222t58.5 -186t128 -128t189.5 -47q98 0 201.5 46 t201.5 126l74 -94q-123 -104 -256 -155.5t-264 -53.5q-4 -4 1 -2t1 -2q27 -16 49.5 -50t9.5 -77q-8 -33 -46 -71t-122 -77l-116 109q12 0 37.5 2t53.5 7t49.5 13t25.5 21q2 10 -4.5 16t-16.5 10t-22.5 5t-20.5 1h-45l31 107q-98 27 -173 91.5t-118 156.5t-51 207.5z" />
<glyph unicode="&#xc8;" horiz-adv-x="993" d="M72 0l377 1415h837l-37 -135h-700l-123 -459h600l-37 -139h-600l-145 -543h700l-35 -139h-837zM621 1685h223l107 -223h-103z" />
<glyph unicode="&#xc9;" horiz-adv-x="993" d="M72 0l377 1415h837l-37 -135h-700l-123 -459h600l-37 -139h-600l-145 -543h700l-35 -139h-837zM760 1462l227 223h217l-338 -223h-106z" />
<glyph unicode="&#xca;" horiz-adv-x="993" d="M72 0l377 1415h837l-37 -135h-700l-123 -459h600l-37 -139h-600l-145 -543h700l-35 -139h-837zM647 1519l311 244l184 -246l-114 -88l-115 162l-207 -162z" />
<glyph unicode="&#xcb;" horiz-adv-x="993" d="M72 0l377 1415h837l-37 -135h-700l-123 -459h600l-37 -139h-600l-145 -543h700l-35 -139h-837zM676 1519q10 35 40 57.5t65 22.5q33 0 53 -22.5t10 -57.5q-10 -31 -41.5 -55.5t-64.5 -24.5q-35 0 -53.5 24.5t-8.5 55.5zM936 1519q10 35 39 57.5t64 22.5t54.5 -22.5 t8.5 -57.5q-10 -31 -40.5 -55.5t-65.5 -24.5t-52.5 24.5t-7.5 55.5z" />
<glyph unicode="&#xcc;" horiz-adv-x="268" d="M90 0l377 1415h139l-377 -1415h-139zM326 1685h223l107 -223h-103z" />
<glyph unicode="&#xcd;" horiz-adv-x="315" d="M74 0l377 1415h139l-377 -1415h-139zM461 1462l227 223h217l-338 -223h-106z" />
<glyph unicode="&#xce;" horiz-adv-x="282" d="M74 0l377 1415h139l-377 -1415h-139z" />
<glyph unicode="&#xcf;" horiz-adv-x="282" d="M74 0l377 1415h139l-377 -1415h-139zM329 1517q10 35 40 57.5t65 22.5q33 0 53 -22.5t10 -57.5q-10 -31 -41.5 -55.5t-64.5 -24.5q-35 0 -53.5 24.5t-8.5 55.5zM589 1517q10 35 39 57.5t64 22.5t54.5 -22.5t8.5 -57.5q-10 -31 -40.5 -55.5t-65.5 -24.5t-52.5 24.5 t-7.5 55.5z" />
<glyph unicode="&#xd0;" horiz-adv-x="1337" d="M205 0l141 541h-131l37 135h131l199 739h530q104 -2 180 -57t118 -150.5t47 -223.5t-34 -273t-111.5 -273.5t-164.5 -223.5t-197.5 -152.5t-210.5 -61.5h-534zM379 139h96q49 0 96 2q51 0 102.5 1t100.5 1q76 2 153 47.5t146.5 122t124.5 179t86 219.5t31 219t-29 179 t-83 121t-130 46h-391l-160 -600h342l-37 -135h-342z" />
<glyph unicode="&#xd1;" horiz-adv-x="1099" d="M78 0l377 1415h125l360 -1116l299 1116h139l-377 -1415h-127l-362 1122l-70 -263l-69 -265l-158 -594h-137zM711 1495l78 170q43 -84 96 -84q16 0 49 15h-2q70 33 135 33q35 0 71 -13.5t68 -40.5l-84 -182q-20 47 -44.5 72.5t-47.5 25.5q-10 0 -26.5 -5t-26.5 -9h2 q-27 -16 -62.5 -26.5t-66.5 -10.5q-35 0 -71.5 13t-67.5 42z" />
<glyph unicode="&#xd2;" horiz-adv-x="1413" d="M207 420q-5 38 -5 78q0 99 29 209q39 150 125 279.5t200 227t247 153.5t268 56q137 0 240.5 -56t163 -152.5t72.5 -227.5q3 -33 4 -68q0 -101 -29 -212q-43 -160 -130 -294t-208 -233q-115 -96 -242 -147t-258 -51t-233.5 55t-165 152.5t-78.5 230.5zM350 477 q10 -106 57.5 -185t128 -124t187.5 -45q109 0 214 45t194.5 124t157 185.5t100.5 229.5q25 90 24 171q0 33 -4 65q-14 110 -72 187q-47 74 -125.5 113t-179.5 39q-106 0 -210.5 -45t-193.5 -123t-155.5 -182.5t-99.5 -224.5q-25 -94 -25 -178q0 -27 2 -52zM807 1685h223 l107 -223h-103z" />
<glyph unicode="&#xd3;" horiz-adv-x="1413" d="M207 420q-5 38 -5 78q0 99 29 209q39 150 125 279.5t200 227t247 153.5t268 56q137 0 240.5 -56t163 -152.5t72.5 -227.5q3 -33 4 -68q0 -101 -29 -212q-43 -160 -130 -294t-208 -233q-115 -96 -242 -147t-258 -51t-233.5 55t-165 152.5t-78.5 230.5zM350 477 q10 -106 57.5 -185t128 -124t187.5 -45q109 0 214 45t194.5 124t157 185.5t100.5 229.5q25 90 24 171q0 33 -4 65q-14 110 -72 187q-47 74 -125.5 113t-179.5 39q-106 0 -210.5 -45t-193.5 -123t-155.5 -182.5t-99.5 -224.5q-25 -94 -25 -178q0 -27 2 -52zM1043 1462 l227 223h217l-338 -223h-106z" />
<glyph unicode="&#xd4;" horiz-adv-x="1413" d="M207 420q-5 38 -5 78q0 99 29 209q39 150 125 279.5t200 227t247 153.5t268 56q137 0 240.5 -56t163 -152.5t72.5 -227.5q3 -33 4 -68q0 -101 -29 -212q-43 -160 -130 -294t-208 -233q-115 -96 -242 -147t-258 -51t-233.5 55t-165 152.5t-78.5 230.5zM350 477 q10 -106 57.5 -185t128 -124t187.5 -45q109 0 214 45t194.5 124t157 185.5t100.5 229.5q25 90 24 171q0 33 -4 65q-14 110 -72 187q-47 74 -125.5 113t-179.5 39q-106 0 -210.5 -45t-193.5 -123t-155.5 -182.5t-99.5 -224.5q-25 -94 -25 -178q0 -27 2 -52zM856 1519l311 244 l184 -246l-114 -88l-115 162l-207 -162z" />
<glyph unicode="&#xd5;" horiz-adv-x="1413" d="M207 420q-5 38 -5 78q0 99 29 209q39 150 125 279.5t200 227t247 153.5t268 56q137 0 240.5 -56t163 -152.5t72.5 -227.5q3 -33 4 -68q0 -101 -29 -212q-43 -160 -130 -294t-208 -233q-115 -96 -242 -147t-258 -51t-233.5 55t-165 152.5t-78.5 230.5zM350 477 q10 -106 57.5 -185t128 -124t187.5 -45q109 0 214 45t194.5 124t157 185.5t100.5 229.5q25 90 24 171q0 33 -4 65q-14 110 -72 187q-47 74 -125.5 113t-179.5 39q-106 0 -210.5 -45t-193.5 -123t-155.5 -182.5t-99.5 -224.5q-25 -94 -25 -178q0 -27 2 -52zM867 1497l78 170 q43 -84 96 -84q16 0 49 15h-2q70 33 135 33q35 0 71 -13.5t68 -40.5l-84 -182q-20 47 -44.5 72.5t-47.5 25.5q-10 0 -26.5 -5t-26.5 -9h2q-27 -16 -62.5 -26.5t-66.5 -10.5q-35 0 -71.5 13t-67.5 42z" />
<glyph unicode="&#xd6;" horiz-adv-x="1413" d="M207 420q-5 38 -5 78q0 99 29 209q39 150 125 279.5t200 227t247 153.5t268 56q137 0 240.5 -56t163 -152.5t72.5 -227.5q3 -33 4 -68q0 -101 -29 -212q-43 -160 -130 -294t-208 -233q-115 -96 -242 -147t-258 -51t-233.5 55t-165 152.5t-78.5 230.5zM350 477 q10 -106 57.5 -185t128 -124t187.5 -45q109 0 214 45t194.5 124t157 185.5t100.5 229.5q25 90 24 171q0 33 -4 65q-14 110 -72 187q-47 74 -125.5 113t-179.5 39q-106 0 -210.5 -45t-193.5 -123t-155.5 -182.5t-99.5 -224.5q-25 -94 -25 -178q0 -27 2 -52zM886 1519 q10 35 40 57.5t65 22.5q33 0 53 -22.5t10 -57.5q-10 -31 -41.5 -55.5t-64.5 -24.5q-35 0 -53.5 24.5t-8.5 55.5zM1146 1519q10 35 39 57.5t64 22.5t54.5 -22.5t8.5 -57.5q-10 -31 -40.5 -55.5t-65.5 -24.5t-52.5 24.5t-7.5 55.5z" />
<glyph unicode="&#xd7;" horiz-adv-x="751" d="M164 428l262 209l-150 205l119 98l154 -207l262 207l72 -96l-265 -207q10 -14 21.5 -27.5t22.5 -29.5q29 -35 58.5 -76t51.5 -76l-121 -96l-153 209l-265 -209z" />
<glyph unicode="&#xd8;" horiz-adv-x="1413" d="M204 505q-1 97 27 202q39 150 125 279.5t200 227t247 153.5t268 56q43 0 87 -7t83 -19q4 4 7 9t7 9h144l-45 -74q129 -98 176 -264t-8 -370q-43 -160 -130 -294t-208 -233q-115 -96 -242 -147t-258 -51q-94 0 -168 24v-6h-154l39 68q-61 43 -106 108.5t-67.5 148.5 t-23.5 180zM358.5 408.5q30.5 -132.5 122.5 -207.5l200 316l200 312l137 217l139 218q-29 10 -59.5 14t-65.5 4q-106 0 -210.5 -45t-193.5 -123t-155.5 -182.5t-99.5 -224.5q-45 -166 -14.5 -298.5zM596 141q29 -10 59.5 -14t67.5 -4q109 0 214 45t194.5 124t157 185.5 t100.5 229.5q35 127 20.5 236.5t-72.5 186.5q-16 23 -31.5 41.5t-35.5 34.5l-100 -154l-97 -155l-238 -378z" />
<glyph unicode="&#xd9;" horiz-adv-x="1224" d="M164 367l282 1048h146l-281 -1046q-1 -8 0 -15q0 -39 18 -76q22 -44 65.5 -79t105 -55.5t137.5 -20.5q72 0 142.5 20.5t131 55t105.5 79t67 91.5l281 1046h139l-282 -1048q-25 -80 -86.5 -150t-146.5 -122t-186.5 -82.5t-203.5 -30.5q-109 0 -196 30.5t-145 82.5t-84 122 q-16 42 -16 89q1 30 7 61zM750 1685h223l107 -223h-103z" />
<glyph unicode="&#xda;" horiz-adv-x="1224" d="M164 367l282 1048h146l-281 -1046q-1 -8 0 -15q0 -39 18 -76q22 -44 65.5 -79t105 -55.5t137.5 -20.5q72 0 142.5 20.5t131 55t105.5 79t67 91.5l281 1046h139l-282 -1048q-25 -80 -86.5 -150t-146.5 -122t-186.5 -82.5t-203.5 -30.5q-109 0 -196 30.5t-145 82.5t-84 122 q-16 42 -16 89q1 30 7 61zM922 1462l227 223h217l-338 -223h-106z" />
<glyph unicode="&#xdb;" horiz-adv-x="1224" d="M164 367l282 1048h146l-281 -1046q-1 -8 0 -15q0 -39 18 -76q22 -44 65.5 -79t105 -55.5t137.5 -20.5q72 0 142.5 20.5t131 55t105.5 79t67 91.5l281 1046h139l-282 -1048q-25 -80 -86.5 -150t-146.5 -122t-186.5 -82.5t-203.5 -30.5q-109 0 -196 30.5t-145 82.5t-84 122 q-16 42 -16 89q1 30 7 61zM762 1519l311 244l184 -246l-114 -88l-115 162l-207 -162z" />
<glyph unicode="&#xdc;" horiz-adv-x="1224" d="M164 367l282 1048h146l-281 -1046q-1 -8 0 -15q0 -39 18 -76q22 -44 65.5 -79t105 -55.5t137.5 -20.5q72 0 142.5 20.5t131 55t105.5 79t67 91.5l281 1046h139l-282 -1048q-25 -80 -86.5 -150t-146.5 -122t-186.5 -82.5t-203.5 -30.5q-109 0 -196 30.5t-145 82.5t-84 122 q-16 42 -16 89q1 30 7 61zM792 1517q10 35 40 57.5t65 22.5q33 0 53 -22.5t10 -57.5q-10 -31 -41.5 -55.5t-64.5 -24.5q-35 0 -53.5 24.5t-8.5 55.5zM1052 1517q10 35 39 57.5t64 22.5t54.5 -22.5t8.5 -57.5q-10 -31 -40.5 -55.5t-65.5 -24.5t-52.5 24.5t-7.5 55.5z" />
<glyph unicode="&#xdd;" horiz-adv-x="1394" d="M406 1415h182l297 -645l86 87l86 87l238 237l239 234h180l-794 -782l-82 -307q-23 -80 -43.5 -165l-40.5 -161h-142l166 633l-51 108l-53 115l-66 139l-70 147l-70 143zM1024 1462l227 223h217l-338 -223h-106z" />
<glyph unicode="&#xde;" horiz-adv-x="1095" d="M2 -385l483 1802h138l-113 -420q129 59 281 60q104 -2 184 -45t128 -116t61.5 -169t-15.5 -205q-31 -113 -96.5 -211t-152.5 -171.5t-190.5 -115.5t-207.5 -42q-78 0 -138.5 17t-111.5 44l-115 -428h-135zM299 211q-6 -18 9.5 -33.5t48 -28t79.5 -19.5t103 -9 q74 2 148.5 33.5t138 86t111.5 126t71 153.5q20 80 11 151.5t-44 126t-92.5 86t-130.5 31.5q-51 0 -98.5 -7t-87.5 -19t-67.5 -27.5t-39.5 -32.5z" />
<glyph unicode="&#xdf;" horiz-adv-x="1064" d="M0 -334l461 1729h457q78 -2 140 -31t101 -78t51.5 -113.5t-6.5 -134.5q-25 -94 -90 -170.5t-153 -128.5q72 -53 101.5 -143t2.5 -190q-23 -82 -74 -154t-120.5 -127t-153.5 -87t-172 -34h-174l-101 131h310q57 2 113.5 25.5t102.5 60.5t80.5 84t49.5 101q14 51 5 98 t-40 84t-81 59.5t-118 26.5h-284l-271 -1008h-137zM442 809h318q51 2 101 19.5t91 48t72 71.5t43 90q12 43 3 82t-33.5 70t-64.5 49t-89 23h-318z" />
<glyph unicode="&#xe0;" horiz-adv-x="831" d="M155 177q-4 22 -5 45q0 38 12 79q18 68 60 126t100.5 102t126 70t137.5 26h207l10 32q13 46 12 87q0 45 -15 82q-30 71 -108 75q-41 0 -68.5 -5t-58.5 -15q-6 -2 -10 -2t-8 -2t-11.5 -3.5t-17.5 -5.5q-8 -4 -24 -4v123q4 2 15 6t15 6q53 16 96.5 26.5t110.5 10.5 q63 -2 110.5 -30.5t75 -77.5t35.5 -113q3 -21 3 -43q0 -44 -11 -92l-4 -23l-88 -321l-33 -120l-30 -105l-21 -78q-8 -31 -8 -33h-133l12 49q-55 -33 -110.5 -50t-114.5 -17q-70 0 -124 25.5t-89 68.5t-46 101zM294 229q7 -33 28.5 -57.5t54.5 -38.5t74 -14q43 0 83.5 14 t75.5 39t60.5 58.5t36.5 72.5l51 184h-211q-41 0 -81 -15t-75 -40.5t-59.5 -59.5t-34.5 -71q-6 -23 -6 -44q0 -15 3 -28zM563 1294h223l107 -223h-103z" />
<glyph unicode="&#xe1;" horiz-adv-x="831" d="M155 177q-4 22 -5 45q0 38 12 79q18 68 60 126t100.5 102t126 70t137.5 26h207l10 32q13 46 12 87q0 45 -15 82q-30 71 -108 75q-41 0 -68.5 -5t-58.5 -15q-6 -2 -10 -2t-8 -2t-11.5 -3.5t-17.5 -5.5q-8 -4 -24 -4v123q4 2 15 6t15 6q53 16 96.5 26.5t110.5 10.5 q63 -2 110.5 -30.5t75 -77.5t35.5 -113q3 -21 3 -43q0 -44 -11 -92l-4 -23l-88 -321l-33 -120l-30 -105l-21 -78q-8 -31 -8 -33h-133l12 49q-55 -33 -110.5 -50t-114.5 -17q-70 0 -124 25.5t-89 68.5t-46 101zM294 229q7 -33 28.5 -57.5t54.5 -38.5t74 -14q43 0 83.5 14 t75.5 39t60.5 58.5t36.5 72.5l51 184h-211q-41 0 -81 -15t-75 -40.5t-59.5 -59.5t-34.5 -71q-6 -23 -6 -44q0 -15 3 -28zM668 1071l227 223h217l-338 -223h-106z" />
<glyph unicode="&#xe2;" horiz-adv-x="831" d="M155 177q-4 22 -5 45q0 38 12 79q18 68 60 126t100.5 102t126 70t137.5 26h207l10 32q13 46 12 87q0 45 -15 82q-30 71 -108 75q-41 0 -68.5 -5t-58.5 -15q-6 -2 -10 -2t-8 -2t-11.5 -3.5t-17.5 -5.5q-8 -4 -24 -4v123q4 2 15 6t15 6q53 16 96.5 26.5t110.5 10.5 q63 -2 110.5 -30.5t75 -77.5t35.5 -113q3 -21 3 -43q0 -44 -11 -92l-4 -23l-88 -321l-33 -120l-30 -105l-21 -78q-8 -31 -8 -33h-133l12 49q-55 -33 -110.5 -50t-114.5 -17q-70 0 -124 25.5t-89 68.5t-46 101zM294 229q7 -33 28.5 -57.5t54.5 -38.5t74 -14q43 0 83.5 14 t75.5 39t60.5 58.5t36.5 72.5l51 184h-211q-41 0 -81 -15t-75 -40.5t-59.5 -59.5t-34.5 -71q-6 -23 -6 -44q0 -15 3 -28zM537 1128l311 244l184 -246l-114 -88l-115 162l-207 -162z" />
<glyph unicode="&#xe3;" horiz-adv-x="831" d="M169 205.5q-11 58.5 7 124.5q18 68 60.5 126t100.5 102t125.5 69.5t137.5 25.5h207l10 33q27 98 -3 169t-107 75q-41 0 -69 -5t-58 -16q-6 -2 -10.5 -2t-8.5 -2t-11 -3t-18 -5q-8 -4 -24 -4v123q4 2 15.5 6t15.5 6q53 16 96 26.5t110 10.5q63 -2 110.5 -30.5t75 -78 t36 -113t-8.5 -134.5l-4 -23l-88 -321l-32 -120l-30 -106l-22 -78q-8 -31 -8 -32h-133l12 49q-55 -33 -110.5 -50.5t-114.5 -17.5q-70 0 -124 25.5t-89 68.5t-46 101.5zM308 258q7 -33 28.5 -57.5t54.5 -39t74 -14.5q43 0 84 14.5t75.5 39t60.5 58.5t36 73l51 184h-211 q-41 0 -81 -15.5t-74.5 -41t-59 -59t-35.5 -70.5q-10 -39 -3 -72zM539 1159l73 158q27 -35 51.5 -55.5t47.5 -20.5q12 0 25 4l26 8q31 16 63.5 21.5t61.5 5.5q41 0 75.5 -10t69.5 -35l-74 -156q-49 78 -100 78q-12 0 -26.5 -4t-26.5 -8h2q-29 -16 -62.5 -23.5t-62.5 -7.5 q-80 0 -143 45z" />
<glyph unicode="&#xe4;" horiz-adv-x="831" d="M169 205.5q-11 58.5 7 124.5q18 68 60.5 126t100.5 102t125.5 69.5t137.5 25.5h207l10 33q27 98 -3 169t-107 75q-41 0 -69 -5t-58 -16q-6 -2 -10.5 -2t-8.5 -2t-11 -3t-18 -5q-8 -4 -24 -4v123q4 2 15.5 6t15.5 6q53 16 96 26.5t110 10.5q63 -2 110.5 -30.5t75 -78 t36 -113t-8.5 -134.5l-4 -23l-88 -321l-32 -120l-30 -106l-22 -78q-8 -31 -8 -32h-133l12 49q-55 -33 -110.5 -50.5t-114.5 -17.5q-70 0 -124 25.5t-89 68.5t-46 101.5zM308 258q7 -33 28.5 -57.5t54.5 -39t74 -14.5q43 0 84 14.5t75.5 39t60.5 58.5t36 73l51 184h-211 q-41 0 -81 -15.5t-74.5 -41t-59 -59t-35.5 -70.5q-10 -39 -3 -72zM618 1257q8 31 39 55.5t66 24.5q33 0 52.5 -24.5t10.5 -55.5q-10 -35 -41.5 -58t-64.5 -23q-35 0 -53.5 23t-8.5 58zM879 1257q8 31 37.5 55.5t64.5 24.5t53.5 -24.5t9.5 -55.5q-10 -35 -40.5 -58t-65.5 -23 t-52 23t-7 58z" />
<glyph unicode="&#xe5;" horiz-adv-x="835" d="M112 177q-4 22 -5 45q0 38 12 79q18 68 60 126t100.5 102t126 70t137.5 26h207l10 32q13 46 12 87q0 45 -15 82q-30 71 -108 75q-41 0 -68.5 -5t-58.5 -15q-6 -2 -10 -2t-8 -2t-11.5 -3.5t-17.5 -5.5q-8 -4 -24 -4v123q4 2 15 6t15 6q53 16 96.5 26.5t110.5 10.5 q63 -2 110.5 -30.5t75 -77.5t35.5 -113q3 -21 3 -43q0 -44 -11 -92l-4 -23l-88 -321l-33 -120l-30 -105l-21 -78q-8 -31 -8 -33h-133l12 49q-55 -33 -110.5 -50t-114.5 -17q-70 0 -124 25.5t-89 68.5t-46 101zM251 229q7 -33 28.5 -57.5t54.5 -38.5t74 -14q43 0 83.5 14 t75.5 39t60.5 58.5t36.5 72.5l51 184h-211q-41 0 -81 -15t-75 -40.5t-59.5 -59.5t-34.5 -71q-6 -23 -6 -44q0 -15 3 -28z" />
<glyph unicode="&#xe6;" horiz-adv-x="1521" d="M142.5 175q-11.5 58 7.5 126q18 68 60 126t100.5 101t127 69t140.5 26h196q8 20 23 43q23 100 -12 164.5t-109 68.5q-117 0 -252 -37l-2 131q76 20 148.5 31.5t144.5 11.5q86 -4 141 -49t78 -127q80 86 171 132t183 46q86 0 151.5 -40t102.5 -109.5t43 -163.5t-22 -205 l-21 -74h-674l-14 -53q0 -55 14.5 -105t42 -88t67.5 -60.5t87 -22.5q31 0 66.5 7t74.5 19.5t75 26.5l67 27l26 -119q-74 -35 -146.5 -58.5t-146.5 -35.5q-10 -2 -24 -2h-29q-160 0 -246 120q-2 -31 7.5 -53t44.5 -49h-216l13 47q-53 -33 -110.5 -50t-114.5 -17 q-72 0 -127.5 25.5t-90 68.5t-46 101zM289 301q-23 -78 22 -130t131 -52q41 0 82 14t77 39t61.5 57.5t35.5 71.5l15 51q-2 27 2 57.5t12 65.5l2 12h-188q-43 0 -84 -15t-75 -40.5t-58.5 -59.5t-34.5 -71zM905 580h535q8 68 0 126t-33 101t-64.5 67.5t-91.5 24.5 q-51 0 -103 -23.5t-99.5 -65.5t-85.5 -101t-58 -129z" />
<glyph unicode="&#xe7;" horiz-adv-x="1009" d="M175 328q-7 86 20 182q29 109 93 204t150 166.5t187.5 113.5t203.5 42q104 0 187.5 -48t136.5 -134l-121 -94q-43 63 -104.5 101t-134.5 38q-74 0 -147 -30.5t-136.5 -83t-110.5 -124t-67 -151.5q-23 -82 -13.5 -152.5t44 -124t91 -84t130.5 -30.5q72 0 151.5 35.5 t151.5 97.5l74 -96q-86 -72 -182.5 -118t-190.5 -56l-4 -7q29 -14 50 -49t11 -78q-10 -31 -48 -70.5t-116 -80.5l-104 104q18 2 42.5 5.5t46 9.5t38 13t18.5 15q8 27 -16.5 35t-40.5 8q-2 0 -5 -1t-7 -1h-37l33 107q-78 18 -137.5 65t-94.5 116t-42 155z" />
<glyph unicode="&#xe8;" horiz-adv-x="933" d="M158 281q-4 32 -5 65q0 62 15 129l8 35q29 109 87.5 205t134 167.5t161.5 113.5t172 42t151.5 -35.5t102.5 -101t44 -157.5l2 -37q0 -76 -23 -164l-21 -76h-680q-5 -38 -5 -73q0 -32 4 -61q9 -62 36 -110.5t70 -76t100 -27.5q37 0 81 9t88 22.5t84 32t71 36.5l20 -129 q-72 -43 -163 -69.5t-169 -36.5q-10 -2 -27 -2h-26q-86 0 -152.5 37.5t-107.5 104.5t-53 157zM344 602h543q2 22 2 44q0 39 -7 74q-11 54 -37 94t-64 62.5t-87 22.5t-100 -21.5t-97 -60.5t-86 -93t-67 -122zM561 1294h223l107 -223h-103z" />
<glyph unicode="&#xe9;" horiz-adv-x="933" d="M158 281q-4 32 -5 65q0 62 15 129l8 35q29 109 87.5 205t134 167.5t161.5 113.5t172 42t151.5 -35.5t102.5 -101t44 -157.5l2 -37q0 -76 -23 -164l-21 -76h-680q-5 -38 -5 -73q0 -32 4 -61q9 -62 36 -110.5t70 -76t100 -27.5q37 0 81 9t88 22.5t84 32t71 36.5l20 -129 q-72 -43 -163 -69.5t-169 -36.5q-10 -2 -27 -2h-26q-86 0 -152.5 37.5t-107.5 104.5t-53 157zM344 602h543q2 22 2 44q0 39 -7 74q-11 54 -37 94t-64 62.5t-87 22.5t-100 -21.5t-97 -60.5t-86 -93t-67 -122zM689 1071l227 223h217l-338 -223h-106z" />
<glyph unicode="&#xea;" horiz-adv-x="933" d="M158 281q-4 32 -5 65q0 62 15 129l8 35q29 109 87.5 205t134 167.5t161.5 113.5t172 42t151.5 -35.5t102.5 -101t44 -157.5l2 -37q0 -76 -23 -164l-21 -76h-680q-5 -38 -5 -73q0 -32 4 -61q9 -62 36 -110.5t70 -76t100 -27.5q37 0 81 9t88 22.5t84 32t71 36.5l20 -129 q-72 -43 -163 -69.5t-169 -36.5q-10 -2 -27 -2h-26q-86 0 -152.5 37.5t-107.5 104.5t-53 157zM344 602h543q2 22 2 44q0 39 -7 74q-11 54 -37 94t-64 62.5t-87 22.5t-100 -21.5t-97 -60.5t-86 -93t-67 -122zM510 1128l311 244l184 -246l-114 -88l-115 162l-207 -162z" />
<glyph unicode="&#xeb;" horiz-adv-x="933" d="M158 281q-4 32 -5 65q0 62 15 129l8 35q29 109 87.5 205t134 167.5t161.5 113.5t172 42t151.5 -35.5t102.5 -101t44 -157.5l2 -37q0 -76 -23 -164l-21 -76h-680q-5 -38 -5 -73q0 -32 4 -61q9 -62 36 -110.5t70 -76t100 -27.5q37 0 81 9t88 22.5t84 32t71 36.5l20 -129 q-72 -43 -163 -69.5t-169 -36.5q-10 -2 -27 -2h-26q-86 0 -152.5 37.5t-107.5 104.5t-53 157zM344 602h543q2 22 2 44q0 39 -7 74q-11 54 -37 94t-64 62.5t-87 22.5t-100 -21.5t-97 -60.5t-86 -93t-67 -122zM587 1286q10 35 40 57.5t65 22.5q33 0 53 -22.5t10 -57.5 q-10 -31 -41.5 -55.5t-64.5 -24.5q-35 0 -53.5 24.5t-8.5 55.5zM847 1286q10 35 39 57.5t64 22.5t54.5 -22.5t8.5 -57.5q-10 -31 -40.5 -55.5t-65.5 -24.5t-52.5 24.5t-7.5 55.5z" />
<glyph unicode="&#xec;" horiz-adv-x="432" d="M164 0l270 1024h133l-270 -1024h-133zM311 1323h224l106 -223h-102z" />
<glyph unicode="&#xed;" horiz-adv-x="432" d="M106 0l271 1024h135l-270 -1024h-136zM348 1100l227 223h218l-338 -223h-107z" />
<glyph unicode="&#xee;" horiz-adv-x="362" d="M106 0l271 1024h133l-270 -1024h-134zM244 1157l311 244l184 -246l-114 -88l-115 162l-207 -162z" />
<glyph unicode="&#xef;" horiz-adv-x="362" d="M106 0l271 1024h133l-270 -1024h-134zM342 1286q10 35 40 57.5t64 22.5q35 0 54.5 -22.5t9.5 -57.5q-10 -31 -41 -55.5t-66 -24.5t-53 24.5t-8 55.5zM526 1286q10 35 39 57.5t66 22.5q33 0 52 -22.5t9 -57.5q-10 -31 -40.5 -55.5t-63.5 -24.5q-37 0 -54.5 24.5t-7.5 55.5 z" />
<glyph unicode="&#xf0;" horiz-adv-x="1001" d="M141 178l148 98q31 -72 87 -111.5t126 -39.5q59 0 115.5 20.5t106.5 55.5t91 83t68 103v-2q29 68 52 141l46 150q-74 -55 -165 -91t-183 -36q-86 0 -153.5 31.5t-110.5 87t-58.5 131t6.5 162.5l5 14q25 88 79 166t127.5 136t160.5 93t177 35q88 0 154.5 -34t110 -92 t58.5 -135t-1 -163q-12 -63 -32 -136l-36 -138l-14 -52q-23 -80 -47.5 -154.5t-57.5 -146.5q-37 -82 -97 -149.5t-134 -116.5t-156 -75.5t-163 -26.5q-100 0 -181.5 53t-128.5 139zM449.5 855q11.5 -50 40 -89t74.5 -60.5t106 -21.5q61 0 122.5 22.5t112.5 62.5t90 94.5 t56 115.5q14 57 3.5 109.5t-41 92.5t-77.5 62.5t-105 22.5q-63 0 -124.5 -24.5t-112.5 -66.5t-89 -96.5t-54 -113.5q-13 -60 -1.5 -110z" />
<glyph unicode="&#xf1;" horiz-adv-x="886" d="M80 29l270 1024h137l-22 -86q127 102 270 102q72 0 127.5 -29.5t89 -82t44 -122t-8.5 -149.5l-170 -657h-135l174 657q12 51 7 96t-25.5 78t-54 52.5t-78.5 19.5q-41 0 -86.5 -18.5t-87.5 -48t-77.5 -69.5t-56.5 -83l-18 -73l-23 -88l-24 -93l-23 -84l-92 -346h-137z M504 1147l76 158q23 -35 48 -55.5t46 -20.5q14 0 28.5 4t26.5 8h-2q31 16 63.5 23.5t65.5 7.5q35 0 70 -13.5t73 -37.5l-77 -156q-20 39 -47 59.5t-50 20.5q-14 0 -27.5 -3t-23.5 -7h2q-33 -16 -64.5 -23.5t-64.5 -7.5q-35 0 -72.5 10t-70.5 33z" />
<glyph unicode="&#xf2;" horiz-adv-x="1079" d="M147 302q-4 29 -3 58q0 69 20 146q29 111 93.5 207t148 167.5t183 113.5t199.5 42q98 0 174 -42t122 -113.5t58 -167.5q3 -27 3 -56q0 -72 -21 -151q-29 -109 -92 -204t-147 -167t-182.5 -113.5t-196.5 -41.5q-100 0 -177 41.5t-123.5 113.5t-58.5 167zM287 355 q8 -71 40.5 -124t88 -83.5t127.5 -30.5q70 0 140.5 30.5t130.5 84t105.5 124t67.5 150.5q15 61 15 116q0 19 -2 37q-7 72 -39.5 125.5t-86 84t-122.5 30.5q-72 0 -143.5 -30.5t-133 -84t-107.5 -125t-67 -153.5q-17 -59 -16 -112q0 -20 2 -39zM588 1294h223l107 -223h-103z " />
<glyph unicode="&#xf3;" horiz-adv-x="1079" d="M147 302q-4 29 -3 58q0 69 20 146q29 111 93.5 207t148 167.5t183 113.5t199.5 42q98 0 174 -42t122 -113.5t58 -167.5q3 -27 3 -56q0 -72 -21 -151q-29 -109 -92 -204t-147 -167t-182.5 -113.5t-196.5 -41.5q-100 0 -177 41.5t-123.5 113.5t-58.5 167zM287 355 q8 -71 40.5 -124t88 -83.5t127.5 -30.5q70 0 140.5 30.5t130.5 84t105.5 124t67.5 150.5q15 61 15 116q0 19 -2 37q-7 72 -39.5 125.5t-86 84t-122.5 30.5q-72 0 -143.5 -30.5t-133 -84t-107.5 -125t-67 -153.5q-17 -59 -16 -112q0 -20 2 -39zM744 1071l227 223h217 l-338 -223h-106z" />
<glyph unicode="&#xf4;" horiz-adv-x="1050" d="M147 302q-4 29 -3 58q0 69 20 146q29 111 93.5 207t148 167.5t183 113.5t199.5 42q98 0 174 -42t122 -113.5t58 -167.5q3 -27 3 -56q0 -72 -21 -151q-29 -109 -92 -204t-147 -167t-182.5 -113.5t-196.5 -41.5q-100 0 -177 41.5t-123.5 113.5t-58.5 167zM287 355 q8 -71 40.5 -124t88 -83.5t127.5 -30.5q70 0 140.5 30.5t130.5 84t105.5 124t67.5 150.5q15 61 15 116q0 19 -2 37q-7 72 -39.5 125.5t-86 84t-122.5 30.5q-72 0 -143.5 -30.5t-133 -84t-107.5 -125t-67 -153.5q-17 -59 -16 -112q0 -20 2 -39zM570 1128l311 244l184 -246 l-114 -88l-115 162l-207 -162z" />
<glyph unicode="&#xf5;" horiz-adv-x="1050" d="M147 302q-4 29 -3 58q0 69 20 146q29 111 93.5 207t148 167.5t183 113.5t199.5 42q98 0 174 -42t122 -113.5t58 -167.5q3 -27 3 -56q0 -72 -21 -151q-29 -109 -92 -204t-147 -167t-182.5 -113.5t-196.5 -41.5q-100 0 -177 41.5t-123.5 113.5t-58.5 167zM287 355 q8 -71 40.5 -124t88 -83.5t127.5 -30.5q70 0 140.5 30.5t130.5 84t105.5 124t67.5 150.5q15 61 15 116q0 19 -2 37q-7 72 -39.5 125.5t-86 84t-122.5 30.5q-72 0 -143.5 -30.5t-133 -84t-107.5 -125t-67 -153.5q-17 -59 -16 -112q0 -20 2 -39zM615 1171l78 170 q43 -84 96 -84q16 0 49 15h-2q70 33 135 33q35 0 71 -13.5t68 -40.5l-84 -182q-20 47 -44.5 72.5t-47.5 25.5q-10 0 -26.5 -5t-26.5 -9h2q-27 -16 -62.5 -26.5t-66.5 -10.5q-35 0 -71.5 13t-67.5 42z" />
<glyph unicode="&#xf6;" horiz-adv-x="1079" d="M147 302q-4 29 -3 58q0 69 20 146q29 111 93.5 207t148 167.5t183 113.5t199.5 42q98 0 174 -42t122 -113.5t58 -167.5q3 -27 3 -56q0 -72 -21 -151q-29 -109 -92 -204t-147 -167t-182.5 -113.5t-196.5 -41.5q-100 0 -177 41.5t-123.5 113.5t-58.5 167zM287 355 q8 -71 40.5 -124t88 -83.5t127.5 -30.5q70 0 140.5 30.5t130.5 84t105.5 124t67.5 150.5q15 61 15 116q0 19 -2 37q-7 72 -39.5 125.5t-86 84t-122.5 30.5q-72 0 -143.5 -30.5t-133 -84t-107.5 -125t-67 -153.5q-17 -59 -16 -112q0 -20 2 -39zM671 1286q10 35 40 57.5 t65 22.5q33 0 53 -22.5t10 -57.5q-10 -31 -41.5 -55.5t-64.5 -24.5q-35 0 -53.5 24.5t-8.5 55.5zM931 1286q10 35 39 57.5t64 22.5t54.5 -22.5t8.5 -57.5q-10 -31 -40.5 -55.5t-65.5 -24.5t-52.5 24.5t-7.5 55.5z" />
<glyph unicode="&#xf7;" horiz-adv-x="870" d="M211 559l37 135h723l-37 -135h-723zM397 270l47 181h181l-47 -181h-181zM526 750l47 178h181l-47 -178h-181z" />
<glyph unicode="&#xf8;" horiz-adv-x="1050" d="M145 355.5q-2 74.5 19 150.5q29 111 93.5 207t148 167.5t183 113.5t199.5 42q104 0 183.5 -50t130.5 -136l-131 -88q-39 63 -96.5 100t-122.5 37q-72 0 -143.5 -30.5t-133 -84t-107.5 -125t-67 -153.5q-16 -55 -18 -109.5t12 -101.5l-127 -90q-21 76 -23 150.5zM176 188 l125 93q37 -76 100.5 -120t141.5 -44q70 0 140.5 30.5t130.5 84t105.5 124t67.5 150.5q16 61 12 121.5t-22 117.5l131 93q29 -76 34 -160t-18 -172q-29 -109 -92 -204t-147 -167t-182.5 -113.5t-196.5 -41.5q-113 0 -198 55t-132 153z" />
<glyph unicode="&#xf9;" horiz-adv-x="921" d="M168 216q-3 22 -3 44q0 51 13 107l170 657h133l-172 -657q-8 -33 -8 -64q0 -15 2 -31q6 -45 25.5 -78.5t54.5 -53t82 -19.5q43 0 87 18.5t84 49t73.5 70.5t54.5 81l182 684h135l-272 -1024h-133l18 84q-59 -47 -127.5 -74.5t-140.5 -27.5q-74 0 -128 29.5t-88 81.5 t-42 123zM512 1294h223l107 -223h-103z" />
<glyph unicode="&#xfa;" horiz-adv-x="921" d="M168 216q-3 22 -3 44q0 51 13 107l170 657h133l-172 -657q-8 -33 -8 -64q0 -15 2 -31q6 -45 25.5 -78.5t54.5 -53t82 -19.5q43 0 87 18.5t84 49t73.5 70.5t54.5 81l182 684h135l-272 -1024h-133l18 84q-59 -47 -127.5 -74.5t-140.5 -27.5q-74 0 -128 29.5t-88 81.5 t-42 123zM635 1071l227 223h217l-338 -223h-106z" />
<glyph unicode="&#xfb;" horiz-adv-x="921" d="M168 216q-3 22 -3 44q0 51 13 107l170 657h133l-172 -657q-8 -33 -8 -64q0 -15 2 -31q6 -45 25.5 -78.5t54.5 -53t82 -19.5q43 0 87 18.5t84 49t73.5 70.5t54.5 81l182 684h135l-272 -1024h-133l18 84q-59 -47 -127.5 -74.5t-140.5 -27.5q-74 0 -128 29.5t-88 81.5 t-42 123zM504 1128l311 244l184 -246l-114 -88l-115 162l-207 -162z" />
<glyph unicode="&#xfc;" horiz-adv-x="921" d="M168 216q-3 22 -3 44q0 51 13 107l170 657h133l-172 -657q-8 -33 -8 -64q0 -15 2 -31q6 -45 25.5 -78.5t54.5 -53t82 -19.5q43 0 87 18.5t84 49t73.5 70.5t54.5 81l182 684h135l-272 -1024h-133l18 84q-59 -47 -127.5 -74.5t-140.5 -27.5q-74 0 -128 29.5t-88 81.5 t-42 123zM581 1286q10 35 40 57.5t65 22.5q33 0 53 -22.5t10 -57.5q-10 -31 -41.5 -55.5t-64.5 -24.5q-35 0 -53.5 24.5t-8.5 55.5zM841 1286q10 35 39 57.5t64 22.5t54.5 -22.5t8.5 -57.5q-10 -31 -40.5 -55.5t-65.5 -24.5t-52.5 24.5t-7.5 55.5z" />
<glyph unicode="&#xfd;" horiz-adv-x="1095" d="M-10 -373l55 133q49 -16 84 -16q80 0 172 83t203 273q-16 113 -35 225.5t-35 227.5l-34 243l-34 240h142l104 -770l102 155l101 154l154 232l153 229h148l-641 -950l2 2l-38 -57l-38 -58l-72 -112q-37 -59 -85 -105.5t-101 -79t-108.5 -49t-104.5 -16.5q-45 0 -94 16z M764 1071l227 223h217l-338 -223h-106z" />
<glyph unicode="&#xfe;" horiz-adv-x="1058" d="M4 -381l475 1778h137l-110 -412q61 27 130 41t146 14q102 -2 180 -45t126.5 -113.5t61.5 -165.5t-15 -202q-31 -111 -95.5 -208t-150.5 -168.5t-187.5 -113.5t-203.5 -42q-78 0 -137.5 17t-106.5 42l-113 -422h-137zM299 207q-6 -16 9.5 -31.5t48 -28t78.5 -19.5t100 -9 q74 2 146.5 33.5t136 85t110.5 124t67 150.5q20 78 11 148.5t-43.5 124t-91 85t-128.5 31.5q-96 0 -176 -25.5t-108 -56.5z" />
<glyph unicode="&#xff;" horiz-adv-x="1095" d="M-10 -373l55 133q49 -16 84 -16q80 0 172 83t203 273q-16 113 -35 225.5t-35 227.5l-34 243l-34 240h142l104 -770l102 155l101 154l154 232l153 229h148l-641 -950l2 2l-38 -57l-38 -58l-72 -112q-37 -59 -85 -105.5t-101 -79t-108.5 -49t-104.5 -16.5q-45 0 -94 16z M690 1286q10 35 40 57.5t65 22.5q33 0 53 -22.5t10 -57.5q-10 -31 -41.5 -55.5t-64.5 -24.5q-35 0 -53.5 24.5t-8.5 55.5zM950 1286q10 35 39 57.5t64 22.5t54.5 -22.5t8.5 -57.5q-10 -31 -40.5 -55.5t-65.5 -24.5t-52.5 24.5t-7.5 55.5z" />
<glyph unicode="&#x152;" horiz-adv-x="2162" d="M215 420q-16 133 25 287q39 150 125 279.5t199.5 227t245.5 153.5t265 56q334 0 438 -264l70 256h842l-37 -135h-702l-123 -459h600l-37 -139h-600l-146 -543h703l-35 -139h-842l66 254l-38 -35.5t-42 -38.5q-115 -96 -242 -147t-262 -51q-129 0 -230.5 55t-164 152.5 t-78.5 230.5zM356.5 477.5q10.5 -106.5 57.5 -185.5t127 -124t186 -45q100 0 199.5 43t186.5 115.5t156.5 170t110.5 205.5l25 99q23 115 6.5 209t-65.5 165q-47 74 -126 113t-184 39q-104 0 -207.5 -45t-192.5 -123t-156.5 -182.5t-100.5 -224.5q-33 -123 -22.5 -229.5z " />
<glyph unicode="&#x153;" horiz-adv-x="1802" d="M157.5 302q-12.5 95 16.5 204q29 111 93.5 207t149.5 167.5t184 113.5t198 42q63 0 118.5 -20.5t98.5 -55t74.5 -82t50.5 -102.5q43 57 93 105.5t105.5 83t112.5 54t113 19.5q86 0 151.5 -40t102 -109.5t43 -163.5t-22.5 -205l-20 -74h-686q-12 -72 -3 -132t36.5 -103 t71.5 -68.5t103 -25.5q31 0 72 9t84 22.5t84 29.5l72 29l20 -119q-70 -35 -155.5 -63.5t-159.5 -40.5q-10 -2 -25 -2h-28q-121 0 -200 72.5t-106 189.5q-47 -55 -104 -103.5t-119.5 -84.5t-129 -56t-130.5 -20q-98 0 -175 41.5t-124 113.5t-59.5 167zM297 355.5 q8 -70.5 41 -124t88 -84t127 -30.5q70 0 139.5 30.5t130 84t105.5 124t67 150.5q20 82 13 153.5t-38.5 125t-85 84t-122.5 30.5q-72 0 -143.5 -30.5t-133 -84t-107.5 -125t-67 -153.5q-22 -80 -14 -150.5zM1171 580h545q8 68 0 126t-32.5 101t-64.5 67.5t-91 24.5 q-47 0 -97.5 -24.5t-97.5 -67.5t-89 -101t-73 -126z" />
<glyph unicode="&#x178;" horiz-adv-x="1394" d="M406 1415h182l297 -645l86 87l86 87l238 237l239 234h180l-794 -782l-82 -307q-23 -80 -43.5 -165l-40.5 -161h-142l166 633l-51 108l-53 115l-66 139l-70 147l-70 143zM870 1497q10 35 40 57.5t65 22.5q33 0 53 -22.5t10 -57.5q-10 -31 -41.5 -55.5t-64.5 -24.5 q-35 0 -53.5 24.5t-8.5 55.5zM1130 1497q10 35 39 57.5t64 22.5t54.5 -22.5t8.5 -57.5q-10 -31 -40.5 -55.5t-65.5 -24.5t-52.5 24.5t-7.5 55.5z" />
<glyph unicode="&#x2c6;" horiz-adv-x="548" d="M330 1128l311 244l184 -246l-114 -88l-115 162l-207 -162z" />
<glyph unicode="&#x2da;" horiz-adv-x="1705" />
<glyph unicode="&#x2dc;" horiz-adv-x="684" d="M416 1171l78 170q43 -84 96 -84q16 0 49 15h-2q70 33 135 33q35 0 71 -13.5t68 -40.5l-84 -182q-20 47 -44.5 72.5t-47.5 25.5q-10 0 -26.5 -5t-26.5 -9h2q-27 -16 -62.5 -26.5t-66.5 -10.5q-35 0 -71.5 13t-67.5 42z" />
<glyph unicode="&#x2000;" horiz-adv-x="880" />
<glyph unicode="&#x2001;" horiz-adv-x="1763" />
<glyph unicode="&#x2002;" horiz-adv-x="880" />
<glyph unicode="&#x2003;" horiz-adv-x="1763" />
<glyph unicode="&#x2004;" horiz-adv-x="587" />
<glyph unicode="&#x2005;" horiz-adv-x="440" />
<glyph unicode="&#x2006;" horiz-adv-x="292" />
<glyph unicode="&#x2007;" horiz-adv-x="292" />
<glyph unicode="&#x2008;" horiz-adv-x="219" />
<glyph unicode="&#x2009;" horiz-adv-x="352" />
<glyph unicode="&#x200a;" horiz-adv-x="96" />
<glyph unicode="&#x2010;" horiz-adv-x="862" d="M205 530l37 136h723l-37 -136h-723z" />
<glyph unicode="&#x2011;" horiz-adv-x="862" d="M205 530l37 136h723l-37 -136h-723z" />
<glyph unicode="&#x2012;" horiz-adv-x="862" d="M205 530l37 136h723l-37 -136h-723z" />
<glyph unicode="&#x2013;" horiz-adv-x="851" d="M205 530l37 136h723l-37 -136h-723z" />
<glyph unicode="&#x2014;" horiz-adv-x="1089" d="M209 530l37 136h944l-37 -136h-944z" />
<glyph unicode="&#x2018;" horiz-adv-x="307" d="M356 1178l164 223l49 -29l-63 -160l26 -122l-149 -62z" />
<glyph unicode="&#x2019;" horiz-adv-x="325" d="M330 1098l106 141l23 145l149 11l-24 -160l-222 -180z" />
<glyph unicode="&#x201a;" horiz-adv-x="352" d="M18 -94l117 131l37 143h150l-43 -164l-240 -166z" />
<glyph unicode="&#x201c;" horiz-adv-x="446" d="M375 1235l61 160l146 -11l-58 -145q6 -29 11.5 -61.5t13.5 -61.5q0 -4 1 -9t1 -9l-53 -43zM516 1235l62 160l145 -11l-57 -145q6 -29 11 -61.5t13 -61.5q0 -4 1 -9t1 -9l-53 -43z" />
<glyph unicode="&#x201d;" horiz-adv-x="485" d="M334 1098l104 141l21 145l149 11l-24 -160l-222 -180zM475 1098l105 141l20 145l150 11l-25 -160l-221 -180z" />
<glyph unicode="&#x201e;" horiz-adv-x="473" d="M2 -94l113 131l35 145h149l-43 -159l-233 -168zM145 -96l113 133l39 145h145l-43 -164l-235 -168z" />
<glyph unicode="&#x2022;" horiz-adv-x="428" d="M268 770q8 31 27.5 57.5t46.5 47t56.5 33t60.5 12.5q59 0 92 -45.5t16 -104.5q-6 -29 -25.5 -54.5t-46 -45t-57 -31.5t-59.5 -12q-59 0 -92 44t-19 99z" />
<glyph unicode="&#x2026;" horiz-adv-x="890" d="M68 0l45 180h180l-45 -180h-180zM348 0l45 180h180l-45 -180h-180zM629 0l45 180h180l-45 -180h-180z" />
<glyph unicode="&#x202f;" horiz-adv-x="352" />
<glyph unicode="&#x2039;" horiz-adv-x="720" d="M197 508l649 516l72 -96l-529 -420l70 -95l73 -100l82 -109l80 -106l-121 -100z" />
<glyph unicode="&#x203a;" horiz-adv-x="702" d="M86 98l528 410l-152 211l-153 209l123 96l373 -516l-649 -510z" />
<glyph unicode="&#x205f;" horiz-adv-x="440" />
<glyph unicode="&#x20ac;" horiz-adv-x="1525" d="M205 506l37 137h192v6q2 10 5 22.5t5 18.5q4 18 12 39l13 37l2 6h-195l37 139h219q61 111 147.5 201t188 154.5t212 100.5t220.5 36q147 0 260 -67.5t187 -176.5l-125 -98q-61 94 -149.5 148.5t-208.5 54.5q-82 0 -164 -27t-159 -73t-143.5 -111.5t-117.5 -141.5h651 l-37 -139h-684q-10 -18 -16 -39l-12 -43q-6 -16 -7 -33q-4 -6 -3 -9t1 -5h687l-37 -137h-658q6 -80 37 -150.5t82 -123t120.5 -82t151.5 -29.5q119 0 238 56t233 157l70 -109q-133 -109 -281.5 -176t-295.5 -67q-119 0 -213.5 38.5t-161 108.5t-100 166t-29.5 211h-211z" />
<glyph unicode="&#x2122;" horiz-adv-x="854" d="M379 1268l31 110h346l-31 -110h-113l-90 -338h-116l90 338h-117zM616 930l121 448h92l52 -155l35 43l36 43l12.5 13t12.5 15l20 22q10 11 19 19h92l-121 -448h-115l54 198q-20 -23 -33.5 -41t-24.5 -28h-63l-21 65l-53 -194h-115z" />
<glyph unicode="&#xe000;" horiz-adv-x="1025" d="M0 1025h1025v-1025h-1025v1025z" />
<glyph unicode="&#xfb01;" horiz-adv-x="1034" d="M203 0l229 864h-145l37 137h143l12 48q23 72 66 136t97 112.5t116.5 77t122.5 28.5q29 0 55.5 -1t73.5 -7l-78 -140q-37 10 -56.5 11.5t-31.5 1.5q-37 -2 -74 -21.5t-68.5 -51.5t-57.5 -76t-38 -93l-6 -25h252l-266 -1001h-133l229 864h-119l-112 -418l-59 -226l-58 -220 h-131z" />
<glyph unicode="&#xfb02;" horiz-adv-x="1003" d="M203 0l229 864h-145l37 137h143q0 4 1 7.5t1 7.5v6l8 27q23 74 66 137t97 111.5t116.5 76t124.5 29.5h123l-373 -1403h-139l229 864h-158l-112 -418l-59 -226l-58 -220h-131zM600 1001h158l69 265q-72 -14 -134 -81t-87 -159zM831 1280l13 -12h45l-45 61z" />
<glyph unicode="&#xfb03;" horiz-adv-x="1691" d="M1445 0l271 1024h133l-270 -1024h-134zM1771 1286q10 35 40 57.5t64 22.5q33 0 54 -23q14 -15 13 -35q0 -10 -3 -22q-10 -31 -42 -55.5t-65 -24.5q-35 0 -53 25q-12 16 -12 34q0 10 4 21zM873 0l86 322l37 140l37 143l37 137q17 67 34 122h-145l37 137h143l12 48 q23 72 66 136t97 112.5t116.5 77t122.5 28.5q29 0 55.5 -1t73.5 -7l-78 -140q-37 10 -56.5 11.5t-31.5 1.5q-37 -2 -74 -21.5t-68.5 -51.5t-57.5 -76t-38 -93l-6 -25h254l-37 -137h-254l-229 -864h-133zM201 0l86 322l37 140l37 143l37 137q17 67 34 122h-145l37 137h143 l12 48q23 72 66 136t97 112.5t116.5 77t122.5 28.5q29 0 55.5 -1t73.5 -7l-78 -140q-37 10 -56.5 11.5t-31.5 1.5q-37 -2 -74 -21.5t-68.5 -51.5t-57.5 -76t-38 -93l-6 -25h254l-37 -137h-254l-229 -864h-133z" />
<glyph unicode="&#xfb04;" horiz-adv-x="1675" d="M1449 0l410 1538h135l-409 -1538h-136zM873 0l86 322l37 140l37 143l37 137q17 67 34 122h-145l37 137h143l12 48q23 72 66 136t97 112.5t116.5 77t122.5 28.5q29 0 55.5 -1t73.5 -7l-78 -140q-37 10 -56.5 11.5t-31.5 1.5q-37 -2 -74 -21.5t-68.5 -51.5t-57.5 -76 t-38 -93l-6 -25h254l-37 -137h-254l-229 -864h-133zM201 0l86 322l37 140l37 143l37 137q17 67 34 122h-145l37 137h143l12 48q23 72 66 136t97 112.5t116.5 77t122.5 28.5q29 0 55.5 -1t73.5 -7l-78 -140q-37 10 -56.5 11.5t-31.5 1.5q-37 -2 -74 -21.5t-68.5 -51.5 t-57.5 -76t-38 -93l-6 -25h254l-37 -137h-254l-229 -864h-133z" />
</font>
</defs>
</svg>
