<?xml version="1.0" standalone="no"?>
<!DOCTYPE svg PUBLIC "-//W3C//DTD SVG 1.1//EN" "http://www.w3.org/Graphics/SVG/1.1/DTD/svg11.dtd" >
<svg xmlns="http://www.w3.org/2000/svg">
<metadata>
This is a custom SVG webfont generated by Font Squirrel.
Copyright   : Copyright c 2007 by La Tipomatika All rights reserved
Designer    : La Tipomatika Digital Type Foundry
Foundry     : La Tipomatika
Foundry URL : httptipomatikaconr
</metadata>
<defs>
<font id="webfontjvJqXHI0" horiz-adv-x="1220" >
<font-face units-per-em="2048" ascent="1638" descent="-410" />
<missing-glyph horiz-adv-x="526" />
<glyph unicode=" "  horiz-adv-x="526" />
<glyph unicode="&#x09;" horiz-adv-x="526" />
<glyph unicode="&#xa0;" horiz-adv-x="526" />
<glyph unicode="!" horiz-adv-x="360" d="M100 43q0 27 17.5 44t44.5 17q29 0 43 -17t16 -42v-2q0 -25 -17.5 -43t-41.5 -18q-27 0 -44.5 18t-17.5 43zM113 197v1208h98v-1208h-98z" />
<glyph unicode="&#x22;" horiz-adv-x="444" d="M61 1405h121l17 -141l-86 -183l-31 31zM211 1405h121l16 -141l-86 -183l-31 31z" />
<glyph unicode="#" horiz-adv-x="1462" d="M43 813l92 115h344l73 192l73 191h118l-139 -383h447l71 192l72 191h119l-139 -383h241l-92 -115h-188l-51 -129q-26 -63 -48 -129h381l-96 -115h-328l-78 -220l-77 -220h-123l159 440h-450l-78 -220l-80 -220h-121l160 440h-260l94 115h205l48 129l48 129h-397zM467 555 h448q23 66 47.5 129.5l47.5 128.5h-447z" />
<glyph unicode="$" horiz-adv-x="954" d="M59 184l91 72q39 -59 109.5 -108.5t154.5 -53.5v551q-78 16 -143.5 52t-111.5 86.5t-72 112.5t-26 132q0 72 27 134.5t74 111.5t111.5 83t140.5 48v92h110v-86q109 -4 198 -49t155 -119l-91 -72q-47 55 -115.5 92t-146.5 42v-566q76 -16 142.5 -52t113.5 -86t75 -111.5 t28 -131.5q0 -72 -28 -134t-76 -111.5t-113.5 -82t-141.5 -42.5v-119h-110v115h-11q-109 10 -199 65t-145 135zM178 1036q0 -47 17.5 -90t48 -80t73.5 -63.5t97 -40.5v532q-49 -12 -92 -36.5t-75 -58.5t-50.5 -76t-18.5 -87zM524 100q51 8 95.5 30t77 54.5t51 75.5t18.5 92 t-17.5 94.5t-50 82t-76.5 63t-98 39.5v-531z" />
<glyph unicode="%" horiz-adv-x="1583" d="M94 1022q0 72 24.5 134.5t66.5 109.5t98.5 73.5t122.5 26.5q63 0 118.5 -26.5t97.5 -73.5t65.5 -109.5t23.5 -134.5t-23.5 -134.5t-65.5 -108.5t-97.5 -73.5t-118.5 -27.5q-66 0 -122.5 27.5t-98.5 73.5t-66.5 108.5t-24.5 134.5zM207 1022q0 -47 15.5 -89t42 -75 t63.5 -51.5t78 -18.5q39 0 73.5 18.5t61 51.5t42 75t15.5 89q0 49 -15.5 92t-42 74t-61.5 49t-73 18q-41 0 -78 -18t-63.5 -49t-42 -74t-15.5 -92zM324 2l811 1403h131l-815 -1403h-127zM862 350q0 72 24.5 135.5t65.5 109.5t96.5 72.5t116.5 26.5q63 0 120.5 -26.5 t99.5 -72.5t67 -109.5t25 -135.5t-25 -134t-67 -108.5t-99 -74t-121 -27.5q-61 0 -116.5 27.5t-96.5 74t-65.5 108.5t-24.5 134zM973 350q0 -49 15.5 -91t42 -73.5t61 -50t73.5 -18.5q41 0 78 18.5t64.5 50t43 73.5t15.5 91t-15.5 92t-43 74t-64.5 49.5t-78 18.5 q-39 0 -73.5 -18.5t-61 -49.5t-42 -74t-15.5 -92z" />
<glyph unicode="&#x26;" horiz-adv-x="1222" d="M76 389q0 117 78.5 219.5t242.5 175.5q10 6 16.5 8.5t18.5 8.5q-6 6 -12 14t-10 14q-53 55 -84 97.5t-46.5 77t-20.5 62.5t-5 56q0 55 22.5 107.5t65.5 93.5t102.5 65.5t133.5 24.5q68 0 124 -22.5t96 -60.5t62.5 -88t22.5 -107q0 -90 -47.5 -170t-178.5 -160l-47 -33 l146 -179l147 -181q6 10 13.5 19t11.5 20v-2q2 4 6 10t6 10q20 29 42 64.5t34 89.5l98 -19q-29 -86 -67.5 -154.5t-73.5 -119.5q27 -41 44 -64l38 -47h-2l28 -37l37 -47v-155q-35 35 -63 66l-49 54l-31 36q-20 24 -47 50v2q-6 10 -8 11.5t-11 11.5q-6 -8 -10 -14.5 t-10 -14.5q-72 -98 -174.5 -141t-212.5 -41q-92 0 -170 31.5t-135.5 85t-89 124t-31.5 148.5zM184 385q0 -53 26 -104.5t69 -91t100 -64.5t123 -25q90 -2 177 45.5t146 120.5l19 23l-175 216l-175 216q-162 -86 -236 -169t-74 -167zM362 1122q2 -43 21.5 -80.5t54.5 -78.5 l92 -107l18 10q7 4 15 11q51 29 91 63.5t67 69t40 67.5t13 58q0 80 -57.5 131t-143.5 51q-39 0 -76.5 -16.5t-67.5 -43t-48.5 -61.5t-18.5 -74zM487 731q2 -4 3.5 -5t3.5 -5q4 2 5 3t5 3z" />
<glyph unicode="'" horiz-adv-x="247" d="M29 1118l67 139l-16 138l123 10l16 -143l-162 -172z" />
<glyph unicode="(" horiz-adv-x="532" d="M82 590q0 135 17.5 262t50 235.5t76.5 195.5t98 142l49 -125q-39 -47 -70 -119.5t-52.5 -164.5t-33.5 -200.5t-12 -225.5q0 -129 14 -245t40 -213t61.5 -170t78.5 -114l-65 -108q-55 55 -101.5 141t-80 196.5t-52 241t-18.5 271.5z" />
<glyph unicode=")" horiz-adv-x="503" d="M100 -152q43 41 80 114t62.5 170t40 213t14.5 245q0 117 -12.5 225.5t-34 200.5t-52 164.5t-69.5 119.5l47 125q53 -57 98 -144t77 -195.5t50.5 -234.5t18.5 -261q0 -141 -18.5 -271.5t-52.5 -241t-80 -196.5t-101 -141z" />
<glyph unicode="*" horiz-adv-x="964" d="M123 1075v111h221l-158 157l78 80l158 -157v223h110v-223l158 157l80 -77l-158 -158h224v-113h-226q37 -39 80 -80t80 -80l-78 -75l-160 157v-225h-110v221l-82 -79l-76 -74l-80 75l160 160h-221z" />
<glyph unicode="+" horiz-adv-x="925" d="M102 545v110h301v301h111v-301h303v-110h-303v-303h-111v303h-301z" />
<glyph unicode="," horiz-adv-x="354" d="M61 -111l82 129l-2 138h125v-148l-182 -153z" />
<glyph unicode="-" horiz-adv-x="862" d="M74 545v110h714v-110h-714z" />
<glyph unicode="." horiz-adv-x="296" d="M72 156h155l2 -156h-155z" />
<glyph unicode="/" horiz-adv-x="774" d="M76 0l512 1405h119l-510 -1405h-121z" />
<glyph unicode="0" horiz-adv-x="1200" d="M78 698q0 147 41 278.5t111.5 227.5t166 152.5t201.5 56.5t200.5 -56.5t165 -152.5t110.5 -227t40 -279q0 -147 -40 -277t-110.5 -228.5t-164.5 -154.5t-201 -56q-106 0 -201.5 56t-166 154.5t-111.5 228.5t-41 277zM190 698q0 -127 33 -236.5t88.5 -191.5t129 -129 t157.5 -47q86 0 159.5 47t128 129t86.5 191.5t32 236.5q0 125 -32 234.5t-86.5 191.5t-128 129t-159.5 47q-84 0 -157.5 -47t-129 -129t-88.5 -191.5t-33 -234.5z" />
<glyph unicode="1" horiz-adv-x="626" d="M68 993v142l327 270h101l2 -1405h-111l-2 1255l-160 -132z" />
<glyph unicode="2" horiz-adv-x="972" d="M76 0v102l579 652q86 92 86 217q0 70 -26.5 129t-71.5 104t-106.5 70.5t-130.5 25.5q-70 0 -133.5 -27.5t-112.5 -76.5l-80 80q68 61 151.5 99t174.5 38q92 0 172.5 -35t142 -95t96.5 -140t35 -172q0 -86 -33 -162t-86 -135l-249 -282l-253 -281h680v-111h-835z" />
<glyph unicode="3" horiz-adv-x="882" d="M12 188l82 76q23 -31 56.5 -58.5t72.5 -49t81 -33.5t81 -12q66 0 123 20.5t100 55t68.5 81.5t25.5 101q0 49 -23.5 99t-64.5 91t-94 68.5t-112 34.5h-125v110h57q23 0 41 1t22 1q61 4 114.5 22.5t93.5 50.5t62.5 75t22.5 98q0 57 -24.5 108.5t-67.5 90t-100.5 60 t-120.5 21.5q-78 0 -131 -25.5t-100 -80.5l-80 80q63 68 137 102.5t174 34.5q88 0 166 -30.5t136 -84t92 -124t34 -152.5q0 -106 -58.5 -179t-150.5 -120q45 -27 85 -67t68.5 -87t45 -98t16.5 -100q0 -76 -34.5 -143.5t-93 -118t-137.5 -80t-167 -29.5q-51 0 -104.5 15.5 t-103.5 41t-93 60t-72 73.5z" />
<glyph unicode="4" horiz-adv-x="968" d="M72 504l2 98l465 809l94 -57l-426 -740h428q0 74 -1 155t-1 153h108l2 -308h142v-110h-142v-504h-108v504h-563z" />
<glyph unicode="5" horiz-adv-x="1032" d="M123 700l47 705h731v-113h-620l-20 -195q-9 -91 -21 -196q59 53 139 83t166 30q96 0 172 -40t129 -107.5t81.5 -160t28.5 -196.5t-35.5 -197.5t-97 -163t-144.5 -109.5t-177 -40q-111 0 -209 57.5t-162 153.5l80 80q49 -82 125 -131t164 -49q72 0 134 31.5t109.5 85 t74 126t26.5 156.5q0 82 -19.5 154.5t-57.5 126t-94.5 84t-127.5 30.5q-100 0 -187.5 -56t-128.5 -149h-106z" />
<glyph unicode="6" horiz-adv-x="1036" d="M100 676v43q0 90 5.5 171t21.5 157q14 76 52 142t94.5 115.5t127 79t150.5 31.5q111 0 208 -49t169 -143l-109 -66q-47 66 -117.5 106t-148.5 40q-59 0 -113.5 -21.5t-97.5 -59.5t-72.5 -91.5t-40.5 -114.5q-14 -74 -20 -155t-6 -167v-16q53 72 136 115t183 47 q88 0 167 -31t140.5 -86t97.5 -131t38 -166v-18q0 -90 -34 -168t-92.5 -134.5t-137 -89t-169.5 -32.5q-86 0 -160.5 31.5t-132 88t-92 132t-38.5 165.5v-2q-6 66 -7.5 137.5t-1.5 139.5zM219 401q0 -63 25.5 -119.5t69.5 -98.5t101.5 -66.5t121.5 -24.5q66 0 123 24.5 t100 67.5t68.5 99.5t25.5 119.5v19q-2 66 -27.5 122t-68.5 97t-101.5 64.5t-124.5 23.5q-68 0 -125 -26.5t-99 -71.5t-65.5 -104.5t-23.5 -125.5z" />
<glyph unicode="7" horiz-adv-x="907" d="M74 0l600 1292h-600v113h784l-655 -1405h-129z" />
<glyph unicode="8" horiz-adv-x="940" d="M55 395q0 117 60.5 213.5t150.5 149.5q-78 47 -122 122.5t-44 174.5q0 74 29 139.5t79 113.5t116.5 76.5t142.5 28.5q78 0 146.5 -28.5t118.5 -76.5t79 -114t29 -139q0 -98 -43 -174t-123 -123q96 -53 152.5 -149.5t56.5 -213.5q0 -86 -32 -160.5t-88 -131t-132 -89 t-164 -32.5q-84 0 -159 32.5t-131 89t-89 131t-33 160.5zM168 395q0 -61 23.5 -115.5t64.5 -95.5t95.5 -65.5t115.5 -24.5q63 0 118.5 24.5t97.5 65.5t65.5 95.5t23.5 115.5t-23.5 116.5t-65.5 97.5t-97.5 65.5t-118.5 23.5q-61 0 -115.5 -23.5t-95.5 -65.5t-64.5 -97.5 t-23.5 -116.5zM211 1055q0 -51 20.5 -95.5t55.5 -78t81 -53t99 -19.5t100 19.5t82 53t55.5 78t20.5 95.5t-20.5 96t-55.5 78t-82 52t-100 19t-99 -19t-81 -52t-55.5 -78t-20.5 -96z" />
<glyph unicode="9" horiz-adv-x="1001" d="M70 973v14q0 88 33.5 166t91 136.5t135.5 92t168 33.5q86 0 161.5 -33.5t134 -92t94.5 -134.5t42 -162q4 -66 5 -140.5t1 -139.5v-54q0 -82 -5 -158.5t-20 -148.5q-16 -82 -57 -149.5t-101.5 -115.5t-135 -74.5t-156.5 -26.5q-102 0 -194.5 50t-157.5 130l102 84 q49 -72 118.5 -111t145.5 -39q129 0 218 80t116 199q10 72 16 151.5t6 161.5v25q-59 -66 -147 -110t-190 -44q-84 0 -161 32t-134.5 87t-92 130t-36.5 161zM176 977q4 -63 30.5 -118.5t69.5 -96.5t98.5 -64.5t119.5 -23.5q68 0 127 24.5t102 67.5t68.5 100.5t25.5 124.5 q0 63 -26.5 119.5t-70.5 98.5t-101.5 66.5t-118.5 24.5q-68 0 -127.5 -26.5t-103.5 -70.5t-68.5 -103.5t-24.5 -122.5z" />
<glyph unicode=":" horiz-adv-x="372" d="M109 156h155l2 -156h-155zM109 868v156h155v-156h-155z" />
<glyph unicode=";" horiz-adv-x="346" d="M41 -111l80 129l-2 138h125l2 -148l-185 -153zM109 868v156h153v-156h-153z" />
<glyph unicode="&#x3c;" horiz-adv-x="675" d="M41 508l504 510l82 -78l-428 -432l214 -211l214 -211l-80 -82z" />
<glyph unicode="=" horiz-adv-x="901" d="M131 399v115h694v-115h-694zM131 784v117h694v-117h-694z" />
<glyph unicode="&#x3e;" horiz-adv-x="688" d="M61 86l428 422l-214 216l-214 216l82 78l504 -510l-506 -504z" />
<glyph unicode="?" horiz-adv-x="839" d="M61 1229q53 84 136.5 134t181.5 50q78 0 146.5 -30.5t119.5 -84t81 -125t30 -151.5q0 -78 -29 -146.5t-79 -122t-117.5 -84t-145.5 -30.5h-88l96 -321l94 -318h-118l-187 649v101h203q55 2 103.5 23.5t83 58t55 86t20.5 104.5q0 57 -21.5 108.5t-57.5 90.5t-85 60.5 t-104 21.5q-74 0 -135.5 -43t-102.5 -111zM401 -178q0 31 20.5 49t47.5 18q31 0 49.5 -18t18.5 -49q0 -29 -18.5 -50.5t-49.5 -21.5q-27 0 -47.5 21.5t-20.5 50.5z" />
<glyph unicode="@" horiz-adv-x="1636" d="M102 498q0 147 55.5 277t152 225.5t225.5 150.5t274 55q141 0 264 -50t214 -136t143.5 -203t52.5 -252q0 -92 -20.5 -170t-43.5 -137q-29 -68 -63 -123q-31 -45 -76 -71.5t-92 -26.5q-39 0 -72 15.5t-58.5 40t-45 54t-33.5 58.5q-18 -6 -48 -14.5t-63.5 -16.5t-66.5 -15 t-60 -9q-37 -4 -84 7t-89 43.5t-70.5 88t-28.5 141.5q0 51 12 107q20 96 61.5 159.5t93.5 102.5t111.5 54t118.5 15q35 0 84 -2t94 -6q53 -4 105 -6l-46 -212l-28 -133q-10 -50 -14 -72.5t-4 -30.5v-9q-4 -51 5 -96t28.5 -78t45 -51t52.5 -18q23 0 42 12t38 35h-2 q25 45 47 100q18 47 33.5 113.5t15.5 146.5q0 113 -42 211t-116 169t-175 112t-220 41q-123 0 -230.5 -47.5t-187.5 -128t-127 -189t-47 -231.5t47 -230.5t127 -187.5t187.5 -127t230.5 -47q35 0 80 6t98 25l2 -121q-86 -25 -180 -25q-145 0 -274 55.5t-225.5 151.5 t-152 225.5t-55.5 274.5zM604 438q0 -45 11.5 -76.5t30 -51t40 -29t41.5 -9.5q25 0 53.5 2t54 7.5t46 10.5t30.5 9l15.5 82t17.5 82l28 137q13 66 29 137h-65q-18 0 -40 1t-44 1q-82 2 -145.5 -43t-92.5 -174q-6 -27 -8 -47.5t-2 -38.5z" />
<glyph unicode="A" d="M51 0l518 1415h93l522 -1415h-117l-217 575h-469l-106 -287l-107 -288h-117zM422 688h387l-97 259l-98 261l-96 -260z" />
<glyph unicode="B" horiz-adv-x="1048" d="M98 1415h457q80 -2 148.5 -30.5t121 -76.5t82 -113t29.5 -134q0 -98 -51 -179t-131 -130q98 -51 154.5 -143.5t56.5 -200.5q0 -82 -32 -155t-87 -127t-130 -87t-161 -35h2l-37 -4h-420zM211 113h344q61 2 115.5 26.5t94.5 64.5t63.5 92t23.5 112q0 55 -23.5 106t-63.5 90 t-94.5 63.5t-115.5 28.5h-344v-583zM211 809h344q57 2 106.5 21.5t85 53.5t56 79t20.5 98q0 47 -20.5 90t-56 77t-85 54.5t-106.5 24.5h-344v-498z" />
<glyph unicode="C" horiz-adv-x="1208" d="M49 707q0 143 50.5 273t138.5 228.5t204.5 156.5t251.5 58q129 0 246 -55t205 -151l-78 -76q-78 80 -173 125t-200 45q-109 0 -205 -47t-168.5 -129t-114.5 -193t-42 -235q0 -123 40 -235t110.5 -194.5t168 -132t211.5 -49.5q104 0 197.5 45t171.5 123l78 -76 q-92 -96 -206 -151t-241 -55t-243.5 57t-205.5 155.5t-142.5 230.5t-53.5 282z" />
<glyph unicode="D" horiz-adv-x="1177" d="M66 1415h526q104 -2 194.5 -57t158 -150.5t106.5 -223.5t39 -273t-38 -273.5t-104.5 -223.5t-157 -152.5t-192.5 -61.5h-530zM178 113q104 0 209 2t209 2q80 2 148.5 50t121 128t82 187.5t29.5 228.5t-29.5 228.5t-82 187t-123 126.5t-150.5 50h-414v-1190z" />
<glyph unicode="E" horiz-adv-x="993" d="M80 1415h827v-108h-714v-498h612v-113h-612v-583h714l2 -113h-827z" />
<glyph unicode="F" horiz-adv-x="997" d="M88 1415h827v-106h-714v-500h610v-113h-610q0 -172 1 -348t1 -348h-113z" />
<glyph unicode="G" horiz-adv-x="1236" d="M43 700q0 150 51 281t139.5 229.5t206 155.5t250.5 57q129 0 245 -54t208 -152l-78 -78q-78 80 -174 125t-201 45q-111 0 -208 -47.5t-170.5 -129t-115.5 -193.5t-42 -239t42 -237.5t115.5 -193.5t171 -131t207.5 -48q96 0 182 37t152 98v377h-383v109h496v-521l-4 -16 q-88 -92 -201 -142t-242 -50q-133 0 -250.5 56t-206 154.5t-139.5 229.5t-51 278z" />
<glyph unicode="H" horiz-adv-x="1142" d="M90 1415h113v-606h737v606h111l2 -1415h-111l-2 696h-737q0 -172 1 -348t1 -348h-113z" />
<glyph unicode="I" horiz-adv-x="282" d="M86 1415h113l2 -1415h-113z" />
<glyph unicode="J" horiz-adv-x="624" d="M51 80l74 78q25 -29 52.5 -46.5t55.5 -17.5q33 0 62 18.5t50.5 52.5t34.5 81t13 102v1067h113v-1063q0 -76 -21.5 -143.5t-59.5 -117.5t-87 -79.5t-105 -29.5q-51 0 -97 27.5t-85 70.5z" />
<glyph unicode="K" horiz-adv-x="1193" d="M80 1415h113v-731l626 731h150l-529 -616l342 -400l342 -399h-145l-612 713l-86 -101q-41 -49 -88 -100q0 -125 1 -256t1 -256h-113z" />
<glyph unicode="L" horiz-adv-x="927" d="M80 1415h110v-1302h678l2 -113h-788z" />
<glyph unicode="M" horiz-adv-x="1275" d="M59 1415h107l452 -760l443 760h108v-1415h-112l-2 1184l-203 -345l-201 -347h-69l-410 692q0 -297 1 -593t1 -591h-113z" />
<glyph unicode="N" horiz-adv-x="1099" d="M86 1415h104l697 -1179v1179h112l2 -1415h-106l-698 1186q0 -297 1 -594t1 -592h-111z" />
<glyph unicode="O" horiz-adv-x="1413" d="M51 707q0 150 50.5 279.5t138.5 227t205.5 153.5t250.5 56q137 0 255 -56t204 -152.5t135 -227.5t49 -280q0 -160 -51 -294t-145 -233q-88 -96 -202 -147t-245 -51q-129 0 -246.5 55t-205.5 152.5t-140.5 230.5t-52.5 287zM166 707q0 -127 41 -239t112.5 -195t169 -130 t207.5 -47q115 0 212.5 47t169 130t112.5 195t41 239q0 133 -45 246.5t-125 195.5q-70 78 -164 119t-201 41q-111 0 -207 -47.5t-168.5 -128t-113.5 -191t-41 -235.5z" />
<glyph unicode="P" horiz-adv-x="983" d="M98 1415h412q84 0 157.5 -27.5t129 -75.5t87 -112.5t31.5 -138.5q0 -78 -31.5 -144.5t-87 -115.5t-129 -78t-157.5 -29h-301q0 -172 1 -347t1 -347h-111zM209 807h301q59 0 112.5 19.5t93.5 53t63.5 80t23.5 101.5q0 49 -23.5 94t-63.5 79t-94.5 53.5t-115.5 19.5h-297 v-500z" />
<glyph unicode="Q" horiz-adv-x="1361" d="M68 754q0 143 48 265t130 212t189.5 141t228.5 51t230.5 -51t191 -142t130 -213t48.5 -263q0 -143 -52.5 -268.5t-138.5 -215.5q-63 -70 -144 -114.5t-173 -61.5q10 -53 29.5 -88t45.5 -35q18 0 34 16.5t26 39.5l80 -70q-33 -41 -66 -66.5t-74 -25.5q-33 0 -61.5 17.5 t-53 48t-41 70.5t-24.5 85q-117 6 -222 60.5t-186 143.5t-128 208t-47 256zM172 754q0 -115 36 -215.5t99.5 -177t149.5 -122.5t184 -53q-10 25 -32.5 42.5t-57.5 15.5v100h7q73 0 125 -41q54 -43 69 -108q84 20 157.5 71t128 125t86 166t31.5 197q0 123 -42 230.5 t-118 184.5q-66 72 -149.5 113t-181.5 41q-100 0 -189.5 -45t-157 -122t-106.5 -180t-39 -222z" />
<glyph unicode="R" horiz-adv-x="970" d="M78 1415h411q84 0 159 -27.5t130.5 -75.5t87 -113.5t31.5 -139.5q0 -76 -31.5 -141.5t-87 -114.5t-130.5 -78t-159 -29h-167l308 -349l306 -347h-145l-601 676l3 -676h-113zM190 809h299q59 0 113.5 19.5t94.5 53t63.5 79t23.5 98.5q0 51 -23.5 96t-64.5 79t-95 54.5 t-116 20.5h-295v-500z" />
<glyph unicode="S" horiz-adv-x="993" d="M78 186l90 72q49 -76 129 -120t182 -44q61 0 117.5 19.5t98.5 55.5t67.5 83t25.5 102q0 53 -23.5 101.5t-63 87.5t-94 64.5t-115.5 35.5q-88 10 -163 45t-130.5 88t-87 121t-31.5 141q0 82 35 153t94 122t139 79.5t172 28.5q121 0 215 -44t166 -124l-92 -73 q-51 63 -125 99t-164 36q-63 0 -121.5 -20.5t-103.5 -57.5t-71.5 -86t-26.5 -104t23.5 -105.5t64.5 -90.5t97 -65.5t122 -31.5q86 -12 159.5 -47t127 -88.5t84 -119t30.5 -139.5q0 -80 -33.5 -148.5t-92 -119.5t-137.5 -80.5t-167 -29.5q-129 0 -232.5 56t-164.5 148z" />
<glyph unicode="T" horiz-adv-x="1177" d="M76 1307v108h1018v-108h-451q0 -326 1 -653.5t1 -653.5h-113l-2 1307h-454z" />
<glyph unicode="U" horiz-adv-x="1224" d="M78 360v1055h119v-1055q6 -53 41.5 -100t91 -84t127 -58.5t153.5 -21.5q78 0 147.5 21.5t125 58.5t90.5 84t41 100v1055h112v-1055q-4 -78 -46 -146.5t-112.5 -120.5t-162.5 -81.5t-195 -29.5q-109 0 -203 29.5t-165.5 81.5t-114.5 120.5t-49 146.5z" />
<glyph unicode="V" horiz-adv-x="1308" d="M74 1415h116l459 -1235l230 619l227 616h119l-520 -1415h-109z" />
<glyph unicode="W" horiz-adv-x="1873" d="M82 1415h119l458 -1237l101 277l100 276l-125 342l-125 342h117l207 -561l126 -336l126 -338l228 619l226 616h121l-518 -1415h-113l-210 561l-102 -281l-101 -280h-111z" />
<glyph unicode="X" horiz-adv-x="1107" d="M59 0l420 723l-403 692h127l352 -590l175 295l175 295h129l-411 -704l206 -356l207 -355h-129l-364 612l-177 -306l-180 -306h-127z" />
<glyph unicode="Y" horiz-adv-x="1394" d="M49 1415h150l487 -667l247 333l247 334h147l-582 -778q0 -156 1.5 -318.5t1.5 -318.5h-115l-2 637l-143 190l-149 199l-149 199z" />
<glyph unicode="Z" horiz-adv-x="1122" d="M49 0l811 1303h-741v112h942l-809 -1302h727l2 -113h-932z" />
<glyph unicode="[" horiz-adv-x="430" d="M72 666v110h55q31 0 52.5 22.5t21.5 53.5v461q8 41 51 66.5t96 25.5v-115q-33 0 -35 6v-471q-10 -29 -30.5 -50t-55.5 -25v-56q66 -10 86 -73v-512q0 2 35 2l2 -111q-23 0 -49.5 8t-49 21.5t-36.5 34t-14 45.5v481q0 33 -21.5 54.5t-52.5 21.5h-55z" />
<glyph unicode="\" horiz-adv-x="759" d="M74 1405h119l516 -1405h-121z" />
<glyph unicode="]" horiz-adv-x="374" d="M45 111q16 0 25.5 1t13.5 3v503q16 72 80 76q0 14 1 26.5t3 29.5q-31 6 -54.5 27.5t-29.5 47.5v465h-39v115q63 0 101 -26.5t47 -65.5l4 -13v-448q0 -31 18 -53.5t49 -22.5h55v-110h-55q-31 0 -49 -21.5t-18 -54.5v-481q0 -25 -14.5 -44.5t-36 -34t-48 -22.5t-51.5 -8z " />
<glyph unicode="^" horiz-adv-x="1128" d="M49 907l510 504l504 -506l-82 -80l-422 428l-216 -214l-216 -214z" />
<glyph unicode="_" horiz-adv-x="1050" d="M74 111h866l2 -111h-866z" />
<glyph unicode="`" horiz-adv-x="417" d="M27 1303h178l149 -201h-75z" />
<glyph unicode="a" horiz-adv-x="835" d="M49 295q0 66 26.5 124t72 101t106.5 68.5t129 25.5h225v48q0 53 -14 100t-40 83t-60.5 57.5t-77.5 23.5q-53 0 -81 -7l-67 -18q-6 -2 -19 -6t-18 -6l-28 104l54 19q24 8 46.5 13t50 8t64.5 3q61 -2 115.5 -30.5t95.5 -75.5t64.5 -110.5t27.5 -135.5v-22q-2 -180 -2 -324 q0 -61 -1 -120.5t-1 -106.5v-78v-33h-109v63q-45 -37 -102 -59t-123 -22q-68 0 -129 24.5t-106.5 67.5t-72 100.5t-26.5 120.5zM160 295q0 -43 17.5 -79t48 -63.5t71.5 -43t86 -15.5q47 0 88 15.5t71.5 43t48 64.5t17.5 80v203q-84 0 -129 1t-66 1h-26h-4q-45 0 -86 -16.5 t-71.5 -45t-48 -65.5t-17.5 -80z" />
<glyph unicode="b" horiz-adv-x="1071" d="M115 0v1405h112v-432q111 63 281 63q102 0 191 -42t156 -114.5t105.5 -168t38.5 -201.5q0 -109 -38.5 -204t-105.5 -166.5t-156 -114.5t-191 -45q-88 4 -161 20t-126 47l2 -47h-108zM221 162q10 -6 36 -16.5t64.5 -21.5t86 -20.5t100.5 -11.5q78 2 146.5 35t120.5 90 t83 132t31 161q0 82 -31 157.5t-83 132t-120.5 90.5t-146.5 34q-47 0 -98.5 -11.5t-92.5 -25.5q-51 -16 -96 -35v-690z" />
<glyph unicode="c" horiz-adv-x="978" d="M39 508q0 109 39 205t105.5 167.5t155.5 113.5t189 42q106 0 199.5 -47t163.5 -123l-80 -82q-53 63 -127 101.5t-156 38.5q-78 0 -147.5 -33t-120.5 -89.5t-80.5 -132t-29.5 -161.5t29.5 -161t80.5 -131t121 -89t147 -33q78 0 150 35t127 98l82 -77q-74 -78 -164 -123 t-195 -45q-100 0 -189 42t-155.5 113.5t-105.5 166.5t-39 204z" />
<glyph unicode="d" horiz-adv-x="1030" d="M33 512q0 109 39 203t105.5 164.5t156.5 112.5t192 42q88 0 157 -15t126 -50v436h113v-1405h-113v45q-53 -27 -128 -44t-155 -21q-102 2 -192 44t-156.5 114.5t-105.5 167.5t-39 206zM141 512q0 -86 31 -161t83 -132t123 -92t152 -37q57 0 107.5 11.5t89.5 25.5 q45 16 82 37v688q-12 6 -41 18.5t-66.5 23.5t-83 19.5t-92.5 8.5q-80 -2 -150.5 -36t-122.5 -89.5t-82 -129t-30 -155.5z" />
<glyph unicode="e" horiz-adv-x="933" d="M49 473v37q0 109 33 205t89 167.5t131 113.5t159 42q86 0 159.5 -35.5t129 -101t86 -157t30.5 -201.5v-64h-702q6 -78 33.5 -148.5t70.5 -122.5t99.5 -83t119.5 -31q41 0 84 8.5t83 21.5t75 29.5t59 34.5l46 -104q-55 -41 -137.5 -65.5t-159.5 -34.5q-10 -2 -27 -2h-27 q-86 0 -161.5 37.5t-134 104t-95.5 157t-43 192.5zM166 590h592q-10 72 -37 133t-67 105t-89 70t-104 26t-105.5 -23.5t-90.5 -68t-65.5 -105.5t-33.5 -137z" />
<glyph unicode="f" horiz-adv-x="671" d="M66 889v112h147v37v25q2 72 27.5 135.5t66.5 111.5t95.5 75.5t113.5 27.5q29 0 53.5 -1t61.5 -5l-33 -113q-27 6 -46.5 7.5t-35.5 1.5q-41 -2 -77 -22.5t-61.5 -56.5t-40.5 -83t-15 -101v-39h262v-112h-262q0 -217 1 -444.5t1 -444.5h-111v332q0 139 1 290.5t1 266.5 h-149z" />
<glyph unicode="g" horiz-adv-x="1128" d="M61 -66q0 88 56.5 164t144.5 117q-14 35 -14 88q0 66 33 105q-139 102 -140 270q0 74 32 139.5t87 113.5t130 76.5t161 28.5q47 0 83 -6t71 -16h372l-106 -111h-97q39 -45 64 -102.5t25 -122.5q0 -74 -33 -139.5t-88.5 -112.5t-130 -74.5t-160.5 -27.5q-29 0 -53.5 4 t-44.5 8q-41 10 -64 10q-18 0 -35.5 -8t-17.5 -31q0 -35 18.5 -43t38.5 -8h11q7 0 18 2q10 2 22.5 3t28.5 1q86 0 162 -25.5t132 -69.5t89 -104.5t33 -128.5t-33 -129t-89 -106t-132 -71.5t-162 -26.5q-84 0 -158.5 26.5t-131 71.5t-89.5 106t-33 129zM170 -66 q0 -45 24.5 -86t66.5 -71.5t96.5 -49t115.5 -18.5q66 0 122 18.5t98 49t65.5 71.5t23.5 86t-23.5 86t-65.5 72t-98 49.5t-122 18.5q-61 0 -115.5 -18.5t-96.5 -49.5t-66.5 -72t-24.5 -86zM252 678q0 -51 23.5 -96t64.5 -79t95 -53.5t116 -19.5q63 0 119.5 19.5t97.5 53.5 t64.5 79t23.5 96q0 53 -23.5 98t-64.5 79t-97.5 53.5t-119.5 19.5q-61 0 -115.5 -19.5t-95.5 -53.5t-64.5 -79t-23.5 -98z" />
<glyph unicode="h" horiz-adv-x="931" d="M84 1409h111v-496q51 59 116.5 92t147.5 33q74 0 136 -29.5t109.5 -80.5t74 -120t28.5 -146l6 -656h-111v656q-2 55 -23.5 104t-55 85t-79.5 56.5t-98 20.5q-43 0 -83.5 -19.5t-74.5 -52.5t-58.5 -76t-34.5 -90v-158q0 -92 1 -189t1 -188v-155h-111z" />
<glyph unicode="i" horiz-adv-x="348" d="M98 1309q0 29 20.5 48t51.5 19q29 0 50.5 -19.5t21.5 -47.5q0 -27 -21.5 -47.5t-50.5 -20.5q-31 0 -51.5 20.5t-20.5 47.5zM115 1024h108l2 -1024h-108z" />
<glyph unicode="j" horiz-adv-x="724" d="M92 -387l12 108l43 -4q16 -2 32 -3t24 -1q41 2 76.5 23.5t61.5 56.5t41 81t15 97v1055h111v-1073q-4 -72 -29.5 -133.5t-65.5 -108.5t-94.5 -75.5t-115.5 -30.5q-16 0 -32.5 1t-33.5 3q-10 2 -17.5 3t-27.5 1zM381 1298q0 31 19.5 49.5t50.5 18.5q25 0 45 -18.5t20 -49.5 q0 -29 -20.5 -48t-44.5 -19q-31 0 -50.5 19t-19.5 48z" />
<glyph unicode="k" horiz-adv-x="901" d="M115 0v1405h110v-698l190 159l187 158h170l-340 -281l215 -371l215 -372h-131l-381 668l-61 -53l-64 -52q0 -137 1 -281.5t1 -281.5h-112z" />
<glyph unicode="l" horiz-adv-x="331" d="M119 1534h110l2 -1534h-110z" />
<glyph unicode="m" horiz-adv-x="1513" d="M78 913v111h112v-115q49 59 115 92t144 33q100 0 181 -56t128 -142q25 53 59.5 92t76.5 63.5t86 35.5t85 11q72 0 134.5 -29.5t109.5 -79.5t74.5 -119t29.5 -148l4 -658h-112v658q-2 55 -21.5 103t-53.5 84t-78 56.5t-95 20.5q-47 0 -89 -19.5t-76 -51.5t-57.5 -75 t-31.5 -90v-686h-111v653q-2 55 -22.5 104.5t-54 84.5t-80 55.5t-97.5 20.5q-45 0 -86 -19.5t-73.5 -51.5t-56 -75t-32.5 -90v-158q0 -92 1.5 -188t1.5 -186v-154h-113z" />
<glyph unicode="n" horiz-adv-x="886" d="M70 1024h112v-111q102 127 262 127q72 0 135.5 -29.5t110.5 -80.5t75 -120t30 -148l6 -662h-111l-2 662q-2 55 -20.5 104t-49 85t-73.5 56.5t-94 20.5q-45 0 -89.5 -19.5t-81 -51.5t-63.5 -75t-35 -92v-158q0 -92 1 -189t1 -188v-155h-112z" />
<glyph unicode="o" horiz-adv-x="1050" d="M37 506q0 111 38 207t103.5 167.5t153.5 113.5t186 42t185.5 -42t152 -113.5t102 -168t37.5 -206.5q0 -109 -37.5 -204t-102 -167t-152 -113.5t-185.5 -41.5t-186 41.5t-153.5 113.5t-103.5 167t-38 204zM150 506q0 -86 28.5 -161t78.5 -131t116.5 -89t144.5 -33 q76 0 142.5 33t115.5 89t78 131t29 161t-29 162.5t-78 133t-115.5 89.5t-142.5 33q-78 0 -144.5 -33t-116.5 -89.5t-78.5 -133t-28.5 -162.5z" />
<glyph unicode="p" horiz-adv-x="1036" d="M80 -389v1413h106v-55q53 27 128 47t155 20q102 -2 191.5 -44t156 -113.5t105.5 -166t39 -200.5q0 -111 -39 -207t-105.5 -167.5t-156 -113.5t-191.5 -42q-84 0 -155.5 17t-125.5 48v-436h-108zM186 162l38 -16q28 -11 66 -22t84 -20.5t95 -11.5q80 2 148.5 36t121 90 t82 132t29.5 162t-29.5 161t-82 130t-121 87t-148.5 32q-55 0 -105.5 -12.5t-91.5 -26.5q-47 -16 -86 -37v-684z" />
<glyph unicode="q" horiz-adv-x="1054" d="M39 510q0 109 39 204t106.5 166.5t156.5 113.5t189 42q84 0 159 -16t128 -45v49h111v-1413h-111v442q-117 -70 -287 -69q-100 2 -189 44t-156.5 113.5t-106.5 165.5t-39 203zM147 510q0 -86 31 -161t83 -130t122 -88t147 -35q47 0 98.5 10.5t92.5 22.5q49 14 96 35v688 q-10 6 -36.5 18.5t-64.5 24.5t-86 21.5t-100 9.5q-78 0 -147.5 -33t-121.5 -89t-83 -132t-31 -162z" />
<glyph unicode="r" horiz-adv-x="585" d="M80 1024h113v-115q102 127 260 127q10 0 44.5 -4t53.5 -10l-14 -117q-25 8 -43.5 12.5t-34.5 4.5q-47 0 -90 -22.5t-79 -56.5t-61.5 -76t-35.5 -81v-158q0 -92 1 -188t1 -186v-154h-113z" />
<glyph unicode="s" horiz-adv-x="854" d="M92 129l84 66q43 -43 108.5 -72t137.5 -29q49 0 91 12.5t73.5 34t50 52t18.5 67.5q0 33 -19.5 65.5t-51 60.5t-74.5 48.5t-88 30.5q-68 10 -128.5 40t-104.5 70.5t-69.5 91t-25.5 101.5q0 59 28 108.5t76 84t110.5 54t131.5 19.5q96 0 184.5 -39t147.5 -100l-90 -66 q-47 45 -112.5 69t-137.5 24q-96 0 -160.5 -43t-64.5 -113q0 -35 17.5 -66.5t49 -58.5t74.5 -45t94 -27q70 -10 129.5 -38.5t103.5 -70.5t68.5 -93.5t24.5 -106.5q0 -61 -27.5 -112.5t-73.5 -87t-107.5 -56t-131.5 -20.5q-94 0 -186.5 37.5t-149.5 107.5z" />
<glyph unicode="t" horiz-adv-x="696" d="M92 897v113h148v395h112v-395h269v-113h-269q0 -221 1 -448.5t1 -448.5h-110v897h-152z" />
<glyph unicode="u" horiz-adv-x="921" d="M86 1024h109l4 -662q2 -55 20.5 -103t50 -84t75.5 -57.5t95 -21.5q45 0 89 19.5t79 52.5t59.5 76t32.5 90v690h111v-1024h-109l-2 109q-49 -57 -116.5 -92t-145.5 -35q-72 0 -134 29.5t-109.5 81.5t-74 121t-28.5 148z" />
<glyph unicode="v" horiz-adv-x="1024" d="M35 1024h117l350 -856l173 429l173 427h123l-416 -1024h-106z" />
<glyph unicode="w" horiz-adv-x="1443" d="M27 1024h118l349 -854l71.5 176t71.5 178l-100 251l-101 249h127l342 -854l173 427l173 427h123l-416 -1024l-110 6l-146 367l-76 -187l-79 -186l-107 6z" />
<glyph unicode="x" horiz-adv-x="909" d="M45 0l322 530l-314 494h140l247 -397l127 200l127 197h137l-317 -510l160 -257l160 -257h-136l-264 416l-128 -208l-126 -208h-135z" />
<glyph unicode="y" horiz-adv-x="980" d="M49 -387l17 108q43 -13 81 -13q15 0 30 2q52 7 100.5 48t90.5 121t78 207l-195 475l-196 475h117l328 -815l160 407l161 408h121l-391 -958l2 2l-44 -117l-44 -117q-23 -59 -57.5 -104t-78.5 -77t-93.5 -48t-98.5 -16t-88 12z" />
<glyph unicode="z" horiz-adv-x="925" d="M82 106l606 805h-600v113h754v-106l-606 -805h606l2 -113h-760z" />
<glyph unicode="{" horiz-adv-x="456" d="M72 666v110h55q31 0 52.5 22.5t21.5 53.5v461q8 41 51 66.5t96 25.5v-115q-33 0 -35 6v-471q-10 -29 -30.5 -50t-55.5 -25v-56q66 -10 86 -73v-512q0 2 35 2l2 -111q-23 0 -49.5 8t-49 21.5t-36.5 34t-14 45.5v481q0 33 -21.5 54.5t-52.5 21.5h-55z" />
<glyph unicode="|" horiz-adv-x="268" d="M100 2v1454h80v-1454h-80z" />
<glyph unicode="}" horiz-adv-x="385" d="M45 111q16 0 25.5 1t13.5 3v503q16 72 80 76q0 14 1 26.5t3 29.5q-31 6 -54.5 27.5t-29.5 47.5v465h-39v115q63 0 101 -26.5t47 -65.5l4 -13v-448q0 -31 18 -53.5t49 -22.5h55v-110h-55q-31 0 -49 -21.5t-18 -54.5v-481q0 -25 -14.5 -44.5t-36 -34t-48 -22.5t-51.5 -8z " />
<glyph unicode="~" horiz-adv-x="710" d="M125 604l25 137q57 -70 114 -69q12 0 28 6l25 10q55 33 119 33q74 0 144 -47l-27 -144q-59 78 -115 78q-10 0 -27.5 -6t-27.5 -10q-23 -16 -55.5 -26.5t-61.5 -10.5q-73 0 -141 49z" />
<glyph unicode="&#xa1;" horiz-adv-x="327" d="M102 1350v2q0 25 16.5 43t43.5 18q25 0 43 -18.5t18 -42.5q0 -27 -18.5 -44.5t-42.5 -17.5q-29 0 -43.5 17.5t-16.5 42.5zM113 1200h98l2 -1200h-98z" />
<glyph unicode="&#xa2;" horiz-adv-x="978" d="M39 508q0 100 33.5 190t92 160t137.5 115t169 57v137h121v-137q88 -10 163.5 -54t135.5 -110l-80 -82q-41 51 -97.5 87t-121.5 47v-820q61 10 114.5 44t100.5 85l80 -77q-66 -66 -137.5 -110t-157.5 -54v-136h-121v138q-90 12 -169 57t-137.5 114.5t-92 159t-33.5 189.5z M150 508q0 -78 24.5 -146.5t67.5 -124t102 -91t127 -48.5v820q-68 -12 -127 -48t-102 -90.5t-67.5 -124t-24.5 -147.5z" />
<glyph unicode="&#xa3;" horiz-adv-x="1138" d="M43 600v111h240v694h110v-694h365v-111h-365v-489h672l2 -111h-782l-2 600h-240z" />
<glyph unicode="&#xa4;" horiz-adv-x="1705" />
<glyph unicode="&#xa5;" horiz-adv-x="1394" d="M51 1405h150l481 -664l246 333l246 331h147l-578 -774v-58h291v-114h-291v-111h291v-115h-291v-63q0 -29 1 -54.5t1 -53.5v-62h-114l-2 233h-291v115h291v111h-291v114h291v58l-142 190l-147 198l-147 198z" />
<glyph unicode="&#xa6;" horiz-adv-x="268" d="M100 2v711h80v-711h-80zM100 817v639h80v-639h-80z" />
<glyph unicode="&#xa7;" horiz-adv-x="780" d="M100 885q0 119 78 202v29q0 74 27.5 131.5t74 97t108 60t128.5 20.5q53 0 121 -19.5t154 -59.5l-91 -199q-123 61 -190 61q-23 0 -44.5 -5t-37.5 -13h6q53 0 124 -20.5t153 -57.5l-84 -201q-51 25 -91 39.5t-73 18.5q27 -25 69 -47q59 -29 107.5 -72t83.5 -93 t53.5 -106.5t18.5 -111.5q0 -59 -21.5 -111.5t-56.5 -95.5v-25q0 -78 -29 -138t-77 -101t-109.5 -62.5t-124.5 -21.5q-55 0 -125 20.5t-150 63.5l93 186q59 -29 103 -42t77 -13q55 0 90 20h-10q-53 0 -122 19.5t-149 64.5l86 186q55 -27 102.5 -41t82.5 -14q-16 16 -38 32.5 t-48 31.5q-59 31 -109.5 74.5t-85.5 95t-54.5 107t-19.5 110.5zM129 885q0 -49 17.5 -101.5t50 -99.5t80 -88t104.5 -70v2q88 -45 135 -118q-14 -4 -29.5 -6.5t-29.5 -2.5q-35 0 -80 13.5t-94 36.5l-62 -136q61 -35 120.5 -50t113.5 -15q23 0 42 1t40 7q-16 -47 -60.5 -69.5 t-101.5 -22.5q-74 0 -168 47l-64 -129q131 -70 234 -70q59 0 115.5 19.5t99.5 57.5t69.5 92.5t26.5 123.5v17q0 8 -2 18q33 39 56.5 91t23.5 106q0 104 -67.5 200.5t-178.5 153.5q-41 23 -72.5 51.5t-54.5 59.5q10 2 37 2q78 0 180 -52l62 142q-63 29 -124 45t-114 16 q-41 0 -78 -6q12 43 55.5 66.5t98.5 23.5q72 0 178 -51l62 141q-66 33 -124.5 47.5t-109.5 14.5q-61 0 -117.5 -18.5t-98.5 -54.5t-66.5 -87t-24.5 -117v-19q0 -9 2 -22q-82 -71 -82 -190zM158 885q0 111 86 178q-6 27 -6 53q0 57 22.5 103.5t60 78t88 48t107.5 16.5 q94 0 195 -47l-37 -84q-41 23 -84 32t-80 9q-78 0 -133 -40t-55 -118v-6q51 18 112 18q98 0 199 -47l-35 -84q-82 41 -168 41q-47 0 -84 -14q23 -43 63 -86t99 -72q106 -53 167.5 -140t61.5 -185q0 -53 -23.5 -101.5t-58.5 -83.5q2 -12 3 -24.5t1 -22.5q0 -61 -23.5 -110.5 t-63.5 -82t-91 -50t-104 -17.5q-96 0 -195 49l37 76q41 -20 79 -28.5t77 -8.5q82 0 141 43t59 129q-29 -16 -59.5 -20t-60.5 -4q-49 0 -98.5 11t-96.5 36l37 80q84 -39 160 -39q57 0 100 20q-23 49 -63.5 93t-100.5 73q-53 25 -97 62.5t-75 80.5t-47 90.5t-16 94.5zM246 877 q0 -66 49 -134.5t135 -111.5q66 -31 115 -80t76 -102q6 6 14 22q10 16 13 34.5t3 37.5q0 70 -48 139.5t-134 112.5q-66 29 -114 76t-76 100q-16 -16 -24.5 -42.5t-8.5 -51.5zM274 877q0 8 2.5 17t4.5 17q63 -94 178 -147l-2 2q78 -39 122 -100.5t44 -122.5q0 -10 -1 -17.5 t-4 -15.5q-63 94 -176 152v-3q-78 39 -123 99t-45 119zM315 819q16 -35 51 -69.5t89 -61.5h-2q37 -16 68.5 -38.5t58.5 -47.5q-16 37 -50 73t-86 60l2 -2q-39 16 -70.5 38.5t-60.5 47.5z" />
<glyph unicode="&#xa8;" horiz-adv-x="538" d="M66 1309q0 29 21.5 48t49.5 19q29 0 50.5 -19.5t21.5 -47.5q0 -27 -21.5 -47.5t-50.5 -20.5t-50 20.5t-21 47.5zM332 1309q0 29 21.5 48t49.5 19q29 0 50.5 -19.5t21.5 -47.5q0 -27 -21.5 -47.5t-50.5 -20.5t-50 20.5t-21 47.5z" />
<glyph unicode="&#xa9;" horiz-adv-x="1705" />
<glyph unicode="&#xaa;" horiz-adv-x="366" d="M39 762q0 53 40 89t101 36h56q-2 27 -16.5 49t-33.5 22q-25 0 -47 -4t-55 -14l-14 80q29 8 55.5 12t60.5 4q49 0 85 -42t40 -109q-2 -16 -2 -35v-78q0 -35 13.5 -77t29.5 -58h-116v2q-23 -10 -60 -10q-59 0 -98 39t-39 94zM117 762q0 -20 17.5 -36.5t41.5 -16.5 q23 0 41.5 16t18.5 37v49h-60q-25 0 -42 -16.5t-17 -32.5z" />
<glyph unicode="&#xab;" horiz-adv-x="1089" d="M47 569l547 463l74 -86l-467 -391l193 -229l194 -230l-82 -73zM385 569l547 463l74 -86l-467 -391l195 -229l192 -230l-82 -73z" />
<glyph unicode="&#xac;" horiz-adv-x="1355" d="M78 688v111h1184v-473h-111v362h-1073z" />
<glyph unicode="&#xad;" horiz-adv-x="862" d="M74 545v110h714v-110h-714z" />
<glyph unicode="&#xae;" horiz-adv-x="1705" />
<glyph unicode="&#xb0;" horiz-adv-x="512" d="M41 1202q0 45 16.5 84t45 66.5t67.5 44t86 16.5q86 0 144.5 -59.5t58.5 -151.5q0 -86 -58.5 -145.5t-144.5 -59.5q-47 0 -86 16.5t-67.5 44t-45 64.5t-16.5 80zM125 1202q0 -25 11 -47t29.5 -39.5t42 -28t48.5 -10.5q20 0 41.5 10.5t39 28t28 40t10.5 46.5 q0 25 -10.5 49.5t-28 43t-39 29.5t-41.5 11q-51 0 -91 -41t-40 -92z" />
<glyph unicode="&#xb1;" horiz-adv-x="925" d="M100 307v111h715v-111h-715zM102 915v113h301v301h111v-301h303v-113h-303v-301h-111v301h-301z" />
<glyph unicode="&#xb2;" horiz-adv-x="573" d="M49 1325q47 41 96.5 64.5t104.5 23.5q53 0 98 -19.5t79 -53t53.5 -77.5t19.5 -96q0 -47 -20.5 -95t-45.5 -79l-246 -274h312v-88h-445v80l314 350q20 20 31.5 50t11.5 56q0 31 -13.5 59.5t-37 50t-52 34t-59.5 12.5q-63 0 -133 -68z" />
<glyph unicode="&#xb3;" horiz-adv-x="542" d="M18 719l54 53h26q25 -27 61 -45t70 -18q55 0 102.5 38.5t47.5 94.5q0 27 -12.5 51.5t-32 42.5t-44 29.5t-50.5 15.5h-119v88h121q53 4 96 42t43 85t-46 84t-104 37q-35 0 -72.5 -18.5t-72.5 -55.5l-66 70q86 92 211 92q49 0 93.5 -16.5t77 -44t52 -66.5t19.5 -82 q0 -121 -96 -174q39 -33 64.5 -80t25.5 -100q0 -47 -18.5 -87t-51 -69t-75.5 -46t-93 -17q-66 0 -118 25.5t-93 70.5z" />
<glyph unicode="&#xb4;" horiz-adv-x="428" d="M61 1102l152 201h176l-250 -201h-78z" />
<glyph unicode="&#xb5;" horiz-adv-x="1015" d="M162 -389v1413h112v-733q0 -16 22.5 -49t59.5 -65t83 -56.5t93 -24.5q51 0 95.5 21.5t76 57.5t50 84t20.5 103q0 162 2 331t2 331h111l-6 -662q-2 -80 -29 -148.5t-74 -120.5t-109.5 -81.5t-135.5 -29.5q-78 0 -145.5 34.5t-115.5 92.5l-2 -498h-110z" />
<glyph unicode="&#xb6;" horiz-adv-x="782" d="M49 1063q0 72 26.5 134.5t73 108.5t107.5 72.5t133 26.5h94v-1405h-108v721q-66 6 -125.5 34.5t-103.5 75t-70.5 106.5t-26.5 126zM158 1071q0 -47 14 -88t40 -72.5t59.5 -50t74.5 -20.5v465q-41 -2 -74.5 -21.5t-59.5 -51.5t-40 -73t-14 -88zM549 0v1403h108v-1403h-108 z" />
<glyph unicode="&#xb7;" horiz-adv-x="460" d="M113 639q0 41 34.5 78t83.5 37t86 -37t37 -78q0 -43 -36.5 -77t-86.5 -34q-49 0 -83.5 34t-34.5 77z" />
<glyph unicode="&#xb9;" horiz-adv-x="538" d="M55 1184l267 221h102v-627h-113v477l-90 -74l-88 -73z" />
<glyph unicode="&#xba;" horiz-adv-x="475" d="M41 823q0 92 55.5 152.5t139.5 60.5q39 0 72.5 -16t59 -44t40 -68t14.5 -85q0 -86 -54.5 -144t-131.5 -58q-84 0 -139.5 58t-55.5 144zM119 823q0 -47 35.5 -86t81.5 -39q41 0 73.5 39t32.5 86q0 53 -33 94t-73 41q-45 0 -81 -41t-36 -94z" />
<glyph unicode="&#xbb;" horiz-adv-x="1073" d="M45 946l74 86l547 -463l-459 -546l-82 73l387 459l-233 197zM383 946l74 86l547 -463l-459 -546l-82 73l387 459l-234 197z" />
<glyph unicode="&#xbc;" horiz-adv-x="782" d="M53 918l142 118h59v-612h-70v514l-42 -33l-42 -33zM307 254v59l236 406l61 -31l-213 -364h168v151h70v-151h98v-70h-98q0 -61 1 -127t1 -127h-70l-2 254h-252z" />
<glyph unicode="&#xbd;" horiz-adv-x="727" d="M29 920l141 118h59v-614h-69v516l-42 -33l-42 -33zM262 59l295 330q16 18 27.5 46t11.5 57q0 68 -47 112.5t-115 44.5q-61 0 -121 -53l-49 49q37 35 80 54.5t90 19.5q49 0 91 -17.5t73 -48t49.5 -72.5t18.5 -89q0 -45 -18.5 -84t-45.5 -70l-242 -270h306l2 -68h-404z" />
<glyph unicode="&#xbe;" horiz-adv-x="937" d="M51 393l51 45q23 -29 57 -45t72 -16q66 0 111 40t45 97q0 37 -21.5 65.5t-56.5 46t-79 23.5t-91 -2v72h107q59 4 101 39t42 84q0 53 -45 91t-108 38q-80 0 -136 -62l-49 49q35 39 83 59.5t102 20.5q45 0 85.5 -15t71.5 -42t49.5 -62.5t18.5 -76.5q0 -53 -27.5 -94 t-75.5 -64q45 -29 72 -73t27 -97q0 -43 -17.5 -81t-48.5 -65.5t-71.5 -44t-88.5 -16.5q-53 0 -99 23.5t-81 62.5zM459 256v61l237 406l62 -31l-209 -364h162v151h71v-151h99v-72h-99v-252h-71v252h-252z" />
<glyph unicode="&#xbf;" horiz-adv-x="884" d="M86 371q0 78 29.5 148.5t80 124.5t118 86t143.5 32h94l-97 323l-94 320h117l191 -653v-105h-211q-53 -2 -101.5 -23.5t-84 -59.5t-56 -87t-20.5 -106q0 -55 21.5 -105.5t58 -88.5t87 -60.5t105.5 -22.5q74 0 136.5 42t105.5 110l79 -82q-53 -82 -136 -133t-185 -51 q-78 0 -147.5 30.5t-122 85t-82 125t-29.5 150.5zM305 1579q0 33 18.5 52.5t51.5 19.5q27 0 46 -19.5t19 -52.5q0 -29 -19.5 -49.5t-45.5 -20.5q-33 0 -51.5 20.5t-18.5 49.5z" />
<glyph unicode="&#xc0;" d="M51 0l518 1415h93l522 -1415h-117l-217 575h-469l-106 -287l-107 -288h-117zM422 688h387l-97 259l-98 261l-96 -260zM353 1694h178l149 -201h-75z" />
<glyph unicode="&#xc1;" d="M51 0l518 1415h93l522 -1415h-117l-217 575h-469l-106 -287l-107 -288h-117zM422 688h387l-97 259l-98 261l-96 -260zM565 1493l152 201h176l-250 -201h-78z" />
<glyph unicode="&#xc2;" d="M51 0l518 1415h93l522 -1415h-117l-217 575h-469l-106 -287l-107 -288h-117zM422 688h387l-97 259l-98 261l-96 -260z" />
<glyph unicode="&#xc3;" d="M57 14l518 1416h93l522 -1416h-117l-217 576h-469l-105 -288l-108 -288h-117zM360 1567l27 137q29 -33 58.5 -51.5t56.5 -18.5q12 0 28 6l27 11q25 16 57.5 24t61.5 8q74 0 145 -47l-28 -145q-27 39 -56.5 58.5t-58.5 19.5q-12 0 -28.5 -5t-26.5 -10q-53 -37 -119 -36 q-35 0 -72 12t-72 37zM428 702h387l-97 260l-97 261l-97 -260z" />
<glyph unicode="&#xc4;" d="M51 0l518 1415h93l522 -1415h-117l-217 575h-469l-106 -287l-107 -288h-117zM422 688h387l-97 259l-98 261l-96 -260zM398 1540q0 29 21.5 48t49.5 19q29 0 50.5 -19.5t21.5 -47.5q0 -27 -21.5 -47.5t-50.5 -20.5t-50 20.5t-21 47.5zM664 1540q0 29 21.5 48t49.5 19 q29 0 50.5 -19.5t21.5 -47.5q0 -27 -21.5 -47.5t-50.5 -20.5t-50 20.5t-21 47.5z" />
<glyph unicode="&#xc5;" d="M51 0l518 1415h93l522 -1415h-117l-217 575h-469l-106 -287l-107 -288h-117zM422 688h387l-97 259l-98 261l-96 -260z" />
<glyph unicode="&#xc6;" horiz-adv-x="2213" d="M53 0l520 1415h1319v-108h-716v-498h612v-113h-612v-583h716l2 -113h-829l-2 575h-678l-106 -287l-107 -288h-119zM426 688h637l18 619h-436l-109 -310z" />
<glyph unicode="&#xc7;" horiz-adv-x="1298" d="M98 700q0 154 51.5 286t139.5 229.5t205.5 152.5t250.5 55q129 0 244 -55t207 -154l-80 -73q-78 82 -172 128t-199 46q-113 0 -210 -49t-169.5 -133t-114.5 -196t-42 -237q0 -123 42 -233.5t113.5 -194.5t170 -133t210.5 -49q104 0 197.5 46t169.5 124l80 -76 q-94 -100 -211 -150t-250 -52q-2 -4 -4 -11.5t-4 -11.5q14 -4 31.5 -15.5t33 -27.5t25.5 -35.5t10 -42.5q0 -31 -24.5 -65.5t-89.5 -69.5l-109 80q10 0 31.5 3t43 9t38 17.5t16.5 29.5q0 14 -10 23.5t-23.5 14.5t-29 7t-25.5 2h-31l2 107q-109 27 -202 90.5t-162.5 156.5 t-109.5 209.5t-40 247.5z" />
<glyph unicode="&#xc8;" horiz-adv-x="993" d="M80 1415h827v-108h-714v-498h612v-113h-612v-583h714l2 -113h-827zM211 1694h178l149 -201h-75z" />
<glyph unicode="&#xc9;" horiz-adv-x="993" d="M80 1415h827v-108h-714v-498h612v-113h-612v-583h714l2 -113h-827zM395 1493l152 201h176l-250 -201h-78z" />
<glyph unicode="&#xca;" horiz-adv-x="993" d="M80 1415h827v-108h-714v-498h612v-113h-612v-583h714l2 -113h-827zM258 1536l234 231l235 -233l-72 -70l-163 166l-166 -166z" />
<glyph unicode="&#xcb;" horiz-adv-x="993" d="M80 1415h827v-108h-714v-498h612v-113h-612v-583h714l2 -113h-827zM283 1542q0 29 21.5 48t49.5 19q29 0 50.5 -19.5t21.5 -47.5q0 -27 -21.5 -47.5t-50.5 -20.5t-50 20.5t-21 47.5zM549 1542q0 29 21.5 48t49.5 19q29 0 50.5 -19.5t21.5 -47.5q0 -27 -21.5 -47.5 t-50.5 -20.5t-50 20.5t-21 47.5z" />
<glyph unicode="&#xcc;" horiz-adv-x="268" d="M102 1415h113l2 -1415h-113zM-86 1694h178l149 -201h-75z" />
<glyph unicode="&#xcd;" horiz-adv-x="315" d="M86 1415h113l2 -1415h-113zM96 1493l152 201h176l-250 -201h-78z" />
<glyph unicode="&#xce;" horiz-adv-x="282" d="M86 1415h113l2 -1415h-113z" />
<glyph unicode="&#xcf;" horiz-adv-x="282" d="M86 1415h113l2 -1415h-113zM-65 1540q0 29 21.5 48t49.5 19q29 0 50.5 -19.5t21.5 -47.5q0 -27 -21.5 -47.5t-50.5 -20.5t-50 20.5t-21 47.5zM201 1540q0 29 21.5 48t49.5 19q29 0 50.5 -19.5t21.5 -47.5q0 -27 -21.5 -47.5t-50.5 -20.5t-50 20.5t-21 47.5z" />
<glyph unicode="&#xd0;" horiz-adv-x="1337" d="M80 551v111h135v753h526q104 -2 194.5 -57t158 -150.5t106.5 -223.5t39 -273t-38 -273.5t-104.5 -223.5t-156.5 -152.5t-192 -61.5h-531l-2 551h-135zM328 113q104 0 208.5 2t208.5 2q80 2 149 50t121 128t81.5 187.5t29.5 228.5t-29.5 228.5t-81.5 187t-123 126.5 t-151 50h-413v-641h350v-111h-350v-438z" />
<glyph unicode="&#xd1;" horiz-adv-x="1099" d="M86 1415h104l697 -1179v1179h112l2 -1415h-106l-698 1186q0 -297 1 -594t1 -592h-111zM326 1520l24 137q57 -70 115 -69q12 0 28 6l25 10q55 33 121 33q72 0 143 -47l-28 -144q-59 78 -115 78q-10 0 -27.5 -6t-27.5 -10q-23 -16 -55.5 -26.5t-61.5 -10.5q-73 0 -141 49z " />
<glyph unicode="&#xd2;" horiz-adv-x="1413" d="M51 707q0 150 50.5 279.5t138.5 227t205.5 153.5t250.5 56q137 0 255 -56t204 -152.5t135 -227.5t49 -280q0 -160 -51 -294t-145 -233q-88 -96 -202 -147t-245 -51q-129 0 -246.5 55t-205.5 152.5t-140.5 230.5t-52.5 287zM166 707q0 -127 41 -239t112.5 -195t169 -130 t207.5 -47q115 0 212.5 47t169 130t112.5 195t41 239q0 133 -45 246.5t-125 195.5q-70 78 -164 119t-201 41q-111 0 -207 -47.5t-168.5 -128t-113.5 -191t-41 -235.5zM398 1694h178l149 -201h-75z" />
<glyph unicode="&#xd3;" horiz-adv-x="1413" d="M51 707q0 150 50.5 279.5t138.5 227t205.5 153.5t250.5 56q137 0 255 -56t204 -152.5t135 -227.5t49 -280q0 -160 -51 -294t-145 -233q-88 -96 -202 -147t-245 -51q-129 0 -246.5 55t-205.5 152.5t-140.5 230.5t-52.5 287zM166 707q0 -127 41 -239t112.5 -195t169 -130 t207.5 -47q115 0 212.5 47t169 130t112.5 195t41 239q0 133 -45 246.5t-125 195.5q-70 78 -164 119t-201 41q-111 0 -207 -47.5t-168.5 -128t-113.5 -191t-41 -235.5zM677 1493l152 201h176l-250 -201h-78z" />
<glyph unicode="&#xd4;" horiz-adv-x="1413" d="M51 707q0 150 50.5 279.5t138.5 227t205.5 153.5t250.5 56q137 0 255 -56t204 -152.5t135 -227.5t49 -280q0 -160 -51 -294t-145 -233q-88 -96 -202 -147t-245 -51q-129 0 -246.5 55t-205.5 152.5t-140.5 230.5t-52.5 287zM166 707q0 -127 41 -239t112.5 -195t169 -130 t207.5 -47q115 0 212.5 47t169 130t112.5 195t41 239q0 133 -45 246.5t-125 195.5q-70 78 -164 119t-201 41q-111 0 -207 -47.5t-168.5 -128t-113.5 -191t-41 -235.5zM467 1536l234 231l235 -233l-72 -70l-163 166l-166 -166z" />
<glyph unicode="&#xd5;" horiz-adv-x="1413" d="M51 707q0 150 50.5 279.5t138.5 227t205.5 153.5t250.5 56q137 0 255 -56t204 -152.5t135 -227.5t49 -280q0 -160 -51 -294t-145 -233q-88 -96 -202 -147t-245 -51q-129 0 -246.5 55t-205.5 152.5t-140.5 230.5t-52.5 287zM166 707q0 -127 41 -239t112.5 -195t169 -130 t207.5 -47q115 0 212.5 47t169 130t112.5 195t41 239q0 133 -45 246.5t-125 195.5q-70 78 -164 119t-201 41q-111 0 -207 -47.5t-168.5 -128t-113.5 -191t-41 -235.5zM482 1522l24 137q57 -70 115 -69q12 0 28 6l25 10q55 33 121 33q72 0 143 -47l-28 -144q-59 78 -115 78 q-10 0 -27.5 -6t-27.5 -10q-23 -16 -55.5 -26.5t-61.5 -10.5q-73 0 -141 49z" />
<glyph unicode="&#xd6;" horiz-adv-x="1413" d="M51 707q0 150 50.5 279.5t138.5 227t205.5 153.5t250.5 56q137 0 255 -56t204 -152.5t135 -227.5t49 -280q0 -160 -51 -294t-145 -233q-88 -96 -202 -147t-245 -51q-129 0 -246.5 55t-205.5 152.5t-140.5 230.5t-52.5 287zM166 707q0 -127 41 -239t112.5 -195t169 -130 t207.5 -47q115 0 212.5 47t169 130t112.5 195t41 239q0 133 -45 246.5t-125 195.5q-70 78 -164 119t-201 41q-111 0 -207 -47.5t-168.5 -128t-113.5 -191t-41 -235.5zM494 1542q0 29 21.5 48t49.5 19q29 0 50.5 -19.5t21.5 -47.5q0 -27 -21.5 -47.5t-50.5 -20.5t-50 20.5 t-21 47.5zM760 1542q0 29 21.5 48t49.5 19q29 0 50.5 -19.5t21.5 -47.5q0 -27 -21.5 -47.5t-50.5 -20.5t-50 20.5t-21 47.5z" />
<glyph unicode="&#xd7;" horiz-adv-x="751" d="M66 426l213 215l-211 211l77 80l213 -213l213 213l80 -78l-215 -213l109 -107l106 -108l-78 -78l-215 213l-213 -213z" />
<glyph unicode="&#xd8;" horiz-adv-x="1413" d="M51 707q0 150 50.5 279.5t138.5 227t205.5 153.5t250.5 56q47 0 97.5 -8t95.5 -22q2 6 3 12t3 10h119l-23 -67q162 -96 255 -263t93 -378q0 -160 -51 -294t-145 -233q-88 -96 -202 -147t-245 -51q-100 0 -188 30q0 -4 -1 -7t-1 -5h-125l20 61q-76 43 -139 109 t-110.5 149.5t-74 182.5t-26.5 205zM166 707q0 -178 74.5 -319.5t197.5 -219.5l205 559l205 557q-37 14 -74 19.5t-78 5.5q-111 0 -207 -47.5t-168.5 -128t-113.5 -191t-41 -235.5zM543 121q39 -14 75.5 -19.5t77.5 -5.5q115 0 212.5 47t169 130t112.5 195t41 239 q0 133 -45 246.5t-125 195.5q-29 29 -53.5 50.5t-55.5 39.5l-204 -560z" />
<glyph unicode="&#xd9;" horiz-adv-x="1224" d="M78 360v1055h119v-1055q6 -53 41.5 -100t91 -84t127 -58.5t153.5 -21.5q78 0 147.5 21.5t125 58.5t90.5 84t41 100v1055h112v-1055q-4 -78 -46 -146.5t-112.5 -120.5t-162.5 -81.5t-195 -29.5q-109 0 -203 29.5t-165.5 81.5t-114.5 120.5t-49 146.5zM340 1694h178 l149 -201h-75z" />
<glyph unicode="&#xda;" horiz-adv-x="1224" d="M78 360v1055h119v-1055q6 -53 41.5 -100t91 -84t127 -58.5t153.5 -21.5q78 0 147.5 21.5t125 58.5t90.5 84t41 100v1055h112v-1055q-4 -78 -46 -146.5t-112.5 -120.5t-162.5 -81.5t-195 -29.5q-109 0 -203 29.5t-165.5 81.5t-114.5 120.5t-49 146.5zM557 1493l152 201 h176l-250 -201h-78z" />
<glyph unicode="&#xdb;" horiz-adv-x="1224" d="M78 360v1055h119v-1055q6 -53 41.5 -100t91 -84t127 -58.5t153.5 -21.5q78 0 147.5 21.5t125 58.5t90.5 84t41 100v1055h112v-1055q-4 -78 -46 -146.5t-112.5 -120.5t-162.5 -81.5t-195 -29.5q-109 0 -203 29.5t-165.5 81.5t-114.5 120.5t-49 146.5zM373 1536l234 231 l235 -233l-72 -70l-163 166l-166 -166z" />
<glyph unicode="&#xdc;" horiz-adv-x="1224" d="M78 360v1055h119v-1055q6 -53 41.5 -100t91 -84t127 -58.5t153.5 -21.5q78 0 147.5 21.5t125 58.5t90.5 84t41 100v1055h112v-1055q-4 -78 -46 -146.5t-112.5 -120.5t-162.5 -81.5t-195 -29.5q-109 0 -203 29.5t-165.5 81.5t-114.5 120.5t-49 146.5zM400 1540 q0 29 21.5 48t49.5 19q29 0 50.5 -19.5t21.5 -47.5q0 -27 -21.5 -47.5t-50.5 -20.5t-50 20.5t-21 47.5zM666 1540q0 29 21.5 48t49.5 19q29 0 50.5 -19.5t21.5 -47.5q0 -27 -21.5 -47.5t-50.5 -20.5t-50 20.5t-21 47.5z" />
<glyph unicode="&#xdd;" horiz-adv-x="1394" d="M49 1415h150l487 -667l247 333l247 334h147l-582 -778q0 -156 1.5 -318.5t1.5 -318.5h-115l-2 637l-143 190l-149 199l-149 199zM659 1493l152 201h176l-250 -201h-78z" />
<glyph unicode="&#xde;" horiz-adv-x="1095" d="M117 -393v1810h112v-438q55 33 126 51.5t157 18.5q104 -2 194.5 -45t158 -115t106.5 -167t39 -204q0 -111 -39 -209t-106.5 -170.5t-158 -114.5t-194.5 -42q-86 0 -155.5 21.5t-129.5 47.5v-444h-110zM223 836l6 -633q-2 -20 19.5 -40t59.5 -34t91.5 -23.5t112.5 -11.5 q78 2 147.5 36t122 91.5t83 133t30.5 161.5q0 84 -30.5 160t-83 133t-122 91t-147.5 34q-111 0 -193 -29.5t-96 -68.5z" />
<glyph unicode="&#xdf;" horiz-adv-x="1064" d="M98 -344v1749h455q78 -2 147.5 -30.5t120.5 -77t81 -112t30 -132.5q0 -98 -51.5 -178t-130.5 -130q98 -49 154.5 -141t56.5 -201q0 -80 -32 -152.5t-86.5 -126.5t-129 -86t-160.5 -34h-174l-109 107h283q61 2 114.5 26.5t93.5 64.5t63.5 92t23.5 109q0 55 -23.5 106.5 t-66.5 90.5t-104.5 63.5t-135.5 28.5h-307v-1036h-113zM211 803h342q55 2 104.5 21.5t85 53t56 77.5t20.5 98q0 47 -20.5 90t-56 75.5t-85 53t-104.5 24.5h-342v-493z" />
<glyph unicode="&#xe0;" horiz-adv-x="831" d="M92 295q0 66 26.5 124t72 101t106.5 68.5t129 25.5h225v48q0 53 -14 100t-40 83t-60.5 57.5t-77.5 23.5q-53 0 -81 -7l-67 -18q-6 -2 -19 -6t-18 -6l-28 104l54 19q24 8 46.5 13t50 8t64.5 3q61 -2 115.5 -30.5t95.5 -75.5t64.5 -110.5t27.5 -135.5v-22q-2 -180 -2 -324 q0 -61 -1 -120.5t-1 -106.5v-78v-33h-109v63q-45 -37 -102 -59t-123 -22q-68 0 -129 24.5t-106.5 67.5t-72 100.5t-26.5 120.5zM203 295q0 -43 17.5 -79t48 -63.5t71.5 -43t86 -15.5q47 0 88 15.5t71.5 43t48 64.5t17.5 80v203q-84 0 -129 1t-66 1h-26h-4q-45 0 -86 -16.5 t-71.5 -45t-48 -65.5t-17.5 -80zM258 1303h178l149 -201h-75z" />
<glyph unicode="&#xe1;" horiz-adv-x="831" d="M92 295q0 66 26.5 124t72 101t106.5 68.5t129 25.5h225v48q0 53 -14 100t-40 83t-60.5 57.5t-77.5 23.5q-53 0 -81 -7l-67 -18q-6 -2 -19 -6t-18 -6l-28 104l54 19q24 8 46.5 13t50 8t64.5 3q61 -2 115.5 -30.5t95.5 -75.5t64.5 -110.5t27.5 -135.5v-22q-2 -180 -2 -324 q0 -61 -1 -120.5t-1 -106.5v-78v-33h-109v63q-45 -37 -102 -59t-123 -22q-68 0 -129 24.5t-106.5 67.5t-72 100.5t-26.5 120.5zM203 295q0 -43 17.5 -79t48 -63.5t71.5 -43t86 -15.5q47 0 88 15.5t71.5 43t48 64.5t17.5 80v203q-84 0 -129 1t-66 1h-26h-4q-45 0 -86 -16.5 t-71.5 -45t-48 -65.5t-17.5 -80zM407 1102l152 201h176l-250 -201h-78z" />
<glyph unicode="&#xe2;" horiz-adv-x="831" d="M92 295q0 66 26.5 124t72 101t106.5 68.5t129 25.5h225v48q0 53 -14 100t-40 83t-60.5 57.5t-77.5 23.5q-53 0 -81 -7l-67 -18q-6 -2 -19 -6t-18 -6l-28 104l54 19q24 8 46.5 13t50 8t64.5 3q61 -2 115.5 -30.5t95.5 -75.5t64.5 -110.5t27.5 -135.5v-22q-2 -180 -2 -324 q0 -61 -1 -120.5t-1 -106.5v-78v-33h-109v63q-45 -37 -102 -59t-123 -22q-68 0 -129 24.5t-106.5 67.5t-72 100.5t-26.5 120.5zM203 295q0 -43 17.5 -79t48 -63.5t71.5 -43t86 -15.5q47 0 88 15.5t71.5 43t48 64.5t17.5 80v203q-84 0 -129 1t-66 1h-26h-4q-45 0 -86 -16.5 t-71.5 -45t-48 -65.5t-17.5 -80zM252 1145l234 231l235 -233l-72 -70l-163 166l-166 -166z" />
<glyph unicode="&#xe3;" horiz-adv-x="831" d="M96 309q0 66 27 124.5t72 101.5t106 68.5t129 25.5h225v47q0 53 -14 100t-40 83t-60.5 57.5t-77.5 23.5q-53 0 -81 -7l-67 -18q-6 -2 -19 -6t-17 -6l-29 105l54 18q24 8 46.5 13t50 8.5t64.5 3.5q61 -2 115.5 -31t95.5 -76t64.5 -110.5t27.5 -135.5v-22q-2 -180 -2 -324 q0 -61 -1 -120.5t-1 -106.5v-78v-33h-109v64q-45 -37 -102 -59.5t-123 -22.5q-68 0 -129 24.5t-106 67.5t-72 100.5t-27 120.5zM207 309q0 -43 17.5 -78.5t48 -63.5t71.5 -43t86 -15q47 0 88 15t72 43t48 64.5t17 79.5v203q-84 0 -129 1t-66 1h-26h-4q-45 0 -86 -16.5 t-71.5 -45t-48 -65.5t-17.5 -80zM246 1186l24 123q57 -61 113 -62q25 0 57 15q25 14 55.5 20t59.5 6q76 0 145 -41l-26 -121q-27 29 -56.5 46.5t-58.5 17.5q-25 0 -57 -14q-49 -31 -113 -31q-73 0 -143 41z" />
<glyph unicode="&#xe4;" horiz-adv-x="831" d="M96 309q0 66 27 124.5t72 101.5t106 68.5t129 25.5h225v47q0 53 -14 100t-40 83t-60.5 57.5t-77.5 23.5q-53 0 -81 -7l-67 -18q-6 -2 -19 -6t-17 -6l-29 105l54 18q24 8 46.5 13t50 8.5t64.5 3.5q61 -2 115.5 -31t95.5 -76t64.5 -110.5t27.5 -135.5v-22q-2 -180 -2 -324 q0 -61 -1 -120.5t-1 -106.5v-78v-33h-109v64q-45 -37 -102 -59.5t-123 -22.5q-68 0 -129 24.5t-106 67.5t-72 100.5t-27 120.5zM207 309q0 -43 17.5 -78.5t48 -63.5t71.5 -43t86 -15q47 0 88 15t72 43t48 64.5t17 79.5v203q-84 0 -129 1t-66 1h-26h-4q-45 0 -86 -16.5 t-71.5 -45t-48 -65.5t-17.5 -80zM299 1278q0 27 20.5 47.5t51.5 20.5q29 0 50 -20.5t21 -47.5q0 -29 -21.5 -49.5t-49.5 -20.5q-31 0 -51.5 20.5t-20.5 49.5zM565 1278q0 27 21.5 47.5t50.5 20.5t50.5 -20.5t21.5 -47.5q0 -29 -21.5 -49.5t-50.5 -20.5t-50.5 20.5 t-21.5 49.5z" />
<glyph unicode="&#xe5;" horiz-adv-x="835" d="M49 295q0 66 26.5 124t72 101t106.5 68.5t129 25.5h225v48q0 53 -14 100t-40 83t-60.5 57.5t-77.5 23.5q-53 0 -81 -7l-67 -18q-6 -2 -19 -6t-18 -6l-28 104l54 19q24 8 46.5 13t50 8t64.5 3q61 -2 115.5 -30.5t95.5 -75.5t64.5 -110.5t27.5 -135.5v-22q-2 -180 -2 -324 q0 -61 -1 -120.5t-1 -106.5v-78v-33h-109v63q-45 -37 -102 -59t-123 -22q-68 0 -129 24.5t-106.5 67.5t-72 100.5t-26.5 120.5zM160 295q0 -43 17.5 -79t48 -63.5t71.5 -43t86 -15.5q47 0 88 15.5t71.5 43t48 64.5t17.5 80v203q-84 0 -129 1t-66 1h-26h-4q-45 0 -86 -16.5 t-71.5 -45t-48 -65.5t-17.5 -80z" />
<glyph unicode="&#xe6;" horiz-adv-x="1521" d="M76 295q0 66 26.5 124t72.5 101t106.5 67.5t130.5 24.5h215q2 12 5 27.5t7 26.5q-4 111 -61.5 182.5t-139.5 75.5q-61 0 -121.5 -8.5t-117.5 -24.5l-29 106q66 18 132.5 28.5t137.5 10.5q88 -4 159 -56t112 -140q57 92 140 145t179 53q86 0 161 -40t129 -109.5t86 -163.5 t32 -205v-61h-693v-74q14 -61 45 -114.5t71 -93.5t89 -62.5t103 -22.5q63 0 137 25.5t127 52.5l45 -98q-113 -63 -256 -88q-12 -2 -26 -2h-27q-92 0 -169 38.5t-136 110.5q2 -47 12 -79t39 -52h-160v61q-47 -37 -105.5 -59t-121.5 -22q-70 0 -130.5 24.5t-106.5 67.5 t-72.5 100t-26.5 123zM190 295q0 -43 17.5 -79t47.5 -63.5t70 -43t87 -15.5q45 0 87 15.5t72.5 43t49 63.5t18.5 79v57q-14 51 -18 121v29h-209q-47 0 -87 -16.5t-70 -45t-47.5 -65.5t-17.5 -80zM748 567h579q-6 76 -31.5 141.5t-65.5 113.5t-91.5 75t-108.5 27 q-55 0 -106.5 -27t-89 -74t-61 -112.5t-25.5 -143.5z" />
<glyph unicode="&#xe7;" horiz-adv-x="1009" d="M68 510q0 109 38.5 204t105.5 166.5t157 113.5t192 42q104 0 197.5 -46t165.5 -126l-78 -78q-59 63 -133 100.5t-152 37.5q-80 0 -148.5 -33t-120.5 -88t-82 -131t-30 -162t30 -162t82 -132t120.5 -89t148.5 -33q78 0 149.5 35t127.5 94l80 -78q-63 -68 -147.5 -110.5 t-176.5 -52.5l-10 -29q14 -4 31.5 -15.5t33 -27.5t25.5 -36.5t10 -43.5q0 -29 -25.5 -63.5t-87.5 -73.5l-98 78q16 2 35.5 6t37 11t30 16.5t12.5 21.5q0 18 -9.5 29.5t-22.5 17.5t-28.5 8t-25.5 2q-4 0 -6 -1t-4 -1h-23l4 109q-86 16 -159.5 63t-129 116t-86 156t-30.5 185z " />
<glyph unicode="&#xe8;" horiz-adv-x="933" d="M49 473v37q0 109 33 205t89 167.5t131 113.5t159 42q86 0 159.5 -35.5t129 -101t86 -157t30.5 -201.5v-64h-702q6 -78 33.5 -148.5t70.5 -122.5t99.5 -83t119.5 -31q41 0 84 8.5t83 21.5t75 29.5t59 34.5l46 -104q-55 -41 -137.5 -65.5t-159.5 -34.5q-10 -2 -27 -2h-27 q-86 0 -161.5 37.5t-134 104t-95.5 157t-43 192.5zM166 590h592q-10 72 -37 133t-67 105t-89 70t-104 26t-105.5 -23.5t-90.5 -68t-65.5 -105.5t-33.5 -137zM256 1303h178l149 -201h-75z" />
<glyph unicode="&#xe9;" horiz-adv-x="933" d="M49 473v37q0 109 33 205t89 167.5t131 113.5t159 42q86 0 159.5 -35.5t129 -101t86 -157t30.5 -201.5v-64h-702q6 -78 33.5 -148.5t70.5 -122.5t99.5 -83t119.5 -31q41 0 84 8.5t83 21.5t75 29.5t59 34.5l46 -104q-55 -41 -137.5 -65.5t-159.5 -34.5q-10 -2 -27 -2h-27 q-86 0 -161.5 37.5t-134 104t-95.5 157t-43 192.5zM166 590h592q-10 72 -37 133t-67 105t-89 70t-104 26t-105.5 -23.5t-90.5 -68t-65.5 -105.5t-33.5 -137zM428 1102l152 201h176l-250 -201h-78z" />
<glyph unicode="&#xea;" horiz-adv-x="933" d="M49 473v37q0 109 33 205t89 167.5t131 113.5t159 42q86 0 159.5 -35.5t129 -101t86 -157t30.5 -201.5v-64h-702q6 -78 33.5 -148.5t70.5 -122.5t99.5 -83t119.5 -31q41 0 84 8.5t83 21.5t75 29.5t59 34.5l46 -104q-55 -41 -137.5 -65.5t-159.5 -34.5q-10 -2 -27 -2h-27 q-86 0 -161.5 37.5t-134 104t-95.5 157t-43 192.5zM166 590h592q-10 72 -37 133t-67 105t-89 70t-104 26t-105.5 -23.5t-90.5 -68t-65.5 -105.5t-33.5 -137zM225 1145l234 231l235 -233l-72 -70l-163 166l-166 -166z" />
<glyph unicode="&#xeb;" horiz-adv-x="933" d="M49 473v37q0 109 33 205t89 167.5t131 113.5t159 42q86 0 159.5 -35.5t129 -101t86 -157t30.5 -201.5v-64h-702q6 -78 33.5 -148.5t70.5 -122.5t99.5 -83t119.5 -31q41 0 84 8.5t83 21.5t75 29.5t59 34.5l46 -104q-55 -41 -137.5 -65.5t-159.5 -34.5q-10 -2 -27 -2h-27 q-86 0 -161.5 37.5t-134 104t-95.5 157t-43 192.5zM166 590h592q-10 72 -37 133t-67 105t-89 70t-104 26t-105.5 -23.5t-90.5 -68t-65.5 -105.5t-33.5 -137zM256 1309q0 29 21.5 48t49.5 19q29 0 50.5 -19.5t21.5 -47.5q0 -27 -21.5 -47.5t-50.5 -20.5t-50 20.5t-21 47.5z M522 1309q0 29 21.5 48t49.5 19q29 0 50.5 -19.5t21.5 -47.5q0 -27 -21.5 -47.5t-50.5 -20.5t-50 20.5t-21 47.5z" />
<glyph unicode="&#xec;" horiz-adv-x="432" d="M-4 1317h178l150 -201h-76zM178 1024h109l2 -1024h-109z" />
<glyph unicode="&#xed;" horiz-adv-x="432" d="M80 1116l151 201h177l-250 -201h-78zM119 1024h110l2 -1024h-110z" />
<glyph unicode="&#xee;" horiz-adv-x="362" d="M-53 1159l233 232l236 -234l-72 -70l-164 166l-166 -166zM119 1024h108l2 -1024h-108z" />
<glyph unicode="&#xef;" horiz-adv-x="362" d="M10 1309q0 29 21.5 48t50.5 19t50.5 -19.5t21.5 -47.5q0 -27 -21.5 -47.5t-50.5 -20.5t-50.5 20.5t-21.5 47.5zM119 1024h108l2 -1024h-108zM199 1309q0 29 20.5 48t50.5 19q29 0 50.5 -19.5t21.5 -47.5q0 -27 -21.5 -47.5t-50.5 -20.5q-31 0 -51 20.5t-20 47.5z" />
<glyph unicode="&#xf0;" horiz-adv-x="1001" d="M70 973v14q0 88 33.5 166t91 136.5t135.5 92t168 33.5q86 0 161.5 -33.5t134 -92t94.5 -134.5t42 -162q4 -66 5 -140.5t1 -139.5v-54q0 -82 -5 -158.5t-20 -148.5q-16 -82 -57 -149.5t-101.5 -115.5t-135 -74.5t-156.5 -26.5q-102 0 -194.5 50t-157.5 130l102 84 q49 -72 118.5 -111t145.5 -39q129 0 218 80t116 199q10 72 16 151.5t6 161.5v25q-59 -66 -147 -110t-190 -44q-84 0 -161 32t-134.5 87t-92 130t-36.5 161zM176 977q4 -63 30.5 -118.5t69.5 -96.5t98.5 -64.5t119.5 -23.5q68 0 127 24.5t102 67.5t68.5 100.5t25.5 124.5 q0 63 -26.5 119.5t-70.5 98.5t-101.5 66.5t-118.5 24.5q-68 0 -127.5 -26.5t-103.5 -70.5t-68.5 -103.5t-24.5 -122.5z" />
<glyph unicode="&#xf1;" horiz-adv-x="886" d="M76 1038h112v-110q102 127 263 127q72 0 135 -30t110 -81t75 -119.5t30 -148.5l6 -662h-111l-2 662q-2 55 -20.5 104t-49 85t-73.5 56.5t-94 20.5q-45 0 -89 -19.5t-81 -51t-63.5 -74.5t-35.5 -92v-158q0 -92 1 -189.5t1 -188.5v-155h-112zM213 1174l27 122 q27 -29 56.5 -45t53.5 -16q29 0 58 14q27 16 56.5 22.5t59.5 6.5q68 0 146 -43l-29 -121q-25 29 -55.5 46.5t-57.5 17.5q-29 0 -57 -15q-49 -29 -115 -28q-35 0 -71.5 9.5t-71.5 29.5z" />
<glyph unicode="&#xf2;" horiz-adv-x="1079" d="M37 506q0 111 38 207t103.5 167.5t153.5 113.5t186 42t185.5 -42t152 -113.5t102 -168t37.5 -206.5q0 -109 -37.5 -204t-102 -167t-152 -113.5t-185.5 -41.5t-186 41.5t-153.5 113.5t-103.5 167t-38 204zM150 506q0 -86 28.5 -161t78.5 -131t116.5 -89t144.5 -33 q76 0 142.5 33t115.5 89t78 131t29 161t-29 162.5t-78 133t-115.5 89.5t-142.5 33q-78 0 -144.5 -33t-116.5 -89.5t-78.5 -133t-28.5 -162.5zM283 1303h178l149 -201h-75z" />
<glyph unicode="&#xf3;" horiz-adv-x="1079" d="M37 506q0 111 38 207t103.5 167.5t153.5 113.5t186 42t185.5 -42t152 -113.5t102 -168t37.5 -206.5q0 -109 -37.5 -204t-102 -167t-152 -113.5t-185.5 -41.5t-186 41.5t-153.5 113.5t-103.5 167t-38 204zM150 506q0 -86 28.5 -161t78.5 -131t116.5 -89t144.5 -33 q76 0 142.5 33t115.5 89t78 131t29 161t-29 162.5t-78 133t-115.5 89.5t-142.5 33q-78 0 -144.5 -33t-116.5 -89.5t-78.5 -133t-28.5 -162.5zM483 1102l152 201h176l-250 -201h-78z" />
<glyph unicode="&#xf4;" horiz-adv-x="1050" d="M37 506q0 111 38 207t103.5 167.5t153.5 113.5t186 42t185.5 -42t152 -113.5t102 -168t37.5 -206.5q0 -109 -37.5 -204t-102 -167t-152 -113.5t-185.5 -41.5t-186 41.5t-153.5 113.5t-103.5 167t-38 204zM150 506q0 -86 28.5 -161t78.5 -131t116.5 -89t144.5 -33 q76 0 142.5 33t115.5 89t78 131t29 161t-29 162.5t-78 133t-115.5 89.5t-142.5 33q-78 0 -144.5 -33t-116.5 -89.5t-78.5 -133t-28.5 -162.5zM285 1145l234 231l235 -233l-72 -70l-163 166l-166 -166z" />
<glyph unicode="&#xf5;" horiz-adv-x="1050" d="M37 506q0 111 38 207t103.5 167.5t153.5 113.5t186 42t185.5 -42t152 -113.5t102 -168t37.5 -206.5q0 -109 -37.5 -204t-102 -167t-152 -113.5t-185.5 -41.5t-186 41.5t-153.5 113.5t-103.5 167t-38 204zM150 506q0 -86 28.5 -161t78.5 -131t116.5 -89t144.5 -33 q76 0 142.5 33t115.5 89t78 131t29 161t-29 162.5t-78 133t-115.5 89.5t-142.5 33q-78 0 -144.5 -33t-116.5 -89.5t-78.5 -133t-28.5 -162.5zM316 1196l24 137q57 -70 115 -69q12 0 28 6l25 10q55 33 121 33q72 0 143 -47l-28 -144q-59 78 -115 78q-10 0 -27.5 -6t-27.5 -10 q-23 -16 -55.5 -26.5t-61.5 -10.5q-73 0 -141 49z" />
<glyph unicode="&#xf6;" horiz-adv-x="1079" d="M37 506q0 111 38 207t103.5 167.5t153.5 113.5t186 42t185.5 -42t152 -113.5t102 -168t37.5 -206.5q0 -109 -37.5 -204t-102 -167t-152 -113.5t-185.5 -41.5t-186 41.5t-153.5 113.5t-103.5 167t-38 204zM150 506q0 -86 28.5 -161t78.5 -131t116.5 -89t144.5 -33 q76 0 142.5 33t115.5 89t78 131t29 161t-29 162.5t-78 133t-115.5 89.5t-142.5 33q-78 0 -144.5 -33t-116.5 -89.5t-78.5 -133t-28.5 -162.5zM340 1309q0 29 21.5 48t49.5 19q29 0 50.5 -19.5t21.5 -47.5q0 -27 -21.5 -47.5t-50.5 -20.5t-50 20.5t-21 47.5zM606 1309 q0 29 21.5 48t49.5 19q29 0 50.5 -19.5t21.5 -47.5q0 -27 -21.5 -47.5t-50.5 -20.5t-50 20.5t-21 47.5z" />
<glyph unicode="&#xf7;" horiz-adv-x="870" d="M68 559v111h714v-111h-714zM344 279v155h156v-155h-156zM344 770v156h156v-156h-156z" />
<glyph unicode="&#xf8;" horiz-adv-x="1050" d="M37 506q0 111 38 207t103.5 167.5t153.5 113.5t186 42q102 0 192.5 -47t159.5 -127l-86 -74q-53 63 -122.5 99.5t-143.5 36.5q-78 0 -144.5 -33t-116.5 -89.5t-78.5 -133t-28.5 -162.5q0 -119 49 -213l-84 -74q-37 68 -57.5 139.5t-20.5 147.5zM143 178l82 74 q55 -74 131 -117t162 -43q76 0 142.5 33t115.5 89t78 131t29 161q0 66 -18.5 127t-53.5 117l88 73q45 -72 70.5 -151.5t25.5 -165.5q0 -109 -37.5 -204t-102 -167t-152 -113.5t-185.5 -41.5q-111 0 -208 53t-167 145z" />
<glyph unicode="&#xf9;" horiz-adv-x="921" d="M86 1024h109l4 -662q2 -55 20.5 -103t50 -84t75.5 -57.5t95 -21.5q45 0 89 19.5t79 52.5t59.5 76t32.5 90v690h111v-1024h-109l-2 109q-49 -57 -116.5 -92t-145.5 -35q-72 0 -134 29.5t-109.5 81.5t-74 121t-28.5 148zM207 1303h178l149 -201h-75z" />
<glyph unicode="&#xfa;" horiz-adv-x="921" d="M86 1024h109l4 -662q2 -55 20.5 -103t50 -84t75.5 -57.5t95 -21.5q45 0 89 19.5t79 52.5t59.5 76t32.5 90v690h111v-1024h-109l-2 109q-49 -57 -116.5 -92t-145.5 -35q-72 0 -134 29.5t-109.5 81.5t-74 121t-28.5 148zM374 1102l152 201h176l-250 -201h-78z" />
<glyph unicode="&#xfb;" horiz-adv-x="921" d="M86 1024h109l4 -662q2 -55 20.5 -103t50 -84t75.5 -57.5t95 -21.5q45 0 89 19.5t79 52.5t59.5 76t32.5 90v690h111v-1024h-109l-2 109q-49 -57 -116.5 -92t-145.5 -35q-72 0 -134 29.5t-109.5 81.5t-74 121t-28.5 148zM219 1145l234 231l235 -233l-72 -70l-163 166 l-166 -166z" />
<glyph unicode="&#xfc;" horiz-adv-x="921" d="M86 1024h109l4 -662q2 -55 20.5 -103t50 -84t75.5 -57.5t95 -21.5q45 0 89 19.5t79 52.5t59.5 76t32.5 90v690h111v-1024h-109l-2 109q-49 -57 -116.5 -92t-145.5 -35q-72 0 -134 29.5t-109.5 81.5t-74 121t-28.5 148zM250 1309q0 29 21.5 48t49.5 19q29 0 50.5 -19.5 t21.5 -47.5q0 -27 -21.5 -47.5t-50.5 -20.5t-50 20.5t-21 47.5zM516 1309q0 29 21.5 48t49.5 19q29 0 50.5 -19.5t21.5 -47.5q0 -27 -21.5 -47.5t-50.5 -20.5t-50 20.5t-21 47.5z" />
<glyph unicode="&#xfd;" horiz-adv-x="1095" d="M98 -387l17 108q43 -13 81 -13q15 0 30 2q52 7 100.5 48t90.5 121t78 207l-195 475l-196 475h117l328 -815l160 407l161 408h121l-391 -958l2 2l-44 -117l-44 -117q-23 -59 -57.5 -104t-78.5 -77t-93.5 -48t-98.5 -16t-88 12zM503 1102l152 201h176l-250 -201h-78z" />
<glyph unicode="&#xfe;" horiz-adv-x="1058" d="M117 -391v1798h112v-434q55 31 125 49t156 18q102 -2 192.5 -44t157 -113.5t105.5 -166.5t39 -202q0 -111 -39 -208t-105.5 -168.5t-157 -113.5t-192.5 -42q-86 0 -154.5 21.5t-128.5 47.5v-442h-110zM223 829l6 -628q-2 -20 19.5 -39t59.5 -33t90.5 -23.5t111.5 -11.5 q78 2 146.5 35t120.5 90t83 132t31 161q0 82 -31 157.5t-83 132t-120.5 90.5t-146.5 34q-109 0 -190 -29t-97 -68z" />
<glyph unicode="&#xff;" horiz-adv-x="1095" d="M98 -387l17 108q43 -13 81 -13q15 0 30 2q52 7 100.5 48t90.5 121t78 207l-195 475l-196 475h117l328 -815l160 407l161 408h121l-391 -958l2 2l-44 -117l-44 -117q-23 -59 -57.5 -104t-78.5 -77t-93.5 -48t-98.5 -16t-88 12zM359 1309q0 29 21.5 48t49.5 19 q29 0 50.5 -19.5t21.5 -47.5q0 -27 -21.5 -47.5t-50.5 -20.5t-50 20.5t-21 47.5zM625 1309q0 29 21.5 48t49.5 19q29 0 50.5 -19.5t21.5 -47.5q0 -27 -21.5 -47.5t-50.5 -20.5t-50 20.5t-21 47.5z" />
<glyph unicode="&#x152;" horiz-adv-x="2162" d="M55 707q0 150 50.5 279.5t138.5 227t204.5 153.5t249.5 56q174 0 310.5 -78.5t224.5 -228.5v299h829v-108h-716v-498h612v-113h-612v-583h716l2 -113h-829l-2 293q-20 -31 -41 -58.5t-45 -54.5q-88 -96 -202 -147t-247 -51q-129 0 -245.5 55t-204.5 152.5t-140.5 230.5 t-52.5 287zM170 707q0 -127 41 -239t111.5 -195t168 -130t207.5 -47q106 0 199.5 44t164.5 120t116 177.5t55 215.5v105q-10 119 -53 218t-115 173q-70 78 -164 119t-203 41q-111 0 -207 -47.5t-167.5 -128t-112.5 -191t-41 -235.5z" />
<glyph unicode="&#x153;" horiz-adv-x="1802" d="M43 506q0 111 38 207t103.5 167.5t153.5 113.5t186 42q68 0 131.5 -21.5t118.5 -59t99.5 -90t74.5 -113.5q27 61 65 113.5t85 91t101 60t114 21.5q86 0 160.5 -40t129 -109.5t86 -163.5t31.5 -205v-61h-704q6 -78 32.5 -144.5t68.5 -115.5t98.5 -78t119.5 -29 q31 0 71 9.5t80 22.5t76 29l62 27l43 -98q-57 -33 -133 -59.5t-145 -38.5q-12 -2 -26 -2h-28q-127 0 -229 78.5t-156 205.5q-31 -61 -75 -114.5t-99 -91t-118.5 -59t-133.5 -21.5q-98 0 -186 41.5t-153.5 113.5t-103.5 167t-38 204zM154 506q0 -86 28.5 -161t79.5 -131 t117.5 -89t144.5 -33q74 0 140.5 33t115.5 89t78 131t29 161t-29 162.5t-78 133t-115.5 89.5t-140.5 33q-78 0 -144.5 -33t-117.5 -89.5t-79.5 -133t-28.5 -162.5zM1018 567h592q-6 76 -32 141.5t-65.5 113.5t-91 75t-108.5 27q-55 0 -104.5 -28t-88.5 -76t-65.5 -113.5 t-36.5 -139.5z" />
<glyph unicode="&#x178;" horiz-adv-x="1394" d="M49 1415h150l487 -667l247 333l247 334h147l-582 -778q0 -156 1.5 -318.5t1.5 -318.5h-115l-2 637l-143 190l-149 199l-149 199zM484 1520q0 29 21.5 48t49.5 19q29 0 50.5 -19.5t21.5 -47.5q0 -27 -21.5 -47.5t-50.5 -20.5t-50 20.5t-21 47.5zM750 1520q0 29 21.5 48 t49.5 19q29 0 50.5 -19.5t21.5 -47.5q0 -27 -21.5 -47.5t-50.5 -20.5t-50 20.5t-21 47.5z" />
<glyph unicode="&#x2c6;" horiz-adv-x="548" d="M45 1145l234 231l235 -233l-72 -70l-163 166l-166 -166z" />
<glyph unicode="&#x2da;" horiz-adv-x="1705" />
<glyph unicode="&#x2dc;" horiz-adv-x="684" d="M117 1196l24 137q57 -70 115 -69q12 0 28 6l25 10q55 33 121 33q72 0 143 -47l-28 -144q-59 78 -115 78q-10 0 -27.5 -6t-27.5 -10q-23 -16 -55.5 -26.5t-61.5 -10.5q-73 0 -141 49z" />
<glyph unicode="&#x2000;" horiz-adv-x="882" />
<glyph unicode="&#x2001;" horiz-adv-x="1767" />
<glyph unicode="&#x2002;" horiz-adv-x="882" />
<glyph unicode="&#x2003;" horiz-adv-x="1767" />
<glyph unicode="&#x2004;" horiz-adv-x="587" />
<glyph unicode="&#x2005;" horiz-adv-x="440" />
<glyph unicode="&#x2006;" horiz-adv-x="292" />
<glyph unicode="&#x2007;" horiz-adv-x="292" />
<glyph unicode="&#x2008;" horiz-adv-x="219" />
<glyph unicode="&#x2009;" horiz-adv-x="352" />
<glyph unicode="&#x200a;" horiz-adv-x="96" />
<glyph unicode="&#x2010;" horiz-adv-x="862" d="M74 545v110h714v-110h-714z" />
<glyph unicode="&#x2011;" horiz-adv-x="862" d="M74 545v110h714v-110h-714z" />
<glyph unicode="&#x2012;" horiz-adv-x="862" d="M74 545v110h714v-110h-714z" />
<glyph unicode="&#x2013;" horiz-adv-x="851" d="M74 545v110h714v-110h-714z" />
<glyph unicode="&#x2014;" horiz-adv-x="1089" d="M76 545v110h942v-110h-942z" />
<glyph unicode="&#x2018;" horiz-adv-x="307" d="M55 1196l99 211l36 -18l-18 -156l55 -121l-110 -51z" />
<glyph unicode="&#x2019;" horiz-adv-x="325" d="M53 1118l66 139l-15 138l123 10l17 -143l-162 -172z" />
<glyph unicode="&#x201a;" horiz-adv-x="352" d="M61 -111l82 129l-2 138h125v-148l-182 -153z" />
<glyph unicode="&#x201c;" horiz-adv-x="446" d="M57 1262l17 143l123 -10l-17 -138l33 -70l33 -69l-27 -28zM203 1262l16 143l123 -10l-16 -138l32 -70l33 -69l-26 -28z" />
<glyph unicode="&#x201d;" horiz-adv-x="485" d="M55 1118l66 139l-17 138l123 10l17 -143l-162 -172zM201 1118l65 139l-16 138l123 10l16 -143l-162 -172z" />
<glyph unicode="&#x201e;" horiz-adv-x="473" d="M43 -109l78 132l-4 137h125v-146l-176 -155zM190 -111l78 131v138h121v-148l-178 -155z" />
<glyph unicode="&#x2022;" horiz-adv-x="428" d="M76 778q0 55 42 97.5t97 42.5q27 0 52.5 -11.5t45 -31t30.5 -45t11 -52.5q0 -25 -11 -49t-30.5 -42.5t-45 -30t-52.5 -11.5q-55 0 -97 41t-42 92z" />
<glyph unicode="&#x2026;" horiz-adv-x="890" d="M76 156h155l2 -156h-155zM365 156h155l2 -156h-155zM653 156h156l2 -156h-156z" />
<glyph unicode="&#x202f;" horiz-adv-x="352" />
<glyph unicode="&#x2039;" horiz-adv-x="720" d="M78 508l506 510l80 -78l-428 -432l214 -211l214 -211l-78 -82z" />
<glyph unicode="&#x203a;" horiz-adv-x="702" d="M78 86l430 422l-214 216l-216 216l82 78l504 -510l-506 -504z" />
<glyph unicode="&#x205f;" horiz-adv-x="440" />
<glyph unicode="&#x20ac;" horiz-adv-x="1525" d="M76 520v113h200q0 4 -2 11t-2 11q-2 10 -2 22v17q0 27 2 51.5t4 45.5v4h-200v112h223q33 111 94.5 204t146.5 160.5t186 104.5t214 37q150 0 279 -65.5t227 -169.5l-80 -82q-86 94 -191.5 148t-234.5 54q-90 0 -171 -28.5t-149.5 -80.5t-121 -124t-80.5 -158h676v-112 h-703q-8 -41 -8 -101v-16q0 -8 2 -19q0 -10 1 -13t1 -13h707v-113h-682q27 -90 78 -168t121.5 -134t154.5 -89t174 -33q129 0 234.5 56.5t191.5 154.5l80 -90q-98 -104 -227 -169.5t-279 -65.5q-119 0 -225.5 39.5t-191.5 112.5t-145.5 171t-86.5 215h-215z" />
<glyph unicode="&#x2122;" horiz-adv-x="854" d="M51 1303v86h328v-86h-117v-347h-92v347h-119zM387 956v433h74l104 -175l62 109l21 34l20 32h71v-433h-88v238q-23 -35 -40 -66l-23 -41h-49l-62 107v-238h-90z" />
<glyph unicode="&#xe000;" horiz-adv-x="1025" d="M0 1025h1025v-1025h-1025v1025z" />
<glyph unicode="&#xfb01;" horiz-adv-x="1034" d="M66 889v112h147v37v25q2 72 27.5 135.5t66.5 111.5t95.5 75.5t113.5 27.5q29 0 53.5 -1t61.5 -5l-33 -113q-27 6 -46.5 7.5t-35.5 1.5q-41 -2 -77 -22.5t-61.5 -56.5t-40.5 -83t-15 -101v-39h260l2 -1001h-109l-2 889h-151q0 -217 1 -444.5t1 -444.5h-107l-2 889h-149z " />
<glyph unicode="&#xfb02;" horiz-adv-x="1003" d="M66 889v112h147q0 4 -1 10.5t-1 12.5v14v25q4 74 29.5 136.5t66.5 109.5t94.5 74.5t114.5 29.5h111l2 -1413h-115l-2 889h-190q0 -217 1 -444.5t1 -444.5h-107l-2 889h-149zM322 1001h190v302q-41 -4 -75 -25t-60.5 -56.5t-40.5 -81.5t-14 -100v-39zM512 1303h4h10 l-14 14v-14z" />
<glyph unicode="&#xfb03;" horiz-adv-x="1691" d="M1441 1309q0 29 20.5 48t51.5 19q29 0 50.5 -19.5t21.5 -47.5q0 -27 -21.5 -47.5t-50.5 -20.5q-31 0 -51.5 20.5t-20.5 47.5zM1458 1024h108l2 -1024h-108zM738 889v112h147v37v25q2 72 27.5 135.5t66.5 111.5t95.5 75.5t113.5 27.5q29 0 53.5 -1t61.5 -5l-33 -113 q-27 6 -46.5 7.5t-35.5 1.5q-41 -2 -77 -22.5t-61.5 -56.5t-40.5 -83t-15 -101v-39h262v-112h-262q0 -217 1 -444.5t1 -444.5h-111v332q0 139 1 290.5t1 266.5h-149zM66 889v112h147v37v25q2 72 27.5 135.5t66.5 111.5t95.5 75.5t113.5 27.5q29 0 53.5 -1t61.5 -5l-33 -113 q-27 6 -46.5 7.5t-35.5 1.5q-41 -2 -77 -22.5t-61.5 -56.5t-40.5 -83t-15 -101v-39h262v-112h-262q0 -217 1 -444.5t1 -444.5h-111v332q0 139 1 290.5t1 266.5h-149z" />
<glyph unicode="&#xfb04;" horiz-adv-x="1675" d="M1462 1534h110l2 -1534h-110zM738 889v112h147v37v25q2 72 27.5 135.5t66.5 111.5t95.5 75.5t113.5 27.5q29 0 53.5 -1t61.5 -5l-33 -113q-27 6 -46.5 7.5t-35.5 1.5q-41 -2 -77 -22.5t-61.5 -56.5t-40.5 -83t-15 -101v-39h262v-112h-262q0 -217 1 -444.5t1 -444.5h-111 v332q0 139 1 290.5t1 266.5h-149zM66 889v112h147v37v25q2 72 27.5 135.5t66.5 111.5t95.5 75.5t113.5 27.5q29 0 53.5 -1t61.5 -5l-33 -113q-27 6 -46.5 7.5t-35.5 1.5q-41 -2 -77 -22.5t-61.5 -56.5t-40.5 -83t-15 -101v-39h262v-112h-262q0 -217 1 -444.5t1 -444.5h-111 v332q0 139 1 290.5t1 266.5h-149z" />
</font>
</defs>
</svg>
