<?xml version="1.0" standalone="no"?>
<!DOCTYPE svg PUBLIC "-//W3C//DTD SVG 1.1//EN" "http://www.w3.org/Graphics/SVG/1.1/DTD/svg11.dtd" >
<svg xmlns="http://www.w3.org/2000/svg">
<metadata>
This is a custom SVG webfont generated by Font Squirrel.
Copyright   : Copyright c 2007 by La Tipomatika All rights reserved
Designer    : La Tipomatika Digital Type Foundry
Foundry     : La Tipomatika
Foundry URL : httptipomatikaconr
</metadata>
<defs>
<font id="webfontP6Q6sJfW" horiz-adv-x="1220" >
<font-face units-per-em="2048" ascent="1638" descent="-410" />
<missing-glyph horiz-adv-x="526" />
<glyph unicode=" "  horiz-adv-x="526" />
<glyph unicode="&#x09;" horiz-adv-x="526" />
<glyph unicode="&#xa0;" horiz-adv-x="526" />
<glyph unicode="!" horiz-adv-x="360" d="M86 55q0 33 20.5 53.5t53.5 20.5q35 0 52 -20.5t19 -51.5v-2q0 -29 -21.5 -51t-49.5 -22q-33 0 -53.5 22t-20.5 51zM98 190v1205h123v-1205h-123z" />
<glyph unicode="&#x22;" horiz-adv-x="444" d="M49 1395h144l18 -154l-94 -199l-49 48zM195 1395h143l18 -154l-94 -199l-49 48z" />
<glyph unicode="#" horiz-adv-x="1462" d="M25 791l110 139h332l39 105q18 52 41 106q14 41 31 83l30 79h146l-136 -373h402l50 131l50 131q10 25 20.5 55.5t20.5 55.5h146l-136 -373h244l-112 -139h-179q-8 -18 -14 -37t-14 -39l-29 -73l-29 -75h379l-117 -139h-313q-16 -49 -36 -101l-38 -104l-40 -113l-37 -110 h-150l154 428h-408l-67 -191l-70 -194q-4 -8 -8 -21.5t-8 -21.5h-148l154 428h-258l112 139h195l31 80l30 80l8 25q4 10 6.5 20t6.5 19h-391zM483 567h408q8 23 16 51.5t19 51.5l24 60l23 61h-406z" />
<glyph unicode="$" horiz-adv-x="954" d="M45 195l111 88q39 -59 102.5 -107.5t136.5 -56.5v510q-78 18 -140 54t-108.5 87t-71 112.5t-24.5 131.5q0 72 25.5 135t72 112.5t110 83t136.5 48.5v92h135v-84q104 -6 191.5 -54.5t157.5 -125.5l-107 -86q-47 53 -108.5 91t-133.5 44v-525q74 -18 138.5 -55t110.5 -86 t73 -110.5t27 -131.5q0 -72 -27 -133t-74 -110t-110.5 -83t-137.5 -46v-117h-135v111q-109 12 -200 68.5t-150 142.5zM195 1022q0 -82 54 -151.5t146 -98.5v483q-88 -29 -144 -91t-56 -142zM530 129q90 18 148.5 79.5t58.5 147.5q0 88 -57 158t-150 96v-481z" />
<glyph unicode="%" horiz-adv-x="1583" d="M88 1008q0 74 24.5 137t67.5 110.5t100.5 74t125.5 26.5q63 0 120.5 -26.5t99.5 -74t66.5 -111t24.5 -136.5q0 -72 -24.5 -135.5t-66.5 -110.5t-99.5 -75t-120.5 -28q-68 0 -125.5 28t-100.5 75t-67.5 110.5t-24.5 135.5zM225 1008q0 -43 14.5 -81t39 -68t57.5 -47 t70 -17q35 0 65.5 17t54 47t38 68t14.5 81q0 45 -14.5 83.5t-38 67.5t-54.5 45.5t-65 16.5q-76 0 -128.5 -60.5t-52.5 -152.5zM301 2l805 1393h160l-809 -1393h-156zM836 354q0 74 24.5 137.5t66.5 110.5t98 73.5t120 26.5q66 0 123 -26.5t100 -73.5t67.5 -110.5 t24.5 -137.5q0 -72 -24.5 -135t-67.5 -110.5t-100.5 -75t-122.5 -27.5q-63 0 -119.5 27.5t-98.5 75t-66.5 110.5t-24.5 135zM971 354q0 -43 14 -82t38 -68.5t55.5 -46t66.5 -16.5q37 0 69.5 16.5t57 46t39 68.5t14.5 82q0 45 -14.5 84t-39 68t-57 45t-69.5 16 q-72 0 -123 -60.5t-51 -152.5z" />
<glyph unicode="&#x26;" horiz-adv-x="1222" d="M68 393q0 117 78.5 220.5t242.5 174.5q14 4 19 9q-4 2 -9 10l2 -2q-2 2 -2 3t-2 3q-53 55 -83.5 98t-46 77t-20.5 62.5t-5 57.5q0 57 23.5 110.5t66.5 94.5t103.5 66.5t133.5 25.5q70 0 127.5 -22.5t98.5 -61.5t63.5 -91t22.5 -110q0 -90 -51.5 -173t-174.5 -161 q-8 -6 -17 -12l-15 -10l70 -90q34 -43 71 -84l59 -74q31 -37 60 -76q12 12 16 19l-2 -6q2 2 4 6t2 5t2 5q2 6 8 12l5 8q2 4 2 7l35 56q19 30 32 85l123 -23q-29 -92 -67.5 -161.5t-69.5 -118.5q27 -41 40 -58l27 -32v2q6 -6 7 -13q10 -16 15 -23t11 -13q8 -10 18 -21l19 -22 v-193q-35 33 -75 77t-58 66q-4 6 -10 11l-30 33l-38 42q-4 4 -4 7q-4 -4 -4 -2q-2 -2 -3 -5.5t-3 -5.5q-72 -98 -175.5 -141t-213.5 -41q-92 0 -171 31.5t-135.5 86t-89 125t-32.5 150.5zM201 389q0 -49 23.5 -97t63.5 -85t94 -59.5t114 -22.5q86 -2 170 45t143 121l2 4 l-164 201l-82 101l-82 101q-147 -78 -214.5 -156.5t-67.5 -152.5zM375 1106q2 -39 19.5 -74t49.5 -71l82 -97q2 2 2 1t4 1h-2q4 4 5.5 3t5.5 3q51 29 90 63t64.5 67.5t39 63.5t13.5 52q0 72 -52.5 117t-130.5 45q-35 0 -69.5 -14.5t-61 -38t-43 -55t-16.5 -66.5zM469 743 q0 -10 1 -20t7 -16l12.5 -7.5t8.5 2.5q4 0 13 10.5t21 22.5zM811 295q2 -4 4 -5t4 -3v18z" />
<glyph unicode="'" horiz-adv-x="247" d="M14 1098l68 141l-19 145l148 11l18 -160l-172 -180z" />
<glyph unicode="(" horiz-adv-x="532" d="M70 588q0 133 18 259t52 234.5t81 196.5t103 147l57 -147q-37 -47 -67.5 -119t-52 -161t-33 -193.5t-11.5 -216.5q0 -123 14.5 -235.5t40 -207t60.5 -165t78 -111.5l-78 -129q-57 55 -105.5 143t-83 197.5t-54 239t-19.5 268.5z" />
<glyph unicode=")" horiz-adv-x="503" d="M84 -131q43 41 79 111.5t61.5 165t40 207t14.5 235.5q0 113 -11.5 217t-33 194.5t-52 162t-69.5 118.5l55 147q55 -59 103 -147t82 -197.5t53.5 -235.5t19.5 -259q0 -139 -19.5 -268.5t-54.5 -240t-82 -197.5t-104 -142z" />
<glyph unicode="*" horiz-adv-x="964" d="M113 1047v135h194l-139 139l96 98l139 -139v197h136v-197l139 139l98 -96l-139 -139h197v-137h-201q25 -29 55 -56l88 -86l-96 -94l-141 141v-200h-136v196l-73 -71l-66 -66l-98 94l141 142h-194z" />
<glyph unicode="+" horiz-adv-x="925" d="M92 530v136h293v292h135v-292h295v-136h-295v-294h-135v294h-293z" />
<glyph unicode="," horiz-adv-x="354" d="M45 -94l82 131l-2 143h149v-164l-194 -166z" />
<glyph unicode="-" horiz-adv-x="862" d="M63 530v136h723v-136h-723z" />
<glyph unicode="." horiz-adv-x="296" d="M57 180h181l2 -180h-181z" />
<glyph unicode="/" horiz-adv-x="774" d="M59 0l508 1395h146l-506 -1395h-148z" />
<glyph unicode="0" horiz-adv-x="1200" d="M70 694q0 147 41 276.5t111.5 225.5t165.5 151.5t202 55.5q106 0 200.5 -55.5t165 -151.5t110.5 -225t40 -277q0 -147 -40 -276t-110.5 -226.5t-165 -153.5t-200.5 -56t-201.5 56t-166 153.5t-111.5 226.5t-41 276zM207 694q0 -121 30.5 -225t83 -182t122 -123t147.5 -45 q80 0 149.5 45t120.5 123t81 182t30 225q0 119 -30 222.5t-81 181.5t-120.5 123t-149.5 45q-78 0 -147.5 -45t-122 -123t-83 -181.5t-30.5 -222.5z" />
<glyph unicode="1" horiz-adv-x="626" d="M55 950v174l330 271h115l2 -1395h-135l-2 1206q-31 -23 -63 -50l-62 -52l-96 -79z" />
<glyph unicode="2" horiz-adv-x="972" d="M63 1255q72 66 160 107t178 41q92 0 174 -35t142.5 -95.5t96.5 -141t36 -173.5q0 -86 -34 -162.5t-87 -136.5l-167 -189l-169 -189l-65 -72q-31 -33 -66 -74h645v-135h-841v119l569 639q80 86 80 200q0 63 -24.5 120t-66.5 99t-99.5 65.5t-123.5 23.5t-127 -29t-112 -80z " />
<glyph unicode="3" horiz-adv-x="882" d="M-2 199l100 94q23 -31 56.5 -59.5t71.5 -50t78 -35t77 -13.5q59 0 112.5 18.5t93.5 51.5t64.5 76t24.5 92q0 45 -23.5 90t-61.5 82t-88 63.5t-104 34.5h-133v135h62q23 0 44 1t25 1q55 4 105.5 20.5t87.5 46.5t58.5 69.5t21.5 89.5q0 53 -23.5 100t-63.5 83t-92.5 56.5 t-111.5 20.5q-74 0 -126 -27t-99 -84l-99 98q68 74 144.5 111t179.5 37q88 0 167 -31t137 -85t92 -126t34 -153q0 -102 -52 -174t-139 -119q43 -29 79 -68t61.5 -84t41 -93t15.5 -95q0 -78 -35 -145.5t-94 -119t-138 -81t-167 -29.5q-51 0 -106.5 16.5t-106.5 44t-95 63.5 t-75 77z" />
<glyph unicode="4" horiz-adv-x="968" d="M61 489l2 113l463 805l115 -70l-410 -712h379q0 35 -1 69.5t-1 69.5v160h133l2 -299h138v-136h-138v-489h-133v489h-549z" />
<glyph unicode="5" horiz-adv-x="1032" d="M113 682l47 713h737v-138h-602q-4 -29 -7 -58.5t-7 -57.5l-10.5 -105.5t-12.5 -111.5q59 45 132 67.5t147 22.5q96 0 172.5 -40t131 -107.5t83 -160t28.5 -196.5t-35.5 -197.5t-97 -163t-145.5 -109.5t-178 -40q-113 0 -213.5 60.5t-165.5 160.5l98 98q51 -84 124 -134 t155 -50q68 0 126 30t101 80t68.5 118.5t25.5 146.5t-18.5 145.5t-54 117.5t-87 79t-118.5 29q-94 0 -176 -54.5t-123 -144.5h-125z" />
<glyph unicode="6" horiz-adv-x="1036" d="M90 672v41q0 88 5 169t22 152q16 74 56 139.5t95.5 116.5t126 82t148.5 33q113 0 212 -52.5t177 -152.5l-131 -80q-47 66 -116 107t-140 41q-55 0 -105.5 -20.5t-90.5 -55.5t-67.5 -85t-37.5 -108q-25 -133 -25 -288q53 59 129 94t168 39q86 0 166 -31t141.5 -86t98 -131 t39.5 -168v-18q0 -90 -34 -168t-93.5 -135.5t-139.5 -90t-170 -32.5q-86 0 -161.5 31.5t-133 88t-92.5 133t-39 164.5q-6 63 -7 134t-1 137zM233 403q0 -59 25 -110t64.5 -91t93 -62.5t112.5 -22.5q61 0 114.5 23.5t93.5 62.5t63.5 91t23.5 112v18q-2 61 -26.5 112.5 t-64.5 90.5t-93 60.5t-115 21.5q-61 0 -114.5 -25t-92 -67t-61.5 -97.5t-23 -116.5z" />
<glyph unicode="7" horiz-adv-x="907" d="M55 0l586 1257h-578v138h799l-651 -1395h-156z" />
<glyph unicode="8" horiz-adv-x="940" d="M47 399q0 109 56.5 202t136.5 151q-70 47 -110 120.5t-40 167.5q0 74 30 140.5t80 116t117.5 78t143.5 28.5q80 0 148.5 -28.5t118.5 -78t80 -116t30 -140.5q0 -92 -39 -166.5t-111 -121.5q88 -55 139.5 -147.5t51.5 -205.5q0 -86 -32 -161.5t-88.5 -133t-133 -90 t-164.5 -32.5q-86 0 -161 32.5t-131 90t-89 133t-33 161.5zM184 399q0 -55 22.5 -106t60.5 -90t88.5 -61.5t105.5 -22.5q59 0 110.5 22.5t90 61.5t60 90t21.5 106q0 57 -21.5 107.5t-60 89.5t-90 61.5t-110.5 22.5q-55 0 -105.5 -22.5t-88.5 -61.5t-60.5 -89.5t-22.5 -107.5 zM225 1040q0 -47 18.5 -88t51.5 -71.5t76 -48t90 -17.5q49 0 92 17.5t76 48t51 71.5t18 88t-18 88t-51 72t-76 48.5t-92 17.5q-47 0 -90 -17.5t-76 -48.5t-51.5 -72t-18.5 -88z" />
<glyph unicode="9" horiz-adv-x="1001" d="M61 961v14q0 88 34 166t92.5 136t136 93t168.5 35q88 0 163.5 -34t134 -92t94.5 -135t42 -163q4 -63 5 -136t1 -138v-52q0 -80 -5 -154.5t-20 -146.5q-16 -82 -57 -149.5t-101.5 -116.5t-136 -75.5t-157.5 -26.5q-100 0 -195.5 53t-165.5 139l121 98q51 -72 117.5 -111.5 t136.5 -39.5q59 0 110.5 20.5t92.5 55.5t68.5 83t39.5 103v-2q10 68 14.5 141.5t6.5 149.5q-59 -55 -140 -91t-174 -36q-86 0 -161.5 31.5t-134 87t-93.5 131.5t-37 162zM193 965q4 -59 28.5 -109.5t64.5 -89.5t91 -60.5t110 -21.5q61 0 116.5 22.5t96.5 62.5t64.5 94.5 t23.5 115.5q0 57 -24.5 109.5t-65.5 92.5t-94 62.5t-110 22.5q-63 0 -119 -24.5t-95.5 -66.5t-63 -96.5t-23.5 -113.5z" />
<glyph unicode=":" horiz-adv-x="372" d="M94 180h180l2 -180h-180zM94 844v180h180v-180h-180z" />
<glyph unicode=";" horiz-adv-x="346" d="M27 -94l79 131l-2 143h150l2 -164l-199 -163zM94 844v180h176v-180h-176z" />
<glyph unicode="&#x3c;" horiz-adv-x="675" d="M25 508l510 516l100 -96l-418 -420l96 -95l103 -100l110 -109l109 -106l-98 -100z" />
<glyph unicode="=" horiz-adv-x="901" d="M121 389v139h702v-139h-702zM121 764v141h702v-141h-702z" />
<glyph unicode="&#x3e;" horiz-adv-x="688" d="M45 98l416 410l-99 97l-100 102l-51 52l-58 60l-59 59q-29 28 -49 50l98 96l510 -516l-512 -510z" />
<glyph unicode="?" horiz-adv-x="839" d="M47 1206q55 90 140 143.5t188 53.5q80 0 148.5 -32t119.5 -85t81 -124.5t30 -153.5q0 -78 -29 -147.5t-79 -123t-118.5 -84t-146.5 -30.5h-68l34 -111l36 -115l59 -203l58 -194h-148l-184 641v117h213q51 2 94 21.5t76 53t51.5 77.5t18.5 98q0 53 -19.5 100t-53.5 83 t-78 56.5t-95 20.5q-68 0 -127.5 -44t-100.5 -116zM383 -160q0 37 23.5 58.5t54.5 21.5q37 0 58.5 -21.5t21.5 -58.5q0 -35 -21.5 -59.5t-58.5 -24.5q-31 0 -54.5 24.5t-23.5 59.5z" />
<glyph unicode="@" horiz-adv-x="1636" d="M96 498q0 147 55.5 275t150.5 223.5t223 150.5t274 55q141 0 263 -50t212 -136t141 -203t51 -250q0 -92 -20.5 -169t-42.5 -134q-27 -68 -62 -123q-31 -47 -76.5 -73.5t-99.5 -26.5q-39 0 -70.5 14.5t-57 37t-46 50t-35.5 56.5q-18 -6 -47 -14l-59 -14l-61.5 -13.5 t-55.5 -8.5q-37 -4 -85 8.5t-92 44t-73.5 89t-29.5 145.5q0 53 12 109v-2q20 96 61 160.5t94.5 102.5t114 54t119.5 16q35 0 84 -2t96 -6q53 -4 113 -8l-47 -217l-29 -134l-14 -72q-4 -22 -4 -27v-7q-4 -47 4 -87t24.5 -69.5t39 -47t44.5 -17.5q16 0 32.5 11.5t33.5 27.5 q2 2 16.5 28.5t30.5 71.5t29.5 106.5t13.5 135.5q0 106 -39 198.5t-108.5 160t-166 106.5t-208.5 39q-117 0 -219.5 -44t-179 -121t-120.5 -180.5t-44 -219.5q0 -117 44 -218.5t120.5 -178t179 -120.5t219.5 -44q33 0 78 6t104 26l-2 -149q-86 -23 -180 -23 q-145 0 -273.5 55.5t-223.5 150.5t-150.5 222.5t-55.5 272.5zM612 440q0 -82 35 -113.5t72 -33.5q43 -2 90 5t76 17q16 104 38 205l44 199q-66 2 -86 2h-33q-76 2 -138.5 -40t-86.5 -161q-6 -27 -8.5 -45.5t-2.5 -34.5z" />
<glyph unicode="A" d="M37 0l518 1415h109l522 -1415h-144l-213 563h-438l-104 -281l-107 -282h-143zM440 702h338q-20 59 -41 113l-41 107v-2l-22 60l-21 54l-20 56.5t-25 66.5l-33 -90l-32 -88q-29 -72 -51 -135z" />
<glyph unicode="B" horiz-adv-x="1048" d="M88 1415h461q80 -2 150.5 -31.5t122.5 -79t83 -114t31 -135.5q0 -96 -45 -174t-119 -129q86 -55 139.5 -145.5t53.5 -192.5q0 -84 -32 -158t-87 -129t-131 -88t-164 -35h2l-37 -4h-426zM225 139h324q57 2 108.5 25.5t88 60.5t58 85t21.5 104q0 51 -21.5 98t-58 84 t-88 59.5t-108.5 26.5h-324v-543zM225 821h324q53 2 98 19.5t79 48.5t53.5 74t19.5 92q0 43 -19.5 82t-53.5 69.5t-79 50t-98 23.5h-324v-459z" />
<glyph unicode="C" horiz-adv-x="1208" d="M41 707q0 143 50 273t138 228.5t205 156.5t252 58q129 0 250 -58t213 -159l-96 -94q-78 82 -172.5 127t-194.5 45q-102 0 -194.5 -45t-162 -123t-109.5 -183.5t-40 -225.5q0 -119 38 -224.5t105.5 -185.5t161 -127t201.5 -47q100 0 191.5 45t171.5 125l96 -94 q-96 -100 -213 -158.5t-246 -58.5q-127 0 -243.5 57t-206 155.5t-142.5 230.5t-53 282z" />
<glyph unicode="D" horiz-adv-x="1177" d="M55 1415h531q104 -2 195 -57t160 -150.5t107.5 -223.5t38.5 -273t-38.5 -273.5t-105 -223.5t-157 -152.5t-194.5 -61.5h-535zM195 139h96q49 0 96 2q51 0 102.5 1t100.5 1q74 2 139.5 47.5t114.5 122t76.5 179t27.5 219.5t-27.5 219t-76.5 179t-115.5 121t-142.5 46h-391 v-1137z" />
<glyph unicode="E" horiz-adv-x="993" d="M70 1415h837v-135h-700v-459h600v-139h-600v-543h700l2 -139h-837z" />
<glyph unicode="F" horiz-adv-x="997" d="M78 1415h837v-133h-700v-461h598v-139h-598v-328q0 -86 1 -178t1 -176h-137z" />
<glyph unicode="G" horiz-adv-x="1236" d="M35 700q0 150 51 281t139 229.5t206 155.5t251 57q129 0 248 -57t217 -160l-96 -96q-78 82 -173.5 127t-195.5 45q-104 0 -197.5 -45t-163 -124t-110.5 -184.5t-41 -228.5q0 -121 41 -227t110.5 -185t163 -125t197.5 -46q90 0 170 32.5t143 92.5v348h-374v135h514v-528 l-5 -19q-92 -92 -205.5 -144t-242.5 -52q-133 0 -251 56t-206 154.5t-139 229.5t-51 278z" />
<glyph unicode="H" horiz-adv-x="1142" d="M80 1415h139v-594h694v594h136l2 -1415h-136l-2 682h-694v-328q0 -86 1 -178t1 -176h-139z" />
<glyph unicode="I" horiz-adv-x="282" d="M72 1415h139l2 -1415h-139z" />
<glyph unicode="J" horiz-adv-x="624" d="M33 92l92 96q27 -29 53.5 -48t52.5 -19q57 0 100.5 65.5t43.5 167.5v1061h137v-1057q0 -78 -22.5 -145.5t-60.5 -119.5t-89 -81.5t-109 -29.5q-53 0 -104 31.5t-94 78.5z" />
<glyph unicode="K" horiz-adv-x="1193" d="M70 1415h139v-692l297 346l297 346h182l-528 -618l230 -271l239 -276l105 -127l106 -123h-176l-599 690l-26 -34l-29 -33l-47 -56q-23 -27 -51 -57v-246q0 -63 1 -134t1 -130h-139z" />
<glyph unicode="L" horiz-adv-x="927" d="M70 1415h135v-1276h665l2 -139h-800z" />
<glyph unicode="M" horiz-adv-x="1275" d="M51 1415h125l436 -731l426 731h129v-1415h-139l-2 1124l-189 -321l-184 -322h-86l-379 641q0 -129 1 -264t1 -266v-592h-137z" />
<glyph unicode="N" horiz-adv-x="1099" d="M76 1415h125l659 -1116v1116h139l2 -1415h-127l-661 1122q0 -129 1 -263t1 -265v-594h-137z" />
<glyph unicode="O" horiz-adv-x="1413" d="M43 707q0 150 51 279.5t138 227t205 153.5t253 56q137 0 255 -56t204 -152.5t135 -227.5t49 -280q0 -160 -51 -294t-145 -233q-88 -96 -202 -147t-245 -51t-247.5 55t-206 152.5t-141.5 230.5t-52 287zM184 707q0 -123 39 -229.5t107.5 -185.5t161 -124t198.5 -45 q109 0 202 45t161.5 124t107.5 185.5t39 229.5q0 127 -43 236.5t-121 186.5q-66 74 -155.5 113t-190.5 39q-106 0 -198.5 -45t-161 -123t-107.5 -182t-39 -225z" />
<glyph unicode="P" horiz-adv-x="983" d="M88 1415h418q86 0 160.5 -28.5t130 -77.5t87 -115t31.5 -139q0 -78 -31.5 -146.5t-87 -120t-130 -80t-160.5 -28.5h-283v-326q0 -86 1 -178t1 -176h-135zM223 819h283q55 0 104 17.5t87 49.5t59.5 75t21.5 94q0 45 -21.5 86t-59.5 71.5t-88 49t-107 18.5h-279v-461z" />
<glyph unicode="Q" horiz-adv-x="1361" d="M59 754q0 143 48.5 265t130 212t190.5 141t229 51q123 0 231.5 -51t191.5 -142t131.5 -213t48.5 -263q0 -145 -52.5 -270.5t-138.5 -215.5q-61 -68 -138 -110.5t-167 -63.5q10 -41 24.5 -67.5t32.5 -26.5q16 0 29.5 18.5t26.5 42.5l102 -88q-39 -47 -76 -76.5t-82 -29.5 q-33 0 -63.5 17.5t-55 47t-43 69.5t-26.5 83q-117 8 -221.5 62.5t-182 143.5t-124 208t-46.5 256zM188 754q0 -106 32 -200.5t89.5 -166.5t133 -118t165.5 -56q-25 27 -69 27h-7v125h8q75 0 132 -40q59 -42 82 -102q80 20 147.5 68.5t116.5 118t77.5 157.5t28.5 187 q0 117 -40 219t-111 178q-63 68 -142 106.5t-174 38.5q-96 0 -181 -42t-149.5 -115.5t-101.5 -172.5t-37 -212z" />
<glyph unicode="R" horiz-adv-x="970" d="M68 1415h417q86 0 161 -27.5t131.5 -76.5t89 -116t32.5 -142q0 -78 -32.5 -144.5t-89 -118t-131.5 -80t-161 -28.5h-135l114 -128l118 -130l187 -215l183 -209h-178l-567 639v-639h-137zM207 821h278q55 0 105.5 17.5t87.5 49.5t59.5 74t22.5 91q0 45 -22.5 87 t-60.5 73.5t-88 50t-108 18.5h-274v-461z" />
<glyph unicode="S" horiz-adv-x="993" d="M63 199l111 90q51 -78 128 -123t173 -45q57 0 109.5 18.5t92.5 50t63.5 75.5t23.5 95q0 47 -22.5 91.5t-60.5 81t-89 62.5t-107 36q-86 12 -161.5 48t-132 89t-89 121.5t-32.5 142.5q0 84 34.5 154.5t95 123t141.5 82t173 29.5q123 0 219 -46t174 -132l-110 -90 q-53 63 -125 99t-158 36q-59 0 -113.5 -19.5t-96.5 -53t-67.5 -78.5t-25.5 -97q0 -51 21.5 -98t60.5 -85t92 -61.5t115 -29.5q86 -10 160.5 -47t129 -90.5t85 -121t30.5 -140.5q0 -80 -33.5 -151t-93 -123t-138.5 -81.5t-169 -29.5q-131 0 -236.5 59.5t-171.5 157.5z" />
<glyph unicode="T" horiz-adv-x="1177" d="M66 1280v135h1026v-135h-443v-625q0 -162 1 -328.5t1 -326.5h-137l-2 1280h-446z" />
<glyph unicode="U" horiz-adv-x="1224" d="M68 367v1048h145v-1046q8 -47 42 -91.5t86 -79t119.5 -55t143.5 -20.5q72 0 137.5 20.5t116.5 55t85 79t42 91.5v1046h139v-1048q-4 -80 -47 -150t-113.5 -122t-163.5 -82.5t-196 -30.5q-109 0 -204 30.5t-167.5 82.5t-115.5 122t-49 150z" />
<glyph unicode="V" horiz-adv-x="1308" d="M59 1415h144l440 -1179l92 246l92 249l128 345l126 339h146l-520 -1415h-127z" />
<glyph unicode="W" horiz-adv-x="1873" d="M70 1415h145l440 -1184l42 116l42 116l97 266l-60 165l-61 167l-65 179l-62 175h143l207 -559l57 -155l58 -150l30 -82l28 -76l28 -77q14 -40 32 -85l83 229l85 230l135 365l134 360h147l-518 -1415h-129l-197 520l-47 -130l-49 -130l-47 -131l-47 -129h-127z" />
<glyph unicode="X" horiz-adv-x="1107" d="M39 0l420 723l-404 692h158l336 -563l80 134l80 134l89 148l87 147h157l-411 -706l98 -169l100 -173l110 -185l105 -182h-157l-350 586l-93 -162l-96 -164l-77 -130l-74 -130h-158z" />
<glyph unicode="Y" horiz-adv-x="1394" d="M27 1415h182l471 -645l62 87l63 87l175 237l175 234h180l-583 -782v-307q0 -80 1 -165t1 -161h-142l-2 633l-82 108l-84 115l-103 139l-110 147l-107 143z" />
<glyph unicode="Z" horiz-adv-x="1122" d="M27 0l796 1276h-714v139h962l-792 -1276h700l2 -139h-954z" />
<glyph unicode="[" horiz-adv-x="430" d="M59 647v135h68q23 0 40 18.5t17 41.5v450q8 47 58.5 75t113.5 28v-140q-14 0 -23 -3t-11 1v-440q-10 -33 -30 -54.5t-54 -27.5v-31q29 -8 51 -28.5t33 -48.5v-488h34l2 -135q-27 0 -57.5 8t-56 23.5t-43 38t-17.5 49.5v469q0 27 -17 43t-40 16h-68z" />
<glyph unicode="\" horiz-adv-x="759" d="M57 1395h146l512 -1395h-148z" />
<glyph unicode="]" horiz-adv-x="374" d="M33 135q31 0 37 2v484q16 70 77 79q0 6 1.5 14.5t3.5 18.5q-31 10 -53.5 30.5t-28.5 49.5v442h-37v140q72 0 117 -30t53 -73l4 -12v-438q0 -23 14.5 -41.5t38.5 -18.5h68v-135h-68q-25 0 -39 -16.5t-14 -42.5v-469q0 -27 -16.5 -48.5t-41 -37t-55.5 -24.5t-59 -9z" />
<glyph unicode="^" horiz-adv-x="1128" d="M35 897l516 510l510 -512l-98 -98l-412 415l-100 -98l-101 -100l-110 -110l-109 -107z" />
<glyph unicode="_" horiz-adv-x="1050" d="M66 135h870l2 -135h-870z" />
<glyph unicode="`" horiz-adv-x="417" d="M-14 1294h223l166 -223h-103z" />
<glyph unicode="a" horiz-adv-x="835" d="M39 301q0 68 26.5 126t72.5 102t107.5 70t131.5 26h207v32q0 98 -48.5 169t-125.5 75q-41 0 -68 -5t-55 -15q-4 -2 -8.5 -2t-8.5 -2t-11 -3.5t-15 -5.5t-25 -4l-33 123q4 2 14.5 6t14.5 6q47 16 88 26.5t109 10.5q63 -2 117.5 -30.5t96.5 -77.5t66.5 -112.5t28.5 -135.5 v-23q-2 -178 -2 -321q0 -61 -1 -119.5t-1 -105.5v-78v-33h-133v49q-47 -33 -97.5 -50t-109.5 -17q-70 0 -131.5 25.5t-107.5 68.5t-72.5 101t-26.5 124zM174 301q0 -39 16.5 -71.5t44 -57.5t64.5 -39t78 -14q43 0 81 14t65.5 39t44 58.5t16.5 72.5v182l-209 2q-41 0 -77 -15 t-63.5 -40.5t-44 -59.5t-16.5 -71z" />
<glyph unicode="b" horiz-adv-x="1071" d="M104 0v1395h138v-410q104 51 260 51q102 0 191 -42t155.5 -114.5t105.5 -168t39 -201.5q0 -109 -39 -204t-105.5 -166.5t-155.5 -114.5t-191 -45q-78 4 -143.5 17t-118.5 40v-37h-136zM238 178q25 -12 96.5 -34.5t167.5 -26.5q72 2 136 33.5t113.5 85t78 124t28.5 150.5 q0 78 -28.5 148.5t-78 124t-114 85t-135.5 31.5q-41 0 -86 -10t-86 -23q-47 -14 -92 -30v-658z" />
<glyph unicode="c" horiz-adv-x="978" d="M31 508q0 109 39 205t105.5 167.5t155.5 113.5t189 42q106 0 202.5 -50t170.5 -130l-98 -98q-55 63 -126 102t-149 39q-74 0 -138.5 -30.5t-112.5 -84t-75.5 -124t-27.5 -152.5q0 -80 27.5 -150.5t75.5 -124t112.5 -84t138.5 -30.5q72 0 140.5 35.5t125.5 101.5l103 -96 q-78 -82 -171 -130t-198 -48q-100 0 -189 42t-155.5 113.5t-105.5 166.5t-39 204z" />
<glyph unicode="d" horiz-adv-x="1030" d="M25 512q0 109 38.5 203t105.5 164.5t157 112.5t192 42q82 0 144.5 -11t117.5 -42v414h138v-1395h-138v37q-53 -25 -120.5 -39t-141.5 -18q-102 2 -192 45t-157 114.5t-105.5 167.5t-38.5 205zM158 512q0 -80 28.5 -150.5t77.5 -125t115.5 -87t142.5 -34.5q47 0 94.5 10 t83.5 22q43 14 80 35v654q-35 16 -108.5 38.5t-153.5 22.5q-74 -2 -139.5 -34t-114.5 -84t-77.5 -120.5t-28.5 -146.5z" />
<glyph unicode="e" horiz-adv-x="933" d="M41 475v35q0 109 32.5 205t89 167.5t131.5 113.5t161 42t160.5 -35.5t130 -101t86 -157t30.5 -201.5v-76h-680q8 -72 35 -134.5t67 -110.5t90 -75.5t107 -27.5q37 0 79 9t82 22.5t75 32t61 36.5l56 -129q-59 -43 -143.5 -69.5t-160.5 -36.5q-10 -2 -27 -2h-26 q-86 0 -162.5 37.5t-135 104t-95.5 157t-43 194.5zM184 602h543q-12 63 -37.5 117.5t-61.5 94.5t-80 62.5t-93 22.5q-100 0 -176.5 -81t-94.5 -216z" />
<glyph unicode="f" horiz-adv-x="671" d="M55 864v137h144v48q2 72 28.5 136t68.5 112.5t96 77t114 28.5q29 0 56.5 -1t74.5 -7l-41 -140q-39 10 -58.5 11.5t-31.5 1.5q-72 -4 -123 -73t-51 -169v-25h254v-137h-254l2 -864h-133v864h-146z" />
<glyph unicode="g" horiz-adv-x="1128" d="M53 -49q0 86 53.5 160.5t139.5 117.5q-6 18 -8 38t-2 42q0 27 7 52.5t17 44.5q-129 102 -129 268q0 74 33 140.5t88 115.5t131 77.5t162 28.5q49 0 84 -6t67 -16h391l-129 -135h-69q31 -41 50 -94.5t19 -110.5q0 -76 -32.5 -141.5t-89 -113.5t-131 -76t-160.5 -28 q-33 0 -56.5 4.5l-44.5 8.5q-18 4 -32.5 6t-24.5 2q-14 0 -26.5 -5t-12.5 -18q0 -25 13.5 -31t29.5 -6h9q5 0 16 3q10 2 23.5 3t29.5 1q86 0 163 -26t133 -71t89 -105.5t33 -129.5q0 -70 -33 -132.5t-89 -108.5t-133 -72.5t-163 -26.5q-84 0 -160 26.5t-133 72.5t-90 108.5 t-33 132.5zM186 -49q0 -41 23.5 -79t62.5 -66.5t90.5 -45t106.5 -16.5q59 0 111.5 16.5t91.5 45t61.5 66.5t22.5 79q0 39 -22.5 77t-61.5 65.5t-91.5 45t-111.5 17.5q-55 0 -106.5 -17.5t-90.5 -45t-62.5 -65.5t-23.5 -77zM266 674q0 -47 22.5 -88t60.5 -72t88 -49.5 t108 -18.5q59 0 110.5 18.5t90 49.5t60 72t21.5 88q0 49 -21.5 91t-60 72.5t-90 48t-110.5 17.5q-57 0 -107.5 -17.5t-88.5 -48t-60.5 -72.5t-22.5 -91z" />
<glyph unicode="h" horiz-adv-x="931" d="M74 1399h135v-461q49 51 107.5 75.5t136.5 24.5q74 0 137 -29.5t110.5 -82t75 -121t29.5 -148.5l6 -651h-135v651q-2 51 -21.5 96.5t-51.5 78t-74 52t-89 19.5q-41 0 -77.5 -19.5t-67.5 -50t-53.5 -70.5t-32.5 -81q0 -66 1 -154t1 -182v-346h-135z" />
<glyph unicode="i" horiz-adv-x="348" d="M84 1286q0 35 24.5 57.5t59.5 22.5q33 0 58.5 -22.5t25.5 -57.5q0 -31 -25.5 -55.5t-58.5 -24.5q-35 0 -59.5 24.5t-24.5 55.5zM100 1024h133l3 -1024h-134z" />
<glyph unicode="j" horiz-adv-x="724" d="M78 -377l16 135q27 -4 49 -6q18 -2 36 -3t22 -1q37 2 69.5 21.5t56 52.5t37 75t13.5 89v1040h135v-1059q-4 -72 -29.5 -135t-66.5 -110.5t-96.5 -76t-118.5 -30.5q-16 0 -35 1t-39 3q-6 2 -14 3t-35 1zM360 1278q0 35 24 56.5t58 21.5q29 0 53.5 -21.5t24.5 -56.5 t-24.5 -57.5t-53.5 -22.5q-35 0 -58.5 22.5t-23.5 57.5z" />
<glyph unicode="k" horiz-adv-x="901" d="M104 0v1395h136v-664l72 61l73 60l201 172h209l-351 -289l100 -177l105 -177l111 -195l108 -186h-157l-365 641l-52 -43l-54 -43v-268q0 -72 1 -146.5t1 -140.5h-138z" />
<glyph unicode="l" horiz-adv-x="331" d="M104 1538h136l2 -1538h-136z" />
<glyph unicode="m" horiz-adv-x="1513" d="M72 903v121h137v-90q49 53 107.5 76.5t129.5 23.5q98 0 176 -49t126 -129q27 47 61.5 81t74.5 56.5t82 33.5t81 11q72 0 135 -29.5t110 -80.5t76 -121t31 -150l4 -653h-137v653q-2 49 -19.5 94.5t-48.5 78t-72 52t-88 19.5q-43 0 -80.5 -18.5t-68.5 -49t-52.5 -69.5 t-31.5 -80v-680h-135v649q-2 51 -20.5 96.5t-49.5 78t-73 51t-91 18.5q-41 0 -76.5 -18.5t-66.5 -49t-52.5 -69.5t-31.5 -80v-73q0 -42 1 -88t1 -93v-84v-342h-137z" />
<glyph unicode="n" horiz-adv-x="886" d="M59 1024h138v-86q98 102 241 102q72 0 135.5 -29.5t111.5 -81.5t77 -122t31 -150l6 -657h-135l-2 657q-2 51 -18.5 96.5t-45.5 78t-69 52t-85 19.5q-41 0 -80.5 -18.5t-73.5 -48t-58.5 -69.5t-34.5 -83v-73q0 -42 1 -88t1 -93v-84v-346h-138z" />
<glyph unicode="o" horiz-adv-x="1050" d="M29 506q0 111 37.5 207t103.5 167.5t154 113.5t188 42q98 0 185 -42t151.5 -113.5t102.5 -168t38 -206.5q0 -109 -38 -204t-102.5 -167t-151.5 -113.5t-185 -41.5q-100 0 -188 41.5t-154 113.5t-103.5 167t-37.5 204zM166 506q0 -80 26.5 -150.5t73.5 -124t110.5 -84 t135.5 -30.5q70 0 132.5 30.5t108.5 84t72.5 124t26.5 150.5q0 82 -26.5 153.5t-72.5 125t-108.5 84t-132.5 30.5q-72 0 -135.5 -30.5t-110.5 -84t-73.5 -125t-26.5 -153.5z" />
<glyph unicode="p" horiz-adv-x="1036" d="M72 -379v1403h131v-45q53 23 121.5 40t138.5 17q102 -2 191 -45t156 -113.5t105.5 -165t38.5 -200.5q0 -111 -38.5 -207t-105.5 -167.5t-156 -113.5t-191 -42q-74 0 -140.5 14t-117.5 41v-416h-133zM203 180q31 -14 104.5 -36.5t155.5 -26.5q74 2 139.5 33.5t113.5 85 t75.5 125t27.5 151.5t-27.5 149.5t-75.5 122t-113.5 83t-139.5 30.5q-41 0 -87 -11.5t-85 -23.5q-45 -14 -88 -33v-649z" />
<glyph unicode="q" horiz-adv-x="1054" d="M31 510q0 109 39 204t106.5 166.5t156.5 113.5t189 42q162 0 266 -51v39h136v-1403h-136v420q-109 -57 -266 -57q-100 2 -189 45t-156.5 113.5t-106.5 166t-39 201.5zM164 510q0 -80 28.5 -150.5t77.5 -123t114 -83t138 -32.5q39 0 85 9t87 22q47 12 94 30v654 q-12 6 -37.5 17t-60.5 21.5t-78 18.5t-90 8q-74 0 -138.5 -30.5t-113.5 -84t-77.5 -125t-28.5 -151.5z" />
<glyph unicode="r" horiz-adv-x="585" d="M68 1024h137v-90q98 102 239 102q6 0 20.5 -1t31.5 -4l32 -6q16 -3 29 -7l-18 -144q-72 23 -88 23q-41 0 -81 -20.5t-73 -53t-57.5 -70.5t-34.5 -75q0 -66 1 -154t1 -182v-342h-137z" />
<glyph unicode="s" horiz-adv-x="854" d="M76 143l104 78q43 -43 106.5 -72.5t129.5 -29.5q90 0 151.5 41t61.5 106q0 29 -18.5 57.5t-48.5 53t-68.5 45t-79.5 31.5q-68 10 -127.5 40.5t-104.5 72.5t-71.5 92.5t-26.5 103.5q0 61 28.5 111.5t76 86t110.5 55t135 19.5q98 0 189.5 -42t154.5 -109l-110 -80 q-47 45 -111.5 69.5t-130.5 24.5q-86 0 -145.5 -38t-59.5 -99q0 -59 61.5 -111.5t155.5 -66.5q68 -12 128.5 -42t104.5 -72t69.5 -94t25.5 -108q0 -61 -27.5 -113.5t-74 -90t-109.5 -58t-133 -20.5q-92 0 -187.5 40.5t-158.5 118.5z" />
<glyph unicode="t" horiz-adv-x="696" d="M80 872v138h143v385h137v-385h263v-138h-263l2 -872h-133q-2 168 -2 326v546h-147z" />
<glyph unicode="u" horiz-adv-x="921" d="M76 1024h133l4 -657q2 -49 19.5 -94.5t46 -79t68.5 -53t87 -19.5q43 0 82 18.5t70.5 49t54.5 70.5t33 81v684h135v-1024h-133l-2 84q-47 -47 -108.5 -74.5t-133.5 -27.5q-74 0 -136.5 29.5t-109.5 81.5t-74.5 123t-29.5 151z" />
<glyph unicode="v" horiz-adv-x="1024" d="M20 1024h142l332 -809l118 292l119 292l47 113l45 112h148l-416 -1024h-121z" />
<glyph unicode="w" horiz-adv-x="1443" d="M16 1024h144l327 -805l27 60q14 31 25 59l39 93l36 93l-53 134l-55 137l-48 117l-44 112h153l326 -807l163 405l163 402h147l-416 -1024l-127 6l-131 328q-27 -68 -57 -136l-60 -137l-13 -30l-13 -31l-119 6z" />
<glyph unicode="x" horiz-adv-x="909" d="M25 0l319 530l-311 494h168l233 -373q37 63 76 122l80 122q23 31 43 65.5t41 63.5h168l-318 -508l60 -98l61 -101l100 -161l97 -156h-164l-250 393l-121 -197l-119 -196h-163z" />
<glyph unicode="y" horiz-adv-x="980" d="M39 -373l20 133q55 -16 91 -16q80 0 149.5 83t128.5 273l-95 226l-95 227l-99 243l-98 240h141l312 -770l58 155l60 154l93 232l92 229h147l-387 -950l2 2q-10 -29 -22.5 -57.5t-22.5 -57.5l-41 -112q-23 -59 -58.5 -105.5t-79.5 -79t-95.5 -49t-100.5 -16.5 q-45 0 -100 16z" />
<glyph unicode="z" horiz-adv-x="925" d="M72 123l575 764h-569v137h762v-123l-576 -764h576l2 -137h-768z" />
<glyph unicode="{" horiz-adv-x="456" d="M59 647v135h68q23 0 40 18.5t17 41.5v450q8 47 58.5 75t113.5 28v-140q-14 0 -23 -3t-11 1v-440q-10 -33 -30 -54.5t-54 -27.5v-31q29 -8 51 -28.5t33 -48.5v-488h34l2 -135q-27 0 -57.5 8t-56 23.5t-43 38t-17.5 49.5v469q0 27 -17 43t-40 16h-68z" />
<glyph unicode="|" horiz-adv-x="268" d="M86 2v1442h104v-1442h-104z" />
<glyph unicode="}" horiz-adv-x="385" d="M33 135q31 0 37 2v484q16 70 77 79q0 6 1.5 14.5t3.5 18.5q-31 10 -53.5 30.5t-28.5 49.5v442h-37v140q72 0 117 -30t53 -73l4 -12v-438q0 -23 14.5 -41.5t38.5 -18.5h68v-135h-68q-25 0 -39 -16.5t-14 -42.5v-469q0 -27 -16.5 -48.5t-41 -37t-55.5 -24.5t-59 -9z" />
<glyph unicode="~" horiz-adv-x="710" d="M111 596l30 170q68 -84 121 -84q10 0 22 4l23 8h-2q29 16 61.5 25.5t63.5 9.5q76 0 154 -53l-33 -182q-35 47 -65.5 72.5t-53.5 25.5q-10 0 -24.5 -5t-24.5 -9h2q-23 -16 -56.5 -26.5t-64.5 -10.5q-37 0 -75.5 13t-77.5 42z" />
<glyph unicode="&#xa1;" horiz-adv-x="327" d="M88 1327v2q0 29 19.5 51.5t52.5 22.5q29 0 51 -22.5t22 -51.5q0 -33 -22.5 -53.5t-50.5 -20.5q-35 0 -52.5 20.5t-19.5 51.5zM98 1196h123l2 -1196h-123z" />
<glyph unicode="&#xa2;" horiz-adv-x="978" d="M31 508q0 98 32.5 186t89 158t133 116t165.5 60v135h145v-135q86 -12 159.5 -58t137.5 -114l-98 -98q-41 47 -92.5 84t-106.5 49v-766q51 12 100 47t95 84l98 -96q-66 -68 -138.5 -113t-154.5 -59v-133h-145v135q-88 14 -165 60t-133.5 116t-89 157t-32.5 185zM166 508 q0 -70 21.5 -133.5t59.5 -114.5t90 -87t114 -48v766q-61 -12 -113.5 -48t-90.5 -86t-59.5 -114.5t-21.5 -134.5z" />
<glyph unicode="&#xa3;" horiz-adv-x="1138" d="M35 584v135h233v676h135v-676h355v-135h-355v-449h654l2 -135h-789l-2 584h-233z" />
<glyph unicode="&#xa4;" horiz-adv-x="1705" />
<glyph unicode="&#xa5;" horiz-adv-x="1394" d="M31 1395h182l459 -635l235 318l236 317h180l-578 -772v-37h285v-140h-285v-108h285v-139h-285v-21q0 -4 1.5 -18.5t1.5 -48.5v-111h-140l-2 199h-282v139h282v108h-282v140h282v37l-181 243l-189 254l-105 141z" />
<glyph unicode="&#xa6;" horiz-adv-x="268" d="M86 2v719h104v-719h-104zM86 795v649h104v-649h-104z" />
<glyph unicode="&#xa7;" horiz-adv-x="780" d="M100 885q0 119 78 202v29q0 74 27.5 131.5t74 97t108 60t128.5 20.5q53 0 121 -19.5t154 -59.5l-91 -199q-123 61 -190 61q-23 0 -44.5 -5t-37.5 -13h6q53 0 124 -20.5t153 -57.5l-84 -201q-51 25 -91 39.5t-73 18.5q27 -25 69 -47q59 -29 107.5 -72t83.5 -93 t53.5 -106.5t18.5 -111.5q0 -59 -21.5 -111.5t-56.5 -95.5v-25q0 -78 -29 -138t-77 -101t-109.5 -62.5t-124.5 -21.5q-55 0 -125 20.5t-150 63.5l93 186q59 -29 103 -42t77 -13q55 0 90 20h-10q-53 0 -122 19.5t-149 64.5l86 186q55 -27 102.5 -41t82.5 -14q-16 16 -38 32.5 t-48 31.5q-59 31 -109.5 74.5t-85.5 95t-54.5 107t-19.5 110.5zM129 885q0 -49 17.5 -101.5t50 -99.5t80 -88t104.5 -70v2q88 -45 135 -118q-14 -4 -29.5 -6.5t-29.5 -2.5q-35 0 -80 13.5t-94 36.5l-62 -136q61 -35 120.5 -50t113.5 -15q23 0 42 1t40 7q-16 -47 -60.5 -69.5 t-101.5 -22.5q-74 0 -168 47l-64 -129q131 -70 234 -70q59 0 115.5 19.5t99.5 57.5t69.5 92.5t26.5 123.5v17q0 8 -2 18q33 39 56.5 91t23.5 106q0 104 -67.5 200.5t-178.5 153.5q-41 23 -72.5 51.5t-54.5 59.5q10 2 37 2q78 0 180 -52l62 142q-63 29 -124 45t-114 16 q-41 0 -78 -6q12 43 55.5 66.5t98.5 23.5q72 0 178 -51l62 141q-66 33 -124.5 47.5t-109.5 14.5q-61 0 -117.5 -18.5t-98.5 -54.5t-66.5 -87t-24.5 -117v-19q0 -9 2 -22q-82 -71 -82 -190zM158 885q0 111 86 178q-6 27 -6 53q0 57 22.5 103.5t60 78t88 48t107.5 16.5 q94 0 195 -47l-37 -84q-41 23 -84 32t-80 9q-78 0 -133 -40t-55 -118v-6q51 18 112 18q98 0 199 -47l-35 -84q-82 41 -168 41q-47 0 -84 -14q23 -43 63 -86t99 -72q106 -53 167.5 -140t61.5 -185q0 -53 -23.5 -101.5t-58.5 -83.5q2 -12 3 -24.5t1 -22.5q0 -61 -23.5 -110.5 t-63.5 -82t-91 -50t-104 -17.5q-96 0 -195 49l37 76q41 -20 79 -28.5t77 -8.5q82 0 141 43t59 129q-29 -16 -59.5 -20t-60.5 -4q-49 0 -98.5 11t-96.5 36l37 80q84 -39 160 -39q57 0 100 20q-23 49 -63.5 93t-100.5 73q-53 25 -97 62.5t-75 80.5t-47 90.5t-16 94.5zM246 877 q0 -66 49 -134.5t135 -111.5q66 -31 115 -80t76 -102q6 6 14 22q10 16 13 34.5t3 37.5q0 70 -48 139.5t-134 112.5q-66 29 -114 76t-76 100q-16 -16 -24.5 -42.5t-8.5 -51.5zM274 877q0 8 2.5 17t4.5 17q63 -94 178 -147l-2 2q78 -39 122 -100.5t44 -122.5q0 -10 -1 -17.5 t-4 -15.5q-63 94 -176 152v-3q-78 39 -123 99t-45 119zM315 819q16 -35 51 -69.5t89 -61.5h-2q37 -16 68.5 -38.5t58.5 -47.5q-16 37 -50 73t-86 60l2 -2q-39 16 -70.5 38.5t-60.5 47.5z" />
<glyph unicode="&#xa8;" horiz-adv-x="538" d="M53 1286q0 35 24.5 57.5t59.5 22.5q33 0 58.5 -22.5t25.5 -57.5q0 -31 -25.5 -55.5t-58.5 -24.5q-35 0 -59.5 24.5t-24.5 55.5zM313 1286q0 35 23.5 57.5t58.5 22.5t59.5 -22.5t24.5 -57.5q0 -31 -24.5 -55.5t-59.5 -24.5t-58.5 24.5t-23.5 55.5z" />
<glyph unicode="&#xa9;" horiz-adv-x="1705" />
<glyph unicode="&#xaa;" horiz-adv-x="366" d="M27 756q0 57 43 96t108 39h37q-4 16 -12 28.5t-19 12.5q-23 0 -46 -5t-66 -18l-17 107q35 10 65 15t64 5q53 0 92 -45t43 -117q0 -8 -1 -45.5t-2 -82t-1 -80.5v-45l-82 2q-31 -10 -59 -11q-63 0 -105 42.5t-42 101.5zM106 758q0 -23 16.5 -42.5t39.5 -19.5t39 19.5 t16 42.5v51h-55q-23 0 -39.5 -17.5t-16.5 -33.5z" />
<glyph unicode="&#xab;" horiz-adv-x="1089" d="M35 569l553 469l88 -104l-455 -383l87 -105l91 -106l100 -119l99 -115l-98 -90zM365 569l550 469l91 -104l-457 -383l36 -40l36 -40l154 -184l151 -181l-99 -90z" />
<glyph unicode="&#xac;" horiz-adv-x="1355" d="M72 670v135h1177v-488h-135v353h-1042z" />
<glyph unicode="&#xad;" horiz-adv-x="862" d="M63 530v136h723v-136h-723z" />
<glyph unicode="&#xae;" horiz-adv-x="1705" />
<glyph unicode="&#xb0;" horiz-adv-x="512" d="M29 1184q0 94 63.5 156.5t159.5 62.5q90 0 150.5 -62.5t60.5 -156.5q0 -90 -60.5 -151.5t-150.5 -61.5q-96 0 -159.5 61.5t-63.5 151.5zM139 1184q0 -41 35 -75t78 -34q39 0 70.5 34t31.5 75q0 43 -31.5 78.5t-70.5 35.5q-43 0 -78 -35.5t-35 -78.5z" />
<glyph unicode="&#xb1;" horiz-adv-x="925" d="M90 299v135h723v-135h-723zM92 891v137h293v293h135v-293h295v-137h-295v-293h-135v293h-293z" />
<glyph unicode="&#xb2;" horiz-adv-x="573" d="M31 1303q53 45 106 72.5t109 27.5q55 0 102 -20.5t82 -54.5t54.5 -81t19.5 -98q0 -47 -21.5 -97.5t-46.5 -80.5l-217 -244h285v-113h-461v97l309 346q18 16 28.5 42.5t10.5 49.5q0 27 -12 52.5t-32.5 44t-47.5 29.5t-53 11q-51 0 -129 -72z" />
<glyph unicode="&#xb3;" horiz-adv-x="542" d="M2 713l66 65h36q25 -25 58 -43t65 -18q49 0 90 33.5t41 83.5q0 47 -38.5 80.5t-86.5 39.5h-127v113h132q47 4 84.5 38t37.5 73t-40.5 70.5t-90.5 31.5q-70 0 -143 -76l-82 86q98 104 225 105q51 0 96.5 -17.5t79 -46t53 -68.5t19.5 -85q0 -57 -18.5 -99.5t-65.5 -72.5 q35 -33 56.5 -78t21.5 -94t-19.5 -90.5t-52 -72t-76.5 -48t-96 -17.5q-68 0 -123 29t-102 78z" />
<glyph unicode="&#xb4;" horiz-adv-x="428" d="M35 1071l168 223h217l-279 -223h-106z" />
<glyph unicode="&#xb5;" horiz-adv-x="1015" d="M152 -379v1403h137v-727q0 -14 20.5 -44t53 -58.5t75.5 -51t86 -22.5q47 0 87 19.5t70 53t46 78.5t18 95v157q0 80 3 164v76q0 45 1 93t1 92v75h135l-4 -657q-2 -80 -30 -151t-75 -123t-111.5 -81.5t-138.5 -29.5q-66 0 -128 27.5t-109 74.5l-2 -463h-135z" />
<glyph unicode="&#xb6;" horiz-adv-x="782" d="M39 1049q0 72 26.5 135t73.5 110t109.5 74t134.5 27h106v-1395h-135v702q-66 6 -123 37t-100 77t-67.5 106.5t-24.5 126.5zM172 1057q0 -84 44 -144.5t112 -68.5v426q-68 -10 -112 -70.5t-44 -142.5zM580 0v1393h133v-1393h-133z" />
<glyph unicode="&#xb7;" horiz-adv-x="460" d="M98 635q0 23 10.5 45t28 40.5t41 30t49.5 11.5q27 0 51.5 -11.5t43 -30t29.5 -41t11 -44.5q0 -47 -40.5 -84t-94.5 -37q-53 0 -91 37t-38 84z" />
<glyph unicode="&#xb9;" horiz-adv-x="538" d="M37 1165l274 230h119v-637h-137v446q-35 -31 -74 -59.5t-72 -57.5q4 2 -3 -5l-11 -11z" />
<glyph unicode="&#xba;" horiz-adv-x="475" d="M29 815q0 47 15 88t43 71t64.5 46t79.5 16q82 0 139.5 -62.5t57.5 -158.5q0 -90 -57.5 -150.5t-139.5 -60.5q-43 0 -79.5 16.5t-64.5 45t-43 66.5t-15 83zM133 815q0 -41 31 -74.5t67 -33.5q35 0 63 33.5t28 74.5q0 45 -28 81t-63 36q-37 0 -67.5 -36t-30.5 -81z" />
<glyph unicode="&#xbb;" horiz-adv-x="1073" d="M31 932l90 106l551 -469l-463 -553l-100 90l376 445l-145 123l-147 125h2l-83 67zM360 932l89 106l552 -469l-464 -553l-99 90l375 445l-144 123l-149 125h2l-82 67z" />
<glyph unicode="&#xbc;" horiz-adv-x="782" d="M37 907l153 129h76v-624h-96v487q-10 -8 -19.5 -16.5t-19.5 -16.5q-6 -4 -10 -7t-19 -17zM291 248v74l235 409l84 -41l-200 -348h125v147h96v-147h96v-94h-96v-111q0 -31 1 -69.5t1 -67.5h-96l-2 248h-244z" />
<glyph unicode="&#xbd;" horiz-adv-x="727" d="M12 909l154 129h76v-626h-97v489q-8 -8 -18 -16l-21 -17q-6 -4 -10 -7t-18 -17zM242 641q43 41 91 63.5t95 22.5q49 0 93 -18.5t76 -50t50.5 -74.5t18.5 -92q0 -45 -18.5 -85t-47.5 -75l-215 -238h281l2 -94h-420l-2 78l291 323q16 16 25 42t9 49q0 59 -42 99t-101 40 q-55 0 -119 -58z" />
<glyph unicode="&#xbe;" horiz-adv-x="937" d="M37 399l69 62q49 -66 125 -66q57 0 97.5 35t40.5 84q0 33 -20.5 57.5t-54.5 40t-78 19.5t-89 -4v100h119q53 4 89 32.5t36 74.5q0 47 -40 78.5t-95 31.5q-72 0 -132 -65l-67 67q41 43 92 67.5t107 24.5q47 0 90 -16t74.5 -44t50 -64.5t18.5 -79.5q0 -49 -23.5 -89 t-62.5 -65q39 -29 60.5 -72t21.5 -94q0 -45 -18.5 -84t-50 -68.5t-73.5 -46t-92 -16.5q-55 0 -105 26.5t-89 73.5zM438 250v76l240 409l84 -41l-199 -348h121v148h96v-148h97v-96h-97v-246h-96v246h-246z" />
<glyph unicode="&#xbf;" horiz-adv-x="884" d="M76 375q0 80 29.5 150.5t81 125t120 86t144.5 31.5h71l-46 154l-48 161l-48 161l-44 151h145l189 -645v-121h-219q-49 -2 -93.5 -21.5t-77 -53.5t-52 -80t-19.5 -99q0 -51 20.5 -97.5t54 -82t80 -56t97.5 -20.5q66 0 126 43t107 112l97 -98q-57 -88 -142.5 -142 t-187.5 -54q-80 0 -149.5 31.5t-122 85t-83 126t-30.5 152.5zM289 1550q0 37 22.5 60.5t59.5 23.5q31 0 54.5 -23.5t23.5 -60.5q0 -35 -24 -58.5t-54 -23.5q-37 0 -59.5 23.5t-22.5 58.5z" />
<glyph unicode="&#xc0;" d="M37 0l518 1415h109l522 -1415h-144l-213 563h-438l-104 -281l-107 -282h-143zM440 702h338q-20 59 -41 113l-41 107v-2l-22 60l-21 54l-20 56.5t-25 66.5l-33 -90l-32 -88q-29 -72 -51 -135zM312 1685h223l166 -223h-103z" />
<glyph unicode="&#xc1;" d="M37 0l518 1415h109l522 -1415h-144l-213 563h-438l-104 -281l-107 -282h-143zM440 702h338q-20 59 -41 113l-41 107v-2l-22 60l-21 54l-20 56.5t-25 66.5l-33 -90l-32 -88q-29 -72 -51 -135zM539 1462l168 223h217l-279 -223h-106z" />
<glyph unicode="&#xc2;" d="M37 0l518 1415h109l522 -1415h-144l-213 563h-438l-104 -281l-107 -282h-143zM440 702h338q-20 59 -41 113l-41 107v-2l-22 60l-21 54l-20 56.5t-25 66.5l-33 -90l-32 -88q-29 -72 -51 -135z" />
<glyph unicode="&#xc3;" d="M49 29l518 1415h109l522 -1415h-143l-213 563h-439l-104 -282l-106 -281h-144zM344 1544l33 172q35 -41 66.5 -63.5t54.5 -22.5q12 0 25 5l24 10h-2q25 16 58.5 24t64.5 8q37 0 77.5 -12t81.5 -41l-36 -186q-33 49 -65 74.5t-56 25.5q-10 0 -23.5 -4t-23.5 -8h2 q-55 -39 -125 -39q-35 0 -75 14t-81 43zM453 731h338q-20 59 -41 113l-41 106v-2l-23 61l-20 54l-20.5 56.5l-24.5 66.5l-33 -90l-33 -88q-29 -72 -51 -136z" />
<glyph unicode="&#xc4;" d="M37 0l518 1415h109l522 -1415h-144l-213 563h-438l-104 -281l-107 -282h-143zM440 702h338q-20 59 -41 113l-41 107v-2l-22 60l-21 54l-20 56.5t-25 66.5l-33 -90l-32 -88q-29 -72 -51 -135zM385 1517q0 35 24.5 57.5t59.5 22.5q33 0 58.5 -22.5t25.5 -57.5 q0 -31 -25.5 -55.5t-58.5 -24.5q-35 0 -59.5 24.5t-24.5 55.5zM645 1517q0 35 23.5 57.5t58.5 22.5t59.5 -22.5t24.5 -57.5q0 -31 -24.5 -55.5t-59.5 -24.5t-58.5 24.5t-23.5 55.5z" />
<glyph unicode="&#xc5;" d="M37 0l518 1415h109l522 -1415h-144l-213 563h-438l-104 -281l-107 -282h-143zM440 702h338q-20 59 -41 113l-41 107v-2l-22 60l-21 54l-20 56.5t-25 66.5l-33 -90l-32 -88q-29 -72 -51 -135z" />
<glyph unicode="&#xc6;" horiz-adv-x="2213" d="M41 0l520 1415h1317v-135h-702v-459h600v-139h-600v-543h702l2 -139h-840l-2 563h-641l-49 -136l-51 -138v2l-56 -148l-53 -143h-147zM446 702h592l17 578h-402l-52 -146l-54 -147l-49 -141z" />
<glyph unicode="&#xc7;" horiz-adv-x="1298" d="M88 700q0 154 51 286t139.5 229.5t206 152.5t252.5 55q129 0 248 -57t213 -162l-98 -92q-78 84 -171 130t-192 46q-106 0 -199.5 -47t-163 -127t-109.5 -187.5t-40 -226.5q0 -117 40 -222t108.5 -186t162 -128t201.5 -47q98 0 189.5 46t169.5 126l98 -94 q-96 -104 -215 -155.5t-250 -53.5q-2 -4 2 -2t2 -2q31 -16 62.5 -50t31.5 -77q0 -33 -28.5 -71t-100.5 -77l-145 109q12 0 36.5 2t51.5 7t46.5 13t19.5 21q0 20 -28 26t-44 6h-45l2 107q-106 27 -198.5 91.5t-160 156.5t-106.5 207.5t-39 246.5z" />
<glyph unicode="&#xc8;" horiz-adv-x="993" d="M70 1415h837v-135h-700v-459h600v-139h-600v-543h700l2 -139h-837zM170 1685h223l166 -223h-103z" />
<glyph unicode="&#xc9;" horiz-adv-x="993" d="M70 1415h837v-135h-700v-459h600v-139h-600v-543h700l2 -139h-837zM369 1462l168 223h217l-279 -223h-106z" />
<glyph unicode="&#xca;" horiz-adv-x="993" d="M70 1415h837v-135h-700v-459h600v-139h-600v-543h700l2 -139h-837zM242 1519l245 244l250 -246l-90 -88l-160 162l-161 -162z" />
<glyph unicode="&#xcb;" horiz-adv-x="993" d="M70 1415h837v-135h-700v-459h600v-139h-600v-543h700l2 -139h-837zM270 1519q0 35 24.5 57.5t59.5 22.5q33 0 58.5 -22.5t25.5 -57.5q0 -31 -25.5 -55.5t-58.5 -24.5q-35 0 -59.5 24.5t-24.5 55.5zM530 1519q0 35 23.5 57.5t58.5 22.5t59.5 -22.5t24.5 -57.5 q0 -31 -24.5 -55.5t-59.5 -24.5t-58.5 24.5t-23.5 55.5z" />
<glyph unicode="&#xcc;" horiz-adv-x="268" d="M88 1415h139l2 -1415h-139zM-127 1685h223l166 -223h-103z" />
<glyph unicode="&#xcd;" horiz-adv-x="315" d="M72 1415h139l2 -1415h-139zM70 1462l168 223h217l-279 -223h-106z" />
<glyph unicode="&#xce;" horiz-adv-x="282" d="M72 1415h139l2 -1415h-139z" />
<glyph unicode="&#xcf;" horiz-adv-x="282" d="M72 1415h139l2 -1415h-139zM-78 1517q0 35 24.5 57.5t59.5 22.5q33 0 58.5 -22.5t25.5 -57.5q0 -31 -25.5 -55.5t-58.5 -24.5q-35 0 -59.5 24.5t-24.5 55.5zM182 1517q0 35 23.5 57.5t58.5 22.5t59.5 -22.5t24.5 -57.5q0 -31 -24.5 -55.5t-59.5 -24.5t-58.5 24.5 t-23.5 55.5z" />
<glyph unicode="&#xd0;" horiz-adv-x="1337" d="M72 541v135h131v739h530q104 -2 195.5 -57t160 -150.5t107.5 -223.5t39 -273t-39 -273.5t-105.5 -223.5t-156.5 -152.5t-195 -61.5h-534l-2 541h-131zM342 139h96q49 0 97 2q51 0 102 1t100 1q74 2 139.5 47.5t114.5 122t77 179t28 219.5t-28 219t-77 179t-115.5 121 t-142.5 46h-391v-600h342v-135h-342v-402z" />
<glyph unicode="&#xd1;" horiz-adv-x="1099" d="M76 1415h125l659 -1116v1116h139l2 -1415h-127l-661 1122q0 -129 1 -263t1 -265v-594h-137zM311 1495l33 170q66 -84 119 -84q16 0 45 15h-2q59 33 127 33q72 0 154 -54l-35 -182q-35 47 -66 72.5t-53 25.5q-10 0 -24.5 -5t-24.5 -9h2q-23 -16 -56.5 -26.5t-64.5 -10.5 q-35 0 -75 13t-79 42z" />
<glyph unicode="&#xd2;" horiz-adv-x="1413" d="M43 707q0 150 51 279.5t138 227t205 153.5t253 56q137 0 255 -56t204 -152.5t135 -227.5t49 -280q0 -160 -51 -294t-145 -233q-88 -96 -202 -147t-245 -51t-247.5 55t-206 152.5t-141.5 230.5t-52 287zM184 707q0 -123 39 -229.5t107.5 -185.5t161 -124t198.5 -45 q109 0 202 45t161.5 124t107.5 185.5t39 229.5q0 127 -43 236.5t-121 186.5q-66 74 -155.5 113t-190.5 39q-106 0 -198.5 -45t-161 -123t-107.5 -182t-39 -225zM357 1685h223l166 -223h-103z" />
<glyph unicode="&#xd3;" horiz-adv-x="1413" d="M43 707q0 150 51 279.5t138 227t205 153.5t253 56q137 0 255 -56t204 -152.5t135 -227.5t49 -280q0 -160 -51 -294t-145 -233q-88 -96 -202 -147t-245 -51t-247.5 55t-206 152.5t-141.5 230.5t-52 287zM184 707q0 -123 39 -229.5t107.5 -185.5t161 -124t198.5 -45 q109 0 202 45t161.5 124t107.5 185.5t39 229.5q0 127 -43 236.5t-121 186.5q-66 74 -155.5 113t-190.5 39q-106 0 -198.5 -45t-161 -123t-107.5 -182t-39 -225zM651 1462l168 223h217l-279 -223h-106z" />
<glyph unicode="&#xd4;" horiz-adv-x="1413" d="M43 707q0 150 51 279.5t138 227t205 153.5t253 56q137 0 255 -56t204 -152.5t135 -227.5t49 -280q0 -160 -51 -294t-145 -233q-88 -96 -202 -147t-245 -51t-247.5 55t-206 152.5t-141.5 230.5t-52 287zM184 707q0 -123 39 -229.5t107.5 -185.5t161 -124t198.5 -45 q109 0 202 45t161.5 124t107.5 185.5t39 229.5q0 127 -43 236.5t-121 186.5q-66 74 -155.5 113t-190.5 39q-106 0 -198.5 -45t-161 -123t-107.5 -182t-39 -225zM451 1519l245 244l250 -246l-90 -88l-160 162l-161 -162z" />
<glyph unicode="&#xd5;" horiz-adv-x="1413" d="M43 707q0 150 51 279.5t138 227t205 153.5t253 56q137 0 255 -56t204 -152.5t135 -227.5t49 -280q0 -160 -51 -294t-145 -233q-88 -96 -202 -147t-245 -51t-247.5 55t-206 152.5t-141.5 230.5t-52 287zM184 707q0 -123 39 -229.5t107.5 -185.5t161 -124t198.5 -45 q109 0 202 45t161.5 124t107.5 185.5t39 229.5q0 127 -43 236.5t-121 186.5q-66 74 -155.5 113t-190.5 39q-106 0 -198.5 -45t-161 -123t-107.5 -182t-39 -225zM467 1497l33 170q66 -84 119 -84q16 0 45 15h-2q59 33 127 33q72 0 154 -54l-35 -182q-35 47 -66 72.5t-53 25.5 q-10 0 -24.5 -5t-24.5 -9h2q-23 -16 -56.5 -26.5t-64.5 -10.5q-35 0 -75 13t-79 42z" />
<glyph unicode="&#xd6;" horiz-adv-x="1413" d="M43 707q0 150 51 279.5t138 227t205 153.5t253 56q137 0 255 -56t204 -152.5t135 -227.5t49 -280q0 -160 -51 -294t-145 -233q-88 -96 -202 -147t-245 -51t-247.5 55t-206 152.5t-141.5 230.5t-52 287zM184 707q0 -123 39 -229.5t107.5 -185.5t161 -124t198.5 -45 q109 0 202 45t161.5 124t107.5 185.5t39 229.5q0 127 -43 236.5t-121 186.5q-66 74 -155.5 113t-190.5 39q-106 0 -198.5 -45t-161 -123t-107.5 -182t-39 -225zM481 1519q0 35 24.5 57.5t59.5 22.5q33 0 58.5 -22.5t25.5 -57.5q0 -31 -25.5 -55.5t-58.5 -24.5 q-35 0 -59.5 24.5t-24.5 55.5zM741 1519q0 35 23.5 57.5t58.5 22.5t59.5 -22.5t24.5 -57.5q0 -31 -24.5 -55.5t-59.5 -24.5t-58.5 24.5t-23.5 55.5z" />
<glyph unicode="&#xd7;" horiz-adv-x="751" d="M49 428l207 209l-205 205l94 98l209 -207l207 207l96 -96l-208 -207q16 -14 29 -28l30 -29l77 -76l72 -76l-94 -96l-209 209l-209 -209z" />
<glyph unicode="&#xd8;" horiz-adv-x="1413" d="M43 707q0 150 51 279.5t138 227t205 153.5t253 56q43 0 90 -7t88 -19q4 4 5 9t4 9h143l-25 -74q156 -98 247 -264t91 -370q0 -160 -51 -294t-145 -233q-88 -96 -202 -147t-245 -51q-94 0 -174 24v-6h-154l23 68q-74 43 -136.5 108.5t-108.5 148.5t-71.5 180.5 t-25.5 201.5zM184 707q0 -166 66.5 -298.5t177.5 -207.5l116 316l115 312l80 217l80 218q-33 10 -63.5 14t-65.5 4q-106 0 -198.5 -45t-161 -123t-107.5 -182t-39 -225zM559 141q33 -10 63.5 -14t67.5 -4q109 0 202 45t161.5 124t107.5 185.5t39 229.5q0 127 -43 236.5 t-121 186.5l-43 41.5t-45 34.5l-57 -154l-57 -155l-138 -378z" />
<glyph unicode="&#xd9;" horiz-adv-x="1224" d="M68 367v1048h145v-1046q8 -47 42 -91.5t86 -79t119.5 -55t143.5 -20.5q72 0 137.5 20.5t116.5 55t85 79t42 91.5v1046h139v-1048q-4 -80 -47 -150t-113.5 -122t-163.5 -82.5t-196 -30.5q-109 0 -204 30.5t-167.5 82.5t-115.5 122t-49 150zM299 1685h223l166 -223h-103z " />
<glyph unicode="&#xda;" horiz-adv-x="1224" d="M68 367v1048h145v-1046q8 -47 42 -91.5t86 -79t119.5 -55t143.5 -20.5q72 0 137.5 20.5t116.5 55t85 79t42 91.5v1046h139v-1048q-4 -80 -47 -150t-113.5 -122t-163.5 -82.5t-196 -30.5q-109 0 -204 30.5t-167.5 82.5t-115.5 122t-49 150zM531 1462l168 223h217 l-279 -223h-106z" />
<glyph unicode="&#xdb;" horiz-adv-x="1224" d="M68 367v1048h145v-1046q8 -47 42 -91.5t86 -79t119.5 -55t143.5 -20.5q72 0 137.5 20.5t116.5 55t85 79t42 91.5v1046h139v-1048q-4 -80 -47 -150t-113.5 -122t-163.5 -82.5t-196 -30.5q-109 0 -204 30.5t-167.5 82.5t-115.5 122t-49 150zM357 1519l245 244l250 -246 l-90 -88l-160 162l-161 -162z" />
<glyph unicode="&#xdc;" horiz-adv-x="1224" d="M68 367v1048h145v-1046q8 -47 42 -91.5t86 -79t119.5 -55t143.5 -20.5q72 0 137.5 20.5t116.5 55t85 79t42 91.5v1046h139v-1048q-4 -80 -47 -150t-113.5 -122t-163.5 -82.5t-196 -30.5q-109 0 -204 30.5t-167.5 82.5t-115.5 122t-49 150zM387 1517q0 35 24.5 57.5 t59.5 22.5q33 0 58.5 -22.5t25.5 -57.5q0 -31 -25.5 -55.5t-58.5 -24.5q-35 0 -59.5 24.5t-24.5 55.5zM647 1517q0 35 23.5 57.5t58.5 22.5t59.5 -22.5t24.5 -57.5q0 -31 -24.5 -55.5t-59.5 -24.5t-58.5 24.5t-23.5 55.5z" />
<glyph unicode="&#xdd;" horiz-adv-x="1394" d="M27 1415h182l471 -645l62 87l63 87l175 237l175 234h180l-583 -782v-307q0 -80 1 -165t1 -161h-142l-2 633l-82 108l-84 115l-103 139l-110 147l-107 143zM633 1462l168 223h217l-279 -223h-106z" />
<glyph unicode="&#xde;" horiz-adv-x="1095" d="M106 -385v1802h138v-420q113 59 264 60q104 -2 195.5 -45t160 -116t107.5 -169t39 -205q0 -113 -39 -211t-107.5 -171.5t-160 -115.5t-195.5 -42q-78 0 -143.5 17t-122.5 44v-428h-136zM238 829l6 -618q-2 -18 17.5 -33.5t56 -28t86 -19.5t104.5 -9q74 2 139.5 33.5 t114.5 86t77.5 126t28.5 153.5q0 80 -28.5 151.5t-77.5 126t-114.5 86t-139.5 31.5q-102 0 -179 -26.5t-91 -59.5z" />
<glyph unicode="&#xdf;" horiz-adv-x="1064" d="M88 -334v1729h457q80 -2 149.5 -31t121.5 -78t82 -113.5t30 -134.5q0 -94 -45 -170.5t-119 -128.5q86 -53 139 -143t53 -190q0 -82 -31.5 -154t-87 -127t-131 -87t-161.5 -34h-174l-135 131h309q57 2 106 25.5t86 60.5t58.5 84t21.5 101q0 51 -21.5 98t-61.5 84t-96 59.5 t-126 26.5h-285v-1008h-139zM227 809h318q51 2 96 19.5t78 48t52.5 71.5t19.5 90q0 43 -19.5 82t-52.5 70t-78 49t-96 23h-318v-453z" />
<glyph unicode="&#xe0;" horiz-adv-x="831" d="M82 301q0 68 26.5 126t72.5 102t107.5 70t131.5 26h207v32q0 98 -48.5 169t-125.5 75q-41 0 -68 -5t-55 -15q-4 -2 -8.5 -2t-8.5 -2t-11 -3.5t-15 -5.5t-25 -4l-33 123q4 2 14.5 6t14.5 6q47 16 88 26.5t109 10.5q63 -2 117.5 -30.5t96.5 -77.5t66.5 -112.5t28.5 -135.5 v-23q-2 -178 -2 -321q0 -61 -1 -119.5t-1 -105.5v-78v-33h-133v49q-47 -33 -97.5 -50t-109.5 -17q-70 0 -131.5 25.5t-107.5 68.5t-72.5 101t-26.5 124zM217 301q0 -39 16.5 -71.5t44 -57.5t64.5 -39t78 -14q43 0 81 14t65.5 39t44 58.5t16.5 72.5v182l-209 2q-41 0 -77 -15 t-63.5 -40.5t-44 -59.5t-16.5 -71zM217 1294h223l166 -223h-103z" />
<glyph unicode="&#xe1;" horiz-adv-x="831" d="M82 301q0 68 26.5 126t72.5 102t107.5 70t131.5 26h207v32q0 98 -48.5 169t-125.5 75q-41 0 -68 -5t-55 -15q-4 -2 -8.5 -2t-8.5 -2t-11 -3.5t-15 -5.5t-25 -4l-33 123q4 2 14.5 6t14.5 6q47 16 88 26.5t109 10.5q63 -2 117.5 -30.5t96.5 -77.5t66.5 -112.5t28.5 -135.5 v-23q-2 -178 -2 -321q0 -61 -1 -119.5t-1 -105.5v-78v-33h-133v49q-47 -33 -97.5 -50t-109.5 -17q-70 0 -131.5 25.5t-107.5 68.5t-72.5 101t-26.5 124zM217 301q0 -39 16.5 -71.5t44 -57.5t64.5 -39t78 -14q43 0 81 14t65.5 39t44 58.5t16.5 72.5v182l-209 2q-41 0 -77 -15 t-63.5 -40.5t-44 -59.5t-16.5 -71zM381 1071l168 223h217l-279 -223h-106z" />
<glyph unicode="&#xe2;" horiz-adv-x="831" d="M82 301q0 68 26.5 126t72.5 102t107.5 70t131.5 26h207v32q0 98 -48.5 169t-125.5 75q-41 0 -68 -5t-55 -15q-4 -2 -8.5 -2t-8.5 -2t-11 -3.5t-15 -5.5t-25 -4l-33 123q4 2 14.5 6t14.5 6q47 16 88 26.5t109 10.5q63 -2 117.5 -30.5t96.5 -77.5t66.5 -112.5t28.5 -135.5 v-23q-2 -178 -2 -321q0 -61 -1 -119.5t-1 -105.5v-78v-33h-133v49q-47 -33 -97.5 -50t-109.5 -17q-70 0 -131.5 25.5t-107.5 68.5t-72.5 101t-26.5 124zM217 301q0 -39 16.5 -71.5t44 -57.5t64.5 -39t78 -14q43 0 81 14t65.5 39t44 58.5t16.5 72.5v182l-209 2q-41 0 -77 -15 t-63.5 -40.5t-44 -59.5t-16.5 -71zM236 1128l245 244l250 -246l-90 -88l-160 162l-161 -162z" />
<glyph unicode="&#xe3;" horiz-adv-x="831" d="M90 330q0 68 26.5 126t73 102t107.5 69.5t131 25.5h207v33q0 98 -48 169t-126 75q-41 0 -67.5 -5t-55.5 -16q-4 -2 -8 -2t-8 -2t-11.5 -3t-15.5 -5t-25 -4l-32 123q4 2 14 6t14 6q47 16 88 26.5t109 10.5q63 -2 117.5 -30.5t96.5 -78t66.5 -113t28.5 -134.5v-23 q-2 -178 -2 -321q0 -61 -1 -120t-1 -106v-78v-32h-133v49q-47 -33 -97.5 -50.5t-109.5 -17.5q-70 0 -131 25.5t-107.5 68.5t-73 101.5t-26.5 124.5zM225 330q0 -39 16.5 -72t44 -57.5t64.5 -39t78 -14.5q43 0 81 14.5t65.5 39t44 58.5t16.5 73v182l-209 2q-41 0 -77 -15.5 t-63.5 -41t-44 -59t-16.5 -70.5zM229 1159l31 158q35 -35 65.5 -55.5t53.5 -20.5q12 0 24 4l25 8q27 16 57.5 21.5t59.5 5.5q41 0 79 -10t78 -35l-32 -156q-68 78 -121 78q-12 0 -25.5 -4t-23.5 -8h2q-25 -16 -56.5 -23.5t-60.5 -7.5q-78 0 -156 45z" />
<glyph unicode="&#xe4;" horiz-adv-x="831" d="M90 330q0 68 26.5 126t73 102t107.5 69.5t131 25.5h207v33q0 98 -48 169t-126 75q-41 0 -67.5 -5t-55.5 -16q-4 -2 -8 -2t-8 -2t-11.5 -3t-15.5 -5t-25 -4l-32 123q4 2 14 6t14 6q47 16 88 26.5t109 10.5q63 -2 117.5 -30.5t96.5 -78t66.5 -113t28.5 -134.5v-23 q-2 -178 -2 -321q0 -61 -1 -120t-1 -106v-78v-32h-133v49q-47 -33 -97.5 -50.5t-109.5 -17.5q-70 0 -131 25.5t-107.5 68.5t-73 101.5t-26.5 124.5zM225 330q0 -39 16.5 -72t44 -57.5t64.5 -39t78 -14.5q43 0 81 14.5t65.5 39t44 58.5t16.5 73v182l-209 2q-41 0 -77 -15.5 t-63.5 -41t-44 -59t-16.5 -70.5zM283 1257q0 31 24.5 55.5t59.5 24.5q33 0 58.5 -24.5t25.5 -55.5q0 -35 -26 -58t-58 -23q-35 0 -59.5 23t-24.5 58zM543 1257q0 31 23.5 55.5t58.5 24.5t59.5 -24.5t24.5 -55.5q0 -35 -25 -58t-59 -23q-35 0 -58.5 23t-23.5 58z" />
<glyph unicode="&#xe5;" horiz-adv-x="835" d="M39 301q0 68 26.5 126t72.5 102t107.5 70t131.5 26h207v32q0 98 -48.5 169t-125.5 75q-41 0 -68 -5t-55 -15q-4 -2 -8.5 -2t-8.5 -2t-11 -3.5t-15 -5.5t-25 -4l-33 123q4 2 14.5 6t14.5 6q47 16 88 26.5t109 10.5q63 -2 117.5 -30.5t96.5 -77.5t66.5 -112.5t28.5 -135.5 v-23q-2 -178 -2 -321q0 -61 -1 -119.5t-1 -105.5v-78v-33h-133v49q-47 -33 -97.5 -50t-109.5 -17q-70 0 -131.5 25.5t-107.5 68.5t-72.5 101t-26.5 124zM174 301q0 -39 16.5 -71.5t44 -57.5t64.5 -39t78 -14q43 0 81 14t65.5 39t44 58.5t16.5 72.5v182l-209 2q-41 0 -77 -15 t-63.5 -40.5t-44 -59.5t-16.5 -71z" />
<glyph unicode="&#xe6;" horiz-adv-x="1521" d="M70 301q0 68 26.5 126t73.5 101t108.5 69t133.5 26h196q2 20 10 43q-4 100 -56 164.5t-126 68.5q-119 0 -241 -37l-37 131q70 20 139.5 31.5t140.5 11.5q86 -4 155 -49t112 -127q57 86 136 132t171 46q86 0 161.5 -40t131 -109.5t87 -163.5t31.5 -205v-74h-673v-53 q14 -55 42.5 -105t66.5 -88t83 -60.5t92 -22.5q31 0 65 7t69.5 19.5t68.5 26.5l59 27l58 -119q-66 -35 -131.5 -58.5t-135.5 -35.5q-10 -2 -24 -2h-29q-162 0 -278 120q6 -31 21.5 -53t56.5 -49h-216v47q-45 -33 -97 -50t-109 -17q-72 0 -133.5 25.5t-108.5 68.5t-73.5 101 t-26.5 126zM209 301q0 -78 58.5 -130t144.5 -52q41 0 78.5 14t66.5 39t45 57.5t16 71.5v51q-16 51 -18 123v12h-188q-43 0 -80 -15t-64.5 -40.5t-43 -59.5t-15.5 -71zM752 580h534q-10 68 -34.5 126t-60.5 101t-82 67.5t-97 24.5t-97.5 -23.5t-81 -65.5t-57 -101t-24.5 -129 z" />
<glyph unicode="&#xe7;" horiz-adv-x="1009" d="M59 510q0 109 39 204t105.5 166.5t157 113.5t192.5 42q104 0 200.5 -48t172.5 -134l-97 -94q-59 63 -130.5 101t-145.5 38t-138.5 -30.5t-113.5 -83t-76.5 -124t-27.5 -151.5q0 -82 27.5 -152.5t76.5 -124t113.5 -84t138.5 -30.5q72 0 141.5 35.5t126.5 97.5l99 -96 q-66 -72 -150 -118t-176 -56l-2 -7q31 -14 62.5 -49t31.5 -78q0 -31 -28.5 -70.5t-94.5 -80.5l-133 104q18 2 42 5.5t44.5 9.5t34.5 13t14 15q0 27 -26.5 35t-42.5 8q-2 0 -4.5 -1t-6.5 -1h-36l4 107q-84 18 -156 65t-125 116t-83 155t-30 182z" />
<glyph unicode="&#xe8;" horiz-adv-x="933" d="M41 475v35q0 109 32.5 205t89 167.5t131.5 113.5t161 42t160.5 -35.5t130 -101t86 -157t30.5 -201.5v-76h-680q8 -72 35 -134.5t67 -110.5t90 -75.5t107 -27.5q37 0 79 9t82 22.5t75 32t61 36.5l56 -129q-59 -43 -143.5 -69.5t-160.5 -36.5q-10 -2 -27 -2h-26 q-86 0 -162.5 37.5t-135 104t-95.5 157t-43 194.5zM184 602h543q-12 63 -37.5 117.5t-61.5 94.5t-80 62.5t-93 22.5q-100 0 -176.5 -81t-94.5 -216zM215 1294h223l166 -223h-103z" />
<glyph unicode="&#xe9;" horiz-adv-x="933" d="M41 475v35q0 109 32.5 205t89 167.5t131.5 113.5t161 42t160.5 -35.5t130 -101t86 -157t30.5 -201.5v-76h-680q8 -72 35 -134.5t67 -110.5t90 -75.5t107 -27.5q37 0 79 9t82 22.5t75 32t61 36.5l56 -129q-59 -43 -143.5 -69.5t-160.5 -36.5q-10 -2 -27 -2h-26 q-86 0 -162.5 37.5t-135 104t-95.5 157t-43 194.5zM184 602h543q-12 63 -37.5 117.5t-61.5 94.5t-80 62.5t-93 22.5q-100 0 -176.5 -81t-94.5 -216zM402 1071l168 223h217l-279 -223h-106z" />
<glyph unicode="&#xea;" horiz-adv-x="933" d="M41 475v35q0 109 32.5 205t89 167.5t131.5 113.5t161 42t160.5 -35.5t130 -101t86 -157t30.5 -201.5v-76h-680q8 -72 35 -134.5t67 -110.5t90 -75.5t107 -27.5q37 0 79 9t82 22.5t75 32t61 36.5l56 -129q-59 -43 -143.5 -69.5t-160.5 -36.5q-10 -2 -27 -2h-26 q-86 0 -162.5 37.5t-135 104t-95.5 157t-43 194.5zM184 602h543q-12 63 -37.5 117.5t-61.5 94.5t-80 62.5t-93 22.5q-100 0 -176.5 -81t-94.5 -216zM209 1128l245 244l250 -246l-90 -88l-160 162l-161 -162z" />
<glyph unicode="&#xeb;" horiz-adv-x="933" d="M41 475v35q0 109 32.5 205t89 167.5t131.5 113.5t161 42t160.5 -35.5t130 -101t86 -157t30.5 -201.5v-76h-680q8 -72 35 -134.5t67 -110.5t90 -75.5t107 -27.5q37 0 79 9t82 22.5t75 32t61 36.5l56 -129q-59 -43 -143.5 -69.5t-160.5 -36.5q-10 -2 -27 -2h-26 q-86 0 -162.5 37.5t-135 104t-95.5 157t-43 194.5zM184 602h543q-12 63 -37.5 117.5t-61.5 94.5t-80 62.5t-93 22.5q-100 0 -176.5 -81t-94.5 -216zM243 1286q0 35 24.5 57.5t59.5 22.5q33 0 58.5 -22.5t25.5 -57.5q0 -31 -25.5 -55.5t-58.5 -24.5q-35 0 -59.5 24.5 t-24.5 55.5zM503 1286q0 35 23.5 57.5t58.5 22.5t59.5 -22.5t24.5 -57.5q0 -31 -24.5 -55.5t-59.5 -24.5t-58.5 24.5t-23.5 55.5z" />
<glyph unicode="&#xec;" horiz-adv-x="432" d="M-43 1323h223l166 -223h-102zM162 1024h133l2 -1024h-133z" />
<glyph unicode="&#xed;" horiz-adv-x="432" d="M55 1100l168 223h217l-278 -223h-107zM104 1024h136l2 -1024h-136z" />
<glyph unicode="&#xee;" horiz-adv-x="362" d="M-66 1157l246 244l250 -246l-90 -88l-160 162l-162 -162zM104 1024h134l2 -1024h-134z" />
<glyph unicode="&#xef;" horiz-adv-x="362" d="M-2 1286q0 35 24.5 57.5t59.5 22.5t59.5 -22.5t24.5 -57.5q0 -31 -24.5 -55.5t-59.5 -24.5t-59.5 24.5t-24.5 55.5zM104 1024h134l2 -1024h-134zM182 1286q0 35 23.5 57.5t60.5 22.5q33 0 57.5 -22.5t24.5 -57.5q0 -31 -24.5 -55.5t-57.5 -24.5q-37 0 -60.5 24.5 t-23.5 55.5z" />
<glyph unicode="&#xf0;" horiz-adv-x="1001" d="M61 961v14q0 88 34 166t92.5 136t136 93t168.5 35q88 0 163.5 -34t134 -92t94.5 -135t42 -163q4 -63 5 -136t1 -138v-52q0 -80 -5 -154.5t-20 -146.5q-16 -82 -57 -149.5t-101.5 -116.5t-136 -75.5t-157.5 -26.5q-100 0 -195.5 53t-165.5 139l121 98q51 -72 117.5 -111.5 t136.5 -39.5q59 0 110.5 20.5t92.5 55.5t68.5 83t39.5 103v-2q10 68 14.5 141.5t6.5 149.5q-59 -55 -140 -91t-174 -36q-86 0 -161.5 31.5t-134 87t-93.5 131.5t-37 162zM193 965q4 -59 28.5 -109.5t64.5 -89.5t91 -60.5t110 -21.5q61 0 116.5 22.5t96.5 62.5t64.5 94.5 t23.5 115.5q0 57 -24.5 109.5t-65.5 92.5t-94 62.5t-110 22.5q-63 0 -119 -24.5t-95.5 -66.5t-63 -96.5t-23.5 -113.5z" />
<glyph unicode="&#xf1;" horiz-adv-x="886" d="M72 1053h137v-86q98 102 242 102q72 0 135 -29.5t111 -82t77 -122t31 -149.5l6 -657h-135l-2 657q-2 51 -18.5 96t-45 78t-68.5 52.5t-85 19.5q-41 0 -81 -18.5t-74 -48t-58.5 -69.5t-34.5 -83v-73q0 -42 1 -88t1 -93v-84v-346h-137zM197 1147l34 158q31 -35 63 -55.5 t52 -20.5q14 0 27.5 4t23.5 8h-2q27 16 57.5 23.5t63.5 7.5q66 0 158 -51l-37 -156q-31 39 -62.5 59.5t-54.5 20.5q-14 0 -26.5 -3t-22.5 -7h2q-51 -31 -121 -31q-35 0 -75.5 10t-79.5 33z" />
<glyph unicode="&#xf2;" horiz-adv-x="1079" d="M29 506q0 111 37.5 207t103.5 167.5t154 113.5t188 42q98 0 185 -42t151.5 -113.5t102.5 -168t38 -206.5q0 -109 -38 -204t-102.5 -167t-151.5 -113.5t-185 -41.5q-100 0 -188 41.5t-154 113.5t-103.5 167t-37.5 204zM166 506q0 -80 26.5 -150.5t73.5 -124t110.5 -84 t135.5 -30.5q70 0 132.5 30.5t108.5 84t72.5 124t26.5 150.5q0 82 -26.5 153.5t-72.5 125t-108.5 84t-132.5 30.5q-72 0 -135.5 -30.5t-110.5 -84t-73.5 -125t-26.5 -153.5zM242 1294h223l166 -223h-103z" />
<glyph unicode="&#xf3;" horiz-adv-x="1079" d="M29 506q0 111 37.5 207t103.5 167.5t154 113.5t188 42q98 0 185 -42t151.5 -113.5t102.5 -168t38 -206.5q0 -109 -38 -204t-102.5 -167t-151.5 -113.5t-185 -41.5q-100 0 -188 41.5t-154 113.5t-103.5 167t-37.5 204zM166 506q0 -80 26.5 -150.5t73.5 -124t110.5 -84 t135.5 -30.5q70 0 132.5 30.5t108.5 84t72.5 124t26.5 150.5q0 82 -26.5 153.5t-72.5 125t-108.5 84t-132.5 30.5q-72 0 -135.5 -30.5t-110.5 -84t-73.5 -125t-26.5 -153.5zM457 1071l168 223h217l-279 -223h-106z" />
<glyph unicode="&#xf4;" horiz-adv-x="1050" d="M29 506q0 111 37.5 207t103.5 167.5t154 113.5t188 42q98 0 185 -42t151.5 -113.5t102.5 -168t38 -206.5q0 -109 -38 -204t-102.5 -167t-151.5 -113.5t-185 -41.5q-100 0 -188 41.5t-154 113.5t-103.5 167t-37.5 204zM166 506q0 -80 26.5 -150.5t73.5 -124t110.5 -84 t135.5 -30.5q70 0 132.5 30.5t108.5 84t72.5 124t26.5 150.5q0 82 -26.5 153.5t-72.5 125t-108.5 84t-132.5 30.5q-72 0 -135.5 -30.5t-110.5 -84t-73.5 -125t-26.5 -153.5zM269 1128l245 244l250 -246l-90 -88l-160 162l-161 -162z" />
<glyph unicode="&#xf5;" horiz-adv-x="1050" d="M29 506q0 111 37.5 207t103.5 167.5t154 113.5t188 42q98 0 185 -42t151.5 -113.5t102.5 -168t38 -206.5q0 -109 -38 -204t-102.5 -167t-151.5 -113.5t-185 -41.5q-100 0 -188 41.5t-154 113.5t-103.5 167t-37.5 204zM166 506q0 -80 26.5 -150.5t73.5 -124t110.5 -84 t135.5 -30.5q70 0 132.5 30.5t108.5 84t72.5 124t26.5 150.5q0 82 -26.5 153.5t-72.5 125t-108.5 84t-132.5 30.5q-72 0 -135.5 -30.5t-110.5 -84t-73.5 -125t-26.5 -153.5zM301 1171l33 170q66 -84 119 -84q16 0 45 15h-2q59 33 127 33q72 0 154 -54l-35 -182 q-35 47 -66 72.5t-53 25.5q-10 0 -24.5 -5t-24.5 -9h2q-23 -16 -56.5 -26.5t-64.5 -10.5q-35 0 -75 13t-79 42z" />
<glyph unicode="&#xf6;" horiz-adv-x="1079" d="M29 506q0 111 37.5 207t103.5 167.5t154 113.5t188 42q98 0 185 -42t151.5 -113.5t102.5 -168t38 -206.5q0 -109 -38 -204t-102.5 -167t-151.5 -113.5t-185 -41.5q-100 0 -188 41.5t-154 113.5t-103.5 167t-37.5 204zM166 506q0 -80 26.5 -150.5t73.5 -124t110.5 -84 t135.5 -30.5q70 0 132.5 30.5t108.5 84t72.5 124t26.5 150.5q0 82 -26.5 153.5t-72.5 125t-108.5 84t-132.5 30.5q-72 0 -135.5 -30.5t-110.5 -84t-73.5 -125t-26.5 -153.5zM327 1286q0 35 24.5 57.5t59.5 22.5q33 0 58.5 -22.5t25.5 -57.5q0 -31 -25.5 -55.5t-58.5 -24.5 q-35 0 -59.5 24.5t-24.5 55.5zM587 1286q0 35 23.5 57.5t58.5 22.5t59.5 -22.5t24.5 -57.5q0 -31 -24.5 -55.5t-59.5 -24.5t-58.5 24.5t-23.5 55.5z" />
<glyph unicode="&#xf7;" horiz-adv-x="870" d="M63 559v135h723v-135h-723zM326 270v181h180v-181h-180zM326 750v178h180v-178h-180z" />
<glyph unicode="&#xf8;" horiz-adv-x="1050" d="M29 506q0 111 37.5 207t103.5 167.5t154 113.5t188 42q104 0 196.5 -50t165.5 -136l-106 -88q-55 63 -122.5 100t-133.5 37q-72 0 -135.5 -30.5t-110.5 -84t-73.5 -125t-26.5 -153.5q0 -55 12 -109.5t39 -101.5l-102 -90q-41 76 -63.5 150.5t-22.5 150.5zM127 188l100 93 q57 -76 132 -120t153 -44q70 0 132.5 30.5t108.5 84t72.5 124t26.5 150.5q0 61 -19.5 121.5t-54.5 117.5l107 93q49 -76 76.5 -160t27.5 -172q0 -109 -38 -204t-102.5 -167t-151.5 -113.5t-185 -41.5q-113 0 -213 55t-172 153z" />
<glyph unicode="&#xf9;" horiz-adv-x="921" d="M76 1024h133l4 -657q2 -49 19.5 -94.5t46 -79t68.5 -53t87 -19.5q43 0 82 18.5t70.5 49t54.5 70.5t33 81v684h135v-1024h-133l-2 84q-47 -47 -108.5 -74.5t-133.5 -27.5q-74 0 -136.5 29.5t-109.5 81.5t-74.5 123t-29.5 151zM166 1294h223l166 -223h-103z" />
<glyph unicode="&#xfa;" horiz-adv-x="921" d="M76 1024h133l4 -657q2 -49 19.5 -94.5t46 -79t68.5 -53t87 -19.5q43 0 82 18.5t70.5 49t54.5 70.5t33 81v684h135v-1024h-133l-2 84q-47 -47 -108.5 -74.5t-133.5 -27.5q-74 0 -136.5 29.5t-109.5 81.5t-74.5 123t-29.5 151zM348 1071l168 223h217l-279 -223h-106z" />
<glyph unicode="&#xfb;" horiz-adv-x="921" d="M76 1024h133l4 -657q2 -49 19.5 -94.5t46 -79t68.5 -53t87 -19.5q43 0 82 18.5t70.5 49t54.5 70.5t33 81v684h135v-1024h-133l-2 84q-47 -47 -108.5 -74.5t-133.5 -27.5q-74 0 -136.5 29.5t-109.5 81.5t-74.5 123t-29.5 151zM203 1128l245 244l250 -246l-90 -88l-160 162 l-161 -162z" />
<glyph unicode="&#xfc;" horiz-adv-x="921" d="M76 1024h133l4 -657q2 -49 19.5 -94.5t46 -79t68.5 -53t87 -19.5q43 0 82 18.5t70.5 49t54.5 70.5t33 81v684h135v-1024h-133l-2 84q-47 -47 -108.5 -74.5t-133.5 -27.5q-74 0 -136.5 29.5t-109.5 81.5t-74.5 123t-29.5 151zM237 1286q0 35 24.5 57.5t59.5 22.5 q33 0 58.5 -22.5t25.5 -57.5q0 -31 -25.5 -55.5t-58.5 -24.5q-35 0 -59.5 24.5t-24.5 55.5zM497 1286q0 35 23.5 57.5t58.5 22.5t59.5 -22.5t24.5 -57.5q0 -31 -24.5 -55.5t-59.5 -24.5t-58.5 24.5t-23.5 55.5z" />
<glyph unicode="&#xfd;" horiz-adv-x="1095" d="M88 -373l20 133q55 -16 91 -16q80 0 149.5 83t128.5 273l-95 226l-95 227l-99 243l-98 240h141l312 -770l58 155l60 154l93 232l92 229h147l-387 -950l2 2q-10 -29 -22.5 -57.5t-22.5 -57.5l-41 -112q-23 -59 -58.5 -105.5t-79.5 -79t-95.5 -49t-100.5 -16.5 q-45 0 -100 16zM477 1071l168 223h217l-279 -223h-106z" />
<glyph unicode="&#xfe;" horiz-adv-x="1058" d="M106 -381v1778h138v-412q53 27 117.5 41t142.5 14q102 -2 192 -45t157 -113.5t105.5 -165.5t38.5 -202q0 -111 -38.5 -208t-105.5 -168.5t-157 -113.5t-192 -42q-78 0 -142.5 17t-117.5 42v-422h-138zM240 819l4 -612q-2 -16 18.5 -31.5t55 -28t83 -19.5t103.5 -9 q72 2 136.5 33.5t113.5 85t77.5 124t28.5 150.5q0 78 -28.5 148.5t-77.5 124t-114 85t-136 31.5q-96 0 -170 -25.5t-94 -56.5z" />
<glyph unicode="&#xff;" horiz-adv-x="1095" d="M88 -373l20 133q55 -16 91 -16q80 0 149.5 83t128.5 273l-95 226l-95 227l-99 243l-98 240h141l312 -770l58 155l60 154l93 232l92 229h147l-387 -950l2 2q-10 -29 -22.5 -57.5t-22.5 -57.5l-41 -112q-23 -59 -58.5 -105.5t-79.5 -79t-95.5 -49t-100.5 -16.5 q-45 0 -100 16zM346 1286q0 35 24.5 57.5t59.5 22.5q33 0 58.5 -22.5t25.5 -57.5q0 -31 -25.5 -55.5t-58.5 -24.5q-35 0 -59.5 24.5t-24.5 55.5zM606 1286q0 35 23.5 57.5t58.5 22.5t59.5 -22.5t24.5 -57.5q0 -31 -24.5 -55.5t-59.5 -24.5t-58.5 24.5t-23.5 55.5z" />
<glyph unicode="&#x152;" horiz-adv-x="2162" d="M51 707q0 150 50.5 279.5t138.5 227t204.5 153.5t249.5 56q334 0 510 -264v256h842v-135h-703v-459h601v-139h-601v-543h703l2 -139h-842l-2 254q-14 -16 -28.5 -35.5t-30.5 -38.5q-88 -96 -202 -147t-249 -51q-129 0 -245.5 55t-204.5 152.5t-140.5 230.5t-52.5 287z M190 707q0 -123 39 -229.5t106.5 -185.5t160 -124t198.5 -45q100 0 188.5 43t156 115.5t110.5 170t55 205.5v99q-10 115 -51 209t-109 165q-66 74 -155.5 113t-194.5 39q-104 0 -196 -45t-160 -123t-108 -182t-40 -225z" />
<glyph unicode="&#x153;" horiz-adv-x="1802" d="M39 506q0 111 38 207t104.5 167.5t154.5 113.5t186 42q63 0 124 -20.5t114 -55t97 -82t77 -102.5q53 115 147.5 188.5t206.5 73.5q86 0 162 -40t131 -109.5t87 -163.5t32 -205v-74h-686q6 -72 31.5 -132t64.5 -103t90 -68.5t111 -25.5q31 0 68.5 9t77.5 22.5t77 29.5 l63 29l54 -119q-59 -35 -138 -63.5t-149 -40.5q-10 -2 -25 -2h-28q-121 0 -219.5 72.5t-155.5 189.5q-33 -55 -77 -103.5t-97 -84.5t-114.5 -56t-125.5 -20q-98 0 -186 41.5t-154.5 113.5t-104.5 167t-38 204zM176 506q0 -80 26.5 -150.5t74 -124t111 -84t134.5 -30.5 q70 0 131.5 30.5t107.5 84t72.5 124t26.5 150.5q0 82 -26.5 153.5t-72.5 125t-107.5 84t-131.5 30.5q-72 0 -135 -30.5t-110.5 -84t-74 -125t-26.5 -153.5zM1018 580h545q-10 68 -34 126t-60.5 101t-83 67.5t-97.5 24.5q-47 0 -91 -24.5t-80 -67.5t-61.5 -101t-37.5 -126z " />
<glyph unicode="&#x178;" horiz-adv-x="1394" d="M27 1415h182l471 -645l62 87l63 87l175 237l175 234h180l-583 -782v-307q0 -80 1 -165t1 -161h-142l-2 633l-82 108l-84 115l-103 139l-110 147l-107 143zM471 1497q0 35 24.5 57.5t59.5 22.5q33 0 58.5 -22.5t25.5 -57.5q0 -31 -25.5 -55.5t-58.5 -24.5 q-35 0 -59.5 24.5t-24.5 55.5zM731 1497q0 35 23.5 57.5t58.5 22.5t59.5 -22.5t24.5 -57.5q0 -31 -24.5 -55.5t-59.5 -24.5t-58.5 24.5t-23.5 55.5z" />
<glyph unicode="&#x2c6;" horiz-adv-x="548" d="M29 1128l245 244l250 -246l-90 -88l-160 162l-161 -162z" />
<glyph unicode="&#x2da;" horiz-adv-x="1705" />
<glyph unicode="&#x2dc;" horiz-adv-x="684" d="M102 1171l33 170q66 -84 119 -84q16 0 45 15h-2q59 33 127 33q72 0 154 -54l-35 -182q-35 47 -66 72.5t-53 25.5q-10 0 -24.5 -5t-24.5 -9h2q-23 -16 -56.5 -26.5t-64.5 -10.5q-35 0 -75 13t-79 42z" />
<glyph unicode="&#x2000;" horiz-adv-x="880" />
<glyph unicode="&#x2001;" horiz-adv-x="1763" />
<glyph unicode="&#x2002;" horiz-adv-x="880" />
<glyph unicode="&#x2003;" horiz-adv-x="1763" />
<glyph unicode="&#x2004;" horiz-adv-x="587" />
<glyph unicode="&#x2005;" horiz-adv-x="440" />
<glyph unicode="&#x2006;" horiz-adv-x="292" />
<glyph unicode="&#x2007;" horiz-adv-x="292" />
<glyph unicode="&#x2008;" horiz-adv-x="219" />
<glyph unicode="&#x2009;" horiz-adv-x="352" />
<glyph unicode="&#x200a;" horiz-adv-x="96" />
<glyph unicode="&#x2010;" horiz-adv-x="862" d="M63 530v136h723v-136h-723z" />
<glyph unicode="&#x2011;" horiz-adv-x="862" d="M63 530v136h723v-136h-723z" />
<glyph unicode="&#x2012;" horiz-adv-x="862" d="M63 530v136h723v-136h-723z" />
<glyph unicode="&#x2013;" horiz-adv-x="851" d="M63 530v136h723v-136h-723z" />
<glyph unicode="&#x2014;" horiz-adv-x="1089" d="M68 530v136h944v-136h-944z" />
<glyph unicode="&#x2018;" horiz-adv-x="307" d="M41 1178l104 223l58 -29l-21 -160l60 -122l-133 -62z" />
<glyph unicode="&#x2019;" horiz-adv-x="325" d="M37 1098l67 141l-16 145l148 11l18 -160l-172 -180z" />
<glyph unicode="&#x201a;" horiz-adv-x="352" d="M45 -94l82 131l-2 143h149v-164l-194 -166z" />
<glyph unicode="&#x201c;" horiz-adv-x="446" d="M45 1235l18 160l148 -11l-18 -145l28.5 -61.5l28.5 -61.5q2 -4 4 -9t4 -9l-41 -43zM186 1235l19 160l147 -11l-18 -145l28.5 -61.5l28.5 -61.5q2 -4 4 -9t4 -9l-41 -43z" />
<glyph unicode="&#x201d;" horiz-adv-x="485" d="M41 1098l65 141l-18 145l148 11l18 -160l-172 -180zM182 1098l66 141l-19 145l148 11l18 -160l-172 -180z" />
<glyph unicode="&#x201e;" horiz-adv-x="473" d="M29 -94l77 131l-4 145h150v-159l-189 -168zM172 -96l78 133v145h145v-164l-190 -168z" />
<glyph unicode="&#x2022;" horiz-adv-x="428" d="M63 770q0 59 45.5 104.5t104.5 45.5q29 0 56.5 -12.5t48 -33t32.5 -47t12 -57.5q0 -29 -12 -54.5t-32.5 -45t-48 -31.5t-56.5 -12q-31 0 -57.5 12t-47 31.5t-33 45t-12.5 54.5z" />
<glyph unicode="&#x2026;" horiz-adv-x="890" d="M66 180h180l2 -180h-180zM346 180h180l2 -180h-180zM627 180h180l2 -180h-180z" />
<glyph unicode="&#x202f;" horiz-adv-x="352" />
<glyph unicode="&#x2039;" horiz-adv-x="720" d="M61 508l512 516l97 -96l-416 -420l95 -95l102 -100l110 -109l109 -106l-95 -100z" />
<glyph unicode="&#x203a;" horiz-adv-x="702" d="M61 98l418 410l-209 211l-209 209l99 96l510 -516l-512 -510z" />
<glyph unicode="&#x205f;" horiz-adv-x="440" />
<glyph unicode="&#x20ac;" horiz-adv-x="1525" d="M70 506v137h192v6q-2 10 -2 23v18q0 18 1 39t3 37v6h-194v139h219q33 111 95 201t145 154.5t184.5 100.5t212.5 36q147 0 277 -67.5t235 -176.5l-99 -98q-88 94 -190 148.5t-223 54.5q-82 0 -157 -27t-139.5 -73t-113.5 -111.5t-80 -141.5h651v-139h-684q-6 -37 -6 -82 v-15q0 -7 2 -18q0 -6 1 -9t1 -5h686v-137h-657q27 -80 77 -150.5t115.5 -123t143.5 -82t160 -29.5q119 0 222 56t191 157l99 -109q-104 -109 -234.5 -176t-277.5 -67q-119 0 -224.5 38.5t-189.5 108.5t-144.5 166t-86.5 211h-211z" />
<glyph unicode="&#x2122;" horiz-adv-x="854" d="M41 1268v110h346v-110h-113v-338h-116v338h-117zM369 930v448h92l94 -155q10 16 23.5 42.5t23.5 43.5l9 13q5 7 10 15q6 10 14 21.5t12 19.5h92v-448h-114v198q-14 -23 -23.5 -41t-15.5 -28h-64l-39 65v-194h-114z" />
<glyph unicode="&#xe000;" horiz-adv-x="1025" d="M0 1025h1025v-1025h-1025v1025z" />
<glyph unicode="&#xfb01;" horiz-adv-x="1034" d="M55 864v137h144v48q2 72 28.5 136t68.5 112.5t96 77t114 28.5q29 0 56.5 -1t74.5 -7l-41 -140q-39 10 -58.5 11.5t-31.5 1.5q-72 -4 -123 -73t-51 -169v-25h252l2 -1001h-133l-2 864h-119v-418q0 -111 1 -226.5t1 -219.5h-131l-2 864h-146z" />
<glyph unicode="&#xfb02;" horiz-adv-x="1003" d="M55 864v137h144q0 4 -1 7.5t-1 7.5v6v27q4 74 29.5 137t67.5 111.5t96 76t116 29.5h123l2 -1403h-139l-3 864h-157v-418q0 -111 1 -226.5t1 -219.5h-131l-2 864h-146zM332 1001h157v265q-68 -14 -112.5 -81t-44.5 -159v-25zM489 1280l17 -12h45l-62 61v-49z" />
<glyph unicode="&#xfb03;" horiz-adv-x="1691" d="M1427 1286q0 35 24.5 57.5t59.5 22.5q33 0 58.5 -22.5t25.5 -57.5q0 -31 -25.5 -55.5t-58.5 -24.5q-35 0 -59.5 24.5t-24.5 55.5zM1443 1024h133l3 -1024h-134zM727 864v137h144v48q2 72 28.5 136t68.5 112.5t96 77t114 28.5q29 0 56.5 -1t74.5 -7l-41 -140 q-39 10 -58.5 11.5t-31.5 1.5q-72 -4 -123 -73t-51 -169v-25h254v-137h-254l2 -864h-133v864h-146zM55 864v137h144v48q2 72 28.5 136t68.5 112.5t96 77t114 28.5q29 0 56.5 -1t74.5 -7l-41 -140q-39 10 -58.5 11.5t-31.5 1.5q-72 -4 -123 -73t-51 -169v-25h254v-137h-254 l2 -864h-133v864h-146z" />
<glyph unicode="&#xfb04;" horiz-adv-x="1675" d="M1447 1538h136l2 -1538h-136zM727 864v137h144v48q2 72 28.5 136t68.5 112.5t96 77t114 28.5q29 0 56.5 -1t74.5 -7l-41 -140q-39 10 -58.5 11.5t-31.5 1.5q-72 -4 -123 -73t-51 -169v-25h254v-137h-254l2 -864h-133v864h-146zM55 864v137h144v48q2 72 28.5 136 t68.5 112.5t96 77t114 28.5q29 0 56.5 -1t74.5 -7l-41 -140q-39 10 -58.5 11.5t-31.5 1.5q-72 -4 -123 -73t-51 -169v-25h254v-137h-254l2 -864h-133v864h-146z" />
</font>
</defs>
</svg>
