<?xml version="1.0" encoding="UTF-8" standalone="no"?>
<!-- Created with Inkscape (http://www.inkscape.org/) -->

<svg
   xmlns:dc="http://purl.org/dc/elements/1.1/"
   xmlns:cc="http://creativecommons.org/ns#"
   xmlns:rdf="http://www.w3.org/1999/02/22-rdf-syntax-ns#"
   xmlns:svg="http://www.w3.org/2000/svg"
   xmlns="http://www.w3.org/2000/svg"
   xmlns:sodipodi="http://sodipodi.sourceforge.net/DTD/sodipodi-0.dtd"
   xmlns:inkscape="http://www.inkscape.org/namespaces/inkscape"
   id="svg2"
   version="1.1"
   inkscape:version="0.48.0 r9654"
   width="31"
   height="31"
   xml:space="preserve"
   sodipodi:docname="issues.svg"><metadata
     id="metadata8"><rdf:RDF><cc:Work
         rdf:about=""><dc:format>image/svg+xml</dc:format><dc:type
           rdf:resource="http://purl.org/dc/dcmitype/StillImage" /><dc:title /></cc:Work></rdf:RDF></metadata><defs
     id="defs6"><linearGradient
       id="linearGradient10896"><stop
         style="stop-color:#000000;stop-opacity:1;"
         offset="0"
         id="stop10898" /><stop
         style="stop-color:#000000;stop-opacity:0;"
         offset="1"
         id="stop10900" /></linearGradient><clipPath
       clipPathUnits="userSpaceOnUse"
       id="clipPath664"><path
         d="m 0,2880 2880,0 L 2880,0 0,0 0,2880 z"
         id="path666"
         inkscape:connector-curvature="0" /></clipPath><clipPath
       clipPathUnits="userSpaceOnUse"
       id="clipPath820"><path
         d="m 0,2880 2880,0 L 2880,0 0,0 0,2880 z"
         id="path822"
         inkscape:connector-curvature="0" /></clipPath></defs><sodipodi:namedview
     pagecolor="#878389"
     bordercolor="#666666"
     borderopacity="1"
     objecttolerance="10"
     gridtolerance="10"
     guidetolerance="10"
     inkscape:pageopacity="0"
     inkscape:pageshadow="2"
     inkscape:window-width="990"
     inkscape:window-height="1016"
     id="namedview4"
     showgrid="false"
     inkscape:zoom="1"
     inkscape:cx="-128.28389"
     inkscape:cy="173.12508"
     inkscape:window-x="2339"
     inkscape:window-y="0"
     inkscape:window-maximized="0"
     inkscape:current-layer="g10"
     width="120px"
     fit-margin-top="0"
     fit-margin-left="0"
     fit-margin-right="0"
     fit-margin-bottom="0" /><g
     id="g10"
     inkscape:groupmode="layer"
     inkscape:label="Pictos 1"
     transform="matrix(1.25,0,0,-1.25,-14.783894,132.69718)"><g
       id="g3510"
       transform="matrix(0.33184276,0,0,0.33184276,34.98078,94.576223)"
       style="fill:none;stroke:#ffffff;stroke-opacity:1"><path
         d="m 0,0 -11.761,0 c -0.364,2.262 -1.005,4.416 -1.885,6.415 l 9.252,7.997 c 0.607,0.522 0.959,1.291 0.959,2.091 l 0,9.215 c 0,1.527 -1.239,2.764 -2.763,2.764 -1.528,0 -2.765,-1.237 -2.765,-2.764 l -0.002,-7.949 -7.511,-6.492 c -1.366,1.827 -2.967,3.428 -4.751,4.745 0.232,0.866 0.368,1.766 0.368,2.697 0,6.27 -5.575,11.354 -12.455,11.354 -6.878,0 -12.454,-5.084 -12.454,-11.354 0,-0.959 0.146,-1.886 0.391,-2.776 -1.771,-1.325 -3.362,-2.929 -4.716,-4.761 l -7.621,6.585 0,7.949 c 0,1.53 -1.239,2.765 -2.765,2.765 -1.527,0 -2.763,-1.235 -2.763,-2.765 l -0.002,-9.215 c 0,-0.799 0.351,-1.563 0.959,-2.091 L -52.9,6.3 C -53.755,4.334 -54.377,2.219 -54.733,0 L -66.51,0 c -1.528,0 -2.763,-1.235 -2.763,-2.764 0,-1.525 1.235,-2.763 2.763,-2.763 l 11.45,0 c 0.112,-2.619 0.595,-5.128 1.388,-7.467 l -8.615,-7.445 c -0.606,-0.524 -0.956,-1.291 -0.956,-2.092 l 0,-9.214 c 0,-1.526 1.237,-2.767 2.764,-2.767 1.528,0 2.765,1.241 2.765,2.767 l 0,7.951 6.484,5.603 c 3.939,-6.379 10.523,-10.562 17.983,-10.562 7.419,0 13.971,4.139 17.918,10.459 l 6.364,-5.5 0,-7.951 c 0,-1.526 1.238,-2.767 2.767,-2.767 1.525,0 2.764,1.241 2.764,2.767 l -0.002,9.214 c 0,0.801 -0.351,1.568 -0.956,2.092 l -8.473,7.323 c 0.817,2.374 1.317,4.924 1.43,7.589 l 11.435,0 c 1.528,0 2.764,1.238 2.764,2.763 C 2.764,-1.235 1.528,0 0,0"
         style="fill:none;stroke:#ffffff;stroke-opacity:1"
         id="path3512"
         inkscape:connector-curvature="0" /></g></g></svg>