<?xml version="1.0" encoding="UTF-8" standalone="no"?>
<!-- Created with Inkscape (http://www.inkscape.org/) -->

<svg
   xmlns:dc="http://purl.org/dc/elements/1.1/"
   xmlns:cc="http://creativecommons.org/ns#"
   xmlns:rdf="http://www.w3.org/1999/02/22-rdf-syntax-ns#"
   xmlns:svg="http://www.w3.org/2000/svg"
   xmlns="http://www.w3.org/2000/svg"
   xmlns:sodipodi="http://sodipodi.sourceforge.net/DTD/sodipodi-0.dtd"
   xmlns:inkscape="http://www.inkscape.org/namespaces/inkscape"
   id="svg2"
   version="1.1"
   inkscape:version="0.48.0 r9654"
   width="31"
   height="31"
   xml:space="preserve"
   sodipodi:docname="settings.svg"><metadata
     id="metadata8"><rdf:RDF><cc:Work
         rdf:about=""><dc:format>image/svg+xml</dc:format><dc:type
           rdf:resource="http://purl.org/dc/dcmitype/StillImage" /><dc:title></dc:title></cc:Work></rdf:RDF></metadata><defs
     id="defs6"><linearGradient
       id="linearGradient10896"><stop
         style="stop-color:#000000;stop-opacity:1;"
         offset="0"
         id="stop10898" /><stop
         style="stop-color:#000000;stop-opacity:0;"
         offset="1"
         id="stop10900" /></linearGradient><clipPath
       clipPathUnits="userSpaceOnUse"
       id="clipPath664"><path
         d="m 0,2880 2880,0 L 2880,0 0,0 0,2880 z"
         id="path666"
         inkscape:connector-curvature="0" /></clipPath><clipPath
       clipPathUnits="userSpaceOnUse"
       id="clipPath820"><path
         d="m 0,2880 2880,0 L 2880,0 0,0 0,2880 z"
         id="path822"
         inkscape:connector-curvature="0" /></clipPath></defs><sodipodi:namedview
     pagecolor="#878389"
     bordercolor="#666666"
     borderopacity="1"
     objecttolerance="10"
     gridtolerance="10"
     guidetolerance="10"
     inkscape:pageopacity="0"
     inkscape:pageshadow="2"
     inkscape:window-width="990"
     inkscape:window-height="1016"
     id="namedview4"
     showgrid="false"
     inkscape:zoom="1"
     inkscape:cx="-129.31573"
     inkscape:cy="256.30717"
     inkscape:window-x="2339"
     inkscape:window-y="0"
     inkscape:window-maximized="0"
     inkscape:current-layer="g10"
     width="120px"
     fit-margin-top="0"
     fit-margin-left="0"
     fit-margin-right="0"
     fit-margin-bottom="0" /><g
     id="g10"
     inkscape:groupmode="layer"
     inkscape:label="Pictos 1"
     transform="matrix(1.25,0,0,-1.25,-14.815727,49.515093)"><g
       id="g3513"
       transform="matrix(0.33184276,0,0,0.33184276,-86.857011,-177.43646)"
       style="fill:none;stroke:#ffffff;stroke-opacity:1"><g
         transform="translate(356.42768,634.16928)"
         id="g2306"
         style="fill:none;stroke:#ffffff;stroke-opacity:1"><path
           inkscape:connector-curvature="0"
           id="path2308"
           style="fill:none;stroke:#ffffff;stroke-opacity:1"
           d="M 0,0 C -2.306,0 -4.175,1.869 -4.175,4.175 -4.175,6.48 -2.306,8.349 0,8.349 2.306,8.349 4.175,6.48 4.175,4.175 4.175,1.869 2.306,0 0,0 M 12.71,6.599 8.692,7.338 C 8.303,7.41 8.165,7.737 8.386,8.066 l 2.304,3.416 c 0.222,0.329 0.174,0.827 -0.106,1.107 l -2.211,2.21 c -0.28,0.28 -0.778,0.328 -1.106,0.107 L 3.851,12.601 C 3.521,12.379 3.194,12.518 3.122,12.907 l -0.739,4.019 c -0.072,0.389 -0.455,0.708 -0.851,0.708 l -3.127,0 c -0.396,0 -0.779,-0.319 -0.851,-0.708 L -3.187,12.907 C -3.258,12.518 -3.585,12.38 -3.914,12.602 l -3.416,2.304 c -0.328,0.221 -0.826,0.173 -1.107,-0.107 l -2.21,-2.21 c -0.281,-0.281 -0.329,-0.779 -0.107,-1.107 L -8.45,8.066 C -8.228,7.737 -8.366,7.41 -8.755,7.338 l -4.018,-0.739 c -0.39,-0.073 -0.708,-0.455 -0.708,-0.852 l 0,-3.126 c 0,-0.396 0.318,-0.779 0.708,-0.851 l 4.018,-0.74 c 0.391,-0.072 0.527,-0.399 0.307,-0.727 l -2.306,-3.417 c -0.222,-0.329 -0.174,-0.826 0.107,-1.107 l 2.21,-2.211 c 0.281,-0.28 0.779,-0.329 1.107,-0.107 l 3.416,2.305 c 0.329,0.221 0.656,0.084 0.727,-0.305 l 0.741,-4.019 c 0.072,-0.389 0.455,-0.708 0.851,-0.708 l 3.127,0 c 0.396,0 0.779,0.319 0.851,0.708 l 0.739,4.019 c 0.072,0.389 0.399,0.526 0.729,0.305 l 3.416,-2.305 c 0.328,-0.222 0.826,-0.173 1.106,0.107 l 2.211,2.209 c 0.28,0.283 0.328,0.78 0.106,1.109 L 8.386,0.303 C 8.164,0.631 8.302,0.958 8.69,1.03 l 4.02,0.74 c 0.389,0.072 0.708,0.455 0.708,0.851 l 0,3.126 c 0,0.397 -0.319,0.779 -0.708,0.852" /></g><g
         transform="translate(324.92768,597.05498)"
         id="g2310"
         style="fill:none;stroke:#ffffff;stroke-opacity:1"><path
           inkscape:connector-curvature="0"
           id="path2312"
           style="fill:none;stroke:#ffffff;stroke-opacity:1"
           d="m 0,0 c -5.384,0 -9.748,4.365 -9.748,9.749 0,5.383 4.364,9.747 9.748,9.747 5.384,0 9.748,-4.364 9.748,-9.747 C 9.748,4.365 5.384,0 0,0 m 25.56,14.612 -8.059,1.486 c -0.781,0.143 -1.058,0.799 -0.613,1.458 l 4.623,6.853 c 0.443,0.659 0.347,1.657 -0.215,2.22 l -4.434,4.434 c -0.562,0.562 -1.56,0.657 -2.219,0.212 L 7.79,26.652 C 7.13,26.208 6.474,26.485 6.329,27.267 L 4.847,35.326 C 4.702,36.107 3.935,36.747 3.14,36.747 l -6.272,0 c -0.795,0 -1.562,-0.64 -1.707,-1.421 l -1.483,-8.059 c -0.144,-0.781 -0.8,-1.058 -1.46,-0.614 l -6.852,4.622 c -0.659,0.445 -1.658,0.35 -2.22,-0.212 l -4.434,-4.435 c -0.563,-0.563 -0.658,-1.562 -0.214,-2.22 l 4.622,-6.852 c 0.444,-0.659 0.168,-1.315 -0.613,-1.458 l -8.059,-1.486 c -0.781,-0.143 -1.42,-0.911 -1.42,-1.706 l 0,-6.27 c 0,-0.795 0.639,-1.563 1.42,-1.706 l 8.061,-1.485 c 0.781,-0.144 1.056,-0.801 0.613,-1.459 l -4.624,-6.854 c -0.444,-0.659 -0.349,-1.657 0.214,-2.22 l 4.434,-4.433 c 0.562,-0.563 1.561,-0.659 2.22,-0.214 l 6.852,4.621 c 0.66,0.445 1.316,0.168 1.46,-0.613 l 1.483,-8.057 c 0.145,-0.781 0.912,-1.421 1.707,-1.421 l 6.272,0 c 0.795,0 1.562,0.64 1.707,1.421 l 1.482,8.058 c 0.145,0.782 0.801,1.058 1.461,0.613 l 6.853,-4.622 c 0.659,-0.445 1.657,-0.349 2.219,0.214 l 4.434,4.432 c 0.562,0.564 0.658,1.562 0.214,2.221 l -4.624,6.854 c -0.445,0.658 -0.168,1.315 0.613,1.459 L 25.56,4.93 c 0.781,0.143 1.419,0.911 1.419,1.706 l 0,6.27 c 0,0.795 -0.638,1.563 -1.419,1.706" /></g></g></g></svg>